<svg height="47" viewBox="0 0 71 47" width="71" xmlns="http://www.w3.org/2000/svg"><g fill="none"><path d="m23.28 0h24v47h-24z" fill="#ed5565"/><path d="m6.65 0c-1.68850883-.00265489-3.30876993.6662424-4.50366499 1.85926164-1.19489505 1.19301924-1.8663371 2.81222744-1.86633501 4.50073836v34.28c-.00000209 1.6885109.67143996 3.3077191 1.86633501 4.5007384 1.19489506 1.1930192 2.81515616 1.8619165 4.50366499 1.8592616l16.63.0000079v-47.00001577z" fill="#434a54"/><path d="m63.92 0h-16.64v47h16.64c3.512531 0 6.36-2.847469 6.36-6.36v-34.28c0-3.51253101-2.847469-6.36-6.36-6.36z" fill="#57a863"/><path d="m40.45 16.9c2.8482907 2.8517376 2.846428 7.4722368-.0041611 10.321677s-7.4710887 2.8494402-10.3216778 0-2.8524518-7.4699394-.0041611-10.321677l-1.91-1.9c-3.9020466 3.90639-3.8996994 10.2360173.0052434 14.1395122 3.9049428 3.903495 10.2345704 3.903495 14.1395132 0 3.9049428-3.9034949 3.90729-10.2331222.0052434-14.1395122zm-3.06 2.45h.76v-1.44h-.76zm.76-1.77h-.76v.17h.76zm-.38-.78c-.2469496.0872368-.4141695.3181597-.42.58h.84c.0150718-.2706488-.15933-.5156419-.42-.59zm-5.34 2.54h.76v-1.43h-.76zm.76-1.77h-.76v.17h.76zm-.38-.78c-.2469496.0872368-.4141695.3181597-.42.58h.84c.0103109-.2669968-.1631151-.5064898-.42-.58zm5.46 3.33.49-.53h-1.53l-.74-.52h-2.4l-.7.54h-1.59l.48.53zm-4-1.35h2.07c.2572558-.2170709.394848-.5443173.37-.88.0404387-.5970936-.4038934-1.1169622-1-1.17h-.07c-.0879762-.0045151-.165645-.0588832-.2-.14-.0161058-.2024927-.049562-.4032294-.1-.6-.0412869.1944062-.0680276.391619-.08.59-.0322091.0860265-.1090014.1474603-.2.16-.2917381 0-.5715274.1158925-.7778175.3221825-.20629.2062901-.3221825.4860794-.3221825.7778175v.07c-.0504159.3349698.0832952.6711578.35.88zm4.68 6.9h-7.31l-.79.65h8.88zm-1.54-.28h.76v-4.76h-.76zm-5 0h.76v-4.78h-.76v4.76zm9.1-1.08c-.0088897-.1164973-.0088897-.2335027 0-.35v-.05c0-.08 0-.16 0-.24-.0081279-.357012-.1594824-.6957578-.42-.94-.41-.31-.59-.68-.71-.71l.05-.09h.06c.1201729-.0001242.218011-.0966567.2197496-.2168171s-.0932657-.219483-.2133847-.223084-.2209024.0898524-.2263649.2099011c.0002534.0557998.0217009.1094185.06.15l-1.83 3.15.1.06 1.07-1.86c.2042279.1290626.4011928.269275.59.42l.05.06c.1470076.2976183.2385046.6195519.27.95v.07c.0046061.2933111.1106083.5759836.3.8.2109185-.2575408.4380461-.5013689.68-.73.0295295-.1656562.0086266-.3363629-.06-.49zm-12.62 0c.0089286-.1164958.0089286-.2335042 0-.35v-.05c0-.08 0-.16 0-.24.0081279-.357012.1594824-.6957578.42-.94.41-.3.59-.68.71-.71l-.02-.11h-.06c-.1201729-.0001242-.218011-.0966567-.2197496-.2168171s.0932657-.219483.2133847-.223084.2209024.0898524.2263649.2099011c-.0002534.0557998-.0217009.1094185-.06.15l1.82 3.17-.1.06-1.07-1.86c-.2042279.1290626-.4011928.269275-.59.42l-.05.06c-.1470076.2976183-.2385046.6195519-.27.95v.07c-.0046061.2933111-.1106083.5759836-.3.8-.2109185-.2575408-.4380461-.5013689-.68-.73-.0295295-.1656562-.0086266-.3363629.06-.49z" fill="#fff"/></g></svg>