<svg height="48" viewBox="0 0 71 48" width="71" xmlns="http://www.w3.org/2000/svg"><g fill="none"><path d="m58.37 16.28 10.31-13.85c-1.204051-1.36730161-2.9381185-2.15054639-4.76-2.15h-57.27c-1.82188149-.00054639-3.55594901.78269839-4.76 2.15l10.31 13.85z" fill="#434a54"/><path d="m35.14 10.55 2.33-3.41c.1062748-.16389672.3096696-.2355682.495216-.17450233.1855463.06106588.3066198.2395244.294784.43450233l-.11 4.13c-.0057372.1438292.0608731.2809893.1774591.3654136.116586.0844244.267682.1049137.4025409.0545864l3.89-1.38c.1846762-.0777589.3985826-.0176525.515728.1449166.1171453.1625691.1064742.3845035-.025728.5350834l-2.51 3.27c-.088895.1126463-.1157401.2622129-.0715687.3987428s.1535375.2420282.2915687.2812572l4 1.17c.1873517.0508257.3174167.2208765.3174167.415s-.130065.3641743-.3174167.415l-4 1.17c-.1380312.039229-.2473973.1447273-.2915687.2812572s-.0173263.2860965.0715687.3987428l2.52 3.27c.1322022.1505799.1428733.3725143.025728.5350834-.1171454.1625691-.3310518.2226755-.515728.1449166l-3.89-1.38c-.1348589-.0503273-.2859549-.029838-.4025409.0545864-.116586.0844243-.1831963.2215844-.1774591.3654136l.11 4.13c.0118358.1949779-.1092377.3734365-.294784.4345023-.1855464.0610659-.3889412-.0106056-.495216-.1745023l-2.34-3.43c-.0794072-.1215625-.2148003-.1948405-.36-.1948405s-.2805928.073278-.36.1948405l-2.33 3.41c-.1062748.1638967-.3096696.2355682-.495216.1745023-.1855463-.0610658-.3066198-.2395244-.294784-.4345023l.11-4.15c.0057372-.1438292-.0608731-.2809893-.1774591-.3654136-.116586-.0844244-.267682-.1049137-.4025409-.0545864l-3.89 1.42c-.1846762.0777589-.3985826.0176525-.515728-.1449166-.1171453-.1625691-.1064742-.3845035.025728-.5350834l2.55-3.27c.088895-.1126463.1157401-.2622129.0715687-.3987428s-.1535375-.2420282-.2915687-.2812572l-4-1.17c-.1873517-.0508257-.3174167-.2208765-.3174167-.415s.130065-.3641743.3174167-.415l4-1.17c.1380312-.039229.2473973-.1447273.2915687-.2812572s.0173263-.2860965-.0715687-.3987428l-2.52-3.27c-.1322022-.1505799-.1428733-.3725143-.025728-.5350834.1171454-.1625691.3310518-.2226755.515728-.1449166l3.86 1.43c.1348589.0503273.2859549.029838.4025409-.0545864.116586-.0844243.1831963-.2215844.1774591-.3654136l-.11-4.18c-.0118358-.19497793.1092377-.37343645.294784-.43450233.1855464-.06106587.3889412.01060561.495216.17450233l2.33 3.41c.0794072.1215625.2148003.1948405.36.1948405s.2805928-.073278.36-.1948405z" fill="#f6bb42"/><path d="m44.26 16.28h-18.95-13.11l11.91 16h22.34l11.92-16z" fill="#3bafda"/><path d="m35.28 47.28 11.17-15h-22.34z" fill="#fff"/><g fill="#ed5565"><path d="m12.2 16.28-10.31-13.85c-1.03141526 1.15973017-1.60081834 2.65797202-1.6 4.21v34.27c0 3.512531 2.84746899 6.36 6.36 6.36h28.63l-11.17-15z"/><path d="m68.68 2.43-10.31 13.85-11.91 16-11.17 15h28.63c3.512531 0 6.36-2.847469 6.36-6.36v-34.27c.0032738-1.55547278-.5662897-3.05769657-1.6-4.22z"/></g></g></svg>