<svg height="48" viewBox="0 0 71 48" width="71" xmlns="http://www.w3.org/2000/svg"><g fill="none" fill-rule="evenodd"><g fill-rule="nonzero"><path d="m65 .08h-58.29c-2.94937931.36373371-5.29794254 2.64286116-5.75 5.58v35.72c.49388474 3.2419958 3.28060151 5.6378925 6.56 5.64h56.72c3.6671707 0 6.64-2.9728293 6.64-6.64v-33.72c-.0082981-3.36688466-2.5352308-6.19464274-5.88-6.58z" fill="#4658a9"/><path d="m25.84 0h-18.4c-3.63980479.03837356-6.57020228 2.99999294-6.57 6.64v17.36h25z" fill="#4658a9"/><path d="m11.41 17.44v6.56h3.9v-6.71l6.69 6.71h3.82v-3l-7-7h7v-4h-7l7-7v-3h-3.82l-6.7 6.7v-6.7h-3.9v6.56l-6.16-6.16c-1.56329281.56647757-2.85814249 1.69724162-3.63 3.17l6.39 6.43h-7.16v4h7.16l-7.16 7.16v2.84h4z" fill="#fff"/><path d="m12.41 14.69v9.31h1.9v-9.45l9.45 9.45h2.08v-1.23l-9.78-9.78h9.78v-1.99h-9.78l9.78-9.78v-1.22h-2.09l-9.45 9.45v-9.45h-1.9v9.3l-8.33-8.34c-.6736073.40866358-1.26948293.93344041-1.76 1.55l8.49 8.49h-9.93v2h9.93l-9.93 9.93v1.07h2.23z" fill="#ec5463"/></g><path d="m56.89 13s-.29.19-.46.28c-1.1986015.6262442-2.5546176.8870165-3.9.75-1.4711588-.1299628-2.8952673-.5841749-4.17-1.33-1.7500116 1.0466595-3.7916315 1.4991835-5.82 1.29-.9710332-.1216665-1.9014007-.4637133-2.72-1v10.84c-.0331659 1.3692561.2153028 2.7307289.73 4 .9614547 2.2092208 2.6050282 4.0525463 4.69 5.26.9898478.5993115 2.0386968 1.0952529 3.13 1.48 1.9237135-.661568 3.6952835-1.7020678 5.21-3.06 1.1266485-1.0206243 2.0143901-2.2771201 2.6-3.68.4027697-1.0204482.6488863-2.095944.73-3.19 0-2.25 0-4.5 0-6.75.03-1.09-.01-3.37-.02-4.89z" stroke="#fff" stroke-linecap="round" stroke-linejoin="round" stroke-width="2"/><g fill-rule="nonzero"><g fill="#fff" transform="translate(39 12)"><path d="m3.54 2c2.0283685.20918347 4.06998844-.24334054 5.82-1.29 1.2747327.74582515 2.6988412 1.20003721 4.17 1.33 1.3453824.13701653 2.7013985-.12375579 3.9-.75.17-.09.46-.28.46-.28v4.86 6.75c-.0809614 1.0940789-.3270832 2.1695974-.73 3.19h-15.61c-.51469716-1.2692711-.76316594-2.6307439-.73-4 0-3.61333333 0-7.22666667 0-10.84.8185993.53628668 1.74896679.87833355 2.72 1zm2.2 5.39c-.03025749.85309609.30434223 1.67868454.92 2.27.48012014.434896 1.07892246.7168901 1.72.81 0-.55-.4-1-.48-1.52l.59.16c-.14-.52-.65-.89-.65-1.46-.04030676-.71179578.16050481-1.41639778.57-2 .79739087-.94592313 2.1462515-1.2082016 3.24-.63.59.28.73 1 1.22 1.4.07-.25.14-.57.43-.66.6223857-.14076936 1.2745458-.055705 1.84.24-.1724898-.25292368-.4111853-.45356626-.69-.58-.65-.33-1.41-.33-2.07-.62-.3442675-.20296761-.6780288-.42325007-1-.66-.7206912-.41743398-1.54878785-.61228026-2.38-.56l.17-.35c-1.97696708.40716149-3.40656134 2.13181736-3.44 4.15zm-1.83.59c-.36160264 1.01543503-.36160264 2.124565 0 3.14.21612567.6420147.65164464 1.1872986 1.23 1.54l-.24.35c.853763.2067924 1.73737096.2609599 2.61.16 1.16180868-.1050785 2.23741095-.657221 3-1.54.5815354-.7853867.8554371-1.75649282.77-2.73-.43.34-.78.82-1.34 1 0-.26 0-.52 0-.77-.16505299.25091729-.30888512.51516703-.43.79-.33527124.6498663-.9029225 1.1496851-1.59 1.4-.90609679.4058177-1.95225502.349973-2.81-.15-.86088048-.6165425-1.16649355-1.75526518-.73-2.72.22-.39.69-.51 1-.78-.24-.06-.53-.13-.63-.39-.27-.64.07-1.29.23-1.91-.74.67-.76 1.74-1.05 2.63zm6.43-1.59c.3564048.35560178.690381.73299485 1 1.13-.2077175.06449339-.4114111.14129592-.61.23.5125197.15383663.9772222.43610037 1.35.82.7054098.71811235 1.1521561 1.6502995 1.27 2.65-.0090242.9762969-.5601582 1.8665902-1.43 2.31-.423794.2171886-.926206.2171886-1.35 0-.374697-.2298405-.81132754-.3381249-1.25-.31.2.17.54.33.43.65-.18.49-.7.7-1.12 1 .78579175.0850739 1.5791745-.0645553 2.28-.43.9650131-.3170163 1.8731394-.7862712 2.69-1.39.5692764-.6172499.9205406-1.4040818 1-2.24.14.14.28.3.42.45.2462285-1.35054434-.2049683-2.73421442-1.2-3.68-.9488365-.8637557-2.2101272-1.30105132-3.49-1.21z"/><path d="m12 7.17c0-.12 0-.34.16-.35s.28.14.22.27-.26.07-.38.08z"/><path d="m6.81 8.65h.27c0 .12.1.25 0 .36s-.25 0-.3-.08.02-.19.03-.28z"/><path d="m10.47 10.21c0-.17.24-.08.36-.11s0 .33-.11.36c-.0715813.0311212-.1549136.0152984-.210106-.039894s-.0710152-.1385247-.039894-.210106z"/></g><g fill="#e77329" transform="translate(42 15)"><path d="m2.74 4.39c.03343866-2.01818264 1.46303292-3.74283851 3.44-4.15l-.17.35c.83121215-.05228026 1.65930884.14256602 2.38.56.32197119.23674993.65573249.45703239 1 .66.66.3 1.42.29 2.07.62.2788147.12643374.5175102.32707632.69.58-.5654542-.295705-1.2176143-.38076936-1.84-.24-.29.1-.36.41-.43.66-.48-.4-.63-1.11-1.22-1.4-1.09374846-.5782016-2.44260913-.31592313-3.24.63-.40949519.58360222-.61030676 1.28820422-.57 2 0 .56.51.94.65 1.46l-.59-.16c.08.54.47 1 .48 1.52-.64107754-.09310989-1.23987986-.37510401-1.72-.81-.61565777-.59131546-.95025749-1.41690391-.92-2.27zm1.08 1.27c0 .09-.12.19 0 .27s.2.1.3.08 0-.23 0-.36z"/><path d="m.91 5c.29-.89.31-2 1.05-2.63-.16.62-.5 1.27-.23 1.91.1.26.39.33.63.39-.33.26-.8.39-1 .78-.43649355.96473482-.13088048 2.10345747.73 2.72.85774498.49997297 1.90390321.55581772 2.81.15.6870775-.25031494 1.25472876-.75013366 1.59-1.4.12111488-.27483297.26494701-.53908271.43-.79v.77c.56-.15.9-.63 1.34-1 .0854371.97350718-.18846462 1.94461326-.77 2.73-.76258905.88277903-1.83819132 1.4349215-3 1.54-.87262904.1009599-1.756237.0467924-2.61-.16l.24-.35c-.57835536-.35270139-1.01387433-.89798529-1.23-1.54-.36160264-1.01543503-.36160264-2.12456497 0-3.14zm6.53 2.2c-.0311212.07158129-.01529844.15491356.039894.210106s.13852471.0710152.210106.039894c.16 0 .08-.25.11-.36s-.3-.09-.33.12z"/><path d="m7.33 3.37c1.26883978-.09361406 2.52126691.33228335 3.47 1.18.9950317.94578558 1.4462285 2.32945566 1.2 3.68-.14-.15-.27-.31-.42-.45-.0794594.83591817-.4307236 1.62275012-1 2.24-.81686057.6037288-1.7249869 1.0729837-2.69 1.39-.70082551.3654447-1.49420825.5150739-2.28.43.42-.25.94-.46 1.12-1 .1-.32-.24-.48-.43-.65.43867246-.0281249.87530298.0801595 1.25.31.42379396.2171886.92620604.2171886 1.35 0 .86984182-.4434098 1.4209758-1.33370312 1.43-2.31-.1178439-.9997005-.56459023-1.93188765-1.27-2.65-.37277776-.38389963-.83748026-.66616337-1.35-.82.19858885-.08870408.40228253-.16550661.61-.23-.30961901-.39700515-.64359518-.77439822-1-1.13zm1.66.79c.12 0 .33.1.38-.08s-.06-.33-.22-.27-.15.25-.15.36z"/></g><path d="m.55.77h15.63c-.5856099 1.4028799-1.4733515 2.65937566-2.6 3.68-1.5147165 1.35793221-3.2862865 2.39843204-5.21 3.06-1.09130317-.38474707-2.14015223-.88068847-3.13-1.48-2.08497179-1.20745365-3.72854532-3.05077919-4.69-5.26z" fill="#3cafda" transform="translate(40 27)"/></g></g></svg>