<svg height="47" viewBox="0 0 71 47" width="71" xmlns="http://www.w3.org/2000/svg"><g fill="none"><rect fill="#ed5565" height="47" rx="6.36" width="70" x=".52"/><path d="m35.52 14.2c-.39-.07-.4-.19-.2-.47.08-.12 0-.19-.25-.11-.2263129-.0222794-.4258759-.1578316-.53-.36-.09-.12-.08-.14 0-.14.1381679-.0162544.2676662-.0757536.37-.17.06-.07 0-.16-.11-.13-.3060526-.0434421-.584527-.2005303-.78-.44-.08-.11-.1-.17 0-.21.1330922-.0467746.2579634-.1142726.37-.2.1-.07 0-.16-.14-.19-.2901331-.0809723-.5506192-.2442102-.75-.47-.06-.07-.11-.16.06-.2.2606517-.1100816.4930943-.277577.68-.49.11-.16.12-.33-.19-.19-.4270014.1488693-.8855388.1833458-1.33.1-.79-.39-1.94-.89-2.38-.16-.75 0-1.65-.09-1.48.87.1234549-.008881.2315596-.0860987.28-.2.1237756-.145576.3332307-.1832779.5-.09.18.07.33.17.2.34-.1492406.101716-.3349584.1344897-.51.09-.2145589-.0481864-.4315332-.0849052-.65-.11-.2037286-.0596545-.3737913-.2007703-.47-.39-.11-.22-.4-.49-.58-.33s0 .42.22.59c.2077106.1893833.463867.3174615.74.37.2160064.0062258.4306541.0364107.64.09.1893545.5093295.7144154.8117646 1.25.72.7140407.0369922 1.3913922.3277923 1.91.82.85.73 1.45 3.13 0 3.13-.9 0-.76-.93-.73-1.46.0373283-.5843005-.3118366-1.1242881-.86-1.33-.61-.23-1.85-.67-2.2-.87-.14-.1-.28.25-.3.46s-.17.15-.61 0c-1.2158002-.3038893-2.2640861-1.0721536-2.92-2.14-.54-1.06-1.56 0-1.05.87.61 1.07 2.64 1.94 3.93 2.12.2485281 0 .45.2014719.45.45s-.2014719.45-.45.45c-1.18.17-2.33.15-3-.82-.55-.74-1.1-.07-.86.51.51 1.26 2.25 1.79 3.94.94.4-.2.83-.17.49.33-.87 1.24-2 1.44-3.49.51-.43-.27-.76-.23-.86-.06-.1002584.128326-.1450434.2914128-.1243824.4529443s.1050525.3080957.2343824.4070557l.14.08c.9836388.7386908 2.3124889.8212525 3.38.21.4-.21 1.13-.39.49.5s-2.31 1.34-3 .84-1.52 0-1 .73c.5604972.6039586 1.470578.7255823 2.17.29.51-.29 1.3-.67 1.63-.83s.49.11.11.56c-.85 1-1.72 1.84-2.89 1.44-.68-.23-1.3-.26-1.12.6s1.58.92 2.27.49c.6601185-.3630009 1.2773289-.7990735 1.84-1.3.42-.41.83-.4.37.3-1 1.57-1.92 2.72-3.41 2.43s-1 .58-.73.84c.84.76 2.33.56 4.1-1.69.14-.18.37-.12.25.2-.79 2.1-2.1 3.46-3.38 3.13-.66-.17-1.31.21-.64.82s2.15.43 3.14-.71c.6858549-.7356116 1.2987257-1.5360275 1.83-2.39.22-.43.55-.44.51.11-.0716398.8030058-.4920365 1.5341304-1.15 2-.37.18-.69.6 0 .92s1.51-1 2.17-2.82c.0386599-.1463555.1886445-.2336599.335-.195s.2336599.1886445.195.335c-.0178494.5135817-.2327042 1.0005858-.6 1.36-.3.29-.07.76.35.57.5534109-.2399967.9812541-.700472 1.18-1.27.13-.33.41-.44.25.07-.4854861 1.3768939-1.5485276 2.4728129-2.91 3 .21.21.4.45.58.64-.85.45-1.74.75-2.45 1.05-.4870486-.2615767-.9292679-.5991487-1.31-1-.0802015-.3892793-.4606667-.6399387-.85-.56l-.19.07c-.64-.26-1.1-.19-1.14.43.3323811-.1402108.7145156-.0905333 1 .13.1688534.3212574.555236.4601815.89.32.42.26.77.51 1 .69-.79 0-1.37-.06-1.79-.11-.2017474-.3228576-.6268672-.4213064-.95-.22l-.11.09c-.2000581-.0719253-.4209514-.0579369-.6103383.0386504s-.330413.2671779-.3896617.4713496c.304326-.0838791.625674-.0838791.93 0 .2269284.3250814.6739585.4055468 1 .18l.08-.06h1.79l-1 .6c-.82-.17-1.26.16-1.2.77-.2249897.3038252-.1997038.7252564.06 1 .0579738-.2872129.1927581-.5533255.39-.77.2185492.0665636.4552937.0339651.6477199-.0891877.1924262-.1231527.3211862-.3244771.3522801-.5508123l.9-.6c.1811685-.1820942.465534-.2113671.68-.07.37.17.72.32.94.44.0347378.1947443.173179.3549069.3608458.4174625.1876669.0625556.3945174.0174903.5391542-.1174625.2020299.130544.3645491.3138104.47.53.0757966-.3273634-.0178883-.6709094-.2493773-.9144761s-.5698307-.3545877-.9006227-.2955239l-.8-.37c.54-.2 1.91-.73 2.4-.94.3495395.3696259.8314839.5854218 1.34.6.1029106-.3889379.2576289-.76228.46-1.11.3194636-.7117953.7222811-1.3831579 1.2-2 .37-.45.75-.19.73.43-.06 1.5-1.13 3.75-2.71 3.83-.54 0-.75.14-.46.56.4527875.4006324 1.1241493.429822 1.61.07.48-.36.64-.34.55.14-.1520527.4211052-.5522858.7012684-1 .7-.58 0-1.25.26-.71.77s1.43.23 2.08-.54c.23-.27.4-.34.39.09.0340649.5931873-.3353647 1.1350174-.9 1.32-.44.1-.89.22-.76.49.2926684.4112268.8459097.5398876 1.29.3.3728485-.1955959.6817394-.4940747.89-.86.08-.24.25-.11.21.23-.1.71-.58.7-.58 1.29.1266261.6935334.4780477 1.3260923 1 1.8.5219523-.4739077.8733739-1.1064666 1-1.8 0-.59-.49-.57-.58-1.29 0-.33.12-.47.21-.23.2082606.3659253.5171515.6644041.89.86.4440903.2398876.9973316.1112268 1.29-.3.12-.26-.32-.39-.76-.49-.5646353-.1849826-.9340649-.7268127-.9-1.32 0-.43.16-.35.39-.09.65.77 1.54 1.06 2.08.54s-.12-.73-.71-.77c-.4477142.0012684-.8479473-.2788948-1-.7-.1-.49.07-.51.55-.14.4858507.359822 1.1572125.3306324 1.61-.07.3-.41.08-.53-.46-.56-1.58-.09-2.65-2.33-2.71-3.83 0-.62.35-.88.73-.43.4777189.6168421.8805364 1.2882047 1.2 2 .2022627.3477737.3569748.7211008.46 1.11.5085161-.0145782.9904605-.2303741 1.34-.6.49.21 1.85.74 2.4.94l-.8.37c-.3345013-.0642849-.6787205.0461178-.9134304.2929678-.2347099.2468501-.3276277.596195-.2465696.9270322.1058731-.2159068.2683013-.3990706.47-.53.1446368.1349528.3514873.1800181.5391542.1174625.1876668-.0625556.326108-.2227182.3608458-.4174625.22-.13.57-.27.94-.44.214466-.1413671.4988315-.1120942.68.07l.9.6c.05216.4238845.4355124.7270004.86.68h.15c.1972419.2166745.3320262.4827871.39.77.2597038-.2747436.2849897-.6961748.06-1 .06-.61-.39-.94-1.2-.77l-1-.6h1.79c.2789675.2692355.7210325.2692355 1 0l.06-.08c.304326-.0838791.625674-.0838791.93 0-.0495075-.199447-.1766859-.3708294-.353231-.4760051-.176545-.1051758-.3878072-.1354176-.586769-.0839949-.1302531-.1369644-.3109892-.2145003-.5-.2145003s-.3697469.0775359-.5.2145003l-.09.11c-.42 0-1 .09-1.79.11.25-.17.6-.43 1-.69.334764.1401815.7211466.0012574.89-.32.2854844-.2205333.6676189-.2702108 1-.13 0-.62-.5-.69-1.14-.43-.1962045-.089619-.4222532-.08655-.6159523.0083626-.1936992.0949126-.3346411.271669-.3840477.4816374-.3808462.4007242-.823044.7382797-1.31 1-.71-.3-1.6-.6-2.45-1.05.19-.19.37-.43.58-.64-1.3614724-.5271871-2.4245139-1.6231061-2.91-3-.16-.51.13-.4.25-.07.1987459.569528.6265891 1.0300033 1.18 1.27.41.19.65-.29.35-.57-.3672958-.3594142-.5821506-.8464183-.6-1.36-.0250086-.0946754.0023912-.195501.0718782-.2644967.069487-.0689958.1705044-.0956796.265-.07s.1681132.0998213.1931218.1944967c.67 1.86 1.48 3.13 2.17 2.82s.37-.73 0-.92c-.6579635-.4658696-1.0783602-1.1969942-1.15-2 0-.56.29-.54.51-.11.5017291.8358299 1.0809455 1.6226267 1.73 2.35 1 1.14 2.38 1.4 3.14.71s0-1-.64-.82c-1.27.33-2.59-1-3.38-3.13-.12-.32.11-.37.25-.2 1.77 2.25 3.25 2.44 4.1 1.69.3-.27.64-1.11-.73-.84s-2.37-.86-3.41-2.43c-.46-.7 0-.71.37-.3.5300677.5022073 1.1135467.9448465 1.74 1.32.69.43 2.09.37 2.27-.49s-.44-.83-1.12-.6c-1.18.4-2-.44-2.89-1.44-.38-.45-.22-.71.11-.56s1.12.54 1.63.83c.699422.4355823 1.6095028.3139586 2.17-.29.54-.77-.3-1.23-1-.73s-2.34 0-3-.84.08-.71.49-.5c1.0675111.6112525 2.3963612.5286908 3.38-.21.1768245-.0722895.3095727-.2232403.3586719-.4078532.0490992-.184613.0088786-.3815661-.1086719-.5321468-.1-.17-.43-.21-.86.06-1.46.92-2.62.73-3.49-.51-.35-.5.08-.53.49-.33 1.69.85 3.43.32 3.94-.94.24-.59-.3-1.26-.86-.51-.72 1-1.87 1-3 .82-.2485281 0-.45-.2014719-.45-.45s.2014719-.45.45-.45c1.29-.17 3.32-1 3.93-2.12.51-.89-.51-1.93-1.05-.87-.6559139 1.0678464-1.7041998 1.8361107-2.92 2.14-.44.14-.6.13-.61 0s-.17-.56-.3-.46c-.35.2-1.59.64-2.2.87-.5481634.2057119-.8973283.7456995-.86 1.33 0 .53.17 1.46-.73 1.46-1.44 0-.84-2.4 0-3.13.5186078-.4922077 1.1959593-.7830078 1.91-.82.534868.0852874 1.0550314-.2209378 1.24-.73.2093459-.0535893.4239936-.0837742.64-.09.276133-.0525385.5322894-.1806167.74-.37.18-.17.4-.43.22-.59s-.46.11-.58.33c-.0962087.1892297-.2662714.3303455-.47.39-.2184668.0250948-.4354411.0618136-.65.11-.1750416.0444897-.3607594.011716-.51-.09-.13-.17 0-.27.2-.34.1667693-.0932779.3762244-.055576.5.09.0484404.1139013.1565451.191119.28.2.17-1-.73-.92-1.48-.87-.44-.73-1.59-.23-2.38.16-.4444612.0833458-.9029986.0488693-1.33-.1-.32-.14-.3 0-.19.19.1869057.212423.4193483.3799184.68.49.17 0 .11.13.06.2-.1993808.2257898-.4598669.3890277-.75.47-.18 0-.24.11-.14.19.1120366.0857274.2369078.1532254.37.2.14 0 .13.1 0 .21-.195473.2394697-.4739474.3965579-.78.44-.15 0-.17.06-.11.13.1023338.0942464.2318321.1537456.37.17.11 0 .12 0 0 .14-.1041241.2021684-.3036871.3377206-.53.36-.27-.08-.34 0-.25.11.28.28.27.41-.12.48zm-3.66-3.2c-.2052357-.1225223-.4541078-.1481415-.68-.07-.19.09-.24.29 0 .36.219674.0571748.450326.0571748.67 0 .0707966-.0181268.1203137-.0819196.1203137-.155s-.0495171-.1368732-.1203137-.155zm7.34 0c.2052357-.1225223.4541078-.1481415.68-.07.19.09.24.29 0 .36-.2165592.0550265-.4434408.0550265-.66 0-.0707966-.0181268-.1203137-.0819196-.1203137-.155s.0495171-.1368732.1203137-.155z" fill="#434a54"/></g></svg>