<svg height="48" viewBox="0 0 71 48" width="71" xmlns="http://www.w3.org/2000/svg"><g fill="none" fill-rule="evenodd"><g fill-rule="nonzero"><path d="m70 7.17c-.0039371-3.59035187-2.8611161-6.52726612-6.45-6.63h-57.09c-3.58888392.10273388-6.44606295 3.03964813-6.45 6.63v16.71h70z" fill="#ec5565"/><path d="m70 40.89v-16.74h-70v16.74c-.0004714 3.4196272 2.59629434 6.2803974 6 6.61h22.75 34.83c3.569373-.1182992 6.4058243-3.0386953 6.42-6.61z" fill="#434a54"/><path d="m.01 23.88h70v1h-70z" fill="#434a54"/><g fill="#f2d660"><path d="m34.12 31.83c-3.0577949.5918397-6.2196074-.2234012-8.61-2.22-.1521263-.1512785-.3978737-.1512785-.55 0l-.66.74c-.0769427.0768969-.1201725.181219-.1201725.29s.0432298.2131031.1201725.29c.4125548.3411098.8467996.6551022 1.3.94l-.46.73c-.1167136.1908706-.0588644.4400671.13.56.4961673.2925878 1.010552.5531203 1.54.78.2098529.0819721.4465319-.0207377.53-.23l.31-.79c.9921713.3859602 2.0312913.6381738 3.09.75l-.1.92c-.0111423.1088463.021684.2176308.0911741.3021458s.1698785.1377484.2788259.1478542c.5727616.0362112 1.1472384.0362112 1.72 0 .1088491-.0076717.2101497-.0584174.2814722-.1410013.0713224-.0825839.1067821-.1901922.0985278-.2989987l-.07-.9c.4798594-.0364013.957284-.0998354 1.43-.19.5565391-.1070255 1.1046293-.254074 1.64-.44l.29.82c.0754481.2118316.3074381.3233652.52.25.4965252-.1974006.9807322-.424477 1.45-.68l-3-2.05c-.4069721.1673498-.8245464.3076548-1.25.42z"/><path d="m40.76 30.25.59.59c.0768969.0769427.181219.1201725.29.1201725s.2131031-.0432298.29-.1201725c.3948873-.4192161.7623171-.863472 1.1-1.33.0611293-.0901339.0838861-.2008853.0632495-.3078201-.0206365-.1069348-.0829704-.2012652-.1732495-.2621799l-.69-.47c.5937921-.8707677 1.0711723-1.8154425 1.42-2.81l.78.27c.1034268.0347835.2164526.026903.3140517-.0218965.0975992-.0487996.171719-.134492.2059483-.2381035.1717063-.5474749.3086458-1.105253.41-1.67.0172894-.1074197-.0088273-.2173066-.0725984-.3054607-.0637711-.0881542-.1599665-.1473458-.2674016-.1645393l-.83-.12c.149768-1.0436639.1665687-2.1021086.05-3.15l.84-.09c.109084-.0124804.2086046-.0681916.2762726-.1546562.0676679-.0864647.0978287-.1964574.0837274-.3053438-.0828696-.5738984-.2031254-1.1417732-.36-1.7-.0671664-.2146511-.2947194-.3351203-.51-.27l-.81.25c-.3146282-1.0031912-.758347-1.9612203-1.32-2.85l.72-.45c.0935484-.0577205.1600013-.1505878.1844438-.2577584.0244424-.1071706.0048269-.2196676-.0544438-.3122416-.3043094-.4771611-.6383008-.9347293-1-1.37-.0768969-.0769427-.181219-.1201725-.29-.1201725s-.2131031.0432298-.29.1201725l-.63.58c-.7177735-.7674612-1.5310852-1.4396196-2.42-2l.46-.73c.1167136-.1908706.0588644-.4400671-.13-.56-.4961935-.29253984-1.0105751-.55307077-1.54-.78-.2098529-.08197212-.4465319.02073766-.53.23l-.31.79c-.4920252-.1963201-.9964511-.36000794-1.51-.49-.1060866-.02386948-.2173103-.0046186-.3092031.05351768-.0918928.05813627-.1569274.15039572-.1807969.25648232l-.21 1c-.0432092.2096847.0906922.4150002.3.46 3.7941582.9480045 6.735743 3.9443729 7.6135821 7.7553764.8778392 3.8110035-.4564874 7.7922995-3.4535821 10.3046236l1.44 1.1c.13-.18.31-.32.46-.47z"/></g></g><g fill="#f2d660"><path d="m47.15 36.57c.72.51.88 1.12.45 1.63-.1689717.1658762-.4056013.2435203-.64.21-.45506-.0394622-.8455479-.3401379-1-.77-.0344672-.1127678-.1003778-.2133682-.19-.29l-2.79-2c-.22-.16-.31-.15-.46 0-.0561092.0890428-.1547757.142171-.26.14-.1332764-.0227166-.2577827-.0815112-.36-.17l-10.83-7.47c-2.28-1.44-2.81-2.65-2.64-3.84.0526573-.3412617.1397692-.6763074.26-1 .1-.27.3-.35.53-.18 2.5 1.96 17.78 13.65 17.93 13.74z"/><path d="m32.1 20.4c-.0488213.0153536-.1011787.0153536-.15 0-.0875339-.063949-.1238798-.1770251-.09-.28l.49-1.52c.1099411-.331141-.0074121-.6953405-.29-.9l-1.3-.94c-.0957894-.0614193-.1380182-.1797765-.1027412-.2879591.0352769-.1081826.1391588-.178895.2527412-.1720409h1.6c.3455252.0000284.6520234-.2217795.76-.55l.5-1.52c.0094934-.1228787.1071213-.2205066.23-.23.1083965-.0013611.2053189.0672922.24.17l.49 1.52c.1079766.3282205.4144748.5500284.76.55h1.6c.1135824-.0068541.2174643.0638583.2527412.1720409.035277.1081826-.0069518.2265398-.1027412.2879591l-1.3.94c-.2825879.2046595-.3999411.568859-.29.9l.49 1.52c.0370375.1048296.0003957.2215225-.0899185.2863635s-.2125973.0622479-.3000815-.0063635l-1.3-.94c-.2802935-.2034942-.6597065-.2034942-.94 0l-1.3.94c-.0309789.0290134-.0688346.0496619-.11.06z" fill-rule="nonzero"/></g></g></svg>