<svg height="48" viewBox="0 0 71 48" width="71" xmlns="http://www.w3.org/2000/svg"><g fill="none"><path d="m.9 13.28h70v21h-70z" fill="#fff"/><path d="m64.5399928.28h-57.26999352c-3.51253061 0-6.35999928 2.84746726-6.35999928 6.35999614v6.63999596h70l-.0000079-6.62999596c.0026597-1.69024198-.6676091-3.31202123-1.8627928-4.50720427-1.1951836-1.19518305-2.8169637-1.86545158-4.5072065-1.86279187z" fill="#8cbae2"/><path d="m.9 40.92c0 3.512531 2.84746899 6.36 6.36 6.36h57.27c3.512531 0 6.36-2.847469 6.36-6.36v-6.64h-70z" fill="#8cbae2"/><path d="m42.16 25.79c.012429-.3108827.0944428-.615017.24-.89l.41-.71c.1301282-.2578455.1301282-.5621545 0-.82l-.42-.73c-.1443088-.275473-.2262454-.5793213-.24-.89v-.84c-.0162721-.2883142-.1684214-.5517923-.41-.71l-.71-.4c-.2622201-.1657433-.4842567-.3877799-.65-.65l-.41-.71c-.1582077-.2415786-.4216858-.3937279-.71-.41h-.85c-.3106787-.0137546-.614527-.0956912-.89-.24l-.73-.42c-.2578455-.1301282-.5621545-.1301282-.82 0l-.7.41c-.2751076.1452405-.5791688.2272346-.89.24h-.82c-.2883142.0162721-.5517923.1684214-.71.41l-.42.73c-.1662638.2618035-.3881965.4837362-.65.65l-.73.42c-.2415786.1582077-.3937279.4216858-.41.71v.82c-.012429.3108827-.0944428.615017-.24.89l-.41.71c-.1301282.2578455-.1301282.5621545 0 .82l.42.73c.1443088.275473.2262454.5793213.24.89v.84c.0185293.2901751.1746092.5540246.42.71l.71.4c.2624314.165479.484521.3875686.65.65l.41.71c.1582077.2415786.4216858.3937279.71.41h.85c.3106787.0137546.614527.0956912.89.24l.73.42c.2578455.1301282.5621545.1301282.82 0l.7-.41c.2751076-.1452405.5791688-.2272346.89-.24h.82c.2883142-.0162721.5517923-.1684214.71-.41l.42-.73c.1662638-.2618035.3881965-.4837362.65-.65l.73-.42c.2415786-.1582077.3937279-.4216858.41-.71z" fill="#f6bb42"/></g></svg>