<svg height="48" viewBox="0 0 71 48" width="71" xmlns="http://www.w3.org/2000/svg"><g fill="none"><path d="m64.47.55h-58.17c-3.36820395.36739318-5.91956707 3.21181827-5.92 6.6v33.72c0 1.7610375.69956942 3.4499475 1.94481097 4.695189 1.24524156 1.2452416 2.93415154 1.944811 4.69518903 1.944811h56.72c3.6671707 0 6.64-2.9728293 6.64-6.64v-33.72c.0001274-3.38475743-2.5457601-6.22788059-5.91-6.6z" fill="#4658a9"/><path d="m69.2 3.36-57.89 20.64 57.87 20.7c.7888692-1.1174637 1.2116336-2.4521414 1.21-3.82v-33.73c.0013096-1.35546333-.4141222-2.67856119-1.19-3.79z" fill="#fff"/><path d="m69.2 3.36c-.4786103-.69298764-1.0863746-1.28717064-1.79-1.75l-62.79 22.39 62.75 22.45c.7097334-.4580564 1.3243211-1.0488754 1.81-1.74l-57.87-20.71z" fill="#ec5565"/><g fill="#f6d660" transform="translate(42 25)"><path d="m2.86.94c.34502674-.07548158.6804687-.18953184 1-.34.38346521.57430681.8521742 1.08685189 1.39 1.52l.38-1.34c.28689203.00679119.57070015.06084988.84.16-.10948773.35073173-.1963332.70813422-.26 1.07-.17.74-.32 1.5-.52 2.23-.28-.07-.57-.14-.84-.23.08-.43.16-.86.25-1.29v-.15c-.68964812.15209956-1.3379648.45237255-1.9.88-.29086309-.48807255-.6872035-.90491332-1.16-1.22-.48586817-.35898362-.98986635-.69275725-1.51-1 .78369316-.02783942 1.56339282-.12488358 2.33-.29z"/><path d="m6.41 1.59c.17500028.01439382.34876575.04112697.52.08-.0398093.23621969-.09323162.46994238-.16.7-.08.46-.2.92-.28 1.39-.18625837.01746033-.37374163.01746033-.56 0 .14-.76.32-1.44.48-2.17z"/><path d="m9.76 2.17c.3.27.56.58.88.83.3377367.28085291.7341136.48245837 1.16.59.4013595.15794631.8164583.27845886 1.24.36 0 .19-.63.09-.8.21-.2076357.08992612-.4368927.11771484-.66.08-.804702-.10694511-1.6227202.03987867-2.34.42-.13008452-.32064185-.13008452-.67935815 0-1 .06-.18.12-.36.18-.54.05888531-.33359132.17384428-.6548002.34-.95z"/><path d="m6.89 2.49 2.44.57-.19.56-2.39-.5z"/><path d="m12 3.65 8.82 2.07c.0305558.10447841.0305558.21552159 0 .32-.0419273.1007772-.1156802.18506622-.21.24-1.84-.4-7.22-1.64-9-2.07.03-.21.33-.36.39-.56z"/><path d="m7 5.44c.12-.22.29-.49.57-.5.33000895.06010715.60789958.28166859.74.59.15548563.13387373.20072781.35597168.11.54-.10626705.12610229-.20319106.25979058-.29.4l.2.09c-.11410241.09572797-.24227258.17330465-.38.23-.06 0-.08.09-.1.14.17233783.09088638.36524753.13566899.56.13 1.25.07 2.51 0 3.76 0-.1365391.14406554-.283612.27776823-.44.4.5661502.03421616 1.1338498.03421616 1.7 0 .3768268-.01345833.7501501-.07736051 1.11-.19.1167698-.04452095.2250138-.10879085.32-.19-.1.24-.21.47-.33.7.64 0 1.28-.06 1.92-.12-.4250069.32981691-.9758146.45099462-1.5.33.558376.37340219 1.1592845.67889198 1.79.91-.6682327.08752229-1.3470263.04679468-2-.12.2242567.47803987.6005087.86835744 1.07 1.11-.2392723.05962334-.4912657.04212381-.72-.05-.4441805-.19257132-.8479403-.4673994-1.19-.81l-.1.08c.1610074.24092537.2152915.53767847.15.82-.5982837-.74316297-1.435942-1.25565433-2.37-1.45l-.05.12c.2257207.12918507.4230036.30265789.58.51.0404183.07677084.057782.16358909.05.25-.1491718-.20095042-.3723191-.33411894-.62-.37-.2923118-.00001923-.5699973.12786225-.76.35-.3307071-.53565306-.85863338-.91992596-1.47-1.07-.52641114-.15968067-1.0705309-.25372606-1.62-.28-.1625521-.19607689-.37761825-.34176687-.62-.42-.42-.12-.87-.16-1.28-.31-.49-.52-1-1-1.53-1.49.01805717-.29347752.16435877-.56413548.4-.74.18311618-.11073264.39692472-.15980345.61-.14.02719379.10386648.07859612.19981749.15.28.34892968-.15200499.73234569-.20727216 1.11-.16.21285096.03150101.39631975.16629441.49.36"/><path d="m8.49 5.57c.87.08 7.78.37 8.64.54-.11.16.88.54.83.73-.78 0-8.67-.66-9.45-.71.06922587-.18170899.06201218-.38369236-.02-.56z"/><path d="m13.65 5.93c.1421165-.0002671.2834934-.02046379.42-.06 2 .15 4 .31 5.94.47.0958174.12788137.1639322.27432809.2.43 0 .08 0 .19-.12.17-.79 0-1.57-.08-2.35-.13l-4-.28z"/></g><g fill="#866f57"><path d="m45.4 22.85c-.25.24-.84.56-.89 1.1.0387445.5358375.3135225 1.0267742.75 1.34.06 0 .25.25.25 0 .0081574-.2197037.07366-.4334491.19-.62.4006668.033043.8039968-.007629 1.19-.12.4444757-.2155197.8526956-.498912 1.21-.84h-2.2z"/><path d="m66.79 17.7c-.57-.52-2.16.13-2.62.25s-1.41.44-1.5.31-.37-.19-.84-.28l-1.87-.37c1.2976997-.6467553 2.515866-1.442087 3.63-2.37.6422283-.7835519 1.1676745-1.6559275 1.56-2.59.51-1.2 1-3 .78-3.28s-1.62.53-2.41.75c-.3551283.1447428-.7463157.1761775-1.12.09-.7545388.154904-1.4965685.3654799-2.22.63-.56.16-.53-.06-.81-.09s-1.69.81-2.53 1.06-.78.09-.94 0-3.09 1.13-4.91 1.72-1.44 1.53-1.19 2.28-3.37 1.47-2.31 3c.63.93 2.25-.41 2.75-.47s.41.25.09.69c-.5661741.5736175-1.2479417 1.0201753-2 1.31-.78.34-2.09 1-2.44 1.16s-.31 1-.37 1.22c-.0232951.0585513-.0611582.1101829-.11.15l.5.91h2.19c.3413071-.2795401.7098225-.5241003 1.1-.73 1.0981356-.4417913 2.2526422-.7278935 3.43-.85.2764088-.0369078.5568629.0269931.79.18.3629708.2473661.7826951.3987421 1.22.44.38 0 0 .42.28.69.2680821.2327972.4626537.5385527.56.88.0775963.2613966.045087.5431438-.09.78-.12.31.28.56.16.75s0 .53-.06 1c-.0255037.2770493.0912124.5481317.31.72 0 0 .28-.47.41-.75s.31-.19.63-.12c.1539012.0416295.3160988.0416295.47 0 .0904387.3553438.239118.6932513.44 1 .38.63.5.19.56-.12s.13-.28.53-.22.38-.22.25-.69.25-.34.59-.19.75.19.69 0c-.2012029-.3453659-.4215464-.6792196-.66-1-.22-.34 0-.72.56-.25s.69.16.66-.06c-.0434483-.1970682-.117693-.3860548-.22-.56-.06-.12.34 0 .78-.44s-.06-.28-.37-.22-.41 0 0-.37.13-.41-.22-.41-.12-.19.44-.44.13-.47-.12-.78-.56-.41-.37-.41h2.19c.72 0 2.91.72 3.41.63s1.09-.91 1.25-2.09c.2069195-.9247011-.149609-1.8845856-.91-2.45z"/><path d="m55.35 30.14c-.005188.0842695.0157661.168086.06.24.09.13.32.19.6 0 .4611389-.3257455.7037336-.8802478.63-1.44-.12-.25.78-1.25 1-1.44s-.75-1.66-.75-1.66l-1.12.72c-.1877387.6088616-.4183142 1.2036796-.69 1.78-.16.16-.31.16-.44.41s-.25.53-.53.59-.23.21-.19.34c.08.31.49.32.66.28-.0317019.0733895-.0317019.1566105 0 .23.1022477.1088235.2477822.1662526.3967907.1565767s.2858938-.0854439.3732093-.2065767z"/><path d="m53 31.17c.0386025-.2339887.1591066-.4466429.34-.6.1077218-.1130123.2248054-.216715.35-.31.0292498.1250321.0493034.2520385.06.38 0 .16.13-.06.28-.16.0631871-.0455325.1300892-.0856738.2-.12.0461832.0847049.0798656.1756474.1.27 0 .15.09.27.22.09l.24-.31c.0571329.0858482.1072935.1761372.15.27.08.17.17.14.28 0 .04349-.0466334.0902773-.0900788.14-.13.0592489.0489065.1012983.1154847.12.19.0863182.2902058.0686345.6014392-.05.88-.0622509.0838834-.1605414.1333404-.265.1333404s-.2027491-.049457-.265-.1333404c-.1060556.0605912-.2312211.0784719-.35.05-.1190063-.0324497-.2242748-.1026287-.3-.2-.1077122.0837943-.2449942.1199211-.38.1-.1011645-.0182981-.1910123-.0758007-.25-.16-.1378484.0347114-.2821516.0347114-.42 0-.1038417-.0398112-.179567-.1306815-.2-.24z"/><path d="m56 30.38s.34.09.66-.38c.1793699-.1973532.2470622-.4718828.18-.73-.0435442-.1143927-.0802752-.231264-.11-.35.0041554-.248394.0922705-.4880671.25-.68l-.42-.44z"/></g><path d="m46.58 22.13c-.19.37.09.77.52.59.2005668-.0762928.3261294-.2764404.3075398-.4902208-.0185896-.2137805-.1768146-.389251-.3875398-.4297792-.12 0-.17.15-.05.19l-.21.23c.06-.11-.11-.22-.17-.1z" fill="#fff"/></g></svg>