<svg height="48" viewBox="0 0 71 48" width="71" xmlns="http://www.w3.org/2000/svg"><g fill="none"><g fill="#3cafda"><path d="m70.63 6.76c0-3.66717074-2.9728293-6.64-6.64-6.64h-56.72c-3.66717074 0-6.64 2.97282926-6.64 6.64v24.69h70zm-58.13 5.24-1.42 4.61c-.48-1.54-.95-3.08-1.43-4.61l-4.59-1.41c.06994841-.0351878.14378755-.0620383.22-.08l4.37-1.35 1.42-4.61 1.43 4.61 4.61 1.42z"/><path d="m70.63 34.06h-70v2.61h70z"/><path d="m70.63 40.48v-1.19h-70v1.19c0 1.7610375.69956942 3.4499475 1.94481097 4.695189 1.24524156 1.2452416 2.93415154 1.944811 4.69518903 1.944811h56.73c3.6632649-.005517 6.6300042-2.976731 6.63-6.64z"/></g><path d="m11.08 17.1c-.2194763.001329-.4141599-.1406278-.48-.35-.2466667-.7866667-.49-1.5766667-.73-2.37l-.62-2-4.34-1.34c-.19050293-.0570454-.32909172-.2215598-.3529561-.4189833s.07153273-.390222.2429561-.4910167c.0879619-.0490915.18214461-.0860919.28-.11l4.17-1.29 1.35-4.36c0-.27614237.2238576-.5.5-.5s.5.22385763.5.5l1.35 4.36 4.35 1.34c.2761424 0 .5.2238576.5.5s-.2238576.5-.5.5l-4.36 1.35-1.34 4.36c-.0658401.2093722-.2605237.351329-.48.35z" fill="#ec5565"/><path d="m11.08 4.53 1.43 4.61 4.61 1.42-4.62 1.44-1.42 4.61c-.48-1.54-.95-3.08-1.43-4.61l-4.59-1.41c.06994841-.0351878.14378755-.0620383.22-.08l4.37-1.35 1.42-4.61zm-.01-.98c-.4536001-.02076594-.8642525.26669076-1 .7l-.77 2.49-.5 1.62-1.82.56-2 .63c-.15778524.03833065-.30930679.09893927-.45.18-.33607851.20530327-.52036199.5887447-.47071713.9794281.04964486.3906835.32397223.7158484.70071713.8305719l2.38.73 1.7.52.56 1.82.71 2.29c.1357475.4333092.5463999.7207659 1 .7.4563699.0195036.8679485-.2727171 1-.71l.76-2.45.51-1.65h.16l3.95-1.22c.4183192-.1299224.7033942-.5169695.7033942-.955s-.285075-.8250776-.7033942-.955l-4.11-1.27-.72-2.32-.55-1.79c-.1357475-.43330924-.5463999-.72076594-1-.7z" fill="#fff"/><g fill="#f2d660"><path d="m70.63 31.45h-70v2.61h70z"/><path d="m70.63 36.68h-70v2.61h70z"/></g></g></svg>