<svg height="48" viewBox="0 0 71 48" width="71" xmlns="http://www.w3.org/2000/svg"><g fill="none"><path d="m.28 7.21v9h70v-9c0-3.66717074-2.9728293-6.64-6.64-6.64h-56.71c-1.76276947-.00265478-3.45424962.69574249-4.70165483 1.9412719-1.2474052 1.24552941-1.94834717 2.93595663-1.94834517 4.6987281z" fill="#4758a9"/><path d="m.28 31.91h70v-15.67h-70z" fill="#ed5565"/><path d="m.28 40.92c0 3.6671707 2.97282926 6.64 6.64 6.64h56.72c3.6671707 0 6.64-2.9728293 6.64-6.64v-9h-70z" fill="#57a863"/><path d="m37.41 26.7c-.26.18-.41.08-.33-.23l.29-1.16c.0849839-.3611143-.0250032-.7403801-.29-1l-.83-.75c-.24-.21-.17-.39.14-.4h1.17c.3393051-.0226942.6314521-.2477263.74-.57l.38-1.27c.09-.31.25-.31.36 0l.43 1.26c.1222664.3206242.4179662.5423991.76.57h1.2c.31 0 .38.18.14.39l-.92.8c-.2511369.2429038-.3572878.5992675-.28.94l.28 1c.08.31-.06.42-.33.25l-1-.62c-.3049725-.1944592-.6950275-.1944592-1 0zm1.7 1.9c-1.3133596.7304266-2.8856034.8313813-4.2815946.2749237s-2.4676585-1.7113046-2.9184054-3.1449237c-.3344748-1.021787-.3726142-2.1174283-.11-3.16.3641586-1.4545779 1.3619043-2.6689341 2.7182127-3.3083367 1.3563085-.6394025 2.927979-.6363425 4.2817873.0083367.0437692.0122223.0906098.0064117.1300659-.0161346.0394561-.0225464.0682428-.0599514.0799341-.1038654.0225354-.0747932-.0057415-.1555846-.07-.2-1.6615713-1.3507112-3.8996749-1.7551088-5.9288637-1.0712721-2.0291889.6838366-3.5660136 2.360385-4.0711363 4.4412721-.3337957 1.2583512-.2885713 2.5872529.13 3.82.5152405 1.6051132 1.6494553 2.9383999 3.1512097 3.7042947 1.5017545.7658947 3.2469794.9011223 4.8487903.3757053h.09c.7972828-.278575 1.5290066-.7176093 2.15-1.29.0605751-.0470699.0846618-.127359.06-.2-.0286715-.0874768-.1217631-.136239-.21-.11zm.14-1.54c-.11.3-.29.29-.4 0l-.43-1.06c-.1432151-.3197409-.4351686-.5480635-.78-.61l-1.11-.14c-.31 0-.37-.22-.11-.41l1-.69c.2646567-.2127934.3751514-.5640086.28-.89l-.46-1.26c-.1-.3 0-.4.29-.21l1.07.79c.2877793.178963.6522207.178963.94 0l1-.66c.26-.17.41-.07.33.24l-.3 1.18c-.0661222.3428619.0513851.6953838.31.93l.82.68c.25.21.19.38-.13.4h-1.15c-.3408106.0290153-.6373898.2447092-.77.56z" fill="#fff"/></g></svg>