<svg height="48" viewBox="0 0 71 48" width="71" xmlns="http://www.w3.org/2000/svg"><g fill="none"><rect fill="#4758a9" height="47" rx="6.36" width="70" x=".9" y=".13"/><path d="m13.9.13h37v47z" fill="#f6d660"/><g fill="#fff"><path d="m8.19 4.88c-.27-.08-.28-.24 0-.36l1-.44c.27530449-.14588996.45926194-.41994901.49-.73v-1c0-.28.17-.33.35-.12l.67.8c.2028028.22043767.517321.29906724.8.2l1.08-.43c.26-.11.36 0 .2.24l-.62 1c-.1611948.2568002-.1611948.5831998 0 .84l.65.85c.17.22.08.36-.19.31l-1.06-.2c-.3042197-.04010684-.6073629.08115046-.8.32l-.55.76c-.17.23-.33.19-.36-.09l-.11-1c-.05180274-.30041689-.26230104-.54918761-.55-.65z"/><path d="m12.51 10.38c-.27-.08-.28-.24 0-.36l1-.44c.2765597-.14449298.4610303-.41931646.49-.73v-1c0-.28.17-.33.35-.12l.67.8c.2028028.22043767.517321.29906724.8.2l1.08-.43c.26-.1.35 0 .2.24l-.62 1c-.1611948.2568002-.1611948.5831998 0 .84l.65.85c.17.22.08.36-.19.31l-1.06-.2c-.3042197-.0401068-.6073629.0811505-.8.32l-.55.76c-.17.23-.33.19-.36-.09l-.12-1c-.0518027-.3004169-.262301-.5491876-.55-.65z"/><path d="m16.84 15.88c-.27-.08-.28-.24 0-.36l1-.44c.2765597-.144493.4610303-.4193165.49-.73v-1c0-.28.17-.33.35-.12l.67.81c.2028028.2204377.517321.2990672.8.2l1.08-.43c.26-.11.35 0 .2.24l-.62 1c-.1611948.2568002-.1611948.5831998 0 .84l.65.85c.17.22.08.36-.19.31l-1.06-.2c-.3042197-.0401068-.6073629.0811505-.8.32l-.55.76c-.16.23-.33.19-.36-.09l-.11-1c-.0518027-.3004169-.262301-.5491876-.55-.65z"/><path d="m21.17 21.38c-.27-.08-.28-.24 0-.36l1-.44c.2765597-.144493.4610303-.4193165.49-.73v-1c0-.28.17-.33.35-.12l.67.81c.2028028.2204377.517321.2990672.8.2l1.08-.43c.26-.1.35 0 .2.24l-.62 1c-.1611948.2568002-.1611948.5831998 0 .84l.65.85c.17.22.08.36-.19.31l-1.06-.2c-.3042197-.0401068-.6073629.0811505-.8.32l-.55.76c-.17.23-.33.19-.36-.09l-.12-1c-.0497657-.3013628-.261031-.55104-.55-.65z"/><path d="m25.5 26.88c-.27-.08-.28-.24 0-.36l1-.44c.2753045-.14589.4592619-.419949.49-.73v-1c0-.28.17-.33.35-.12l.67.81c.2028028.2204377.517321.2990672.8.2l1.08-.43c.26-.11.35 0 .2.24l-.62 1c-.1611948.2568002-.1611948.5831998 0 .84l.65.85c.17.22.08.36-.19.31l-1.06-.2c-.3042197-.0401068-.6073629.0811505-.8.32l-.55.76c-.17.23-.33.19-.36-.09l-.12-1c-.0497657-.3013628-.261031-.55104-.55-.65z"/><path d="m29.83 32.38c-.27-.08-.28-.24 0-.36l1-.44c.2753045-.14589.4592619-.419949.49-.73v-1c0-.28.17-.33.35-.12l.67.81c.2028028.2204377.517321.2990672.8.2l1.08-.43c.26-.11.35 0 .2.24l-.62 1c-.1611948.2568002-.1611948.5831998 0 .84l.65.85c.17.22.08.36-.19.31l-1.06-.2c-.3042197-.0401068-.6073629.0811505-.8.32l-.55.76c-.17.23-.33.19-.36-.09l-.12-1c-.0518027-.3004169-.262301-.5491876-.55-.65z"/><path d="m34.16 37.89c-.27-.08-.28-.24 0-.36l1-.44c.2753045-.14589.4592619-.419949.49-.73v-1c0-.28.17-.34.35-.12l.67.81c.2028028.2204377.517321.2990672.8.2l1.08-.43c.26-.11.35 0 .2.24l-.62 1c-.1611948.2568002-.1611948.5831998 0 .84l.65.85c.17.22.08.36-.19.31l-1.06-.2c-.3042197-.0401068-.6073629.0811505-.8.32l-.55.76c-.17.23-.33.19-.36-.09l-.12-1c-.0518027-.3004169-.262301-.5491876-.55-.65z"/><path d="m37.87 42.6c-.27-.08-.28-.24 0-.36l1-.44c.2753045-.14589.4592619-.419949.49-.73v-1c0-.28.17-.33.35-.12l.67.81c.2028028.2204377.517321.2990672.8.2l1.08-.43c.26-.11.35 0 .21.24l-.62 1c-.1611948.2568002-.1611948.5831998 0 .84l.65.85c.17.22.09.36-.19.31l-1.06-.2c-.3042197-.0401068-.6073629.0811505-.8.32l-.55.76c-.16.23-.33.19-.36-.09l-.12-1c-.0518027-.3004169-.262301-.5491876-.55-.65z"/></g></g></svg>