<svg height="48" viewBox="0 0 71 48" width="71" xmlns="http://www.w3.org/2000/svg"><g fill="none"><path d="m7.13.57c-3.51253101 0-6.36 2.84746899-6.36 6.36v34.27c0 3.512531 2.84746899 6.36 6.36 6.36h17c0-15.6666667 0-31.3333333 0-47z" fill="#4758a9"/><path d="m24.11.57v47h23.35c0-15.6666667 0-31.3333333 0-47z" fill="#ffce54"/><path d="m64.4.57h-16.95v47h16.95c3.512531 0 6.36-2.847469 6.36-6.36v-34.28c0-3.51253101-2.847469-6.36-6.36-6.36z" fill="#4758a9"/><path d="m36.76 33.57v-4.73c1.0675868.0985206 2.1268866.2722858 3.17.52.19-4.14 1.27-8.73 4.34-12-1.9717148.0837392-3.8040103 1.0401974-5 2.61.4382808-.0550065.8817192-.0550065 1.32 0-1.1728112 2.3286421-1.885815 4.8615033-2.1 7.46-.56265-.1256813-1.1344909-.2059397-1.71-.24v-7.77c.5054169.0517909.9987625.1869541 1.46.4-.9562793-1.6521722-1.7724668-3.381553-2.44-5.17-.6707502 1.788773-1.490287 3.5181629-2.45 5.17.4612375-.2130459.9545831-.3482091 1.46-.4v7.77c-.5755134.0340173-1.1473577.1142761-1.71.24-.214185-2.5984967-.9271888-5.1313579-2.1-7.46.4382808-.0550065.8817192-.0550065 1.32 0-1.1939998-1.5735659-3.0265961-2.5338464-5-2.62 3.07 3.32 4.15 7.9 4.34 12 1.0431003-.2477795 2.1024047-.4215455 3.17-.52v4.73h2z" fill="#434a54"/></g></svg>