<svg height="48" viewBox="0 0 71 48" width="71" xmlns="http://www.w3.org/2000/svg"><g fill="none"><path d="m64.54.42h-57.27c-3.51253101 0-6.36 2.84746802-6.36 6.35999782v16.63999428h70v-16.63999428c.0000021-1.68851034-.67144-3.30771798-1.866335-4.50073681-1.1948951-1.19301884-2.8151562-1.8619159-4.503665-1.85926101z" fill="#ed5565"/><path d="m.9 41.05c0 3.512531 2.84746899 6.36 6.36 6.36h57.27c3.512531 0 6.36-2.847469 6.36-6.36v-17.63h-70z" fill="#52c162"/><path d="m31 32.14c-.78.55-1.23.24-1-.69l.84-3.48c.1923885-1.0393876-.1493719-2.1059804-.91-2.84l-2.54-2.2c-.72-.63-.54-1.16.42-1.19l3.56-.1c1.0202464-.0762215 1.897142-.7525715 2.23-1.72l1.12-3.8c.27-.92.76-.94 1.08 0l1.34 3.75c.3920938.9515917 1.292783 1.5960504 2.32 1.66h3.63c1 0 1.15.53.43 1.16l-2.76 2.42c-.7462001.7328045-1.0569055 1.801328-.82 2.82l.88 3.06c.27.92-.18 1.27-1 .77l-3-1.82c-.9107426-.5011155-2.0220838-.4666256-2.9.09z" fill="#f6d660"/></g></svg>