<svg height="48" viewBox="0 0 71 48" width="71" xmlns="http://www.w3.org/2000/svg"><g fill="none"><path d="m66.76 1c-.8172297-.3686849-1.7034551-.55956422-2.6-.56h-57.27c-.92235575-.00020738-1.83361422.20115685-2.67.59l31.36 20.07z" fill="#ed5565"/><path d="m70.15 43.2c.2500423-.6893001.3786151-1.4167512.38-2.15v-34.27c-.0052461-.68059489-.1200488-1.35590498-.34-2l-30 19.31z" fill="#52c162"/><path d="m.85 4.78c-.21298666.6452516-.32102739 1.32050615-.32 2v34.27c.00201464.7980669.15468855 1.5885784.45 2.33l30-19.33z" fill="#52c162"/><path d="m4.63 47c.72144811.2765395 1.48736801.4188785 2.26.42h57.27c.8592838.0011739 1.7098385-.1723393 2.5-.51l-31.05-19.91z" fill="#ed5565"/><path d="m70.15 43.2-29.92-19.15 30-19.31c-.5676278-1.67670168-1.806358-3.04220247-3.42-3.77l-31.19 20.1-31.4-20.07c-1.59743287.74015084-2.81730238 2.10843176-3.37 3.78l30.15 19.27-30 19.33c.65870713 1.664051 1.98704621 2.9742434 3.66 3.61l31-20 31.05 19.87c1.5988756-.6983159 2.842014-2.0209573 3.44-3.66z" fill="#fff"/><circle cx="35.74" cy="24.01" fill="#fff" r="14.5"/><g fill="#ed5565"><path d="m33.65 22.38c-.37.26-.58.11-.47-.33l.4-1.64c.0917846-.4905982-.0698875-.9944135-.43-1.34l-1.2-1c-.34-.3-.25-.55.2-.56h1.68c.462167-.053325.8518654-.3689807 1-.81l.53-1.79c.13-.43.36-.44.51 0l.63 1.76c.183439.447713.6070438.7508431 1.09.78h1.71c.45 0 .54.25.2.55l-1.3 1.14c-.3539597.344434-.5019033.8489595-.39 1.33l.42 1.44c.13.43-.09.6-.47.36l-1.39-.86c-.4196497-.2471429-.9403503-.2471429-1.36 0z"/><path d="m28.65 32.38c-.37.26-.58.11-.47-.32l.4-1.64c.0917846-.4905982-.0698875-.9944135-.43-1.34l-1.2-1c-.34-.3-.25-.55.2-.56h1.68c.462167-.053325.8518654-.3689807 1-.81l.53-1.79c.13-.43.36-.44.51 0l.63 1.76c.183439.447713.6070438.7508431 1.09.78h1.71c.45 0 .54.25.2.55l-1.3 1.14c-.3539597.344434-.5019033.8489595-.39 1.33l.42 1.44c.13.43-.09.6-.47.36l-1.39-.86c-.4196497-.2471429-.9403503-.2471429-1.36 0z"/><path d="m38.65 32.38c-.37.26-.58.11-.47-.32l.4-1.64c.0917846-.4905982-.0698875-.9944135-.43-1.34l-1.2-1c-.34-.3-.25-.55.2-.56h1.68c.462167-.053325.8518654-.3689807 1-.81l.53-1.79c.13-.43.36-.44.51 0l.63 1.76c.183439.447713.6070438.7508431 1.09.78h1.71c.45 0 .54.25.2.55l-1.3 1.14c-.3539597.344434-.5019033.8489595-.39 1.33l.42 1.44c.13.43-.09.6-.47.36l-1.39-.86c-.4196497-.2471429-.9403503-.2471429-1.36 0z"/></g></g></svg>