<svg height="47" viewBox="0 0 71 47" width="71" xmlns="http://www.w3.org/2000/svg"><g fill="none" fill-rule="evenodd"><g fill-rule="nonzero"><path d="m64.37.06h-57.93c-2.18949411 1.86978161-4.24457869 3.89145018-6.15 6.05v34.8c-.00336955.3057119.026811.6108708.09.91.68202912 3.0259293 3.36816192 5.1764962 6.47 5.18h52c3.0049028 0 5.8867327-1.193693 8.0115198-3.3184802 2.1247872-2.1247871 3.3184802-5.006617 3.3184802-8.0115198v-29c.0111526-3.35465306-2.4816376-6.19068459-5.81-6.61z" fill="#ec5565"/><path d="m25.26.06h-18.4c-3.63980479.03837356-6.57020228 2.99999294-6.57 6.64v17.3h25z" fill="#4658a9"/><path d="m10.83 17.46v6.54h3.9v-6.71l6.71 6.71h3.82v-3l-7-7h7v-4h-7l7-7v-3h-3.83l-6.7 6.7v-6.7h-3.9v6.56l-6.16-6.16c-1.56329281.56647757-2.85814249 1.69724162-3.63 3.17l6.41 6.41h-7.16v4h7.16l-7.16 7.16v2.86h4z" fill="#fff"/><path d="m11.83 14.72v9.28h1.9v-9.45l9.45 9.45h2.08v-1.23l-9.78-9.78h9.78v-1.95h-9.78l9.78-9.78v-1.23h-2.09l-9.45 9.45v-9.45h-1.9v9.3l-8.33-8.34c-.6736073.40866358-1.26948293.93344041-1.76 1.55l8.49 8.49h-9.93v1.97h9.93l-9.93 9.93v1.07h2.23z" fill="#ec5463"/><path d="m56.74 12v17c0 4.52-9 6-9 6s-9-1.47-9-6v-17z" fill="#fff"/><path d="m47.7 35s9-1.47 9-6v-1.08h-18.04v1.08c0 4.49 9.04 6 9.04 6z" fill="#51c161"/></g><path d="m56.74 12v17c0 4.52-9 6-9 6s-9-1.47-9-6v-17z" stroke="#fff" stroke-linecap="round" stroke-linejoin="round"/><g fill-rule="nonzero"><path d="m52.08 19.19c-.2422457.0282791-.4877381.0044118-.72-.07-.4-.12-.57-.07-.69 0 .0915673-.2237278-.00999-.4798287-.23-.58 0 0 .13.33 0 .48 0 0-.08.07-.17 0-.0910341-.0896522-.1879133-.1731688-.29-.25.1922875-.0654528.3101795-.2591325.28-.46-.0137219-.2030338-.1539788-.3753494-.35-.43.0190035.0856249.0190035.1743751 0 .26 0 0-.37-.21.13-.5s.41-.46.32-.61c-.1011572-.1470765-.2302788-.2728001-.38-.37.0546569.0866732.0824885.1875626.08.29 0 .13-.24.22-.2 0s0-.19 0-.44c.2483415.0887098.5223499-.0350359.62-.28 0 0 .17-.45-.39-.67 0 0 .14.18.07.32s-.12.23-.26 0-.23-.22-.22-.43c0 0 .51.07.37-.48 0 0-.08.37-.74-.13 0 0 .43-.44.26-.8 0 0-.05-.16-.52-.07 0 0 .41-.26.23-.47 0 0-.09-.15-.47 0 0 0 .15-.25-.22-.53-.1346833.0704583-.2619833.1542083-.38.25-.1272227-.1614357-.2677114-.3119592-.42-.45-.1874126.0832372-.3245559.2500331-.37.45-.1226573-.1231564-.2793932-.2067489-.45-.24-.0995584.1590374-.0995584.3609626 0 .52-.1425008-.0163713-.28116-.0569544-.41-.12 0 0-.3-.14-.26.12.0158152.1534312.0598908.3026102.13.44 0 0-.68-.16-.65.21.0105637.2548473.1264541.4938714.32.66 0 0-.38.49-.7.12 0 0-.11.12.13.44 0 0 .24.27 0 .43 0 0-.27.21-.4-.2-.1177744.0982769-.1788127.2487933-.1627548.4013426.0160578.1525494.1070986.2870574.2427548.3586574.2195217.1062896.4818173.0665478.66-.1 0 0-.1.82-.42.67 0 0-.19-.14.15-.31-.2756404-.0420939-.5339893.1449862-.58.42-.0264417.2420979.1326093.465629.37.52 0 0 .33.12 0 .38-.1399872.1105462-.1744457.3086829-.08.46 0 0 .19.3-.29.33-.1196452.0130505-.2403548.0130505-.36 0-.0524697.1350838-.0524697.2849162 0 .42 0 0-.24-.18-.79 0s-.51.06-.55.12-.15.26-.15.26.29.35.29.34-.05.4-.05.4l.14.07 1.13-.5 1.15-.6.92.06.59.14.77.06.55-.29h.8l.88.44 1 .6.52.09h.4v-.81z" fill="#ec5565"/><path d="m43 20.14s.44.22.62 0c.06752-.1168114.0732482-.2593647.0153184-.381217s-.1721014-.207404-.3053184-.228783c.1703795-.1870123.1703795-.4729877 0-.66-.1317497-.0935484-.3082503-.0935484-.44 0-.0758425-.1444426-.2268947-.2335246-.39-.23-.1518124.007974-.281118.1130348-.32.26 0 0-.33-.14-.51.06-.0855619.0893561-.122269.2147703-.0983894.3361586.0238797.1213882.1053565.2235531.2183894.2738414h.3l.3-.14.33.1c-.007935.2360813.0958138.4621055.28.61z" fill="#ec5565"/><path d="m52.74 19.34c.297885-.0323685.583337.1284495.71.4.1640795.3637856.0310807.792814-.31 1 .012973.1129621.012973.2270379 0 .34.83.1.68 1 .68 1l-.27-.23c-.48-.19-1 .22-1.32.9s-.18 1-.12 1.81 1.37 1.29 1.37 1.29l-1 2.63c-.0789505.3103212-.3202317.5532662-.6300031.6343473-.3097713.0810811-.6391366-.0125001-.8599969-.2443473-.24-.22-.31-.1-.43 0s.55.62-.68 1.12c-.6120139.218221-1.1733517.5584258-1.65 1-.3780013.0961244-.7765988.0716491-1.14-.07-.08-.11 0-.11-.35-.3s-.86-.37-1.44-.65-.57-.65-.57-.73.2-.69-.48-.2c-.4227683.2433504-.9594265.1461603-1.27-.23-.13-.18-.71-1.71-.71-1.71-.1248842-.4233371-.2785762-.8376372-.46-1.24 0 0 0 .07.48-.22.4471818-.2946154.7709192-.7428672.91-1.26.1104231-.4866772.0897184-.9939408-.06-1.47-.06-.17-.44-.93-.91-1.08-.2846024-.0835533-.5915966.0109065-.78.24 0 0-.14-.93.68-1-.012973-.1129621-.012973-.2270379 0-.34-.3410807-.207186-.4740795-.6362144-.31-1 .126663-.2715505.412115-.4323685.71-.4l-.13.24s-.13 1.33 1.81.44 1.88-1.05 3-.5h.81s1.17-.54 1.54-.31 1.72 1 1.72 1 1.3.49 1.55-.41z" fill="#3cafda" stroke="#fff" stroke-linecap="round" stroke-linejoin="round" stroke-width=".1"/><path d="m46.9 25.09s-.07-.41-.14-.67c-.0787811-.2360597-.0417266-.4954414.1-.7l.3-.35c.1040571-.1404743.2517696-.2424663.42-.29 0 0 .23 0 .26-.05s.28-.47.89 0c.1140485-.1756622.2882797-.3036688.49-.36.173547-.0576081.3646353-.001874.48.14.1091095-.0749023.2451938-.0991816.373474-.0666329.1282803.0325487.2363267.1187716.296526.2366329.1299517-.066329.2809333-.0783059.4197172-.0332948.138784.045011.2539968.1433212.3202828.2732948.2569263-.1222442.5643932-.0152992.69.24.26.44.21.62.21.62l.19.7.69.85-1.6.6h-.72l-1.43.38-2.55.2-.71-.84z" fill="#fff"/><path d="m44.75 29.32c-.1983764.0097599-.3940372.0502414-.58.12-.19598.1066356-.3862406.2234623-.57.35 0 0-.1.14-.55.05 0 0-.76-.18-.76.41 0 0-.91.08-.54.87.0471544.1588432.1760924.2800522.3375438.3173102s.3304647-.015193.4424562-.1373102c0 0-.34.48.31.67.1273705.0331706.2627304.0137051.3755926-.0540123.1128623-.0677173.1937365-.1779923.2244074-.3059877.0403873-.147894.0027015-.3061747-.1-.42.158453-.0457892.294019-.1492475.38-.29 0 0-.48.6 0 .82.1635759.0518717.342143.0213356.4791871-.081944s.2156027-.2665194.2108129-.438056c-.0314004-.1712601.0487921-.343674.2-.43.3467015-.1054436.626464-.3631195.76-.7 0 0-.7-.39-.62-.75z" fill="#ec5565"/><path d="m43.21 23.31s-.59-.27-.87 0c-.2480612-.1408751-.5519388-.1408751-.8 0-.2363767.1552447-.4573808.3327177-.66.53 0 0-.19.16-.12.67.0384008.1779519.0384008.3620481 0 .54 0 0-.13 0-.39.28 0 0-.33.38-.62 0 .0308716.1358148.1149367.2535682.2333609.3268785.1184243.0733102.261308.0960489.3966391.0631215 0 0-.26.21 0 .74.0957239.2840032.0590222.5959669-.1.85.2892422-.1344717.4674625-.4315055.45-.75-.0203412-.2183278.0140269-.4382838.1-.64 0 0-.14.24.18.76.1298616.2366912.1298616.5233088 0 .76.2886702-.1261687.4596794-.4274706.42-.74 0-.57-.33-.33-.14-.85.0239715.1467849.0860381.2847107.18.4.2097505.1839244.3018768.4679803.24.74.1558091-.1984816.2308233-.4485287.21-.7-.0177673-.1594341-.0616891-.31485-.13-.46l.88-.5.44-.79z" fill="#ec5565"/><path d="m42.93 22.37v-.94c-.0104526-.0914139.0322768-.1807571.11-.23.11-.09.23-.23.4.17.1370468-.15024.2876877-.2874905.45-.41.0493001-.0483877.1200801-.0679089.1872143-.0516339.0671341.0162749.1211171.0660417.1427857.1316339.0839805-.1327247.1926039-.248137.32-.34 0 0 .34-.22.35.44l.26-.24c.1357483-.1004668.3269385-.0737891.43.06.1551077.1454734.2988603.3025984.43.47.0556694.0867509.0867731.1869739.09.29-.0021705.1146772.0329191.2269639.1.32.0691538.060905.1512077.1053508.24.13.1626273.0095805.305876.1102417.37.26 0 0 0 0 .18 1.18v2.24l-1.51 1.8-2.42-.69-1-.4-.22-.71.93-.6.51-1.37-.16-1z" fill="#f2d660"/><path d="m48.35 25.44-1.46-5.03-.05.01 1.28 5.1z" fill="#e77329"/><path d="m43.93 31.52c-.0360237.0759447-.0360237.1640553 0 .24.022096.0648358.022096.1351642 0 .2.0230199-.0612416.0230199-.1287584 0-.19 0 0-.07-.17 0-.25z" fill="#fff"/><path d="m52.37 20.14s-.44.22-.62 0c-.06752-.1168114-.0732482-.2593647-.0153184-.381217s.1721014-.207404.3053184-.228783c-.1703795-.1870123-.1703795-.4729877 0-.66.1317497-.0935484.3082503-.0935484.44 0 .0758425-.1444426.2268947-.2335246.39-.23.1518124.007974.281118.1130348.32.26 0 0 .33-.14.51.06.0855619.0893561.122269.2147703.0983894.3361586-.0238797.1213882-.1053565.2235531-.2183894.2738414h-.3l-.3-.14-.33.1c.007935.2360813-.0958138.4621055-.28.61z" fill="#ec5565"/><path d="m49.6 23.56.11-.17.27-.21c.1734797.4374122.3204133.8848916.44 1.34v.34s.63.16.74 1.12l-.52 1-.81-.45-.23-.17v-2.75z" fill="#e77329"/><path d="m41.91 31.1s0 0 0-.06 0 0 0 0c-.0931945.1428073-.0931945.3271927 0 .47-.0712374-.1273836-.0712374-.2826164 0-.41z" fill="#fff"/><path d="m50.59 29.32c.1983764.0097599.3940372.0502414.58.12.19598.1066356.3862406.2234623.57.35 0 0 .1.14.55.05 0 0 .76-.18.76.41 0 0 .91.08.54.87-.0471544.1588432-.1760924.2800522-.3375438.3173102s-.3304647-.015193-.4424562-.1373102c0 0 .34.48-.31.67-.1273705.0331706-.2627304.0137051-.3755926-.0540123-.1128623-.0677173-.1937365-.1779923-.2244074-.3059877-.0403873-.147894-.0027015-.3061747.1-.42-.158453-.0457892-.294019-.1492475-.38-.29 0 0 .48.6 0 .82-.1635759.0518717-.342143.0213356-.4791871-.081944s-.2156027-.2665194-.2108129-.438056c.0314004-.1712601-.0487921-.343674-.2-.43-.3467015-.1054436-.626464-.3631195-.76-.7 0 0 .69-.39.62-.75z" fill="#ec5565"/><path d="m46.37 26.32-1.46-5.03-.05.02 1.28 5.09z" fill="#e77329"/><path d="m42.89 32.07c-.1134636-.1248376-.1680623-.2922735-.15-.46 0 0 0-.06 0-.07s0 0 0 .06c-.0244921.1762014.0346855.3537342.16.48 0 0 0 .01-.01-.01z" fill="#fff"/><path d="m49.72 23.39-2.79.88-.15 1.24c-.5025788.6127117-1.215822 1.0156941-2 1.13l1 1.12 2 .42 1.06-.81 1-.88c-.0446192-.3887238-.0446192-.7812762 0-1.17-.0067646-.129912-.0067646-.260088 0-.39-.079646-.5094716-.1197656-1.0243405-.12-1.54z" fill="#e77329"/><path d="m52.14 23.31s.59-.27.87 0c.2480612-.1408751.5519388-.1408751.8 0 .2363767.1552447.4573808.3327177.66.53 0 0 .19.16.12.67-.0384008.1779519-.0384008.3620481 0 .54 0 0 .13 0 .39.28 0 0 .33.38.62 0-.0308716.1358148-.1149367.2535682-.2333609.3268785-.1184243.0733102-.261308.0960489-.3966391.0631215 0 0 .26.21 0 .74-.0957239.2840032-.0590222.5959669.1.85-.2892422-.1344717-.4674625-.4315055-.45-.75.0203412-.2183278-.0140269-.4382838-.1-.64 0 0 .14.24-.18.76-.1298616.2366912-.1298616.5233088 0 .76-.2886702-.1261687-.4596794-.4274706-.42-.74 0-.57.33-.33.14-.85-.0239715.1467849-.0860381.2847107-.18.4-.2097505.1839244-.3018768.4679803-.24.74-.1558091-.1984816-.2308233-.4485287-.21-.7.0177673-.1594341.0616891-.31485.13-.46l-.88-.5-.44-.79z" fill="#ec5565"/><path d="m42.16 26.49c.0148039-.1016844.0775383-.1900739.1686406-.2376055.0911022-.0475316.1994883-.0484224.2913594-.0023945.0869489-.3795648.4206963-.6515071.81-.66.191665-.0084274.3781856.0633238.5147895.1980304s.2109566.3202055.2052105.5119696c.1214224-.1706099.3207619-.268399.53-.26 0 0 .57 0 .36.89l.11.12s.44-1 1.34-.76c0 0 .88.27.31 1.12 0 0 .44.57.8.51.4754947-.0543011.8827007-.3654679 1.06-.81.3160988-.4745699.8608723-.7450518 1.43-.71.1910146.0220303.3534024.1496208.42.33.2766777-.8803597 1.1598236-1.4221932 2.07-1.27l.65.33.25.11-.37 1-.9 2-.68.21-.71-.41-.25.13v.61l-.94.67-.65.27-.72.49-.17.44c-.2714727-.097727-.5685273-.097727-.84 0l-.15-.36-.42-.4-1.63-.77-.29-.95-.3-.13-.33.38-.49.06-.72-.49z" fill="#fff"/><path d="m44.53 22.11v.08c.3761659.0216092.7425068-.1249272 1-.4v-.08c-.3750428-.0149045-.7386962.1305569-1 .4z" fill="#e77329"/><path d="m46.52 21.4 1.07-.41.03.08-1.07.4z" fill="#e77329"/><path d="m52.45 32.07c.1134636-.1248376.1680623-.2922735.15-.46 0 0 0-.06 0-.07s0 0 0 .06c.0244921.1762014-.0346855.3537342-.16.48 0 0-.01.01.01-.01z" fill="#fff"/><path d="m53.41 31.1s0 0 0-.06 0 0 0 0c.0931945.1428073.0931945.3271927 0 .47.0712374-.1273836.0712374-.2826164 0-.41z" fill="#fff"/><path d="m51.4 31.52c.0360237.0759447.0360237.1640553 0 .24-.022096.0648358-.022096.1351642 0 .2-.0230199-.0612416-.0230199-.1287584 0-.19 0 0 .08-.17 0-.25z" fill="#fff"/><path d="m47.75 15.06c-.34 0-.05.26-.05.26 0 .42-.33.55-.56.43s0-.43 0-.43c-.0677955.0411493-.1157811.1082681-.1327849.1857301-.0170039.0774621-.0015424.1585083.0427849.2242699.16.24.6.14.75-.09.16.23.59.34.75.09.0443273-.0657616.0597888-.1468078.0427849-.2242699-.0170038-.077462-.0649894-.1445808-.1327849-.1857301 0 0 .18.3 0 .43s-.56 0-.56-.43c-.1 0 .19-.26-.15-.26z" fill="#fff"/><path d="m48 14.65c.1444596-.1901964.3879667-.2766021.62-.22 0 0-.13.38-.62.22z" fill="#fff"/><path d="m47.41 14.65c-.1444596-.1901964-.3879667-.2766021-.62-.22 0 0 .13.38.62.22z" fill="#fff"/><g fill="#f2d660"><path d="m46.45 19s.39.12.61.21c.4160726.1547747.8739274.1547747 1.29 0 0 0 .49-.19.55-.21l-.37.57v.29l.23.34s-.14.06-.56-.2c-.3018246-.2049675-.6981754-.2049675-1 0-.1667338.1129826-.3594161.1817977-.56.2l.36-.4-.14-.36z"/><path d="m48.89 19.78c-.0080641.0515208-.0484792.0919359-.1.1-.0657253.013157-.1306796-.0258155-.15-.09-.0239265-.1309688.0307901-.2638521.14-.34 0 0 .28-.23.8 0 0 0 .42.2.71.37 0 0 .75.4.84.43.2616539.1167792.5436002.1813212.83.19.384955.0372404.7622162-.1249819 1-.43 0 0 .22-.37 0-.6-.060766-.0670056-.1501589-.100528-.24-.09-.0785563.0088821-.1504312.0484134-.2.11-.0655239.0780739-.0655239.1919261 0 .27 0 0 .16.1.22-.11.0385437.0997391.0385437.2102609 0 .31 0 0-.41.63-1.56 0l-1.5-.84c-.4060839-.2126672-.9047643-.121998-1.21.22-.0997779.1221585-.1455013.279685-.1266343.4362812.018867.1565963.100697.2987549.2266343.3937188.1913788.1196558.4431087.06666.57-.12 0 0 .18-.33-.1-.47-.0630119-.033407-.1372921-.0383112-.2041492-.0134785-.066857.0248326-.1199252.0770376-.1458508.1434785-.1.25.19.32.22.14-.03 0-.02-.05-.02-.01z"/><path d="m52.58 25.51c-.4207671-.2789653-.7124394-.7146734-.81-1.21-.0958693-.501533-.0401674-1.0202562.16-1.49.2141963-.5131478.6413833-.9074742 1.17-1.08-.4129272.2932785-.7323886.6995501-.92 1.17-.0948409.36881-.1185972.7523045-.07 1.13.0258468.2904297.0897264.5762069.19.85z"/><path d="m53.31 25.95c-.6687523-.2488741-1.178021-.8027504-1.37-1.49-.1275267-.5436092-.0820773-1.1134757.13-1.63.49-1.16 1.33-1.16 1.33-1.16.2242179-.0246697.4293864.1281154.47.35.0342941.1346902-.0222765.2761169-.14.35-.1506071.0960893-.3483631.0708439-.47-.06-.0589168-.0876895-.0589168-.2023105 0-.29.051937-.0598289.1342948-.0833597.21-.06.11 0 .1.17.1.17.0086686-.0440346-.0015555-.0896855-.0281781-.1258161-.0266226-.0361307-.0671958-.0594191-.1118219-.0641839 0 0-.32-.07-.71.4-.3108086.4285138-.4850715.9408467-.5 1.47-.0232993.9533198.6296948 1.7904917 1.56 2-.2069684.3667483-.3713673.7559375-.49 1.16-.1851359.6162495-.4157698 1.2179033-.69 1.8-.2680895.5254397-.895241.7562662-1.44.53 0 0-.59-.26-.59-.69 0 0 0-.39.31-.42 0 0 .35 0 .34.27 0 0 0 .32-.37.25-.073702-.0151127-.1222814-.0857737-.11-.16 0 0 0-.12.18-.07-.0419853-.0152857-.0880147-.0152857-.13 0-.0409696.0205797-.0648783.0644124-.06.11.0019299.0465631.0286367.0885309.07.11.0561956.0103334.1138044.0103334.17 0 .071729.1286347.1897087.2251636.33.27.2511471.0870361.5292277.041942.74-.12.1338413-.124837.2424737-.2742066.32-.44.20979-.4580431.390156-.9289989.54-1.41.0969479-.3124758.2104414-.6195759.34-.92z"/><path d="m50.27 28.9s.2 0 .2.15c0 0 0 .26-.33.21-.0876377-.0213689-.1610082-.0810379-.1997905-.1624807s-.0388592-.1760135-.0002095-.2575193c.0557292-.1507696.2119819-.2394536.37-.21 0 0 .29 0 .42.41.0541259.2082131.0291874.4290965-.07.62-.2270326.2875995-.532769.5030047-.88.62-.4078182.154477-.8024437.3417569-1.18.56 0 0-.42.31-.23.6.039806.0624835.106238.1030808.18.11.0701384.0007189.1299834-.0505768.14-.12-.0068082.0422861-.0325984.0791292-.07.1-.0550778.0343706-.1249222.0343706-.18 0-.0533333-.0711111-.0533333-.1688889 0-.24.0780037-.1279783.2429509-.1718391.3742187-.0995079.1312677.0723312.1823015.235202.1157813.3695079-.0587372.139687-.1986588.2276376-.35.22-.1229218-.0069215-.2395995-.0564211-.33-.14-.1884281-.2445837-.1884281-.5854163 0-.83.1340193-.1598382.3059071-.2835974.5-.36l.94-.39c.2540752-.0836233.4840113-.2277624.67-.42.0971378-.1247955.1592691-.2732202.18-.43 0 0 0-.2-.08-.25-.0426866-.0105878-.0873134-.0105878-.13 0z"/><path d="m46.45 19.78c.0080641.0515208.0484792.0919359.1.1.0657253.013157.1306796-.0258155.15-.09.0239265-.1309688-.0307901-.2638521-.14-.34 0 0-.28-.23-.8 0 0 0-.42.2-.71.37 0 0-.75.4-.84.43-.2616539.1167792-.5436002.1813212-.83.19-.384955.0372404-.7622162-.1249819-1-.43 0 0-.22-.37 0-.6.060766-.0670056.1501589-.100528.24-.09.0785563.0088821.1504312.0484134.2.11.0655239.0780739.0655239.1919261 0 .27 0 0-.16.1-.22-.11-.0385437.0997391-.0385437.2102609 0 .31 0 0 .41.63 1.56 0l1.5-.84c.4060839-.2126672.9047643-.121998 1.21.22.0997779.1221585.1455013.279685.1266343.4362812-.018867.1565963-.100697.2987549-.2266343.3937188-.1913788.1196558-.4431087.06666-.57-.12 0 0-.18-.33.1-.47.0630119-.033407.1372921-.0383112.2041492-.0134785.066857.0248326.1199252.0770376.1458508.1434785.1.25-.19.32-.22.14.03 0 .03-.05.02-.01z"/><path d="m42.77 25.51c.4207671-.2789653.7124394-.7146734.81-1.21.0958693-.501533.0401674-1.0202562-.16-1.49-.2141963-.5131478-.6413833-.9074742-1.17-1.08.4129272.2932785.7323886.6995501.92 1.17.0948409.36881.1185972.7523045.07 1.13-.0258468.2904297-.0897264.5762069-.19.85z"/><path d="m42 25.95c.6687523-.2488741 1.178021-.8027504 1.37-1.49.1275267-.5436092.0820773-1.1134757-.13-1.63-.49-1.16-1.33-1.16-1.33-1.16-.2242179-.0246697-.4293864.1281154-.47.35-.0342941.1346902.0222765.2761169.14.35.1506071.0960893.3483631.0708439.47-.06.0589168-.0876895.0589168-.2023105 0-.29-.051937-.0598289-.1342948-.0833597-.21-.06-.11 0-.1.17-.1.17-.0086686-.0440346.0015555-.0896855.0281781-.1258161.0266226-.0361307.0671958-.0594191.1118219-.0641839 0 0 .32-.07.71.4.3108086.4285138.4850715.9408467.5 1.47.0232993.9533198-.6296948 1.7904917-1.56 2 .2069684.3667483.3713673.7559375.49 1.16.1851359.6162495.4157698 1.2179033.69 1.8.2680895.5254397.895241.7562662 1.44.53 0 0 .59-.26.59-.69 0 0 0-.39-.31-.42 0 0-.35 0-.34.27 0 0 0 .32.37.25.073702-.0151127.1222814-.0857737.11-.16 0 0 0-.12-.18-.07.0419853-.0152857.0880147-.0152857.13 0 .0409696.0205797.0648783.0644124.06.11-.0019299.0465631-.0286367.0885309-.07.11-.0561956.0103334-.1138044.0103334-.17 0-.071729.1286347-.1897087.2251636-.33.27-.2511471.0870361-.5292277.041942-.74-.12-.1338413-.124837-.2424737-.2742066-.32-.44-.20979-.4580431-.390156-.9289989-.54-1.41-.0969479-.3124758-.2104414-.6195759-.34-.92z"/><path d="m45.07 28.9s-.2 0-.2.15c0 0 0 .26.33.21.0876377-.0213689.1610082-.0810379.1997905-.1624807s.0388592-.1760135.0002095-.2575193c-.0557292-.1507696-.2119819-.2394536-.37-.21 0 0-.29 0-.42.41-.0541259.2082131-.0291874.4290965.07.62.2270326.2875995.532769.5030047.88.62.4078182.154477.8024437.3417569 1.18.56 0 0 .42.31.23.6-.039806.0624835-.106238.1030808-.18.11-.0701384.0007189-.1299834-.0505768-.14-.12.0068082.0422861.0325984.0791292.07.1.0550778.0343706.1249222.0343706.18 0 .0533333-.0711111.0533333-.1688889 0-.24-.0780037-.1279783-.2429509-.1718391-.3742187-.0995079-.1312677.0723312-.1823015.235202-.1157813.3695079.0587372.139687.1986588.2276376.35.22.1229218-.0069215.2395995-.0564211.33-.14.1884281-.2445837.1884281-.5854163 0-.83-.1340193-.1598382-.3059071-.2835974-.5-.36l-.94-.39c-.2540752-.0836233-.4840113-.2277624-.67-.42-.0971378-.1247955-.1592691-.2732202-.18-.43 0 0 0-.2.08-.25.0426866-.0105878.0873134-.0105878.13 0z"/><path d="m42.06 31.88c-.3115582-.1937609-.4206464-.5952053-.25-.92.0486493-.0906424.1478569-.1422303.25-.13 0 0 .34.11.07.58-.0670115.1469832-.091271.3098683-.07.47z"/><path d="m43.17 32.42s-.78-.35-.54-1c0 0 .07-.2.25-.19 0 0 .3 0 .24.41-.0600137.2592915-.0426289.5304933.05.78z"/><path d="m43.7 32.27c.3485462-.084301.5689238-.42809.5-.78-.0256-.1525333-.1664-.2581333-.32-.24 0 0-.31.08-.11.48.067862.1804472.0416285.38282-.07.54z"/><path d="m52.17 32.42s.78-.35.54-1c0 0-.07-.2-.25-.19 0 0-.3 0-.24.41.0600137.2592915.0426289.5304933-.05.78z"/><path d="m53.27 31.88c.3115582-.1937609.4206464-.5952053.25-.92-.0486493-.0906424-.1478569-.1422303-.25-.13 0 0-.34.11-.07.58.0670115.1469832.091271.3098683.07.47z"/><path d="m51.64 32.27c-.3485462-.084301-.5689238-.42809-.5-.78.0256-.1525333.1664-.2581333.32-.24 0 0 .31.08.11.48-.067862.1804472-.0416285.38282.07.54z"/><path d="m53.2 19.91c.0683273-.1467867.0859163-.3121236.05-.47 0-.35.27-.39.38-.29s.12.1 0 .33c-.0876815.1898771-.2401229.3423185-.43.43z"/><path d="m53.1 19.78s0-.14-.25-.38 0-.46.11-.46.15 0 .21.24c.0490774.2019413.0242463.4147798-.07.6z"/><path d="m52.77 19.67s-.06-.11-.36-.22-.22-.37-.09-.43.13-.06.27.12c.1218626.1492282.1857776.3374223.18.53z"/><path d="m53 19.79c-.1622891.0109399-.3237361-.0311767-.46-.12-.32-.16-.46.11-.41.26s.06.15.31.12c.2119413-.0161901.4108601-.1085452.56-.26z"/><path d="m42.12 19.91c-.0683273-.1467867-.0859163-.3121236-.05-.47 0-.35-.27-.39-.38-.29s-.12.1 0 .33c.0876815.1898771.2401229.3423185.43.43z"/><path d="m42.22 19.78s0-.14.25-.38 0-.46-.11-.46-.15 0-.21.24c-.0490774.2019413-.0242463.4147798.07.6z"/><path d="m42.55 19.67s.06-.11.36-.22.22-.37.09-.43-.13-.06-.27.12c-.1218626.1492282-.1857776.3374223-.18.53z"/><path d="m42.36 19.79c.1622891.0109399.3237361-.0311767.46-.12.32-.16.46.11.41.26s-.06.15-.31.12c-.2119413-.0161901-.4108601-.1085452-.56-.26z"/></g></g></g></svg>