<svg height="48" viewBox="0 0 71 48" width="71" xmlns="http://www.w3.org/2000/svg"><g fill="none"><rect fill="#ffce54" height="47" rx="6.36" width="70" x=".77" y=".13"/><path d="m70.77 34.15-70-21.15v7.36l70 21.13c.0134685-.239811.0134685-.480189 0-.72z" fill="#434a54"/><path d="m.77 12 70 21.15v-7.36l-69.77-21.07c-.1697596.5747742-.25729477 1.17068674-.26 1.77z" fill="#fff"/><path d="m44 33.1c.1815545-.3793987.1815545-.8206013 0-1.2-.1938553.3055396-.4984822.5241541-.85.61l-.15-.17c-.1944541-.2973762-.298649-.6446929-.3-1-.0357005-.2914264-.2679777-.5195558-.56-.55 2.3549967-2.928147 2.3215426-7.1099053-.08-10 .1281408-.065324.2173351-.1879662.24-.33.73 0 .9-.24 1-.58.67-.33.68-.75.08-.68-1.3646177.1470277-2.7439231-.0667647-4-.62-1.18-.38-2.28-1-3.24-.54v-.91c.159454-.1863462.2448675-.4247924.24-.67-.0009236.374327.1920515.7224391.51.92.2886081-.2474529.4348724-.6224897.39-1-.0623366.4622816.2032184.9062564.64 1.07.2501505-.7984308.0428798-1.669735-.54-2.27-.0493354-.0421709-.1073891-.0729052-.17-.09-.3277927-.0772943-.6632264-.1175463-1-.12v-.62c.92 0 1 .71 2.2.71-.48-.16-.26-.7-.62-1 .3304078-.090803.6176072-.2964519.81-.58-1.24 0-1.44-.91-2.42-1v-.19c.2487843-.0847675.4170881-.317187.42-.58.0071153-.3220583-.2298713-.5976037-.5493691-.638754-.3194977-.0411503-.6185706.1653524-.6932939.4787029-.0747234.3133506.0989772.6325936.402663.7400511v2.61c-.3367682.0025378-.6721926.0427887-1 .12-.0626109.0170948-.1206646.0478291-.17.09-.5828798.600265-.7901505 1.4715692-.54 2.27.4367816-.1637436.7023366-.6077184.64-1.07-.0448724.3775103.1013919.7525471.39 1 .3179485-.1975609.5109236-.545673.51-.92-.0071262.2533719.0822304.4999961.25.69v.9c-1-.51-2.07.14-3.26.53-1.2560769.5532353-2.6353823.7670277-4 .62-.6-.07-.59.35.08.68.1.33.26.53 1 .58.0226649.1420338.1118592.264676.24.33-2.4054273 2.8886726-2.4389036 7.0732127-.08 10-.2920223.0304442-.5242995.2585736-.56.55-.0043203.3563191-.1120138.7037173-.31 1l-.15.17c-.3515178-.0858459-.6561447-.3044604-.85-.61-.1801186.3797233-.1801186.8202767 0 1.2-.7087177-.0814883-1.381532.3312812-1.63 1 .8298904-.3324486 1.7648097-.2774534 2.55.15.9945304.8639985 2.3165181 1.2510999 3.62 1.06 2.3312251 1.0788854 5.0187749 1.0788854 7.35 0 1.3034819.1910999 2.6254696-.1960015 3.62-1.06.7851903-.4274534 1.7201096-.4824486 2.55-.15-.1395999-.392597-.4313886-.7124543-.8095499-.8874244-.3781613-.1749702-.8108435-.1903158-1.2004501-.0425756zm-6.58-11.75c.5834743.3680533 1.3265257.3680533 1.91 0 .64.1 1.63.21 1.67-.35h.17c.5287605.9115189.80813 1.9462206.81 3-.0147328 2.7604533-1.8669898 5.1728852-4.53 5.9.0578741-.4691656.2183394-.9198341.47-1.32-.318804.0149668-.6362113.0517193-.95.11.5-1.17-.43-2.38.63-3.69-.2486266-.0073541-.4910699.0782141-.68.24.19-1-.38-2 .45-3.07-.5438402.0483967-.9849744.4606716-1.07 1 .0135714-.2747496-.0378185-.548829-.15-.8v-1.3c.3732627.2670364.8456743.354927 1.29.24zm-2 1c-.1301184.2673968-.1919607.5628657-.18.86-.0850256-.5393284-.5261598-.9516033-1.07-1 .83 1.08.26 2.09.45 3.07-.1889301-.1617859-.4313734-.2473541-.68-.24 1.05 1.31.13 2.52.63 3.69-.313848-.0578865-.6312284-.0946358-.95-.11.2516606.4001659.4121259.8508344.47 1.32-2.6630102-.7271148-4.5152672-3.1395467-4.53-5.9.0049071-1.0546901.2877421-2.0894524.82-3h.17c0 .57 1 .45 1.67.35.5834743.3680533 1.3265257.3680533 1.91 0 .4535638.1140857.9343848.0186556 1.31-.26zm14.15-1.42c-.1026992.0073391-.1973412.0583001-.26.14-.3800013.049995-.7548085.1336574-1.12.25-.065397-.0784744-.1694823-.1133221-.2689463-.0900433s-.1772741.1006978-.2010537.2000433c-.0954985.2730981-.1428683.5607003-.14.85l-.15.27c-.2160433.1163958-.3855115.3035168-.48.53-.3001264.4146731-.6897597.7564567-1.14 1-.8.53-.53 1.4-.53 2.16 0 .5 0 1.8-.07 3.07-.0974489.4060091-.1444703.8224839-.14 1.24-.17.1-.39.38.08.67v.4c.3671647.2725779.8277592.3877265 1.28.32.4497787.0848075.9141094-.0321893 1.27-.32 0-.1 0-.24 0-.41.46-.3.25-.58.08-.68.0068125-.4176321-.040242-.8344001-.14-1.24 0-1.36-.09-2.89-.08-3.52.4456232-.3578744.8665801-.745422 1.26-1.16.2617841-.2352782.4435758-.5464217.52-.89.0664065-.2749366.149902-.5454621.25-.81.1308006-.4725575.2013596-.9597503.21-1.45 0-.47-.06-.59-.22-.59zm-23.15 10.71v-.4c.47-.29.25-.58.08-.67.0044703-.4175161-.0425511-.8339909-.14-1.24 0-1.27-.07-2.57-.07-3.07 0-.75.27-1.62-.53-2.16-.4502403-.2435433-.8398736-.5853269-1.14-1-.0944885-.2264832-.2639567-.4136042-.48-.53l-.15-.27c.0028683-.2892997-.0445015-.5769019-.14-.85-.0237796-.0993455-.1015897-.1767645-.2010537-.2000433s-.2035493.0115689-.2689463.0900433c-.365219-.116241-.7400171-.1999013-1.12-.25-.0634816-.0807273-.1576598-.1314386-.26-.14-.16 0-.25.12-.22.59.0086404.4902497.0791994.9774425.21 1.45.100098.2645379.1835935.5350634.25.81.0764242.3435783.2582159.6547218.52.89.3936317.4143629.8145737.8018968 1.26 1.16 0 .63 0 2.16-.08 3.52-.099758.4055999-.1468125.8223679-.14 1.24-.17.1-.38.38.08.68v.41c.3558906.2878107.8202213.4048075 1.27.32.4489683.0649874.9054312-.0500269 1.27-.32z" fill="#ed5565"/></g></svg>