<svg height="48" viewBox="0 0 71 48" width="71" xmlns="http://www.w3.org/2000/svg"><g fill="none"><path d="m.28 6.78v9h70v-9c0-3.66717074-2.9728293-6.64-6.64-6.64h-56.71c-1.76276947-.00265478-3.45424962.69574249-4.70165483 1.9412719-1.2474052 1.24552941-1.94834717 2.93595663-1.94834517 4.6987281z" fill="#ed5565"/><path d="m.28 31.48h70v-15.67h-70z" fill="#ffce54"/><path d="m.28 40.49c0 3.6671707 2.97282926 6.64 6.64 6.64h56.72c3.6671707 0 6.64-2.9728293 6.64-6.64v-9h-70z" fill="#52c162"/><path d="m40.42 25.64c.012429-.3108827.0944428-.615017.24-.89l.41-.71c.1285471-.2582196.1285471-.5617804 0-.82l-.42-.73c-.1446164-.2753526-.2265718-.5792708-.24-.89v-.84c-.0162721-.2883142-.1684214-.5517923-.41-.71l-.71-.4c-.2622201-.1657433-.4842567-.3877799-.65-.65l-.41-.71c-.1582077-.2415786-.4216858-.3937279-.71-.41h-.85c-.3106787-.0137546-.614527-.0956912-.89-.24l-.73-.42c-.2578455-.1301282-.5621545-.1301282-.82 0l-.7.41c-.2751076.1452405-.5791688.2272346-.89.24h-.82c-.2883142.0162721-.5517923.1684214-.71.41l-.42.73c-.1662638.2618035-.3881965.4837362-.65.65l-.73.42c-.2415786.1582077-.3937279.4216858-.41.71v.82c-.012429.3108827-.0944428.615017-.24.89l-.41.71c-.1285471.2582196-.1285471.5617804 0 .82l.42.73c.1437024.2757099.2256022.5794214.24.89v.84c.0185293.2901751.1746092.5540246.42.71l.71.4c.2624314.165479.484521.3875686.65.65l.41.71c.1582077.2415786.4216858.3937279.71.41h.85c.3106787.0137546.614527.0956912.89.24l.73.42c.2578455.1301282.5621545.1301282.82 0l.7-.41c.2751076-.1452405.5791688-.2272346.89-.24h.81c.2883142-.0162721.5517923-.1684214.71-.41l.42-.73c.1662638-.2618035.3881965-.4837362.65-.65l.73-.42c.2415786-.1582077.3937279-.4216858.41-.71z" fill="#ed5565"/></g></svg>