<svg height="48" viewBox="0 0 71 48" width="71" xmlns="http://www.w3.org/2000/svg"><g fill="none"><rect fill="#52c162" height="47" rx="6.36" width="70" x=".15" y=".13"/><path d="m7.93 23.63 27.21-21 27.21 21-27.21 21z" fill="#f6d660"/><path d="m31 18.55c-2.8302874-.0002811-5.6117528.737307-8.07 2.14-1.51993 6.2133713 1.8725227 12.5765085 7.8785017 14.7775051 6.0059791 2.2009966 12.7067008-.4633194 15.5614983-6.1875051-2.3754976-6.4388118-8.5069707-10.7192741-15.37-10.73z" fill="#4758a9"/><path d="m31 18.55c6.8630293.0107259 12.9945024 4.2911882 15.37 10.73.4491035-.9123159.7849304-1.8761392 1-2.87-4.4061592-8.4652057-14.5358062-12.1798431-23.37-8.57-.4681785.9032432-.8241534 1.8603456-1.06 2.85 2.4553026-1.4010137 5.2331027-2.1385437 8.06-2.14z" fill="#fff"/><path d="m47.4 26.42c1.3766375-6.1537126-2.0191366-12.3750554-7.9395174-14.5458617-5.9203808-2.17080629-12.5329119.3808247-15.4604826 5.9658617 8.847819-3.6327575 19.0052744.0900518 23.41 8.58z" fill="#4758a9"/></g></svg>