<svg height="48" viewBox="0 0 71 48" width="71" xmlns="http://www.w3.org/2000/svg"><g fill="none"><rect fill="#f6d660" height="47" rx="6.36" width="70" x=".77" y=".85"/><path d="m68.52 2.36-65.5 44c1.14675319.9762243 2.60399398 1.5116096 4.11 1.51h57.27c3.512531 0 6.36-2.847469 6.36-6.36v-34.3c.0027932-1.86738921-.8165179-3.6413441-2.24-4.85z" fill="#ed5565"/><path d="m58.17 12.95c-.65.07-1.25-.28-1.89-.2-.3553202.0403841-.6970491.1599892-1 .35l-.63.14.57-.55c.43-.34 1.05-.27 1.49-.61l.32-.77-.42.28c-.3211235.1111908-.6652834.1387236-1 .08l-.88.06-.61.54.24-.6.39-.75v-.79l.3-.64c.2729805-.24295716.5028912-.53034551.68-.85l-.16-.78-.13.54c-.2371533.28208425-.5172511.52506065-.83.72l-.39.61-.13.66-.44.55c-.2930854.2289781-.4778189.5694674-.51.94l-.18.82-.54.12h-.88c-.3374708-.2769023-.763646-.4225121-1.2-.41-.0877901-.3237522-.2858522-.6066982-.56-.8l-.73-.08-.24.14c-.2684688-.2180594-.5888987-.3627697-.93-.42-.3438888-.0433471-.6928111.0194589-1 .18-.2418016-.2920081-.5658349-.5045461-.93-.61-.3754039-.0765089-.7364672-.2114858-1.07-.4-.3641439-.3486115-.7874056-.62965729-1.25-.83-.5157764-.23927147-1.0723049-.37840358-1.64-.41l-.65.1-.46.28h.85c.4045895.04982292.79538.17895368 1.15.38l-.84-.18-.53.24.73.1.51.3-.1.34c-.5289802-.3824599-1.143523-.6296502-1.79-.72-.3615475-.05634737-.7291745.0539407-1 .3-.4325381-.1350343-.899993-.1029191-1.31.09l-.36.56.61-.22h.84v.08l.09-.05.57.22-.15.13c-.3315583-.0834595-.6807996-.062505-1 .06l-.45.45.48-.16h.71l-.09.6c-.7240022-.2910181-1.4999691-.430556-2.28-.41-.3985019.0113778-.7833292.1478166-1.1.39-.3377916.2353726-.4583368.6789917-.2861193 1.0529497.1722175.3739579.5876803.5707313.9861193.4670503l.36-.46-.36.08-.38-.24.27-.37c.4181702-.0935035.8518298-.0935035 1.27 0v.83c-.6530427.0342094-1.2744572.2919551-1.76.73-.38 0-.78 0-1.16.05-.3676565.0375447-.7157944.1837626-1 .42l-.27.72.57-.41c.550242-.2008097 1.1445262-.2491817 1.72-.14.4227622.0707712.8517158.0975808 1.28.08l-.06.35c-.3055776.2342959-.4494838.6232314-.37 1l-.23.78c-.706516.3042951-1.2638011.8759618-1.55 1.59l.16.1c.3210623-.3307652.7251773-.5690894 1.17-.69l-.2.65c-.213353.2364136-.3857241.5067997-.51.8-.0522122.3532791.0376814.7128536.25 1v-.14c.0290589-.3403662.1950715-.6543465.46-.87l.87-.22c-.0306281.321621.0960134.6382249.34.85l.47.21c-.1302547.4669088.0931123.9600019.53 1.17l-.24.22c-.3354397-.0208036-.672134.006132-1 .08l-.36.49.46-.12.61.31c.2969448.1884443.6546338.2564052 1 .19l.13.61h-.64l-.56-.2-.17-.31-.12.52.31.39h-.14l-.47-.52c-.3117532-.1502179-.6683298-.178744-1-.08-.1171905-.4353783-.5638982-.6944687-1-.58h-.08l-.12-.24-.4-.34-.32-.71-.61-.42v-.38l-.24.64.24.46v.28l-.74-.05h-.11l-.91-.07-.95-.11c-.1519101-.3169362-.4449443-.5432031-.79-.61l-.78-.21-.27-.45-.07.6.5.53.1.34h-.82c-.2943527.152314-.4765972.4586398-.47.79l-.92.13-.24.5c-.3471643-.247178-.8128357-.247178-1.16 0l-.67.3-.52.19-.11.48.39-.2.49.08h.46l-.17.44v.6c-.3433881.0849196-.6100298.3554256-.69.7l.05.77c-.4921722.2501676-.9521959.5590886-1.37.92l-.71.23-.44-.09.56.51c.4757537.0192753.9508394-.0519876 1.4-.21l-.24.85.1.47c-.3146845.2108973-.5254003.5451362-.58.92-.3198312.130238-.6195019.3053265-.89.52h-.54l.19.34.62.32-.38.26h-.39l.21.61c-.3804837.0977909-.7795163.0977909-1.16 0l.11.6c-.4065257-.1128848-.8314958-.1434826-1.25-.09l-.64.3-.07.19h.43-.46c-.326485.0955566-.673515.0955566-1 0-.3802433-.2676441-.8262033-.4266687-1.29-.46h-.68l-.59-.21c-.3466365-.1184398-.7302891-.0378727-1 .21l-.13.48.5-.23c.344259.1244329.6785562.2748667 1 .45h.89c.4820786.0419842.9460776.2035246 1.35.47-.3928553.0001362-.7824513.0712798-1.15.21l-.69.32c-.4378212.1013033-.8822659.1714788-1.33.21l-.54.27-.1.4.31-.14c.4863354.0253935.9736646.0253935 1.46 0 .3418479-.192206.7278285-.2921474 1.12-.29-.2596707.2866725-.6154779.4681342-1 .51-.3889998.0279517-.7691112.1297672-1.12.3l-.64.45c-.41.18-.88.11-1.27.32l-.46.39-.71.49-.56.11.81.27c.5234988-.1792566 1.0263515-.4139212 1.5-.7l.67-.07c.3513596-.0321878.6920442-.1378 1-.31l-.39.25c-.35.14-.72.2-1.07.33-.4234815.1511922-.8066397.3975081-1.12.72-.3548663.4071902-.7578083.769838-1.2 1.08-.3607113.2084664-.76435.3316104-1.18.36l.39.28.77-.14c.5731031-.2824387 1.164417-.526314 1.77-.73.31-.08.65 0 1-.12.3785381-.0795132.7258977-.2670874 1-.54l.57-.54.65-.11c.4136754-.2093085.7916716-.4826808 1.12-.81l.57-.15.35-.27-.48.54-.63.19c.2683655.1674198.5934596.21799.9.14.4451608-.2581324.8727608-.5454261 1.28-.86l.67-.16-.57.45-.76.41-.27.7.65-.44c.3206909-.1295352.6568279-.2169308 1-.26.3362557-.0478644.6427441-.2189276.86-.48.2378385-.3288138.5284271-.6160234.86-.85.3678487-.183855.7051457-.4233359 1-.71l.31-.53.66-.54c.4091957-.215006.8064443-.4520199 1.19-.71h.38l.6.05-.09.74-.7-.05-.39.27.34.17.32.26-.43.14-.33.55-.44.12.36.29c.3253366.0483084.6569889-.0265808.93-.21l.16.36-.07.29.4-.09.35-.66.33.48.18.36.1.42-.13.45c-.4246303.0581283-.8109889.2763493-1.08.61-.2296565.3364457-.3025831.7557735-.2 1.15l.12.48c.1874736.2295039.3177189.500277.38.79.0251298.4314977.1981758.8411577.49 1.16.323746.3582411.7694509.5828763 1.25.63h.36c.4791397-.0444884.9246461-.2654596 1.25-.62.3245278-.3614624.4965454-.834511.48-1.32l.27-.52c.1306842-.3031837.1306842-.6468163 0-.95.0319676-.3316243-.0687068-.6624116-.28-.92l.27-.09.57.29.5.6c.0593342.3944478.0593342.7955522 0 1.19.2489233-.2573263.4279244-.5740207.52-.92.0859816-.3913667.0366243-.8003271-.14-1.16l-.21-.77-.74-.35h-1.06l-.56-.17c.0641688-.295242-.0974567-.5929732-.38-.7-.0184878-.3974934-.2878191-.7391824-.67-.85-.1190193-.6407371-.0743035-1.3011546.13-1.92l.75.12.78.54.55.32c.3540793.0923351.7259207.0923351 1.08 0h.53c.4722482-.0550164.8982394-.3098829 1.17-.7.3020899-.42781.3802195-.9747172.21-1.47-.1078351-.3084107-.3022584-.5792145-.56-.78l-.08-.46c-.1684534-.3645369-.5386322-.592945-.94-.58h-.33l-.77.11-.5.15v-.32l.39-.48.6-.1h.44l-.53-.53c-.354579-.1911833-.7618711-.2614061-1.16-.2-.3276518.0479329-.603404.2700667-.72.58l-.12.28c-.2473623.2700872-.3578416.6383516-.3 1l-.31.22-.33-.09-.32-.73c.0248953-.3012877.0922272-.5975481.2-.88v-.42l.07-.66.31-.48.57-.56c.3495437.1064646.7280178-.0223777.94-.32.3123884.1671124.6876116.1671124 1 0l.24.15c.3192004.122505.6684417.1434595 1 .06l.84.24.46.24.65.12c.4212004.2497212.9161412.3451741 1.4.27.4869588.3009504 1.0615857.4278619 1.63.36.2802406.1778786.6262622.2183705.94.11l.53.14-.09.55-.37.06-.29.1-.69-.2-.34.31.44.11.5.31-.42.43-.35.48h-.46l.72.38c.3446473-.1731334.6785822-.3668157 1-.58l.12.5-.16.46.43-.08.46-.67c.0939685.3787937.4659621.6194954.85.55.2031398.3509928.5981462.544546 1 .49.2798186.3081247.7152253.4218796 1.11.29.2682817.2576927.628091.3980183 1 .39l.62-.12.74.37-.23.53.3.68.29.8.59.32.54.54c.3842827.1545733.8070781.1860209 1.21.09.6476405.2873011 1.395001.2387226 2-.13.9688894-.6160574 1.2553518-1.9006623.64-2.87l-.14-.2c.2336357-.4841025.1007514-1.0654717-.32-1.4l-.29-.35-.61-.12h-.87l.18-.53.36-.15.51-.39.63.08-.57-.51c-.4509157-.1948778-.96798-.1613988-1.39.09l-.74.2-.25.59c-.3660581-.0477976-.7033894.2052009-.76.57l-.65.33c-.2398793-.2069882-.5550801-.3048091-.87-.27l-.33-.24-.7-.07h-.22-.52c-.192116-.2845859-.5168046-.4507057-.86-.44l.18-.83.42-.49.47-.8c.8181065-1.1038692 1.1959784-2.4727636 1.06-3.84.3770693-.3207066.9010495-.4054681 1.36-.22l-.12.72-.5.25.44.19.56-.16c-.0525037.3440705.0108137.6958337.18 1l.74.43-.14-.42.27-.77.44.61v.45l.35-.6c-.065326-.4156327-.189928-.8197473-.37-1.2.4676303.0395405.9366688-.0577415 1.35-.28.37-.24.72-.52 1.12-.73l.42-.1.67.55.48.15c.3328243.1486649.6958866.2171672 1.06.2.3776901-.0025727.7383174-.1576424 1-.43l.5-.07c.3875278-.1716253.6850869-.4982146.82-.9l.51-.48c.0620595-.3448582-.0728447-.6956091-.35-.91l-.27-.63-.58-.37c-.1024503-.6574781-.572912-1.1979259-1.21-1.39-.5783788-.1745867-1.2059044-.0384968-1.66.36-.2887166.2634636-.4821074.6150832-.55 1-.2407754.2858535-.4487411.5978021-.62.93l-.41-.06c-.5244069.0555455-1.0409531.1695882-1.54.34-.3042094.0549023-.6157906.0549023-.92 0-.4118725-.0462056-.8175551-.1367298-1.21-.27l-.53-.29-.78-.5c-.4055381-.1620387-.8194644-.3022396-1.24-.42-.4001716-.194894-.7264537-.5141593-.93-.91l.52.06.37.15c.3330325.1525918.6322216.3701838.88.64l.65.45.8-.11-.63-.24c-.36-.28-.5-.74-.86-1l-.61-.27c.3280371-.3872632.8478761-.5540772 1.34-.43.3558626.1132619.7353296.1305104 1.1.05l.29-.1c.539489.0917277 1.0306125.3673222 1.39.78l.4.46-.5.57-.52.09.36.21c.3288527.1458815.7107206.1038761 1-.11l.14.48.65.34-.24-.4.33-.45.28.34-.07.39.45-.19.25-.64.57-.54c.1331532-.3159383.1946274-.6574612.18-1 .7942403.225968 1.6357597.225968 2.43 0 .5530267-.1524755 1.1273049-.2132815 1.7-.18l.78.35.09.73.38-.58-.34-.72c-.3854355-.2617995-.8347927-.4138897-1.3-.44-.0365806-.4846234-.4162975-.8727784-.9-.92l-.67.34h-.95l.1-.53-.16-.52.08-.32.12-.33.17-.22c.8233848-.0758437 1.6160665-.3503655 2.31-.8.7104843-.1679551 1.4404941-.2386012 2.17-.21l.65-.27.2-.37z" fill="#fff"/></g></svg>