<svg height="48" viewBox="0 0 71 48" width="71" xmlns="http://www.w3.org/2000/svg"><g fill="none"><rect fill="#ed5565" height="47" rx="6.36" width="70" x=".28" y=".85"/><path d="m.28 41.49c0 3.512531 2.84746899 6.36 6.36 6.36h57.28c3.512531 0 6.36-2.847469 6.36-6.36v-5.64h-70z" fill="#57a863"/><path d="m6.65.85c-3.51253101 0-6.36 2.84746899-6.36 6.36v34.27c0 3.512531 2.84746899 6.36 6.36 6.36h7.64v-47z" fill="#ed5565"/><path d="m2.28 19.85h2v2h-2zm0 6h2v-2h-2zm0-8h2v-2h-2zm0-12h2v-2h-2zm0 4h2v-2h-2zm0 20h2v-2h-2zm0-16h2v-2h-2zm0 32h2v-2h-2zm7-42v-3h-2.63c-.45739964.00110424-.91335431.05139336-1.36.15v2.85zm-4 41v2.85c.44664569.0986066.90260036.1488958 1.36.15h2.64v-3zm7-43v-1h-2v1zm-7 42h4v-4h-4zm-3-10h2v-2h-2zm0 4h2v-2h-2zm0 4h2v-2h-2zm3-28h4v-4h-4zm5 12h2v-2h-2zm0-4h2v-2h-2zm0 12h2v-2h-2zm0-16h2v-2h-2zm0 12h2v-2h-2zm0-24h2v-2h-2zm0 4h2v-2h-2zm0 4h2v-2h-2zm0 24h2v-2h-2zm-5-9h4v-4h-4zm0-5h4v-4h-4zm0 15h4v-4h-4zm0-5h4v-4h-4zm0-15h4v-4h-4zm0-10h4v-4h-4zm5 33h2v-2h-2zm0 4h2v-2h-2z" fill="#fff"/></g></svg>