<svg height="48" viewBox="0 0 71 48" width="71" xmlns="http://www.w3.org/2000/svg"><g fill="none"><path d="m.52 7.21v34.27c.00139441.8088067.15753513 1.6098765.46 2.36h69.08c.3024649-.7501235.4586056-1.5511933.46-2.36v-34.27c-.0013944-.80880674-.1575351-1.60987649-.46-2.36h-69.06c-.30931475.74877327-.4722539 1.54989073-.48 2.36z" fill="#4758a9"/><path d="m64.16.85h-57.27c-2.60292075-.00166581-4.94413666 1.58291349-5.91 4h69.08c-.9645096-2.41370051-3.3007264-3.99757633-5.9-4z" fill="#ed5565"/><path d="m6.89 47.85h57.27c2.6029207.0016658 4.9441367-1.5829135 5.91-4h-69.07c.96315121 2.4103215 3.29437529 3.9934957 5.89 4z" fill="#ed5565"/><circle cx="36.02" cy="24.35" fill="#fff" r="15.5"/><circle cx="36.02" cy="24.35" fill="#57a863" r="13.5"/><circle cx="36.02" cy="24.35" fill="#fff" r="11.5"/><path d="m38.28 20c-.8829255-.0144617-1.7111571-.430418-2.25-1.13-.5397964.6984255-1.3674327 1.1140828-2.25 1.13-.8386862-.0235132-1.6394672-.3545027-2.25-.93v6.12c0 4 4.5 5.69 4.5 5.69s4.5-1.67 4.5-5.69v-6.19c-.597595.6043683-1.4009465.9614134-2.25 1z" fill="#f6d660"/></g></svg>