<svg height="48" viewBox="0 0 71 48" width="71" xmlns="http://www.w3.org/2000/svg"><g fill="none"><path d="m6.65.7c-3.51253101 0-6.36 2.84746899-6.36 6.36v34.27c0 3.512531 2.84746899 6.36 6.36 6.36h17c0-15.6666667 0-31.3333333 0-47z" fill="#ed5565"/><path d="m23.63.7v47h23.37c0-15.6666667 0-31.3333333 0-47z" fill="#fff"/><g fill="#ed5565"><path d="m63.92.7h-16.92v47h16.92c3.512531 0 6.36-2.847469 6.36-6.36v-34.28c0-3.51253101-2.847469-6.36-6.36-6.36z"/><path d="m35.89 14.17c-.0718126-.2781663-.3227135-.4725198-.61-.4725198s-.5381874.1943535-.61.4725198l-.5 1c-.2236762.4826531-.5205033.9278938-.88 1.32-.4404318-.0205822-.8693255-.1475348-1.25-.37-.34-.18-.52.25-.39 1l.46 2.46c.1276783.5729734.1276783 1.1670266 0 1.74-.12.25-.92-.38-1.4-.93l-.44-.5c-.48-.54-.95-.7-1-.36-.0717411.2750541-.168823.5428664-.29.8-.567766.0538363-1.1405917.0029938-1.69-.15h-.14c-.2870406-.1516766-.6394238-.0985492-.8689865.1310135s-.2826901.5819459-.1310135.8689865v.16c.19.69.4 1.45.48 1.68-.1343328.3712096-.4222642.6664304-.79.81-.27.13 0 .61.53 1.08l2.7 2.23c.4083652.3073019.7958836.6413695 1.16 1 .0391563.3849271-.0051855.7737713-.13 1.14-.11.38.39.62 1.12.54l2.07-.24c.5030626-.0743656 1.0116767-.1044809 1.52-.09.1552967.4941695.2030324 1.0158527.14 1.53l-.1 2.47c-.1256945.4629636.0037388.9578556.34 1.3.3433881-.3381003.4838889-.8317516.37-1.3l-.06-2.46c-.0348285-.484771-.0079467-.9720028.08-1.45.5226002-.0925561 1.0573998-.0925561 1.58 0l2.07.24c.73.09 1.24-.16 1.12-.54-.0990848-.3084549-.1628264-.6271629-.19-.95.3480005-.5096007.7769948-.9588625 1.27-1.33l2.7-2.23c.56-.46.8-.95.53-1.08-.2405725-.1078103-.4605267-.2567023-.65-.44.0219307-.6986619.1362572-1.391346.34-2.06v-.16c.1516766-.2870406.0985492-.6394238-.1310135-.8689865s-.5819459-.2826901-.8689865-.1310135h-.14c-.5005187.1271159-1.0137417.1975582-1.53.21-.2198488-.242912-.3716349-.5395847-.44-.86-.1-.35-.57-.18-1 .36l-.44.5c-.3817263.4642636-.8338835.8658062-1.34 1.19-.26.11-.17-1.3 0-2l.46-2.46c.13-.7 0-1.13-.39-1-.3233458.1683913-.6573974.3153741-1 .44-.5179004-.3402407-.9219483-.8278847-1.16-1.4z"/></g></g></svg>