<svg height="48" viewBox="0 0 71 48" width="71" xmlns="http://www.w3.org/2000/svg"><g fill="none"><path d="m5.16 47.83c.44338022.0978967.8959444.1481816 1.35.15h57.27c3.512531 0 6.36-2.847469 6.36-6.36v-32.78z" fill="#4758a9"/><path d="m6.51 1c-3.51253101 0-6.36 2.84746899-6.36 6.36v29.5l59.76-35.86z" fill="#4758a9"/><path d="m70.15 7.35c-.0025191-.53674533-.0730818-1.0710055-.21-1.59l-67.66 40.6c.81681159.7306837 1.80908294 1.2371556 2.88 1.47l65-39z" fill="#f2d660"/><path d="m64.77 1.07c-.3307168-.05287272-.6650836-.07962205-1-.08h-3.87l-59.77 35.86v3z" fill="#f2d660"/><path d="m64.77 1.07-64.62 38.78v1.77c.00011756 1.8117642.77534581 3.53692 2.13 4.74l67.66-40.6c-.6348188-2.45386536-2.6660761-4.29653401-5.17-4.69z" fill="#ed5565"/><path d="m8 17.79c-.55.39-.87.17-.71-.49l.59-2.46c.13538489-.7317983-.10491984-1.4827506-.64-2l-1.8-1.55c-.51-.44-.38-.82.29-.84l2.51-.07c.7198398-.0570828 1.33687924-.53656567 1.57-1.22l.79-2.68c.19-.65.54-.66.76 0l.95 2.65c.2778954.67156968.9145516 1.1257696 1.64 1.17h2.57c.67 0 .81.38.3.82l-2 1.71c-.5299936.5192398-.7499678 1.2777714-.58 2l.62 2.16c.19.65-.13.9-.7.54l-2.08-1.29c-.6312476-.3358625-1.3937787-.3091739-2 .07z" fill="#f6d660"/></g></svg>