<svg height="48" viewBox="0 0 71 48" width="71" xmlns="http://www.w3.org/2000/svg"><g fill="none"><path d="m.52 12.7h70v11h-70z" fill="#fff"/><path d="m64.16.7h-57.27c-3.51253101 0-6.36 2.84746712-6.36 6.35999583v5.63999627h70v-5.63999627c.0000021-1.68850981-.67144-3.30771695-1.866335-4.50073541-1.1948951-1.19301846-2.8151562-1.86191531-4.503665-1.85926042z" fill="#4758a9"/><path d="m.52 41.34c0 3.512531 2.84746899 6.36 6.36 6.36h57.27c3.512531 0 6.36-2.847469 6.36-6.36v-5.64h-70z" fill="#f6d660"/><path d="m.52 23.7h70v12h-70z" fill="#52c162"/><path d="m30.52.7h11v47h-11z" fill="#ed5565"/><path d="m10 9.6c-.28.2-.44.08-.36-.24l.3-1.23c.0676924-.36589913-.05245992-.74137528-.32-1l-.9-.78c-.26-.22-.19-.41.15-.42h1.26c.3613-.02790134.6716112-.26750876.79-.61l.4-1.34c.1-.33.27-.33.38 0l.48 1.32c.1466053.33041939.4601197.55599681.82.59h1.29c.34 0 .41.19.15.41l-1 .86c-.2667675.25855778-.3770481.63883568-.29 1l.31 1.08c.09.33-.06.45-.35.27l-1-.64c-.3094011-.17863279-.6905989-.17863279-1 0z" fill="#f6d660"/></g></svg>