<svg height="48" viewBox="0 0 71 48" width="71" xmlns="http://www.w3.org/2000/svg"><g fill="none"><rect fill="#4758a9" height="47" rx="6.36" width="70" x=".77" y=".98"/><path d="m5.78 47.83c.44338022.0978967.8959444.1481816 1.35.15h57.27c3.512531 0 6.36-2.847469 6.36-6.36v-32.78z" fill="#ed5565"/><path d="m7.13 1c-3.51253101 0-6.36 2.84746899-6.36 6.36v29.5l59.76-35.86z" fill="#52c162"/><path d="m70.56 5.76c-.7474314-2.7926107-3.2691566-4.74121657-6.16-4.76h-3.87l-59.77 35.86v4.77c.0041998 2.9884798 2.08226375 5.5735913 5 6.22l65-39v-1.49c.0015938-.5396652-.0656146-1.07733221-.2-1.6z" fill="#f2d660"/></g></svg>