<svg height="48" viewBox="0 0 71 48" width="71" xmlns="http://www.w3.org/2000/svg"><g fill="none"><path d="m64.55.43h-58.32c-2.94937931.36373371-5.29794254 2.64286116-5.75 5.58v35.72c.49388474 3.2419958 3.28060151 5.6378925 6.56 5.64h56.72c3.6671707 0 6.64-2.9728293 6.64-6.64v-33.73c-.0115341-3.35289352-2.5208995-6.17110394-5.85-6.57z" fill="#4658a9"/><path d="m25.36.38h-18.36c-3.63980479.03837356-6.57020228 2.99999294-6.57 6.64v17.33h25z" fill="#4658a9"/><path d="m10.92 17.79v6.56h3.9v-6.71l6.71 6.71h3.82v-3l-7-7h7v-4h-7l7-7v-3h-3.83l-6.7 6.7v-6.7h-3.9v6.56l-6.16-6.16c-1.56329281.56647757-2.85814249 1.69724162-3.63 3.17l6.41 6.41h-7.16v4h7.16l-7.16 7.16v2.83h4z" fill="#fff"/><path d="m11.92 15v9.31h1.9v-9.45l9.45 9.45h2.08v-1.23l-9.78-9.78h9.78v-1.95h-9.78l9.78-9.78v-1.23h-2.09l-9.45 9.45v-9.45h-1.9v9.3l-8.33-8.34c-.6736073.40866358-1.26948293.93344041-1.76 1.55l8.49 8.49h-9.93v1.95h9.93l-9.93 9.93v1.09h2.23z" fill="#ec5463"/><g fill="#fff" stroke="#4658a9" stroke-width=".5"><path d="m57.03 36.84-1.67-1.21-1.68 1.21.64-1.97-1.67-1.21h2.07l.64-1.97.64 1.97h2.07l-1.68 1.21z"/><path d="m35.5 30.43-1.03-1.79 1.89.84 1.38-1.54-.21 2.06 1.89.85-2.03.43-.21 2.05-1.04-1.79-2.02.43z"/><path d="m34.45 20.44-1.67-1.22h2.07l.64-1.97.64 1.97h2.07l-1.68 1.22.64 1.96-1.67-1.21-1.68 1.21z"/><path d="m36.06 13.55 1.88.84 1.39-1.54-.22 2.06 1.89.84-2.02.43-.22 2.06-1.03-1.8-2.03.44 1.39-1.54z"/><path d="m41.36 9.69 1.38 1.54 1.89-.84-1.03 1.79 1.38 1.54-2.02-.43-1.04 1.79-.21-2.06-2.03-.43 1.89-.84z"/><path d="m61.08 20.44.64 1.96-1.67-1.21-1.68 1.21.64-1.96-1.67-1.22h2.07l.64-1.97.64 1.97h2.07z"/><path d="m58.45 15.34 1.38 1.54-2.02-.44-1.04 1.8-.21-2.06-2.03-.43 1.89-.84-.22-2.06 1.39 1.54 1.89-.84z"/><path d="m53.96 11.75 1.89.84-2.02.43-.22 2.06-1.03-1.79-2.03.43 1.39-1.54-1.04-1.79 1.89.84 1.39-1.54z"/><path d="m48.41 10.3h2.07l-1.68 1.21.64 1.97-1.67-1.21-1.68 1.21.64-1.97-1.67-1.21h2.07l.64-1.97z"/><path d="m39.14 34.87-1.67-1.21h2.07l.64-1.97.64 1.97h2.07l-1.68 1.21.64 1.97-1.67-1.21-1.68 1.21z"/><path d="m44.27 37.45-2.02-.43 1.89-.84-.22-2.06 1.39 1.54 1.89-.84-1.03 1.79 1.38 1.54-2.03-.44-1.03 1.8z"/><path d="m50.01 37.71-2.02.44 1.38-1.54-1.03-1.79 1.89.84 1.38-1.54-.22 2.06 1.9.84-2.03.43-.21 2.06z"/><path d="m59.39 31.54-1.03 1.79-.22-2.05-2.02-.43 1.89-.85-.22-2.06 1.39 1.54 1.89-.84-1.04 1.79 1.39 1.54z"/><path d="m61.42 26.17-.22 2.06-1.03-1.8-2.03.44 1.39-1.54-1.04-1.79 1.89.84 1.39-1.54-.22 2.06 1.89.84z"/><path d="m33.98 24.9-.21-2.06 1.38 1.54 1.89-.84-1.03 1.79 1.38 1.54-2.02-.44-1.04 1.8-.21-2.06-2.03-.43z"/></g></g></svg>