<svg height="48" viewBox="0 0 71 48" width="71" xmlns="http://www.w3.org/2000/svg"><g fill="none"><path d="m.77 21.7v19.64c0 3.512531 2.84746899 6.36 6.36 6.36h57.27c3.512531 0 6.36-2.847469 6.36-6.36v-19.64h-70z" fill="#ed5565"/><path d="m64.4.7-36.63-.00000787v20.99999997h43v-14.63999448c.0000021-1.68851029-.67144-3.30771788-1.866335-4.50073667-1.1948951-1.1930188-2.8151562-1.86191584-4.503665-1.85926095z" fill="#fff"/><path d="m27.77.7h-20.64c-3.51253101 0-6.36 2.84746899-6.36 6.36v14.64h27z" fill="#4758a9"/><path d="m11.91 15.55c-.41.29-.65.13-.53-.37l.45-1.84c.1006163-.5487898-.0794751-1.1115754-.48-1.5l-1.35-1.16c-.38-.33-.28-.61.22-.63l1.88-.05c.5402824-.03911992 1.0048614-.39739693 1.18-.91l.59-2c.14-.49.4-.5.57 0l.71 2c.2086484.50388255.6857374.84521455 1.23.88h1.92c.5 0 .61.28.23.62l-1.46 1.28c-.3992964.3884047-.566215.9574453-.44 1.5l.47 1.62c.14.49-.1.67-.53.4l-1.56-1c-.4722513-.2775018-1.0577487-.2775018-1.53 0z" fill="#fff"/></g></svg>