<svg height="48" viewBox="0 0 71 48" width="71" xmlns="http://www.w3.org/2000/svg"><g fill="none"><path d="m7.13.42c-3.51253101 0-6.36 2.84746899-6.36 6.36v34.27c0 3.512531 2.84746899 6.36 6.36 6.36h17c0-15.6666667 0-31.3333333 0-47z" fill="#52c162"/><path d="m24.11.42v47h23.35c0-15.6666667 0-31.3333333 0-47z" fill="#ed5565"/><path d="m64.4.42h-16.95v47h16.95c3.512531 0 6.36-2.847469 6.36-6.36v-34.28c0-3.51253101-2.847469-6.36-6.36-6.36z" fill="#ffce54"/><path d="m32.38 30.21c-.59.42-.94.18-.77-.53l.64-2.66c.1477647-.7932326-.1112396-1.6077823-.69-2.17l-1.94-1.68c-.55-.48-.41-.89.32-.91l2.71-.08c.7752953-.0715887 1.4385764-.5866069 1.7-1.32l.85-2.91c.21-.71.58-.72.82 0l1 2.87c.2874515.7357104.9809796 1.2333266 1.77 1.27h2.77c.73 0 .87.41.32.89l-2.11 1.85c-.5718781.5611273-.8105456 1.3794158-.63 2.16l.67 2.34c.2.71-.14 1-.76.59l-2.25-1.39c-.6936773-.3840631-1.5420186-.3571925-2.21.07z" fill="#f6bb42"/></g></svg>