<svg height="48" viewBox="0 0 71 48" width="71" xmlns="http://www.w3.org/2000/svg"><g fill="none"><rect fill="#ed5565" height="47" rx="6.36" width="70" x=".28" y=".98"/><g fill="#f6d660"><path d="m12.23 26.34c-.82.59-1.3.26-1.07-.73l.89-3.68c.1930284-1.1045853-.1828262-2.2321488-1-3l-2.69-2.33c-.77-.66-.57-1.23.44-1.26l3.77-.11c1.1082653-.0549832 2.0710409-.7800364 2.43-1.83l1.18-4c.29-1 .8-1 1.14 0l1.42 4c.4153515 1.0093082 1.3706424 1.6927684 2.46 1.76h3.84c1 0 1.21.57.45 1.23l-2.93 2.56c-.7949904.7788598-1.1249516 1.916657-.87 3l.93 3.24c.28 1-.19 1.34-1.05.81l-3.15-2c-.9615226-.5288249-2.1350558-.4904742-3.06.1z"/><path d="m29.37 10.78c-.28.2-.44.09-.36-.26l.3-1.28c.0556763-.36504136-.0627417-.73509772-.32-1l-.91-.81c-.26-.23-.19-.43.15-.44h1.27c.3717689-.0313848.6877729-.28418801.8-.64l.4-1.4c.1-.34.27-.34.39 0l.48 1.38c.1426147.34114428.461835.57575195.83.61h1.3c.34 0 .41.2.15.43l-1 .89c-.2587473.26348971-.3709782.63759264-.3 1l.32 1.13c.1.34-.06.47-.35.28l-1.06-.67c-.3094011-.17863279-.6905989-.17863279-1 0z"/><path d="m29.37 30.53c-.28.2-.44.09-.36-.26l.3-1.28c.0556763-.3650414-.0627417-.7350977-.32-1l-.91-.81c-.26-.23-.19-.43.15-.44h1.27c.3691682-.0298248.6844554-.2781134.8-.63l.4-1.4c.1-.34.27-.34.39 0l.48 1.38c.1426147.3411443.461835.5757519.83.61h1.3c.34 0 .41.2.15.43l-1 .89c-.2587473.2634897-.3709782.6375926-.3 1l.32 1.13c.1.34-.06.47-.35.28l-1.05-.67c-.3094011-.1786328-.6905989-.1786328-1 0z"/><path d="m36.3 25.23c-.28.2-.44.09-.36-.25l.3-1.28c.0556763-.3650414-.0627417-.7350977-.32-1l-.91-.81c-.26-.23-.19-.43.15-.44h1.27c.3691682-.0298248.6844554-.2781134.8-.63l.4-1.4c.1-.34.27-.34.39 0l.48 1.38c.1426147.3411443.461835.5757519.83.61h1.3c.34 0 .41.2.15.43l-1 .89c-.2551492.2654093-.3635668.639263-.29 1l.32 1.13c.1.34-.07.47-.35.28l-1.05-.67c-.3094011-.1786328-.6905989-.1786328-1 0z"/><path d="m36.3 16.09c-.28.2-.44.09-.36-.26l.3-1.28c.0556763-.3650414-.0627417-.7350977-.32-1l-.92-.85c-.26-.23-.19-.43.15-.44h1.27c.3691682-.0298248.6844554-.2781134.8-.63l.4-1.4c.1-.34.27-.34.39 0l.48 1.38c.1426147.3411443.461835.5757519.83.61h1.3c.34 0 .41.2.15.43l-1 .89c-.2536261.2662871-.3618103.6393363-.29 1l.32 1.13c.1.34-.07.47-.35.28l-1.05-.67c-.3094011-.1786328-.6905989-.1786328-1 0z"/></g></g></svg>