<svg height="48" viewBox="0 0 71 48" width="71" xmlns="http://www.w3.org/2000/svg"><g fill="none"><path d="m.15 8.27h70v11.5h-70z" fill="#fff"/><path d="m.15 27.77h70v11.5h-70z" fill="#fff"/><g fill="#4758a9"><path d="m63.78.27h-57.27c-3.51253101 0-6.36 2.84746619-6.36 6.35999374v1.63999839h70v-1.63999839c.0000021-1.68850925-.67144-3.30771586-1.866335-4.50073393-1.1948951-1.19301807-2.8151562-1.8619147-4.503665-1.85925981z"/><path d="m.15 40.9c0 1.6867769.67006951 3.3044678 1.86280087 4.4971991 1.19273137 1.1927314 2.81042225 1.8628009 4.49719913 1.8628009h57.27c1.6867769 0 3.3044678-.6700695 4.4971991-1.8628009 1.1927314-1.1927313 1.8628009-2.8104222 1.8628009-4.4971991v-1.64h-70z"/><path d="m.15 19.77h70v8h-70z"/></g><path d="m2.27 1.89c-1.35465419 1.20308-2.12988244 2.92823582-2.13 4.74v34.27c.00011756 1.8117642.77534581 3.53692 2.13 4.74l25.87-21.88z" fill="#ed5565"/><path d="m11.92 27.9c-.08.44-.34.49-.58.11l-.89-1.42c-.2923156-.408024-.7682706-.6441276-1.27-.63l-1.61.12c-.46 0-.57-.2-.26-.53l1.18-1.21c.31693647-.3579066.38424657-.872631.17-1.3l-.9-1.61c-.22-.39-.06-.56.36-.37l1.72.78c.4561184.1814118.9750783.0968406 1.35-.22l1.25-1.19c.33-.31.57-.2.54.24l-.12 1.71c-.0079698.4911945.2476698.9490563.67 1.2l1.33.71c.4.21.37.48-.08.58l-1.62.38c-.4940616.1201866-.8798134.5059384-1 1z" fill="#fff"/></g></svg>