<svg height="48" viewBox="0 0 71 48" width="71" xmlns="http://www.w3.org/2000/svg"><g fill="none"><rect fill="#4758a9" height="47" rx="6.36" width="70" x=".9" y=".7"/><path d="m.9 21.7h70v14h-70z" fill="#fff"/><path d="m.9 24.7h70v8h-70z" fill="#ed5565"/><g fill="#f6d660"><path d="m21.34 21.6c-.28.2-.44.08-.36-.24l.3-1.23c.0676924-.3658991-.0524599-.7413753-.32-1l-.9-.78c-.26-.22-.19-.41.15-.42h1.26c.3613-.0279013.6716112-.2675088.79-.61l.4-1.34c.1-.33.27-.33.38 0l.48 1.32c.1466053.3304194.4601197.5559968.82.59h1.29c.34 0 .41.19.15.41l-1 .86c-.2667675.2585578-.3770481.6388357-.29 1l.31 1.08c.09.33-.06.45-.35.27l-1-.64c-.3094011-.1786328-.6905989-.1786328-1 0z"/><path d="m21.34 41.6c-.28.2-.44.08-.36-.24l.3-1.23c.0676924-.3658991-.0524599-.7413753-.32-1l-.9-.78c-.26-.22-.19-.41.15-.42h1.26c.3613-.0279013.6716112-.2675088.79-.61l.4-1.34c.1-.33.27-.33.38 0l.48 1.32c.1466053.3304194.4601197.5559968.82.59h1.29c.34 0 .41.19.15.41l-1 .86c-.2667675.2585578-.3770481.6388357-.29 1l.31 1.08c.09.33-.06.45-.35.27l-1-.64c-.3094011-.1786328-.6905989-.1786328-1 0z"/><path d="m31.34 31.6c-.28.2-.44.08-.36-.24l.3-1.23c.0676924-.3658991-.0524599-.7413753-.32-1l-.9-.78c-.26-.22-.19-.41.15-.42h1.26c.3613-.0279013.6716112-.2675088.79-.61l.4-1.34c.1-.33.27-.33.38 0l.48 1.32c.1466053.3304194.4601197.5559968.82.59h1.29c.34 0 .41.19.15.41l-1 .86c-.2667675.2585578-.3770481.6388357-.29 1l.31 1.08c.09.33-.06.45-.35.27l-1-.64c-.3094011-.1786328-.6905989-.1786328-1 0z"/><path d="m12.34 31.6c-.28.2-.44.08-.36-.24l.3-1.23c.0676924-.3658991-.0524599-.7413753-.32-1l-.9-.78c-.26-.22-.19-.41.15-.42h1.26c.3613-.0279013.6716112-.2675088.79-.61l.4-1.34c.1-.33.27-.33.38 0l.48 1.32c.1466053.3304194.4601197.5559968.82.59h1.29c.34 0 .41.19.15.41l-1 .86c-.2667675.2585578-.3770481.6388357-.29 1l.31 1.08c.09.33-.06.45-.35.27l-1-.64c-.3094011-.1786328-.6905989-.1786328-1 0z"/><path d="m14.34 24.6c-.28.2-.44.08-.36-.24l.3-1.23c.0676924-.3658991-.0524599-.7413753-.32-1l-.9-.78c-.26-.22-.19-.41.15-.42h1.26c.3613-.0279013.6716112-.2675088.79-.61l.4-1.34c.1-.33.27-.33.38 0l.48 1.32c.1466053.3304194.4601197.5559968.82.59h1.29c.34 0 .41.19.15.41l-1 .86c-.2667675.2585578-.3770481.6388357-.29 1l.31 1.08c.09.33-.06.45-.35.27l-1-.64c-.3094011-.1786328-.6905989-.1786328-1 0z"/><path d="m28.34 24.6c-.28.2-.44.08-.36-.24l.3-1.23c.0676924-.3658991-.0524599-.7413753-.32-1l-.9-.78c-.26-.22-.19-.41.15-.42h1.26c.3613-.0279013.6716112-.2675088.79-.61l.4-1.34c.1-.33.27-.33.38 0l.48 1.32c.1466053.3304194.4601197.5559968.82.59h1.29c.34 0 .41.19.15.41l-1 .86c-.2667675.2585578-.3770481.6388357-.29 1l.31 1.08c.09.33-.06.45-.35.27l-1-.64c-.3094011-.1786328-.6905989-.1786328-1 0z"/><path d="m14.34 38.6c-.28.2-.44.08-.36-.24l.3-1.23c.0676924-.3658991-.0524599-.7413753-.32-1l-.9-.78c-.26-.22-.19-.41.15-.42h1.26c.3613-.0279013.6716112-.2675088.79-.61l.4-1.34c.1-.33.27-.33.38 0l.48 1.32c.1466053.3304194.4601197.5559968.82.59h1.29c.34 0 .41.19.15.41l-1 .86c-.2667675.2585578-.3770481.6388357-.29 1l.31 1.08c.09.33-.06.45-.35.27l-1-.64c-.3094011-.1786328-.6905989-.1786328-1 0z"/><path d="m28.34 38.6c-.28.2-.44.08-.36-.24l.3-1.23c.0676924-.3658991-.0524599-.7413753-.32-1l-.9-.78c-.26-.22-.19-.41.15-.42h1.26c.3613-.0279013.6716112-.2675088.79-.61l.4-1.34c.1-.33.27-.33.38 0l.48 1.32c.1466053.3304194.4601197.5559968.82.59h1.29c.34 0 .41.19.15.41l-1 .86c-.2667675.2585578-.3770481.6388357-.29 1l.31 1.08c.09.33-.06.45-.35.27l-1-.64c-.3094011-.1786328-.6905989-.1786328-1 0z"/></g></g></svg>