<svg height="48" viewBox="0 0 71 48" width="71" xmlns="http://www.w3.org/2000/svg"><g fill="none"><path d="m70.39 7.59c0-3.66717074-2.9728293-6.64-6.64-6.64h-56.75c-3.66717074 0-6.64 2.97282926-6.64 6.64v22.73h70z" fill="#4658a9"/><path d="m70.39 41.3v-5.11h-70v5.11c0 3.6671707 2.97282926 6.64 6.64 6.64h56.72c3.6671707 0 6.64-2.9728293 6.64-6.64z" fill="#4658a9"/><path d="m70.39 30.32h-70v5.88h70z" fill="#f2d660"/><g fill="#fff"><path d="m13.68 20.78c-.45.31-.72.12-.59-.41l.48-2c.1034685-.6054232-.0986126-1.2228932-.54-1.65l-1.49-1.31c-.42-.37-.32-.68.24-.68h2.08c.5966882-.0310982 1.1111426-.4299 1.29-1l.64-2.18c.16-.53.44-.53.63 0l.79 2.19c.2319799.5603977.7559251.9456515 1.36 1l2.12.07c.56 0 .67.33.25.68l-1.6 1.36c-.4342206.4176249-.6132855 1.034827-.47 1.62l.52 1.78c.16.54-.1.73-.58.43l-1.73-1.1c-.5217581-.3060765-1.1682419-.3060765-1.69 0z"/><path d="m6.43 11.95c-.34.23-.55.09-.45-.31l.36-1.52c.08148137-.46205581-.07220946-.93437394-.41-1.26l-1.13-1c-.32-.28-.24-.51.18-.52h1.58c.45518742-.01355415.85397588-.30865761 1-.74l.49-1.66c.12-.4.33-.4.48 0l.6 1.66c.17088581.41590319.5535275.70671087 1 .76l1.61.05c.42 0 .51.25.19.52l-1.22 1c-.3313952.31607754-.4686762.78512108-.36 1.23l.4 1.35c.12.41-.08.56-.44.33l-1.31-.84c-.39547272-.2307329-.88452728-.2307329-1.28 0z"/></g></g></svg>