<svg height="48" viewBox="0 0 71 48" width="71" xmlns="http://www.w3.org/2000/svg"><g fill="none"><path d="m64.4.27h-57.27c-3.51253101 0-6.36 2.84746899-6.36 6.36v34.27c0 1.6867769.6700695 3.3044678 1.86280087 4.4971991 1.19273137 1.1927314 2.81042225 1.8628009 4.49719913 1.8628009h57.27c1.6867769 0 3.3044678-.6700695 4.4971991-1.8628009 1.1927314-1.1927313 1.8628009-2.8104222 1.8628009-4.4971991v-34.27c0-3.51253101-2.847469-6.36-6.36-6.36z" fill="#fff"/><path d="m19 19.45c.7226688-1.1409871 2.0402498-1.7607959 3.38-1.59.589279.1977931 1.1904793.3581132 1.8.48.9488618.0675324 1.8376675-.4689539 2.22-1.34.44-1.11-.05-2.48.55-3.5.1371324-.2801802.4095679-.4693714.72-.5.2035817.0186603.3993917.0873655.57.2 2.6833006 1.3512491 5.7133477 1.8568381 8.69 1.45 2.9569696-.409448 5.8542651-1.1715408 8.63-2.27 2.9857987-.9394867 5.8064803-2.3397055 8.36-4.15.49-.38 1.29-.75 1.62-.22.107481.21029333.1289964.45413514.06.68-.4370104 1.23462366-1.3576114 2.2382593-2.55 2.78-1.3651405.8044259-2.8052462 1.4742425-4.3 2-.9282581.2272549-1.788804.6729559-2.51 1.3-.3331554.4782675-.7226182.9147344-1.16 1.3-.61.39-1.47.35-1.94.89-.3832148.6511342-.3832148 1.4588658 0 2.11.3759853.6460633.4972344 1.4092196.34 2.14-.4 1-1.77 1.15-2.87 1.11s-2.48.14-2.82 1.19c-.0713983.4003915-.1214689.8042944-.15 1.21-.25 1.18-1.65 1.73-2.86 1.74-1.1991391-.1420852-2.4108609-.1420852-3.61 0-1.0210701.2604479-1.8742917.9598699-2.33 1.91-.28.6-.53 1.4-1.19 1.47-.85.1-1.17-1.06-1.74-1.7-.5698247-.5471588-1.3411958-.8332542-2.13-.79-.7793625.044597-1.5606375.044597-2.34 0-1.4914699-.2801628-2.7952515-1.1771936-3.59-2.47-.8135472-1.2976093-1.4365705-2.7053051-1.85-4.18-.1566035-.3534293-.1566035-.7565707 0-1.11 0 0 .49-.19 1.08.42s1.51.05 1.92-.56z" fill="#ffad54"/><path d="m47.17 29.74c.0155268-.2030369.0155268-.4069631 0-.61-.0130619-.1388943-.1073606-.2567677-.24-.3-.0728614-.0117661-.1471386-.0117661-.22 0-.2443732.0174278-.4778386.1080263-.67.26-.1963588.1407494-.3803586.2979856-.55.47-.2015382.199265-.3918324.4095901-.57.63l-.05.07-.06.11v-.1-.35-.12c.0065668-.1171446-.0459995-.2297868-.14-.3-.092075-.0679864-.2115743-.0866582-.32-.05-.5100425.162522-.8650821.6252703-.89 1.16v.85l-.09-.06c-.106491-.0515857-.2219335-.082144-.34-.09h-.03c-.392585.0375517-.7532804.2323272-1 .54-.3621758.4253616-.6434735.9133961-.83 1.44-.0728614-.0117661-.1471386-.0117661-.22 0-.2802667.0080864-.5352487.1641202-.67.41-.1263796-.0120606-.2536204-.0120606-.38 0h-.09c-.8936428.0397564-1.6788543.6051088-2 1.44-.0273702-.1090957-.105503-.1983903-.21-.24-.082765-.0328215-.1709649-.049783-.26-.05-.2745894.0094912-.5245263.1609681-.66.4l-.11-.05c-.0996192-.0123419-.2003808-.0123419-.3 0-.42 0-1.5.2-2.47 2 .0021364.0902354-.0564318.1707196-.1429499.1964412-.0865182.0257216-.1795432-.0096943-.2270501-.0864412l-.71.31-.73-.31c-.1030971-.0551114-.2269029-.0551114-.33 0 .0091615-.046217.0091615-.093783 0-.14-1-1.84-2.06-2-2.48-2-.1426139-.0120087-.2855279.0193627-.41.09-.1405927-.2435978-.3987782-.3954717-.68-.4-.0823432.0022074-.1636259.0191412-.24.05-.104497.0416097-.1826298.1309043-.21.24-.3211457-.8348912-1.1063572-1.4002436-2-1.44h-.09c-.099341-.0162353-.200659-.0162353-.3 0h-.1c-.1372434-.2543641-.4010171-.414922-.69-.42 0 0-.14 0-.2 0-.186114-.5267938-.4674531-1.0149002-.83-1.44-.2467196-.3076728-.607415-.5024483-1-.54h-.11c-.1286274.0091651-.254268.0431221-.37.1l-.09.07c0-.23 0-.54 0-.85-.0225108-.5153243-.3544735-.9658452-.84-1.14-.1174981-.0578038-.2574348-.0451839-.3626954.0327089s-.1582361.208028-.1373046.3372911c0 0 0 .21.06.44v.11l-.09-.16c-.187197-.2313076-.387527-.4516706-.6-.66-.1694398-.1722308-.3534589-.3294835-.55-.47-.1949233-.1538524-.4321548-.2445586-.68-.26-.0695777-.010874-.1404223-.010874-.21 0-.1341845.0468912-.2282153.1683476-.24.31-.0155268.2030369-.0155268.4069631 0 .61.004308.4058872.1412731.799223.39 1.12.1780256.1942769.3795803.3655985.6.51h-.44c-.1118791-.0137835-.2235487.0271621-.3.11-.0696429.079371-.0924304.1895104-.06.29.0289859.1960077.0827494.3875403.16.57.1420018.3924612.4733302.6861386.88.78.2774289.0489488.5583188.0757002.84.08-.0035715.0265471-.0035715.0534529 0 .08-.0173039.1600762.0067996.3219138.07.47.0261937.0605745.0597823.117675.1.17-.1095305.0454887-.188573.1433509-.21.26-.0056875.0632056-.0056875.1267944 0 .19.0182732.1213911.0626233.2373838.13.34.2476987.3204529.602828.540633 1 .62.5781739.1265642 1.174549.1468952 1.76.06-.0098272.0964169-.0098272.1935831 0 .29.0248293.1246786.0797564.2413987.16.34.0367012.0466356.080582.087141.13.12-.0197114.1134932.017684.2294188.1.31.6121445.5390019 1.4045767.8281326 2.22.81h.05c.2570118.0059512.5124429-.0417293.75-.14-.016972.1294461-.016972.2605539 0 .39.0305567.1405633.0958834.2712167.19.38.1309354.1425838.3164349.2226032.51.22.1542481.0022239.3025821-.0592805.41-.17.0261488.0844874.0833133.155943.16.2.5210853.308615 1.1144099.474194 1.72.48.5774493.0021726 1.1445235-.153427 1.64-.45.0501909-.0326769.0914363-.0773595.12-.13.0301255.0372074.067564.0678388.11.09l-.62.45c-.0853749.0639617-.1369187.1633676-.14.27-.0023917.1084345.0456231.211851.13.28l.31.27.06.05c-.0112372.0929412.015228.1865105.0734813.2597969.0582534.0732864.1434386.1201808.2365187.1302031h.19c.0494454.0105322.1005546.0105322.15 0l.13-.09.15-.15.37-.45.22-.28.22.28.38.46.15.15.13.09c.0495033.0099664.1004967.0099664.15 0h.19c.0930801-.0100223.1782653-.0569167.2365187-.1302031.0582533-.0732864.0847185-.1668557.0734813-.2597969l.06-.05.33-.29c.0770601-.066486.1213627-.1632226.1213627-.265s-.0443026-.198514-.1213627-.265l-.61-.45c.0257406-.0562917.0360925-.1184028.03-.18.0285637.0526405.0698091.0973231.12.13.4956767.2961037 1.0626179.4516669 1.64.45.5987874-.0092984 1.1847744-.1747535 1.7-.48.0747693-.0416414.1316901-.1092349.16-.19.1043394.1091797.2489819.1706527.4.17.1912355-.0082714.3727531-.0865731.51-.22.0944783-.1085416.1598538-.2392924.19-.38.0168587-.1294534.0168587-.2605466 0-.39.2407382.0993595.4996591.1470554.76.14.8154233.0181326 1.6078555-.2709981 2.22-.81.0646866-.0817617.0869324-.1892827.06-.29.0890615-.0239784.171261-.0685031.24-.13.0795712-.0990228.1344173-.2155709.16-.34.0096242-.0964271.0096242-.1935729 0-.29.585451.0868952 1.1818261.0665642 1.76-.06.397172-.079367.7523013-.2995471 1-.62.0673767-.1026162.1117268-.2186089.13-.34 0 0 0-.12 0-.14-.0027996-.1381251-.0843973-.2624644-.21-.32.039528-.049202.0730947-.1029088.1-.16.058596-.1353209.08265-.2830809.07-.43.0071147-.0396836.0071147-.0803164 0-.12.2849938-.0043166.5692054-.031066.85-.08.4066698-.0938614.7379982-.3875388.88-.78.1068745-.2316428.1582356-.4850241.15-.74-.0482968-.1460099-.186247-.2433864-.34-.24h-.44c.2199917-.1449728.4214795-.3162375.6-.51.2666401-.3043618.4279646-.6866307.46-1.09z" fill="#52c162"/></g></svg>