<svg height="48" viewBox="0 0 71 48" width="71" xmlns="http://www.w3.org/2000/svg"><g fill="none"><path d="m63.92.55h-57.27c-3.51253101 0-6.36 2.84746806-6.36 6.35999791v17.63999419h70v-17.63999419c.0000021-1.68851036-.67144-3.30771803-1.866335-4.50073688-1.1948951-1.19301885-2.8151562-1.86191592-4.503665-1.85926103z" fill="#fff"/><path d="m.28 41.18c0 3.512531 2.84746899 6.36 6.36 6.36h57.28c3.512531 0 6.36-2.847469 6.36-6.36v-16.63h-70z" fill="#ed5565"/><path d="m2.19 2.38c-1.21883516 1.19574529-1.90384575 2.83256006-1.9 4.54v34.27c.00114902 1.7251958.70529477 3.3754245 1.95 4.57l23.05-21.21z" fill="#4758a9"/></g></svg>