<svg height="48" viewBox="0 0 71 48" width="71" xmlns="http://www.w3.org/2000/svg"><g fill="none"><path d="m64.16.55h-57.27c-3.51253101 0-6.36 2.84746806-6.36 6.35999791v17.63999419h70v-17.63999419c.0000021-1.68851036-.67144-3.30771803-1.866335-4.50073688-1.1948951-1.19301885-2.8151562-1.86191592-4.503665-1.85926103z" fill="#8cbae2"/><path d="m.52 41.18c0 3.512531 2.84746899 6.36 6.36 6.36h57.27c3.512531 0 6.36-2.847469 6.36-6.36v-16.63h-70z" fill="#52c162"/><path d="m2.43 2.38c-1.21883516 1.19574529-1.90384575 2.83256006-1.9 4.54v34.27c.00114902 1.7251958.70529477 3.3754245 1.95 4.57l23.05-21.21z" fill="#fff"/><path d="m7.77 28.4c-.41.29-.65.13-.53-.37l.45-1.84c.10061627-.5487898-.07947513-1.1115754-.48-1.5l-1.35-1.16c-.38-.33-.28-.61.22-.63l1.89-.05c.5402824-.0391199 1.00486138-.3973969 1.18-.91l.59-2c.14-.49.4-.5.57 0l.71 2c.2086484.5038825.6857374.8452146 1.23.88h1.92c.5 0 .61.28.23.62l-1.46 1.28c-.3992964.3884047-.566215.9574453-.44 1.5l.47 1.62c.14.49-.1.67-.53.4l-1.56-1c-.4722513-.2775018-1.05774865-.2775018-1.53 0z" fill="#ed5565"/></g></svg>