<svg height="48" viewBox="0 0 71 48" width="71" xmlns="http://www.w3.org/2000/svg"><g fill="none"><rect fill="#039188" height="47" rx="6.36" width="70" x=".08" y=".55"/><path d="m.08 26.14h70.13v4.18h-70.13z" fill="#fff"/><path d="m.08 21.96h70.13v4.18h-70.13z" fill="#434a54"/><path d="m.08 17.79h70.13v4.18h-70.13z" fill="#f6bb42"/><path d="m37.42.55h4.18v47h-4.18z" fill="#fff"/><path d="m33.24.55h4.18v47h-4.18z" fill="#434a54"/><path d="m29.07.55h4.18v47h-4.18z" fill="#f6bb42"/><circle cx="35.15" cy="24.05" fill="#ed5565" r="12.92"/><g fill="#039188"><path d="m44.8 20.51h.78c.0524407.0050057.0966765.041164.1120147.0915608.0153381.0503967-.0012539.1050678-.0420147.1384392l-.6.44c-.027274.0426816-.027274.0973184 0 .14l.23.76c.0139998.0527238-.0064061.1085801-.0510959.139863-.0446898.0312828-.1041568.0313376-.1489041.000137l-.65-.45c-.0449581-.0317549-.1050419-.0317549-.15 0l-.69.52c-.0447473.0312006-.1042143.0311458-.1489041-.000137-.0446898-.0312829-.0650957-.0871392-.0510959-.139863l.26-.8c.027274-.0426816.027274-.0973184 0-.14l-.67-.49c-.0417273-.0346315-.0575752-.0915261-.0397607-.1427429.0178145-.0512167.0655489-.0859958.1197607-.0872571h.84c.0550195-.0015709.1030865-.0376212.12-.09l.25-.72c.020185-.0484441.0675189-.08.12-.08s.099815.0315559.12.08l.25.72c-.004861.0409347.0099806.0817491.04.11z"/><path d="m25.49 27.59h-.78c-.0524407-.0050057-.0966765-.041164-.1120147-.0915608-.0153381-.0503967.0012539-.1050678.0420147-.1384392l.6-.44c.027274-.0426816.027274-.0973184 0-.14l-.23-.76c-.0139998-.0527238.0064061-.1085801.0510959-.139863.0446898-.0312828.1041568-.0313376.1489041-.000137l.65.45c.0449581.0317549.1050419.0317549.15 0l.69-.52c.0447473-.0312006.1042143-.0311458.1489041.000137.0446898.0312829.0650957.0871392.0510959.139863l-.26.8c-.027274.0426816-.027274.0973184 0 .14l.67.49c.0417273.0346315.0575752.0915261.0397607.1427429-.0178145.0512167-.0655489.0859958-.1197607.0872571h-.84c-.0550195.0015709-.1030865.0376212-.12.09l-.25.72c-.020185.0484441-.0675189.08-.12.08s-.099815-.0315559-.12-.08l-.25-.72c.004861-.0409347-.0099806-.0817491-.04-.11z"/><path d="m45 26.86.62.47c.0417273.0346315.0575752.0915261.0397607.1427429-.0178145.0512167-.0655489.0859958-.1197607.0872571h-.75c-.0550195.0015709-.1030865.0376212-.12.09l-.26.75c-.020185.0484441-.0675189.08-.12.08s-.099815-.0315559-.12-.08l-.26-.74c-.0169135-.0523788-.0649805-.0884291-.12-.09h-.86c-.0542118-.0012613-.1019462-.0360404-.1197607-.0872571-.0178145-.0512168-.0019666-.1081114.0397607-.1427429l.69-.49c.027274-.0426816.027274-.0973184 0-.14l-.25-.79c-.0139998-.0527238.0064061-.1085801.0510959-.139863.0446898-.0312828.1041568-.0313376.1489041-.000137l.68.5c.0449581.0317549.1050419.0317549.15 0l.63-.44c.0447473-.0312006.1042143-.0311458.1489041.000137.0446898.0312829.0650957.0871392.0510959.139863l-.22.73c-.0156272.0603142.0137359.1232351.07.15z"/><path d="m25.25 21.24-.62-.47c-.0417273-.0346315-.0575752-.0915261-.0397607-.1427429.0178145-.0512167.0655489-.0859958.1197607-.0872571h.75c.0550195-.0015709.1030865-.0376212.12-.09l.26-.75c.020185-.0484441.0675189-.08.12-.08s.099815.0315559.12.08l.26.74c.0169135.0523788.0649805.0884291.12.09h.86c.0542118.0012613.1019462.0360404.1197607.0872571.0178145.0512168.0019666.1081114-.0397607.1427429l-.69.49c-.027274.0426816-.027274.0973184 0 .14l.25.79c.0139998.0527238-.0064061.1085801-.0510959.139863-.0446898.0312828-.1041568.0313376-.1489041.000137l-.68-.5c-.0449581-.0317549-.1050419-.0317549-.15 0l-.63.44c-.0447473.0312006-.1042143.0311458-.1489041-.000137-.0446898-.0312829-.0650957-.0871392-.0510959-.139863l.22-.73c.0156272-.0603142-.0137359-.1232351-.07-.15z"/><path d="m41.5 32.14.22.75c.0139998.0527238-.0064061.1085801-.0510959.139863-.0446898.0312828-.1041568.0313376-.1489041.000137l-.6-.44c-.0449581-.0317549-.1050419-.0317549-.15 0l-.65.46c-.0447473.0312006-.1042143.0311458-.1489041-.000137-.0446898-.0312829-.0650957-.0871392-.0510959-.139863l.23-.76c.0142925-.0525325-.0056625-.1084067-.05-.14l-.71-.49c-.0491159-.030933-.0717737-.0906788-.0555211-.146402s.067477-.09392.1255211-.093598h.84c.0550195-.0015709.1030865-.0376212.12-.09l.26-.79c.0159432-.0558125.066955-.0942929.125-.0942929s.1090568.0384804.125.0942929l.26.8c.0169135.0523788.0649805.0884291.12.09h.76c.0524407.0050057.0966765.041164.1120147.0915608.0153381.0503967-.0012539.1050678-.0420147.1384392l-.61.46c-.0462876.0396967-.0587628.1062313-.03.16z"/><path d="m28.79 16-.22-.75c-.0139998-.0527238.0064061-.1085801.0510959-.139863.0446898-.0312828.1041568-.0313376.1489041-.000137l.6.44c.0449581.0317549.1050419.0317549.15 0l.65-.46c.0447473-.0312006.1042143-.0311458.1489041.000137.0446898.0312829.0650957.0871392.0510959.139863l-.23.76c-.0142925.0525325.0056625.1084067.05.14l.71.49c.0491159.030933.0717737.0906788.0555211.146402s-.067477.09392-.1255211.093598h-.83c-.0550195.0015709-.1030865.0376212-.12.09l-.26.79c-.0159432.0558125-.066955.0942929-.125.0942929s-.1090568-.0384804-.125-.0942929l-.26-.8c-.0169135-.0523788-.0649805-.0884291-.12-.09h-.76c-.0524407-.0050057-.0966765-.041164-.1120147-.0915608-.0153381-.0503967.0012539-.1050678.0420147-.1384392l.61-.46c.0429324-.0422576.0512095-.1084746.02-.16z"/><path d="m40.88 15.51.64-.44c.0462421-.0350841.1101397-.0352613.1565757-.0004343s.0641572.0962184.0434243.1504343l-.23.71c-.027274.0426816-.027274.0973184 0 .14l.64.48c.0407608.0333714.0573528.0880425.0420147.1384392-.0153382.0503968-.059574.0865551-.1120147.0915608h-.79c-.0550195.0015709-.1030865.0376212-.12.09l-.25.83c-.0159432.0558125-.066955.0942929-.125.0942929s-.1090568-.0384804-.125-.0942929l-.26-.8c-.0169135-.0523788-.0649805-.0884291-.12-.09h-.83c-.0524407-.0050057-.0966765-.041164-.1120147-.0915608-.0153381-.0503967.0012539-.1050678.0420147-.1384392l.68-.49c.027274-.0426816.027274-.0973184 0-.14l-.22-.73c-.0139998-.0527238.0064061-.1085801.0510959-.139863.0446898-.0312828.1041568-.0313376.1489041-.000137l.62.44c.024293.041769.0697484.066618.1180226.0645191s.0914013-.0307992.1119774-.0745191z"/><path d="m29.41 32.59-.64.44c-.0462421.0350841-.1101397.0352613-.1565757.0004343s-.0641572-.0962184-.0434243-.1504343l.23-.71c.027274-.0426816.027274-.0973184 0-.14l-.64-.48c-.0407608-.0333714-.0573528-.0880425-.0420147-.1384392.0153382-.0503968.059574-.0865551.1120147-.0915608h.79c.0550195-.0015709.1030865-.0376212.12-.09l.25-.83c.0159432-.0558125.066955-.0942929.125-.0942929s.1090568.0384804.125.0942929l.26.8c.0169135.0523788.0649805.0884291.12.09h.83c.0524407.0050057.0966765.041164.1120147.0915608.0153381.0503967-.0012539.1050678-.0420147.1384392l-.68.49c-.027274.0426816-.027274.0973184 0 .14l.22.73c.0139998.0527238-.0064061.1085801-.0510959.139863-.0446898.0312828-.1041568.0313376-.1489041.000137l-.62-.44c-.024293-.041769-.0697484-.066618-.1180226-.0645191s-.0914013.0307992-.1119774.0745191z"/><path d="m34.76 13.77.24-.77c.020185-.0484441.0675189-.08.12-.08s.099815.0315559.12.08l.23.71c.0169135.0523788.0649805.0884291.12.09h.8c.0542118.0012613.1019462.0360404.1197607.0872571.0178145.0512168.0019666.1081114-.0397607.1427429l-.63.48c-.0317549.0449581-.0317549.1050419 0 .15l.28.82c.0207329.0542159.0030117.1156073-.0434243.1504343s-.1103336.0346498-.1565757-.0004343l-.68-.5c-.0449581-.0317549-.1050419-.0317549-.15 0l-.68.48c-.0462421.0350841-.1101397.0352613-.1565757.0004343s-.0641572-.0962184-.0434243-.1504343l.26-.8c.027274-.0426816.027274-.0973184 0-.14l-.61-.46c-.0417273-.0346315-.0575752-.0915261-.0397607-.1427429.0178145-.0512167.0655489-.0859958.1197607-.0872571h.76c.0261479-.0127262.0472738-.0338521.06-.06z"/><path d="m35.53 34.33-.26.73c-.020185.0484441-.0675189.08-.12.08s-.099815-.0315559-.12-.08l-.23-.71c-.0169135-.0523788-.0649805-.0884291-.12-.09h-.8c-.0542118-.0012613-.1019462-.0360404-.1197607-.0872571-.0178145-.0512168-.0019666-.1081114.0397607-.1427429l.63-.48c.0317549-.0449581.0317549-.1050419 0-.15l-.28-.82c-.0207329-.0542159-.0030117-.1156073.0434243-.1504343s.1103336-.0346498.1565757.0004343l.68.5c.0449581.0317549.1050419.0317549.15 0l.68-.48c.0462421-.0350841.1101397-.0352613.1565757-.0004343s.0641572.0962184.0434243.1504343l-.26.8c-.027274.0426816-.027274.0973184 0 .14l.61.46c.0417273.0346315.0575752.0915261.0397607.1427429-.0178145.0512167-.0655489.0859958-.1197607.0872571h-.76c-.0271638.0259827-.0417512.0624513-.04.1z"/><path d="m38.93 29.33c.0560582-.3697108.039071-.7468265-.05-1.11.0347481-.3360184.0041871-.6755858-.09-1 .1529186-1.2273479-.0702492-2.4722062-.64-3.57-.28833-.7068476-.6574494-1.3779738-1.1-2-.0128035-.024587-.0098916-.0544132.0074255-.0760596s.0457767-.0310345.0725745-.0239404c.3942644.1700518.8530791.0694345 1.14-.25.0168585-.0132726.0266987-.0335437.0266987-.055s-.0098402-.0417274-.0266987-.055c-.1450566-.038711-.283327-.0994151-.41-.18-.0210612-.0126562-.0339445-.0354286-.0339445-.06s.0128833-.0473438.0339445-.06c.1080165-.057029.2059766-.1313436.29-.22.0168585-.0132726.0266987-.0335437.0266987-.055s-.0098402-.0417274-.0266987-.055c-.141637-.0395144-.2764919-.1001991-.4-.18-.0210612-.0126562-.0339445-.0354286-.0339445-.06s.0128833-.0473438.0339445-.06c.0886524-.0555396.1693844-.1228163.24-.2.0168585-.0132726.0266987-.0335437.0266987-.055s-.0098402-.0417274-.0266987-.055c-.2123997-.0654645-.4119703-.1669411-.59-.3-.0168585-.0132726-.0266987-.0335437-.0266987-.055s.0098402-.0417274.0266987-.055c.0727815-.0490523.1398631-.1060717.2-.17.0168585-.0132726.0266987-.0335437.0266987-.055s-.0098402-.0417274-.0266987-.055c-.1601314-.0458428-.3120068-.116718-.45-.21-.0265848-.0106261-.0440192-.0363702-.0440192-.065s.0174344-.0543739.0440192-.065h.21c.0265848-.0106261.0440192-.0363702.0440192-.065s-.0174344-.0543739-.0440192-.065c-.62-.35-1.37-1.22-1.84-1.45-.5976168-.297496-1.3075185-.2595334-1.87.1-.1968177.159962-.3255016.3887334-.36.64-.0064052.0244784-.0255216.0435948-.05.05h-.16c-.42.09-.68.46-.36 1.3.0106261.0265848.0363702.0440192.065.0440192s.0543739-.0174344.065-.0440192c.025608-.065322.055679-.1288052.09-.19.0260246-.0218413.0639754-.0218413.09 0 .1615404.0758453.3484596.0758453.51 0 .0709692-.0239269.138277-.0575808.2-.1.0216581-.0125043.0483419-.0125043.07 0 .0134377.0131662.0210102.0311872.0210102.05s-.0075725.0368338-.0210102.05c-.0313854.0549045-.0485714.1167741-.05.18-.1083011.0712043-.1753882.1904704-.18.32-.0878011.0750896-.1388474.1844745-.14.3-.5272677 1.0547055-.7489555 2.2358861-.64 3.41.0723819 1.223474.5754109 2.3818575 1.42 3.27.0216327.0893406.0517702.1764046.09.26-.020677.1492874-.020677.3007126 0 .45 0 .45.25.78.45.77.0177753.2085297.0827474.410285.19.59.0218413.0260246.0218413.0639754 0 .09-.1447884.0832829-.2707658.1956411-.37.33-.0160983.0061554-.0339017.0061554-.05 0h-1.27c-.18 0-.07-.23-.21-.47-.2374657-.2727047-.6326995-.3434307-.95-.17-.32.18-.07.51-.62.56-.0208393.0020875-.039649.0133963-.0512664.0308224s-.0148218.0391385-.0087336.0591776c.1194826.2843941.288809.5451568.5.77.8598635.0947881 1.725631.1248726 2.59.09.0160983-.0061554.0339017-.0061554.05 0 .2192885.3280917.6110212.4965368 1 .43h.06c.1297919.0613041.2802081.0613041.41 0 .0189862-.0090059.0410138-.0090059.06 0 .1193287.0444482.2506713.0444482.37 0h.05c.0987145.0226759.2012855.0226759.3 0 .0216581-.0125043.0483419-.0125043.07 0 .12.24.25.38.37.36.13.39.26.62.39.6s.22-.23.29-.61h.05c.2 0 .36-.37.46-.94.0042175-.031224.028776-.0557825.06-.06h.11c.1803923-.2099004.1803923-.5200996 0-.73 0-.13 0-.27 0-.41.0106261-.0265848.0363702-.0440192.065-.0440192s.0543739.0174344.065.0440192l.14.32c-.0800813.0138071-.1338071.0899187-.12.17s.0899187.1338071.17.12z"/></g></g></svg>