<svg height="47" viewBox="0 0 71 47" width="71" xmlns="http://www.w3.org/2000/svg"><g fill="none"><path d="m63.78 0-28.63-.00000787v46.99999997h28.64c3.512531 0 6.36-2.8474685 6.36-6.3599989v-34.27999427c.0000021-1.68851063-.67144-3.30771856-1.866335-4.5007376-1.1948951-1.19301904-2.8151562-1.86191622-4.503665-1.85926133z" fill="#fff"/><path d="m6.51 0c-3.51253101 0-6.36 2.84746899-6.36 6.36v34.28c0 3.512531 2.84746899 6.36 6.36 6.36h28.64v-47z" fill="#57a863"/><path d="m38.59 28.82c-.51.35-.81.15-.65-.45l.57-2.23c.133708-.667248-.0810388-1.3566982-.57-1.83l-1.65-1.43c-.47-.41-.34-.75.28-.76h2.33c.670742-.0434879 1.2500414-.4848588 1.47-1.12l.76-2.43c.18-.59.5-.6.71 0l.85 2.42c.2555152.6147077.8359884 1.0326484 1.5 1.08l2.37.05c.62 0 .74.35.27.75l-1.83 1.52c-.4956264.4605876-.7089233 1.1499937-.56 1.81l.55 2c.17.6-.13.81-.65.48l-1.91-1.19c-.584768-.337616-1.305232-.337616-1.89 0zm3.41 3.66c-3.0597528 1.7211871-6.7979771 1.711839-9.8490833-.0246296-3.0511062-1.7364685-4.9681841-4.9457084-5.0509167-8.4553704-.0452461-1.0110303.0660682-2.0229792.33-3 1.4608988-5.3021962 6.9292596-8.4295267 12.24-7 .5452795.1485527 1.0771427.3425657 1.59.58.1583838.035664.3198846-.0456239.385595-.1940809.0657105-.148457.0172953-.3226585-.115595-.4159191-3.2970111-2.5808111-7.6632669-3.3489967-11.6431503-2.0484599s-7.0500044 4.4987638-8.1868497 8.5284599c-.6616043 2.4161971-.5709063 4.9766711.26 7.34 2.3004356 6.539177 9.4383491 10.0055263 16 7.77 1.576702-.5335188 3.0291698-1.3805082 4.27-2.49.1178169-.0874953.1662004-.2407097.12-.38-.057-.1400318-.199619-.2256032-.35-.21z" fill="#ed5565"/></g></svg>