<svg height="48" viewBox="0 0 71 48" width="71" xmlns="http://www.w3.org/2000/svg"><g fill="none"><path d="m63.8899928.19h-57.27999352c-3.51253061 0-6.35999928 2.84746899-6.35999928 6.36v20.64h70l-.0000079-20.63c.0026549-1.68850883-.6662423-3.30876993-1.8592614-4.50366499-1.1930191-1.19489505-2.8122271-1.8663371-4.5007379-1.86633501z" fill="#f2d660"/><path d="m.25 27.19h70v10h-70z" fill="#4758a9"/><path d="m.25 40.83c0 3.512531 2.84746899 6.36 6.36 6.36h57.27c1.6867769 0 3.3044678-.6700695 4.4971991-1.8628009 1.1927314-1.1927313 1.8628009-2.8104222 1.8628009-4.4971991v-3.64h-70z" fill="#ed5565"/><path d="m35.26 36.5c-.4787633-.0001588-.9498266-.1205035-1.37-.35l-2-1.11c-.85519-.4408325-1.2753061-1.4281054-1-2.35l-1.67.19c-1.2052952.1337966-2.4104858-.2524392-3.3134896-1.0618972s-1.4182204-1.9654053-1.4165104-3.1781028v-11.64c-.0023626-.4062651.2413038-.77358.6165185-.929371.3752147-.1557909.807391-.0690889 1.0934815.219371l.18.18v-3c-.0023626-.4062651.2413038-.77358.6165185-.929371.3752147-.1557909.807391-.0690889 1.0934815.219371l6.81 6.78 4.24-3.37 3.34-3.3c.2870058-.2813286.7145455-.363505 1.0853946-.208621.3708491.1548841.6129438.5167313.6146054.918621v3.06l.18-.18c.2870058-.2813286.7145455-.363505 1.0853946-.208621.3708491.1548841.6129438.5167313.6146054.918621v11.5c.00171 1.2126975-.5135066 2.3686448-1.4165104 3.1781028s-2.1081944 1.1956938-3.3134896 1.0618972l-1.69-.19c.2807824.9249594-.1401498 1.9183595-1 2.36l-2 1.1c-.4258864.2207051-.9004435.3307474-1.38.32zm-3-6c.3288827-.0163547.6447368.1302482.844541.3919916.1998041.2617434.257945.605074.155459.9180084l-.46 1.43 2.05 1.13c.2588343.1404794.5711657.1404794.83 0l2-1.1-.45-1.47c-.1035684-.3224094-.0369328-.6753293.1770642-.9377784s.5462776-.3987662.8829358-.3622216l3.22.36c.6396412.0711947 1.2792959-.1336982 1.7585269-.5632878s.7525753-1.043122.7514731-1.6867122v-9.11l-.18.18c-.2870058.2813286-.7145455.363505-1.0853946.208621-.3708491-.1548841-.6129438-.5167313-.6146054-.918621v-3.06l-1.67 1.65-.08.07-5 4c-.3991252.3155766-.9715797.2811432-1.33-.08l-5.73-5.71v3c.0023626.4062651-.2413038.77358-.6165185.929371-.3752147.1557909-.807391.0690889-1.0934815-.219371l-.18-.18v9.24c-.0011022.6435902.2722421 1.2571226.7514731 1.6867122s1.1188857.6344825 1.7585269.5632878l3.21-.36zm1.88-3.86c-.265803.0015368-.5212812-.1028135-.71-.29l-.59-.59c-.2713955-.2723344-.3626248-.6761479-.2346635-1.0387048.1279612-.3625568.4524503-.6196462.8346635-.6612952l1.66-.18h.22c.1558162.0174681.3059605.0686536.44.15.1379633-.0478632.2847352-.0649297.43-.05.4039182.0440309.7410404.3280817.8529524.7186766.111912.3905948-.023637.8100739-.3429524 1.0613234-.2624136.2157819-.6164334.2835729-.94.18l-.21-.09-.6.31c-.1367616.2301423-.3600913.3958386-.62.46-.048888.0172001-.099039.0305737-.15.04z" fill="#fff"/><path d="m26 10.42c0 .38.65.15 2.4.19s2.07.72 3.75 1.36l1.69.64c-.5000247.6044666-.8618095 1.3109709-1.06 2.07 0 .72 3.84-.41 3.84-.41l-.41-.9c.2863149-.2732904.4935978-.618762.6-1 .7034538-.1914782 1.3947104-.4252365 2.07-.7.8343096-.5316348 1.8007629-.819146 2.79-.83 1.58 0 2.75-.26 2.75-.6-1.00375-.55763431-2.0671208-1.00042596-3.17-1.32-1.17-.38-3.58-.75-4-.41s-.23 1.21-2.2 1.17c-1.65 0-1.43-1.17-2-1.3-1.1324046-.18791633-2.2919881-.12993716-3.4.17-.86.36-3.59 1.45-3.65 1.87z" fill="#434a54"/><path d="m30.28 25.45 5-.55 5 .55c.7461118.0856698 1.4932568-.1517183 2.0530934-.652323.5598366-.5006048.8789533-1.2166657.8769066-1.967677v-9.28l-1.71 1.69v5.81c-.0054929 1.9362397-1.5737603 3.5045071-3.51 3.51h-5.34c-1.9362397-.0054929-3.5045071-1.5737603-3.51-3.51v-5.92l-1.71-1.71v9.41c.0002188.7356263.3085177 1.4375384.8500772 1.9353931.5415596.4978547 1.2668747.7461422 1.9999228.6846069z" fill="#f2d660"/><path d="m32.58 24.56h5.34c1.9362397-.0054929 3.5045071-1.5737603 3.51-3.51v-5.81l-1 1v3.36c.0000272 1.172169-.4676587 2.2958968-1.2993186 3.1219247-.8316599.8260278-1.9585396 1.2860674-3.1306814 1.2780753h-1.51c-2.4222487-.0054989-4.3845011-1.9677513-4.39-4.39v-3.46l-1-1v5.92c.0162142 1.9168293 1.5632251 3.4682856 3.48 3.49z" fill="#4758a9"/><path d="m34.49 24h1.51c2.4222487-.0054989 4.3845011-1.9677513 4.39-4.39v-3.36l-.63.62-5 4-4.69-4.67v3.46c.0329007 2.4143994 2.0054024 4.3511997 4.42 4.34z" fill="#ed5565"/><path d="m36 24.56 2.66 8.4c.1547045.4635515-.048282.9710175-.48 1.2l-2 1.1c-.557915.3041173-1.232085.3041173-1.79 0l-2-1.11c-.4365483-.22973-.6403513-.7434835-.48-1.21l2.41-7.49z" fill="#f2d660"/><path d="m29.09 31.88 6.16-.68 6.16.68c.9216017.1023982 1.8432013-.1925137 2.5341435-.8109261.6909422-.6184123 1.0858389-1.501801 1.0858565-2.4290739v-11.5l-2.12 2.1v7.2c-.0054987 2.4001574-1.9498426 4.3445013-4.35 4.35h-6.62c-2.4001574-.0054987-4.3445013-1.9498426-4.35-4.35v-7.34l-2.12-2.1v11.65c.0028561.9255291.398981 1.8062196 1.0895744 2.422412s1.6105532.9097986 2.5304256.807588z" fill="#f2d660"/><path d="m36.16 35.27 1.36-.75-1.52-4.83-1.74.9-1.26 3.93 1.38.75c.5552864.3004965 1.2247136.3004965 1.78 0z" fill="#4758a9"/><path d="m31.94 30.79h6.62c2.4001574-.0054987 4.3445013-1.9498426 4.35-4.35v-7.2l-1.28 1.27v4.17c-.0055035 3.0021465-2.4378535 5.4344965-5.44 5.44h-1.87c-3.0021465-.0055035-5.4344965-2.4378535-5.44-5.44v-4.29l-1.28-1.28v7.34c.0109492 2.3923658 1.9476342 4.3290508 4.34 4.34z" fill="#4758a9"/><path d="m34.31 30.11h1.87c3.0021465-.0055035 5.4344965-2.4378535 5.44-5.44v-4.17l-.78.77-6.17 4.9-5.81-5.79v4.29c.0055157 3.0060459 2.443949 5.4400051 5.45 5.44z" fill="#ed5565"/><path d="m35.25 28.29c-3 0-5.5-3.21-5.5-7.15s2.47-7.16 5.5-7.16 5.5 3.21 5.5 7.16-2.47 7.15-5.5 7.15zm0-12.31c-1.9 0-3.5 2.36-3.5 5.16s1.6 5.15 3.5 5.15 3.5-2.36 3.5-5.15-1.6-5.14-3.5-5.14z" fill="#fff"/><ellipse cx="35.25" cy="21.14" fill="#3bafda" rx="4.5" ry="6.15"/></g></svg>