<svg height="48" viewBox="0 0 71 48" width="71" xmlns="http://www.w3.org/2000/svg"><g fill="none"><path d="m.28 7.47v9h70v-9c0-3.66717074-2.9728293-6.64-6.64-6.64h-56.71c-1.76276947-.00265478-3.45424962.69574249-4.70165483 1.9412719-1.2474052 1.24552941-1.94834717 2.93595663-1.94834517 4.6987281z" fill="#ed5565"/><path d="m.28 32.18h70v-15.67h-70z" fill="#fff"/><path d="m.28 41.19c0 3.6671707 2.97282926 6.64 6.64 6.64h56.72c3.6671707 0 6.64-2.9728293 6.64-6.64v-9h-70z" fill="#434a54"/><path d="m37.87 19.8-.87-1.2c-.131128-.160166-.3233461-.2580885-.53-.27h-2.1l-.7 3.8h3.23l-.43-2.33zm-.3 10.53 3.22-8.2h-11l3.21 8.19h4.57z" fill="#ffce54"/></g></svg>