<svg height="48" viewBox="0 0 71 48" width="71" xmlns="http://www.w3.org/2000/svg"><g fill="none"><path d="m63.78.83h-57.27c-1.21903609-.00486216-2.41354619.34237915-3.44 1l66.08 23h1.0000079l-.0000079-17.63c.0026597-1.690243-.6676092-3.31202323-1.862793-4.507207s-2.816964-1.86545271-4.507207-1.862793z" fill="#52c162"/><path d="m3.11 46.84c1.01499887.650268 2.19456921.9972005 3.4 1h57.27c3.512531 0 6.36-2.847469 6.36-6.36v-16.65h-1z" fill="#8cbae2"/><path d="m3.06999988 1.85c-1.82151404 1.16913669-2.92206786 3.18556243-2.91999988 5.35v34.27c.00498593 2.1907701 1.13889216 4.2242421 2.99999987 5.38l65.99999723-22z" fill="#ed5565"/><path d="m19.65 33c-.6750038.1217403-1.1814462.6858265-1.23 1.37h3.89c-.0426768-.7012245-.5663196-1.2788939-1.26-1.39 3.8-.08 7.11-1.46 7.71-2.35-.59-.25-1.28.15-1.77.06 1.16-.52 4.65-2.72 4.08-5.07-.4647742 1.125911-1.2870415 2.067653-2.34 2.68 1.3-1.92 3.08-3.92 1.54-5.48.0604428.7720263-.2699764 1.5229789-.88 2 .76-2 1.48-4.58-.16-6.26.21.61.13 2.32-.17 2.4-.09-1.38-.33-4.29-1.83-4.25.5392239.7800716.7837668 1.7263465.69 2.67-.3086585-.7913954-.8532869-1.4686898-1.56-1.94-.7512097-1.2416367-1.8037328-2.273522-3.06-3 .0509353 1.0630184.6335294 2.0289971 1.55 2.57-.68 0-1.36-1.3-2.09-1.33s-1 .51-2 .2c.1967059.2355354.4106272.4561417.64.66-.3749372.0750693-.7643046-.0042463-1.08-.22.4728376.6987833 1.2903251 1.0825803 2.13 1 .9072475-.1824193 1.8497899-.0371402 2.66.41-.5490622.0972294-1.1109378.0972294-1.66 0 .4123213.5409439 1.0601243.8499533 1.74.83.79 0 1.21-.41 1.41-.16.4672547.570324.885413 1.1791625 1.25 1.82-.92.1-.64-1-1.67-1.58-.58 1.16.66 2.53 1.5 3.1-.0270903.785826.1521966 1.5650345.52 2.26.4009237.5844245.5653088 1.299142.46 2-.6607149-.6604616-.9655236-1.5971909-.82-2.52-.6372998.3485535-.8917774 1.1339243-.58 1.79.2710106.4765119.311461 1.0501728.11 1.56-.2560948.2646568-.3580891.6424136-.27 1-.0226788.4929317-.2512499.9537021-.63 1.27.1138492-.3653824.1412361-.7522222.08-1.13-.4751458.5123095-.9224557 1.0497489-1.34 1.61-.24.56-.3 1.52-1.48 1.74-1.033911.1876151-2.0412613.4998936-3 .93-.11-.72.21-2.22.83-2.13s2.43-.61 1.78-2.11c-.0997399.5052595-.4947405.9002601-1 1 .5-.64 1.4-1.29 1-2.36-.263768.5416982-.6811002.9938081-1.2 1.3.62-1.16.07-1.5-.67-.55-.3299116.6220318-.5402148 1.300429-.62 2-.29-.76-.27-1.77-.61-2.58-.1078097-.2594845-.0593544-.557642.1250775-.7696326.1844318-.2119906.4730165-.3012355.7449225-.2303674 1 .25 2.57.25 2.45-1.3-.4894726.5309641-1.2442899.7265126-1.93.5.88-.63 1.58-1.81.6-2.43-.0957304.7515672-.5665044 1.4031186-1.25 1.73-.1516062-.5836489-.1516062-1.1963511 0-1.78-.4639987.640154-.7721737 1.3797742-.9 2.16-.0061826-.711104.0949556-1.4190713.3-2.1.2-.73.71-.25 1.48-.2s1.77-.36 1.57-1.34c-.3157259.3890868-.8153205.5797718-1.31.5.64-.38 1.76-1 1.15-2.08-.1721274.4675614-.5945882.7970034-1.09.85.0768146-.5273594.3704619-.9986452.81-1.3-1-.2-1.62.46-1.92 1.49-.1272619-.494159-.2274113-.9949063-.3-1.5.3123481-.3054556.430368-.7584899.3067548-1.1775177-.1236131-.4190277-.4686277-.7354669-.8967548-.8224823-.0788772.4174229-.0478625.8481824.09 1.25-.5707158-.3982851-1.3292842-.3982851-1.9 0 .4388578.5240661 1.1936133.6512721 1.78.3-.2.65-.73.54-1.46.29.2608476.6408219.9430583 1.0029831 1.62.86.32.83.34 1.46-.61 2.67.1251067-.7032557-.1072228-1.4227276-.62-1.92-.52-.5-1 0-.13 1.13-.5964631-.4487231-1.0286925-1.0812539-1.23-1.8-.1976406.8779578-.0200433 1.7985639.49 2.54-.24.25-.51 0-.92-.64.15 2 1 2.34 2.17 1.9 0 1.08 0 2.07.1 3.37-.5057799-.7628287-1.1929917-1.3881915-2-1.82.011294.6093095.2714581 1.187452.72 1.6-.5402549-.2163441-1.0483145-.5057025-1.51-.86-.1.87 1.06 1.68 1.81 2-.7121295-.0209377-1.3814982-.3447085-1.84-.89 0 2.42 2.7 2 3.2 1.63.07 1.19.16 2.57.23 3.76-.76-.13-.7-.35-1.35-.41-1.8-.07-3.23-2.11-3.71-3.6-.14.25 0 .5-.15.81-.2431923-.7812863-.6410871-1.5056588-1.17-2.13.132509.5462711.1663741 1.1118197.1 1.67-.1981616-.4030477-.3137596-.8416398-.34-1.29.1892851-.4762204.3365139-.9680983.44-1.47 0-.48-.47-1.52-.54-2.33-.130927.7672303-.3629466 1.5137279-.69 2.22.0466505-.7129405.177562-1.4178486.39-2.1.3806973-.5245916.5189823-1.1869039.38-1.82-.1814177.3759424-.4026865.7313135-.66 1.06.0938092-.8985402.6356328-1.6886996 1.44-2.1.54-.28 1.22-1.26.77-1.94-.5397975.4976888-1.0257997 1.0507258-1.45 1.65.2521387-1.6267949 1.7318515-2.772804 3.37-2.61.4915779.0350144.9669204-.1837941 1.26-.58-.4655184.163256-.9664774.1978049-1.45.1.479716-.4097472 1.124643-.5691257 1.74-.43.6691889.0906833 1.3286018-.2233228 1.68-.8-.7283365.2762466-1.5233375.3250625-2.28.14 1-.51 2.58-.56 3.39-1.22-.92-.67-3.22.15-4.67 1.13.5179061-.4569595.9870772-.9663453 1.4-1.52-.8-.37-2.81 1.8-3.5 3.08-.5075737.322718-.9159703.7795685-1.18 1.32.35-1.15.39-2 .68-2.94-2.26.76-1.32 4.81-1.81 5.78.1316082-1.0704131-.0201161-2.1566207-.44-3.15-.7.52-.75 3.55-.1 6.07-.337871-.6834404-.6123538-1.3964261-.82-2.13-1 1.82.6 4 2 5.67-1.0844537-.6556436-2.0100078-1.5436291-2.71-2.6.18 3.26 3.69 3.94 4.23 4.74-.74-.33-2.15-1-2.75-.3.8374548.1509995 1.6425904.4453137 2.38.87.87 1.13 2.6 1.61 5.6 1.77z" fill="#f6d660"/></g></svg>