<svg height="48" viewBox="0 0 71 48" width="71" xmlns="http://www.w3.org/2000/svg"><g fill="none" fill-rule="evenodd"><g fill-rule="nonzero"><path d="m.63 10.51h70v27h-70z" fill="#ffce54"/><path d="m64.27.56h-57.27c-1.68677688 0-3.30446776.67006898-4.49719913 1.86279941-1.19273137 1.19273042-1.86280087 2.81042004-1.86280087 4.49719558v3.63999711h70v-3.63999711c.0000021-1.68850958-.67144-3.30771651-1.866335-4.50073481-1.1948951-1.1930183-2.8151562-1.86191507-4.503665-1.85926018z" fill="#ed5565"/><path d="m.63 41.2c0 1.6867769.6700695 3.3044678 1.86280087 4.4971991 1.19273137 1.1927314 2.81042225 1.8628009 4.49719913 1.8628009h57.27c1.6867769 0 3.3044678-.6700695 4.4971991-1.8628009 1.1927314-1.1927313 1.8628009-2.8104222 1.8628009-4.4971991v-3.64h-70z" fill="#ed5565"/><path d="m11.71 27.13v2.87c0 1.6568542 1.3431458 3 3 3h1.7v-5.83z" fill="#f6d660"/><g fill="#ed5565"><path d="m13.21 27.13v5.42c.1592673.0918249.3266381.1688155.5.23v-5.65z"/><path d="m12.13 27.13v4.35c.136128.2385321.3043661.4572416.5.65v-5z"/><path d="m14.3 27.13v5.79c.1331849.0088988.2668151.0088988.4 0h.1v-5.83z"/><path d="m15.38 27.13h1v5.83h-1z"/><path d="m11.71 21.83h4.69v5.29h-4.69z"/><path d="m21.09 30v-2.84h-4.69v5.84h1.7c1.6529477-.0055099 2.9900092-1.3470431 2.99-3z"/></g><path d="m16.4 21.83h4.69v5.29h-4.69z" fill="#fff"/><circle cx="16.4" cy="27.13" fill="#4a89dc" r="1.52" stroke="#ed5565" stroke-width=".5"/><rect fill="#fff" height="9.71" rx=".71" width="1.42" x="8.75" y="21.83"/><rect fill="#fff" height="9.71" rx=".71" width="1.42" x="22.63" y="21.83"/><path d="m20.93 18.39s0-.05 0-.08c0-.8-2-1.45-4.57-1.45s-4.57.65-4.57 1.45c-.0032759.0332528-.0032759.0667472 0 .1l1 1.15.36-.1c.1466387-.011163.2911931-.0414186.43-.09.1951041-.0860526.3955134-.159536.6-.22l.66.11.46-.31.54.21.51-.32.48.33.58-.26c.1696516.1300163.3466078.2502129.53.36 0 0 .5-.24.5-.24l.35.37.51-.19.4.44z" fill="#ed5565"/><path d="m19 19.4-.36-.37s-.48.24-.52.24c-.1898701-.1097035-.3734873-.2298894-.55-.36l-.61.26-.51-.33-.54.32-.57-.21-.48.31-.7-.11c-.2142741.0604674-.4246641.1339369-.63.22-.1457098.0484604-.29686.0786905-.45.09l-.38.1.29.26.4.7h6l.4-.7.2-.17-.42-.44z" fill="#fff"/></g><ellipse cx="16.39" cy="20.51" rx="2.71" ry="1" stroke="#fff" stroke-linecap="round" stroke-linejoin="round"/><path d="m13.07 19.81c.43-.3 1.37-.45 3.33-.45" stroke="#fff" stroke-linecap="round" stroke-linejoin="round" stroke-width=".51"/><path d="m16.39 19.36c2 0 2.9.15 3.33.45" stroke="#fff" stroke-linecap="round" stroke-linejoin="round" stroke-width=".51"/><ellipse cx="16.39" cy="20.51" rx="2.71" ry="1" stroke="#fff" stroke-linecap="round" stroke-linejoin="round" stroke-width=".5"/><ellipse cx="16.39" cy="20.51" fill="#ed5565" fill-rule="nonzero" rx="2.71" ry="1"/><g stroke="#fff" stroke-linecap="round" stroke-linejoin="round"><path d="m14.21 17.58c-.2012055-.1993172-.2993957-.4801978-.2661912-.7614601.0332046-.2812622.1941029-.531556.4361912-.6785399.5392511-.2835637 1.1897614-.2529514 1.7.08l.31.2.31-.2" stroke-width=".5"/><path d="m12 18.31c-.2042699-.2139958-.3087869-.5042346-.2878446-.7993309s.1654006-.5676659.3978446-.7506691c.5403488-.3395481 1.2040442-.4202183 1.81-.22" stroke-width=".5"/><path d="m18.58 17.58c.2012055-.1993172.2993957-.4801978.2661912-.7614601-.0332046-.2812622-.1941029-.531556-.4361912-.6785399-.5392511-.2835637-1.1897614-.2529514-1.7.08" stroke-width=".5"/><path d="m20.78 18.31c.2042699-.2139958.3087869-.5042346.2878446-.7993309s-.1654006-.5676659-.3978446-.7506691c-.5403488-.3395481-1.2040442-.4202183-1.81-.22" stroke-width=".5"/><path d="m16.39 17.37v-.94" stroke-width=".5"/><path d="m20.2 19.28c-.28.47-1 .32-.65-.29 0 0-.22.49-.66.41-.27 0-.41-.3-.34-.66-.026561.3125519-.2968018.5473513-.61.53-.5 0-.45-.67-.45-.67s0 .59-.55.57c-.1485536-.0052106-.2889408-.0692691-.3902303-.1780615-.1012894-.1087923-.1551698-.2533916-.1497697-.4019385.0109622.1519055-.0404191.3017234-.1423028.4149275-.1018836.113204-.2454803.1800282-.3976972.1850725-.54 0-.55-.57-.55-.57s0 .63-.45.67c-.3131982.0173513-.583439-.2174481-.61-.53.06.36-.07.61-.34.66-.44.08-.66-.41-.66-.41.32.62-.37.76-.65.29" stroke-width=".3"/></g><circle cx="16.39" cy="15.72" fill="#4a89dc" fill-rule="nonzero" r="1"/></g></svg>