<svg height="48" viewBox="0 0 71 48" width="71" xmlns="http://www.w3.org/2000/svg"><g fill="none"><path d="m.28 6.76v9h70v-9c0-3.66717074-2.9728293-6.64-6.64-6.64h-56.71c-1.76276947-.00265478-3.45424962.69574249-4.70165483 1.9412719-1.2474052 1.24552941-1.94834717 2.93595663-1.94834517 4.6987281z" fill="#52c162"/><path d="m.28 31.46h70v-15.67h-70z" fill="#ffce54"/><path d="m.28 40.47c0 3.6671707 2.97282926 6.64 6.64 6.64h56.72c3.6671707 0 6.64-2.9728293 6.64-6.64v-9h-70z" fill="#ed5565"/><circle cx="35.28" cy="23.61" fill="#8cbae2" r="14.5"/><path d="m30.48 32.11c-.2738873.0020274-.5420951-.0780866-.77-.23-.5865976-.4491642-.8031125-1.23352-.53-1.92l.79-3.27c.1033507-.6339989-.113829-1.2780491-.58-1.72l-2.36-2c-.6356641-.3755385-.9182166-1.147311-.6752905-1.8445089s.9438949-1.12628 1.6752905-1.0254911l3.35-.1c.5464975-.0556793 1.0089415-.4279859 1.18-.95l1-3.53c.35-1.17 1-1.37 1.42-1.38s1.08.14 1.5 1.29l1.26 3.53c.234371.5210643.7395423.8681285 1.31.9h3.37c.7388694-.1392057 1.4702487.275478 1.7301737.9809886.2599249.7055107-.0275982 1.4955795-.6801737 1.8690114l-2.53 2.29c-.4287511.4455063-.6019937 1.0782183-.46 1.68l.82 2.83c.3347786.6656489.1485672 1.4753137-.4433735 1.9278304-.5919407.4525166-1.4220993.4198288-1.9766265-.0778304l-2.78-1.72c-.5313535-.2718877-1.1670691-.2414343-1.67.08l-2.75 1.95c-.3439077.2689741-.7637346.4229106-1.2.44zm-1.43-10.11 1.69 1.46c.9759555.9279697 1.4194466 2.284752 1.18 3.61l-.56 2.33 1.95-1.38c1.1396795-.7429809 2.5951661-.8005859 3.79-.15l2 1.24-.57-2c-.3268898-1.3078143.0521806-2.6914211 1-3.65l1.91-1.67h-2.44c-1.3655794-.0729447-2.5694926-.9195675-3.1-2.18l-.8-2.23-.65 2.21c-.4338065 1.31559-1.6183792 2.2395566-3 2.34z" fill="#ffce54"/><path d="m31.1 30.85c-.73.52-1.16.23-.95-.65l.79-3.27c.175238-.9757755-.1429045-1.9751172-.85-2.67l-2.4-2.07c-.68-.59-.5-1.09.39-1.12l3.36-.1c.9609136-.0716257 1.7868037-.7087409 2.1-1.62l1.05-3.58c.26-.87.71-.88 1 0l1.26 3.53c.3703958.8969796 1.2212264 1.5030507 2.19 1.56h3.42c.9 0 1.08.5.4 1.1l-2.6 2.28c-.7079195.688868-1.0038066 1.6979191-.78 2.66l.83 2.88c.25.87-.17 1.19-.94.72l-2.78-1.72c-.8581555-.4707873-1.9047151-.4362854-2.73.09z" fill="#8cbae2"/></g></svg>