<svg height="48" viewBox="0 0 71 48" width="71" xmlns="http://www.w3.org/2000/svg"><g fill="none" fill-rule="evenodd"><g fill-rule="nonzero"><rect fill="#fff" height="47" rx="6.64" width="70" x=".9" y=".11"/><path d="m65.07.17h-58.33c-2.94550384.36788299-5.28901548 2.64607026-5.74 5.58v35.72c.49388474 3.2419958 3.28060151 5.6378925 6.56 5.64h56.72c3.6671707 0 6.64-2.9728293 6.64-6.64v-33.71c-.0014359-3.360525-2.513344-6.19017877-5.85-6.59z" fill="#4658a9"/><path d="m25.87.12h-18.4c-3.63980479.03837356-6.57020228 2.99999294-6.57 6.64v17.33h25z" fill="#4658a9"/><path d="m11.44 17.52v6.56h3.9v-6.71l6.71 6.71h3.82v-3l-7-7h7v-4h-7l7-7v-3h-3.87l-6.7 6.7v-6.7h-3.9v6.56l-6.16-6.16c-1.56329281.56647757-2.85814249 1.69724162-3.63 3.17l6.41 6.41h-7.12v4h7.16l-7.16 7.16v2.83h4z" fill="#fff"/><path d="m12.44 14.78v9.31h1.9v-9.45l9.45 9.45h2.08v-1.23l-9.78-9.78h9.78v-1.95h-9.78l9.78-9.78v-1.23h-2.09l-9.45 9.45v-9.45h-1.9v9.3l-8.33-8.34c-.6736073.40866358-1.26948293.93344041-1.76 1.55l8.49 8.49h-9.93v1.95h9.93l-9.93 9.93v1.09h2.23z" fill="#ec5463"/></g><path d="m52.15 15.28c-1.4804417-.0318083-2.8637188-.7437349-3.75-1.93-.8872739 1.1850913-2.2699366 1.8967017-3.75 1.93-1.405995-.0461029-2.7437921-.6168963-3.75-1.6v10.46c.07 6.89 7.5 9.74 7.5 9.74s7.5-2.85 7.5-9.74v-10.46c-1.0028735.9880884-2.3427139 1.5597537-3.75 1.6z" stroke="#fff" stroke-linecap="round" stroke-linejoin="round" stroke-width="2"/><g fill-rule="nonzero"><path d="m52.15 15.28c-1.4804417-.0318083-2.8637188-.7437349-3.75-1.93-.8872739 1.1850913-2.2699366 1.8967017-3.75 1.93-1.405995-.0461029-2.7437921-.6168963-3.75-1.6v10.46c.07 6.89 7.5 9.74 7.5 9.74s7.5-2.85 7.5-9.74v-10.46c-1.0028735.9880884-2.3427139 1.5597537-3.75 1.6z" fill="#fff"/><path d="m55.89 17.3v-3.62c-1.0003667.9857721-2.3362006 1.5572519-3.74 1.6-1.4778171-.042081-2.8568844-.751841-3.75-1.93-.8940706 1.1770217-2.2725534 1.8864809-3.75 1.93-1.405995-.0461029-2.7437921-.6168963-3.75-1.6v3.62h5.52v4.7h-5.52v2.1c.0098269.6192693.083551 1.2358703.22 1.84h5.3v6.87c.6381746.3875085 1.3070884.7219654 2 1 .6928379-.2781985 1.3617385-.6126488 2-1v-6.81h5.32c.1340842-.6043134.2044686-1.2210148.21-1.84v-2.16h-5.52v-4.7z" fill="#ed5565"/></g></g></svg>