<svg height="48" viewBox="0 0 71 48" width="71" xmlns="http://www.w3.org/2000/svg"><g fill="none"><rect fill="#3bafda" height="47" rx="6.36" width="70" x=".77" y=".95"/><g fill="#fff"><path d="m27.72 27.91c.1.43-.12.58-.49.33l-1.37-1c-.4278016-.2583562-.9557209-.2883091-1.41-.08l-1.43.74c-.41.21-.61 0-.45-.38l.61-1.57c.1508458-.4520845.0124014-.9504841-.35-1.26l-1.47-1.13c-.35-.27-.27-.49.18-.48h1.89c.4911865-.0133967.934278-.2985165 1.15-.74l.68-1.58c.18-.42.44-.41.59 0l.56 1.62c.1889758.4515174.6044847.7679141 1.09.83l1.5.13c.45 0 .52.29.16.56l-1.34 1c-.382103.3071612-.5693142.7962026-.49 1.28z"/><path d="m48.72 27.91c.1.43-.12.58-.49.33l-1.37-1c-.4278016-.2583562-.9557209-.2883091-1.41-.08l-1.43.74c-.41.21-.61 0-.45-.38l.61-1.57c.1508458-.4520845.0124014-.9504841-.35-1.26l-1.47-1.13c-.35-.27-.27-.49.18-.48h1.89c.4911865-.0133967.934278-.2985165 1.15-.74l.68-1.58c.18-.42.44-.41.59 0l.56 1.62c.1889758.4515174.6044847.7679141 1.09.83l1.5.13c.45 0 .52.29.16.56l-1.34 1c-.382103.3071612-.5693142.7962026-.49 1.28z"/><path d="m38.22 17.41c.1.43-.12.58-.49.32l-1.37-1c-.4278016-.2583562-.9557209-.2883091-1.41-.08l-1.43.74c-.41.21-.61 0-.45-.38l.61-1.57c.1508458-.4520845.0124014-.9504841-.35-1.26l-1.47-1.13c-.35-.27-.27-.49.18-.48h1.89c.4911865-.0133967.934278-.2985165 1.15-.74l.68-1.58c.18-.42.44-.41.59 0l.56 1.62c.1889758.4515174.6044847.7679141 1.09.83l1.5.13c.45 0 .52.29.16.56l-1.34 1c-.382103.3071612-.5693142.7962026-.49 1.28z"/><path d="m38.22 38.41c.1.43-.12.58-.49.32l-1.37-1c-.4278016-.2583562-.9557209-.2883091-1.41-.08l-1.43.74c-.41.21-.61 0-.45-.38l.61-1.57c.1508458-.4520845.0124014-.9504841-.35-1.26l-1.47-1.13c-.35-.27-.27-.49.18-.48h1.89c.4911865-.0133967.934278-.2985165 1.15-.74l.68-1.58c.18-.42.44-.41.59 0l.56 1.62c.1889758.4515174.6044847.7679141 1.09.83l1.5.13c.45 0 .52.29.16.56l-1.34 1c-.382103.3071612-.5693142.7962026-.49 1.28z"/></g></g></svg>