<svg height="48" viewBox="0 0 71 48" width="71" xmlns="http://www.w3.org/2000/svg"><g fill="none"><g fill="#fff"><path d="m.25 30.37v10.46c0 3.6671707 2.97282926 6.64 6.64 6.64h12.44v-17.1z"/><path d="m19.33.47h-12.44c-3.66717074 0-6.64 2.97282926-6.64 6.64v10.46h19.08z"/><path d="m32.14 47.47h31.47c3.6671707 0 6.64-2.9728293 6.64-6.64v-10.46h-38.11z"/><path d="m70.25 17.57v-10.46c0-3.66717074-2.9728293-6.64-6.64-6.64h-31.47v17.1z"/></g><g fill="#4658a9"><path d="m28.93 20.77h41.32v-3.2h-38.12v-17.1h-3.2z"/><path d="m28.93 27.17v20.3h3.2v-17.1h38.12v-3.2z"/><path d="m22.53 20.77v-20.3h-3.19v17.1h-19.09v3.2z"/><path d="m22.53 27.17h-22.28v3.2h19.09v17.1h3.19z"/></g><path d="m28.93.47h-6.4v20.3h-22.28v6.4h22.28v20.3h6.4v-20.3h41.32v-6.4h-41.32z" fill="#ec5565"/></g></svg>