<svg height="48" viewBox="0 0 71 48" width="71" xmlns="http://www.w3.org/2000/svg"><g fill="none"><path d="m30.57.68h-3.13v14.32l-25-12.5c-1.16153563 1.12206314-1.87283823 2.63002466-2 4.24l19.2 9.6h-7l-12.23-6.11v1.77l8.73 4.36h-8.73v3.13h30.19z" fill="#fff"/><path d="m68.23 45.89c1.1949195-1.0906929 1.9490681-2.5812036 2.12-4.19l-19.42-9.7h7l12.46 6.23v-1.75l-9-4.48h9v-3.13h-30.39v18.79h3.13v-14.32z" fill="#fff"/><path d="m43.1.68h-3.1v18.79h30.42v-3.13h-9l9-4.48v-4.57c0-.23 0-.45 0-.67l-19.43 9.71h-7l25.37-12.69c-.2833313-.4482381-.6190278-.86114473-1-1.23l-25.26 12.59z" fill="#fff"/><path d="m.39 28.86v3.14h8.73l-8.73 4.36v4.64.59l19.2-9.6h7l-25.18 12.59c.28252287.4518528.61825717.8681633 1 1.24l25-12.49v14.32h3.13v-18.79z" fill="#fff"/><g fill="#ec5565"><path d="m70.39 28.86v-9.39h-30.42v-18.79h-9.4v18.79h-30.18v9.39h30.18v18.79h9.4v-18.79z"/><path d="m19.61 16.34-19.2-9.6v.55 2.93l12.23 6.11z"/><path d="m50.93 16.34 19.43-9.71c-.103397-1.07147942-.4673044-2.10140605-1.06-3l-25.37 12.69z"/><path d="m50.93 32 19.42 9.71c.012161-.2331749.012161-.4668251 0-.7v-2.78l-12.42-6.23z"/><path d="m19.61 32-19.2 9.6c.08530217 1.0662602.4284856 2.0958105 1 3l25.21-12.6z"/></g><g fill="#4658a9"><path d="m43.1 15 25.16-12.58c-1.0557708-.9835836-2.4043921-1.59467762-3.84-1.74h-21.32z"/><path d="m70.39 36.47v-4.48h-8.96z"/><path d="m70.39 16.34v-4.48l-8.96 4.48z"/><path d="m2.46 45.82c1.2308925 1.1756551 2.86786608 1.8311609 4.57 1.83l20.41.0000015v-14.3200015z"/><path d="m43.1 33.33v14.32h20.65c1.6601058-.0000589 3.2594079-.6247862 4.48-1.75z"/><path d="m27.44.68h-21.08c-1.473688.15028324-2.85418224.791227-3.92 1.82l25 12.5z"/><path d="m.39 31.99v4.36l8.72-4.36z"/><path d="m.39 11.97v4.37h8.72z"/></g></g></svg>