<svg height="48" viewBox="0 0 71 48" width="71" xmlns="http://www.w3.org/2000/svg"><g fill="none"><rect fill="#ed5565" height="47" rx="6.36" width="70" x=".28" y=".68"/><g fill="#f6d660"><rect height="37" rx="3.05" width="60" x="5.28" y="5.68"/><path d="m23.5 4.63c-.14.1-.22 0-.18-.12l.15-.61c.0347827-.18300785-.0254336-.37118384-.16-.5l-.45-.39c-.13-.11-.1-.2.07-.21h.63c.1780011-.01378138.3310214-.13148933.39-.3l.2-.67c0-.16.13-.17.19 0l.24.66c.0711641.16615182.2296325.27823925.41.29h.64c.17 0 .2.09.08.2l-.49.43c-.1307017.13082815-.1837601.32032253-.14.5l.16.54c0 .16 0 .22-.18.14l-.52-.32c-.1572214-.09321707-.3527786-.09321707-.51 0z"/><path d="m34.5 4.63c-.14.1-.22 0-.18-.12l.15-.61c.0347827-.18300785-.0254336-.37118384-.16-.5l-.45-.39c-.13-.11-.1-.2.07-.21h.63c.1780011-.01378138.3310214-.13148933.39-.3l.2-.67c0-.16.13-.17.19 0l.24.66c.0711641.16615182.2296325.27823925.41.29h.64c.17 0 .2.09.08.2l-.49.43c-.1307017.13082815-.1837601.32032253-.14.5l.16.54c0 .16 0 .22-.18.14l-.52-.32c-.1572214-.09321707-.3527786-.09321707-.51 0z"/><path d="m45.5 4.63c-.14.1-.22 0-.18-.12l.15-.61c.0347827-.18300785-.0254336-.37118384-.16-.5l-.45-.39c-.13-.11-.1-.2.07-.21h.63c.1780011-.01378138.3310214-.13148933.39-.3l.2-.67c0-.16.13-.17.19 0l.24.66c.0711641.16615182.2296325.27823925.41.29h.64c.17 0 .2.09.08.2l-.49.43c-.1307017.13082815-.1837601.32032253-.14.5l.16.54c0 .16 0 .22-.18.14l-.52-.32c-.1572214-.09321707-.3527786-.09321707-.51 0z"/><path d="m23.5 46.63c-.14.1-.22 0-.18-.12l.15-.61c.0347827-.1830079-.0254336-.3711838-.16-.5l-.45-.39c-.13-.11-.1-.2.07-.21h.63c.1780011-.0137814.3310214-.1314893.39-.3l.2-.67c0-.16.13-.17.19 0l.24.66c.0711641.1661518.2296325.2782393.41.29h.64c.17 0 .2.09.08.2l-.49.43c-.1307017.1308282-.1837601.3203225-.14.5l.16.54c0 .16 0 .22-.18.14l-.52-.32c-.1572214-.0932171-.3527786-.0932171-.51 0z"/><path d="m34.5 46.63c-.14.1-.22 0-.18-.12l.15-.61c.0347827-.1830079-.0254336-.3711838-.16-.5l-.45-.39c-.13-.11-.1-.2.07-.21h.63c.1780011-.0137814.3310214-.1314893.39-.3l.2-.67c0-.16.13-.17.19 0l.24.66c.0711641.1661518.2296325.2782393.41.29h.64c.17 0 .2.09.08.2l-.49.43c-.1307017.1308282-.1837601.3203225-.14.5l.16.54c0 .16 0 .22-.18.14l-.52-.32c-.1572214-.0932171-.3527786-.0932171-.51 0z"/><path d="m45.5 46.63c-.14.1-.22 0-.18-.12l.15-.61c.0347827-.1830079-.0254336-.3711838-.16-.5l-.45-.39c-.13-.11-.1-.2.07-.21h.63c.1780011-.0137814.3310214-.1314893.39-.3l.2-.67c0-.16.13-.17.19 0l.24.66c.0711641.1661518.2296325.2782393.41.29h.64c.17 0 .2.09.08.2l-.49.43c-.1307017.1308282-.1837601.3203225-.14.5l.16.54c0 .16 0 .22-.18.14l-.52-.32c-.1572214-.0932171-.3527786-.0932171-.51 0z"/></g><path d="m1.53 3.27c-.80224168 1.07902012-1.24005796 2.38546391-1.25 3.73v34.27c.00141125 1.3582282.43965933 2.6799844 1.25 3.77l33.75-20.91z" fill="#52c162"/><path d="m70.28 7c-.0186113-1.34790978-.467047-2.65467931-1.28-3.73l-33.72 20.91 33.72 20.91c.8103407-1.0900156 1.2485887-2.4117718 1.25-3.77z" fill="#52c162"/><circle cx="35.28" cy="24.18" fill="#ed5565" r="6.5"/><path d="m33.45 27.57c-.32.23-.51.1-.42-.29l.35-1.43c.0800735-.4273343-.058779-.8664084-.37-1.17l-1-.91c-.3-.26-.22-.48.17-.49h1.47c.4216193-.0299201.7841926-.3097321.92-.71l.43-1.57c.11-.38.31-.39.45 0l.55 1.5c.1697646.4042849.5616158.6707438 1 .68h1.5c.39 0 .47.22.17.48l-1.14 1c-.3086231.3004632-.4375917.7404738-.34 1.16l.36 1.26c.11.38-.07.52-.41.32l-1.22-.75c-.367626-.2146575-.822374-.2146575-1.19 0z" fill="#f6d660"/></g></svg>