<svg height="48" viewBox="0 0 71 48" width="71" xmlns="http://www.w3.org/2000/svg"><g fill="none"><rect fill="#fff" height="47" rx="6.36" width="70" x=".9" y=".4"/><path d="m70.9 19.9h-31v-19.5h-8v19.5h-31v8h31v19.5h8v-19.5h31z" fill="#ed5565"/><path d="m31.9.4h-24.63c-3.51253101 0-6.36 2.84746899-6.36 6.36v13.14h31z" fill="#fff"/><path d="m20.9 7.65h-2v-2c0-1.1045695-.8954305-2-2-2h-1c-1.1045695 0-2 .8954305-2 2v2h-2c-1.1045695 0-2 .8954305-2 2v1c0 1.1045695.8954305 2 2 2h2v2c0 1.1045695.8954305 2 2 2h1c1.1045695 0 2-.8954305 2-2v-2h2c1.1045695 0 2-.8954305 2-2v-1c0-1.1045695-.8954305-2-2-2z" fill="#ed5565"/><path d="m64.54.4h-24.64v19.5h31v-13.14c0-3.51253101-2.847469-6.36-6.36-6.36z" fill="#fff"/><path d="m59.9 7.65h-2v-2c0-1.1045695-.8954305-2-2-2h-1c-1.1045695 0-2 .8954305-2 2v2h-2c-1.1045695 0-2 .8954305-2 2v1c0 1.1045695.8954305 2 2 2h2v2c0 1.1045695.8954305 2 2 2h1c1.1045695 0 2-.8954305 2-2v-2h2c1.1045695 0 2-.8954305 2-2v-1c0-1.1045695-.8954305-2-2-2z" fill="#ed5565"/><path d="m31.9 47.4000081-24.63-.0000081c-1.69546273.0026994-3.32182265-.6716824-4.5178776-1.8733703-1.19605495-1.2016878-1.86278785-2.8311984-1.8521224-4.5266297l-.00012602-13.1h31.00012602z" fill="#fff"/><path d="m20.9 40.15h-2v2c0 1.1045695-.8954305 2-2 2h-1c-1.1045695 0-2-.8954305-2-2v-2h-2c-1.1045695 0-2-.8954305-2-2v-1c0-1.1045695.8954305-2 2-2h2v-2c0-1.1045695.8954305-2 2-2h1c1.1045695 0 2 .8954305 2 2v2h2c1.1045695 0 2 .8954305 2 2v1c0 1.1045695-.8954305 2-2 2z" fill="#ed5565"/><path d="m64.54 47.4h-24.64v-19.5h31.000126l-.000126 13.1c.0106524 1.6936968-.6547116 3.3216827-1.8485994 4.5230793-1.1938879 1.2013966-2.8176704 1.8769542-4.5114006 1.8769207z" fill="#fff"/><path d="m59.9 40.15h-2v2c0 1.1045695-.8954305 2-2 2h-1c-1.1045695 0-2-.8954305-2-2v-2h-2c-1.1045695 0-2-.8954305-2-2v-1c0-1.1045695.8954305-2 2-2h2v-2c0-1.1045695.8954305-2 2-2h1c1.1045695 0 2 .8954305 2 2v2h2c1.1045695 0 2 .8954305 2 2v1c0 1.1045695-.8954305 2-2 2z" fill="#ed5565"/></g></svg>