<svg height="48" viewBox="0 0 71 48" width="71" xmlns="http://www.w3.org/2000/svg"><g fill="none"><path d="m.15 7v9h70v-9c0-3.66717074-2.9728293-6.64-6.64-6.64h-56.72c-1.76103749 0-3.44994747.69956942-4.69518903 1.94481097-1.24524155 1.24524156-1.94481097 2.93415154-1.94481097 4.69518903z" fill="#ed5565"/><path d="m.15 31.74h70v-15.67h-70z" fill="#f6d660"/><path d="m.15 40.76c0 3.6671707 2.97282926 6.64 6.64 6.64h56.71c3.6671707 0 6.64-2.9728293 6.64-6.64v-9h-70z" fill="#52c162"/><path d="m32.27 29.22c-.5.36-.8.16-.65-.45l.55-2.25c.1323162-.6739533-.0904425-1.3686584-.59-1.84l-1.65-1.42c-.47-.4-.35-.75.27-.77l2.3-.07c.6605076-.0524876 1.2265409-.4927358 1.44-1.12l.72-2.46c.17-.6.49-.61.7 0l.87 2.42c.2516499.617761.8343187 1.0372825 1.5 1.08h2.35c.62 0 .74.35.27.75l-1.79 1.57c-.4846572.4752686-.6856565 1.1692853-.53 1.83l.57 2c.17.6-.12.82-.64.5l-1.91-1.18c-.5877437-.3220535-1.3041105-.2990684-1.87.06z" fill="#434a54"/></g></svg>