<svg height="48" viewBox="0 0 71 48" width="71" xmlns="http://www.w3.org/2000/svg"><g fill="none"><path d="m.87 40.83c0 3.6671707 2.97282926 6.64 6.64 6.64h56.72c3.6671707 0 6.64-2.9728293 6.64-6.64v-11.83h-70z" fill="#ec5565"/><path d="m69.82 3.53c-1.2188164-1.90735276-3.3264835-3.06110254-5.59-3.06h-56.72c-3.66261203.01098242-6.62901758 2.97738797-6.64 6.64v21.89h70.0000051l-.0000051-21.89c.0015826-1.26948068-.3629849-2.51248231-1.05-3.58z" fill="#fff"/><g transform="translate(24 8)"><path d="m3.05 12.8h9.5v6.53h-9.5z" fill="#434a54"/><path d="m8 18.37h-5.8l-1.29.85v.9h7.09" fill="#ec5565" stroke="#fff" stroke-linecap="round" stroke-linejoin="round" stroke-width=".14"/><path d="m5.56 14.62c.84660801.0109775 1.52556908.7033391 1.52 1.55v2.19h1.09v-8.31h-6v8.31h1.83v-2.19c-.00000859-.4128241.16466651-.8085957.4575143-1.0995663.29284779-.2909705.68967024-.4530971 1.1024857-.4504337z" fill="#ec5565" stroke="#fff" stroke-linecap="round" stroke-linejoin="round" stroke-width=".14"/><path d="m4.23 4.44h2.75v5.04h-2.75z" fill="#434a54"/><g fill="#ec5565" stroke="#fff" stroke-linecap="round" stroke-linejoin="round" stroke-width=".14"><path d="m7 8.69h-2.41v-.85h-1.79v.85h-1.2v-.85h-.71v1.55h6.11zm-5.37.7h5.19v.67h-5.19z"/><path d="m3.67 2.6v5.24h.9v-1.44c-.00210571-.5189652.39313625-.95329702.91-1h.05c.55228475 0 1 .44771525 1 1v1.44h.86v-5.24z"/><path d="m3.34 1.89v.71h4.34v-.71z"/><path d="m2.78.54v1.36h5.22v-1.36h-.8v.69h-1v-.69h-1.48v.69h-1v-.69z"/><path d="m.9 19.22h7.1"/><path d="m12.61 18.81h-4.81l-1.45.7v1h6.27"/><path d="m6.35 19.51h6.42"/></g></g><g transform="translate(35 8)"><path d="m.19 12.8h9.5v6.53h-9.5z" fill="#434a54"/><path d="m4.76 18.37h5.8l1.29.85v.9h-7.08" fill="#ec5565" stroke="#fff" stroke-linecap="round" stroke-linejoin="round" stroke-width=".14"/><path d="m7.18 14.62c-.84660801.0109775-1.52556908.7033391-1.52 1.55v2.19h-1.09v-8.31h6v8.31h-1.87v-2.19c.00015819-.8444612-.67569699-1.5336556-1.52-1.55z" fill="#ec5565" stroke="#fff" stroke-linecap="round" stroke-linejoin="round" stroke-width=".14"/><path d="m5.76 4.44h2.75v5.04h-2.75z" fill="#434a54"/><g fill="#ec5565" stroke="#fff" stroke-linecap="round" stroke-linejoin="round" stroke-width=".14"><path d="m5.77 8.69h2.41v-.85h1.76v.85h1.2v-.85h.71v1.55h-6.08zm5.37.7h-5.19v.67h5.19z"/><path d="m9.08 2.6v5.24h-.9v-1.44c.00210571-.5189652-.39313625-.95329702-.91-1h-.05c-.55228475 0-1 .44771525-1 1v1.44h-.86v-5.24z"/><path d="m9.4 1.89v.71h-4.34v-.71z"/><path d="m10 .54v1.36h-5.21v-1.36h.8v.69h1v-.69h1.41v.69h1v-.69z"/><path d="m11.84 19.22h-7.11"/><path d="m.13 18.81h4.81l1.45.7v1h-6.27"/><path d="m6.4 19.51h-6.4"/></g></g><g fill="#f8d80e" stroke="#fff" stroke-linecap="round" stroke-linejoin="round"><path d="m38.44 25.8c-.3876926.1493107-.7595318.3369053-1.11.56-.4619188.270241-.9031319.5744107-1.32.91-.1494051.0929403-.2842041.2075195-.4.34-.1751971.1148914-.2805202.3104915-.28.52 0 .1.13-.11.21-.12.1422172-.0818152.3101136-.1068211.47-.07.2028855-.1827129.4166069-.3530221.64-.51.4486943-.3261657.9198668-.6202308 1.41-.88.1673762-.092322.3411548-.1725275.52-.24l-.15-.5z" stroke-width=".11"/><path d="m36.52 26.9v.58" stroke-width=".14"/><path d="m36.88 26.64v.58" stroke-width=".14"/><path d="m37.24 26.42v.57" stroke-width=".14"/><path d="m37.6 26.2v.59" stroke-width=".14"/><path d="m33.33 25.82-.18.49c.8189275.3190522 1.6030197.7211508 2.34 1.2.2615041.156803.5003765.3485738.71.57.0154961.0549751-.0015744.11398-.0440294.1521896-.042455.0382095-.1029258.0489918-.1559706.0278104-.102626-.0569609-.227374-.0569609-.33 0-.16.07-.31.32-.06.4.1745591.11797.3911269.1559411.5954077.1043936.2042808-.0515474.3769045-.1877258.4745923-.3743936.1000132-.2107461.0688119-.4603571-.08-.64-.324532-.3312511-.6949854-.6141428-1.1-.84-.6919815-.4261413-1.4217281-.7876671-2.18-1.08z" stroke-width=".11"/><g stroke-width=".14"><path d="m35.58 27v.5"/><path d="m36 27.25-.13.49"/><path d="m36.44 27.58-.27.38"/><path d="m36.57 28.5-.39-.21"/><path d="m36.69 28.09h-.44"/><path d="m36.12 28.73v-.39"/><path d="m36 28.29-.37.27"/><path d="m34.19 26.24v.46"/><path d="m35.12 26.73v.52"/><path d="m34.66 26.48v.49"/><path d="m32.87 37.31v1.19h.75v-.6h1v.6h.8v-1.19zm0 1.64v1.2h2.57v-1.15h-.8v.6h-1v-.6z"/><path d="m35.43 32.28h1v8.63h-1z"/><path d="m35.43 33.03h1v7.43h-1z"/><path d="m35.8 30.17 1.58.92-1.58.91-1.58-.91zm-2.11.59h-.41v.66h.41l2.11 1.22 2.11-1.22h.41v-.66h-.41l-2.11-1.22z"/><path d="m35.77 27.92c-.3649887.0647883-.6257244.3896393-.61.76v1.66c.0191042.3388761.266296.621309.5996534.6851434s.6674021-.1072979.8103466-.4151434l-.26-.15c-.0883133.1959353-.3028519.3020735-.5121841.2533916-.2093321-.0486819-.3550218-.2385941-.3478159-.4533916 0-.55 0-1.1 0-1.65.0076783-.1114982.0594793-.215338.1439368-.2885345s.1946056-.1097126.3060632-.1014655c.09 0 .22.1.28 0s-.06-.22-.14-.29-.19 0-.28 0zm.86.58c-.0711764.1002422-.1678431.179647-.28.23v1.12l.3.17c0-.48 0-1 0-1.43 0 0 0-.07 0-.09z"/></g></g><path d="m33.62 9.23h4.35v7.9h-4.35z" fill="#434a54"/><g fill="#ec5565" stroke="#fff" stroke-linecap="round" stroke-linejoin="round" stroke-width=".14"><path d="m33.31 9.23v6.61h1.38v-2c0-.651696.528304-1.18 1.18-1.18s1.18.528304 1.18 1.18v2h1.38v-6.61zm2.35.74h.43v2.26h-.43zm-1.22.45h.43v1.66h-.43zm2.44 0h.43v1.66h-.43z"/><path d="m32.84 8.28v.94h6.06v-.94z"/><path d="m32.27 7.19v1.09h7.2v-1.09h-.9v.6h-1v-.6h-1.16v.6h-1v-.6h-1.21v.6h-1v-.6z"/><path d="m30.94 18.06v.68h9.87v-.68z"/><path d="m30.53 15.84v2.22h10.68v-2.22h-1v.85h-1.35v-.85h-1.86v.85h-2.36v-.85h-1.8v.85h-1.35v-.85z"/><path d="m31.82 18.74v8.07h1.91v-3c-.0274769-.5729297.1923561-1.1300808.6036424-1.5298894.4112864-.3998086.9744348-.6037882 1.5463576-.5601106.5719228-.0436776 1.1350712.160302 1.5463576.5601106.4112863.3998086.6311193.9569597.6036424 1.5298894v3h1.91v-8.07z"/></g></g></svg>