<svg height="48" viewBox="0 0 71 48" width="71" xmlns="http://www.w3.org/2000/svg"><g fill="none" fill-rule="evenodd"><path d="m64 0c3.8659932 0 7 3.13400675 7 7v33h-71v-33c0-3.86599325 3.13400675-7 7-7z" fill="#fff"/><g fill="#ed5565" fill-rule="nonzero"><path d="m11.0306986 23.0007031c-.0203655.330485-.0306986.6636842-.0306986.9992969 0 8.836556 7.163444 16 16 16s16-7.163444 16-16c0-.3356127-.0103331-.6688119-.0306986-.9992969l28.0306986-.0007031v18c0 3.8659932-3.1340068 7-7 7h-57c-3.86599325 0-7-3.1340068-7-7v-18z"/><path d="m27 8c8.5009433 0 15.4534509 6.6296415 15.9693014 15.0007031h-31.9386028c.5158505-8.3710616 7.4683581-15.0007031 15.9693014-15.0007031z"/></g></g></svg>
