<svg height="48" viewBox="0 0 71 48" width="71" xmlns="http://www.w3.org/2000/svg"><g fill="none"><path d="m.28 41c0 3.512531 2.84746899 6.36 6.36 6.36h57.28c3.512531 0 6.36-2.847469 6.36-6.36v-8.6h-70z" fill="#52c162"/><path d="m.28 30.4h70v2h-70z" fill="#fff"/><path d="m.28 17.4h70v13h-70z" fill="#4758a9"/><path d="m63.92.4h-57.27c-3.51253101 0-6.36 2.8474675-6.36 6.35999666v8.63999544h70v-8.63999544c.0000021-1.68851003-.67144-3.30771738-1.866335-4.50073599-1.1948951-1.19301862-2.8151562-1.86191556-4.503665-1.85926067z" fill="#ed5565"/><g fill="#fff"><path d="m.28 15.4h70v1.95h-70z"/><path d="m.28 17.34h70v1h-70z"/></g></g></svg>