<svg height="48" viewBox="0 0 71 48" width="71" xmlns="http://www.w3.org/2000/svg"><g fill="none"><path d="m.52 7.47v9h70v-9c0-3.66717074-2.9728293-6.64-6.64-6.64h-56.71c-1.76276947-.00265478-3.45424962.69574249-4.70165483 1.9412719-1.2474052 1.24552941-1.94834717 2.93595663-1.94834517 4.6987281z" fill="#52c162"/><path d="m.52 32.18h70v-15.67h-70z" fill="#fff"/><path d="m.52 41.19c0 3.6671707 2.97282926 6.64 6.64 6.64h56.72c3.6671707 0 6.64-2.9728293 6.64-6.64v-9h-70z" fill="#ed5565"/><path d="m2.65 2.46c-1.35465419 1.20308-2.12988244 2.92823582-2.13 4.74v34.27c.00011756 1.8117642.77534581 3.53692 2.13 4.74l25.87-21.88z" fill="#4a89dc"/></g></svg>