<svg height="48" viewBox="0 0 71 48" width="71" xmlns="http://www.w3.org/2000/svg"><g fill="none"><path d="m.77 36.95h70v5.22h-70z" fill="#fff"/><path d="m.77 31.73h70v5.22h-70z" fill="#4a89dc"/><path d="m.77 26.51h70v5.22h-70z" fill="#fff"/><path d="m.77 21.29h70v5.22h-70z" fill="#4a89dc"/><path d="m.77 16.06h70v5.22h-70z" fill="#fff"/><path d="m.77 10.84h70v5.22h-70z" fill="#4a89dc"/><path d="m1.37 5.62h69.4v5.22h-69.4z" fill="#fff"/><g fill="#4a89dc"><path d="m7.13 47.4h57.27c3.0739553.0014518 5.7090083-2.1958288 6.26-5.22h-69.79c.55099171 3.0241712 3.18604465 5.2214518 6.26 5.22z"/><path d="m64.4.4h-57.27c-3.07395535-.00145181-5.70900829 2.19582876-6.26 5.22h69.78c-.5503145-3.02046276-3.179816-5.21662242-6.25-5.22z"/><path d="m7.13.4h19.75v26.11h-26.11v-19.75c0-3.51253101 2.84746899-6.36 6.36-6.36z"/></g><g fill="#fff"><path d="m.77 10.84h26.11v5.22h-26.11z"/><path d="m11.21.4h5.22v26.11h-5.22z"/></g></g></svg>