<svg height="47" viewBox="0 0 71 47" width="71" xmlns="http://www.w3.org/2000/svg"><g fill="none" transform="translate(0 -1)"><path d="m64.75 1h-58.32c-2.94937931.36373371-5.29794254 2.64286116-5.75 5.58v35.72c.49388474 3.2419958 3.28060151 5.6378925 6.56 5.64h56.72c1.7610375 0 3.4499475-.6995694 4.695189-1.944811 1.2452416-1.2452415 1.944811-2.9341515 1.944811-4.695189v-33.72c-.0064902-3.35670997-2.5171253-6.18063793-5.85-6.58z" fill="#4658a9"/><path d="m64.69 2c2.8039328.37109992 4.8993766 2.76161639 4.9 5.59v33.72c-.0055042 3.1126032-2.5273968 5.6344958-5.64 5.64h-56.72c-2.75358449-.0145021-5.09867284-2.0052965-5.56-4.72v-35.57c.40888286-2.44332365 2.36426991-4.33380159 4.82-4.66zm.06-1h-58.32c-2.94937931.36373371-5.29794254 2.64286116-5.75 5.58v35.72c.49388474 3.2419958 3.28060151 5.6378925 6.56 5.64h56.72c1.7610375 0 3.4499475-.6995694 4.695189-1.944811 1.2452416-1.2452415 1.944811-2.9341515 1.944811-4.695189v-33.72c-.0008247-3.35714417-2.5073108-6.18552489-5.84-6.59z" fill="#ec5565"/><path d="m35.92 8.54c-.1702826-.13351355-.4097174-.13351355-.58 0-1.63 1.29-9.59 8-9.59 15.79 0 7.42 7.24 14 9.32 15.78.3265378.2643507.7934622.2643507 1.12 0 2.09-1.65 9.24-7.86 9.24-15.79 0-8.32-7.88-14.57-9.51-15.78zm-.3 1.57s-8.78 6.54-8.78 14.25 8.78 14.44 8.78 14.44 8.73-6.17 8.73-14.44-8.73-14.26-8.73-14.26z" fill="#ec5565"/><path d="m35.62 10.1s-8.78 6.54-8.78 14.25 8.78 14.44 8.78 14.44 8.73-6.17 8.73-14.44-8.73-14.25-8.73-14.25z" fill="#92dbfc"/><path d="m43.42 29.07h-15.58c2.31 5.55 7.77 9.74 7.77 9.74s5.56-3.95 7.81-9.74z" fill="#3cafda"/><path d="m44 27.37c-1.44 1-9.53.53-9.53.53l-.45 1.15h9.64c0-.16.14-.35.17-.51z" fill="#e77329"/><path d="m29.5 32.14c.4111887.0077872.8150206.1104563 1.18.3.5352131.2789165 1.138569.4002812 1.74.35.74 0 1.32.56 2.12.58 1.47 0 2.09.77.95.77-.7478184-.1356392-1.5021632-.2324356-2.26-.29-.7208565-.0148359-1.4255985.2142052-2 .65-.6207307-.7533969-1.198321-1.5413237-1.73-2.36zm2.91 3.67c.2785862-.2517805.6275376-.4122981 1-.46.69 0 .92-.45 1.72-.45.9585067.0820911 1.9239614-.009373 2.85-.27 1.27-.29.67-1.18-.1-1.51s-1.79 0-2.51-.28c-.55-.21-.1-.56.2-.63.3365569-.0214596.674357.0123204 1 .1.6912149.0458006 1.3853686.01562 2.07-.09 1.2-.18 1.15-.54 1.73-.54.3604391-.0161003.7081911-.1378135 1-.35.34-.23.69-.69 1.1-.67h.24c-1.7599797 3.1735571-4.1730808 5.9377168-7.08 8.11-1.1455074-.9051505-2.2218326-1.8945675-3.22-2.96z" fill="#f2d660"/><path d="m38.23 32.22c.0341509.5375041.4624959.9658491 1 1 .63.16 1.59-.46 1-1.05s-1.17-.69-1.67-1.19c-1.0563166-1.1333218-1.8696528-2.4707324-2.39-3.93-.56-1.67-.46-6.38-.44-8.76 0 0 .07 0 .08-.06s.07 0 0-.33c0-.09-.09-.18-.09-.27s-.56.18-.71.46c0 .07.11.25.11.29 0 2.29-.23 6.8.38 8.85.3847411 1.1344742.9522128 2.1984838 1.68 3.15.4427638.5555356.7969496 1.1762041 1.05 1.84z" fill="#8c4200"/><g fill="#ec5565"><path d="m31 25.53h-.06c-.1987294-.0266311-.3877262-.1022298-.55-.22-.2298483-.1821489-.3774438-.4485406-.41-.74-.0133668-.1329983-.0133668-.2670017 0-.4.0303423-.2260149.1200559-.4399472.26-.62l.16-.15c.1163537-.0859867.2490782-.1472441.39-.18.2359558-.0623092.4840442-.0623092.72 0 .1592535.0493703.2991022.1472644.4.28.0749537.1091756.1291892.2312054.16.36.0072216.0435354-.018188.0858848-.06.1h-.15c-.14 0-.16 0-.19 0s0 0 0-.09v-.11c-.0164752-.0376432-.0402697-.0716354-.07-.1-.0279895-.0301638-.0620779-.0540256-.1-.07-.1245244-.0589249-.2636674-.0797964-.4-.06-.1116696.013738-.2181854.05497-.31.12-.18407.1715848-.2766792.4197774-.25.67-.0414187.3416626.1990143.6533351.54.7.0961531.0140911.1938469.0140911.29 0 .123573-.0270976.2418281-.0743996.35-.14v-.26h-.72s0 0 0-.17 0-.15 0-.17h1v.41.47l-.07.06c-.2070738.1573735-.451963.2573986-.71.29z"/><path d="m33.46 25.55c-.2112849-.0065428-.413343-.088075-.57-.23-.1459243-.1541199-.2280973-.3577661-.23-.57 0-.08 0-.16 0-.77-.0188254-.2362923-.0188254-.4737077 0-.71h.18.19v.73.77c.0012802.0898725.0370866.1758079.1.24.0803768.0767502.1890611.1166011.3.11.1058821.0093347.212422-.0078491.31-.05.09 0 .14-.12.17-.28.016795-.2563919.016795-.5136081 0-.77 0-.79 0-.73 0-.76h.19.21v.64c.0176413.2964044.0176413.5935956 0 .89-.0138192.2162977-.1193304.4164052-.29.55l-.13.08c-.0910833.0456848-.1890555.07609-.29.09z"/><path d="m36.29 25.51c-.0142906-.0247521-.0142906-.0552479 0-.08 0 0 .81-2.12.83-2.13s0 0 .22 0h.22l.44 1.08c.38.93.43 1.06.43 1.09.01075.0220952.01075.0479048 0 .07 0 0 0 0-.21 0h-.19s0 0-.15-.34l-.11-.27h-.76l-.11.29-.11.3s0 0-.19 0zm1.21-1.06-.21-.57-.22.58h.45z"/><path d="m39 25.51c-.0279145-.0101026-.0498974-.0320855-.06-.06 0 0 0-.37 0-1.09v-1.09h.28.25l.27.78.26.77.27-.76c.16-.48.27-.77.28-.78s0 0 .26 0h.23v1.1 1.09h-.16c-.16 0-.16 0-.18 0v-1.25.08l-.22.62c-.0502362.1934929-.120621.3811856-.21.56h-.31l-.22-.64-.22-.63v.62.67h-.52z"/></g><path d="m29.82 17.58c.0166119.095953.0166119.194047 0 .29 0 0 .56-.45.56-.43v.3s.54-.52.57-.46c.0128943.1196536.0128943.2403464 0 .36l.43-.47c0-.05 0 .06 0 .25 0 0 .59-.44.63-.45s.1.24.1.31.55-.31.52-.27v.28c.2401999-.0728717.4890808-.1132307.74-.12.07 0 .07 0 0 .07-.9995522.3603145-1.8345078 1.070915-2.35 2-.127706.1878358-.1876616.413551-.17.64 0 0 .19-.41.41-.47 0 0 0 .26.08.25.0755389-.195046.1692865-.3825412.28-.56 0 0 .08.22.12.18.0544435-.1704039.1391282-.3296112.25-.47 0 0 .07.26.09.24s.33-.55.4-.58.05.33.1.3c.0987063-.2126305.2303224-.4083674.39-.58.09-.06.09.27.09.27.1781751-.1944913.341942-.4017065.49-.62 0-.06 0 .4.07.42s.46-.35.51-.36.06.11 0 .2l-.5.57h.2c.07 0-.38.39-.37.45s.28 0 .19 0-.44.52-.44.5.19 0 .19.06c-.0813048.2137974-.1852284.4182923-.31.61h.19c.02 0-.32.51-.25.58s.21 0 .29 0c.0744153.2333365.1181163.4753731.13.72.0496645-.3076699.1198206-.6116797.21-.91 0-.13.21.19.22.16-.0168693-.2196766-.0168693-.4403234 0-.66 0-.06.12.06.12 0-.0149074-.1262281-.0149074-.2537719 0-.38 0-.09.12.17.15.1-.0560443-.1879672-.0797151-.3840964-.07-.58 0-.08.11.2.16.21-.0250008-.1456013-.0250008-.2943987 0-.44l.16.18c0-.06 0-.6.06-.65s.2.2.22.17-.07-.44-.05-.47.22.11.22.11.07-.27.11-.34.58-.22.63-.08c.0191905.0822285.0191905.1677715 0 .25.0829365.0115014.1670635.0115014.25 0-.0135609.1563732-.0135609.3136268 0 .47h.25v.25h.17c.0124674.1362788-.0190757.2729655-.09.39h.23c.0302353.1854423.0302353.3745577 0 .56 0 0 .24-.17.24-.15v.65s.16-.15.17-.09 0 .47 0 .49c.093034-.0105714.186966-.0105714.28 0 .1233716.1435158.1813525.3319537.16.52.0569939-.2669923.0569939-.5430077 0-.81 0 0 .2 0 .19-.06-.1647874-.1224948-.2729989-.3064544-.3-.51 0-.08.21-.06.21-.06s-.18-.17-.27-.32.24-.07.24-.08-.23-.21-.35-.35.25-.07.25-.07-.37-.17-.52-.33.29-.17.29-.19-.39-.17-.56-.31.22-.13.22-.13-.58-.42-.3-.39c.12 0 .36.18.38.16-.0116273-.0795775-.0116273-.1604225 0-.24.09-.1.41.41.52.39s0-.36.09-.37.26.53.38.53 0-.32.08-.34.14.36.23.44.08-.29.13-.22.1.35.21.46.08-.33.16-.27.07.27.17.37.08-.26.14-.22.08.42.13.48.14-.2.21-.16 0 .36.08.43.14-.18.21-.13.14.41.18.44.14-.17.2-.14.15.51.19.5c.0718202-.5424443-.0446662-1.0931075-.33-1.56-.7837293-.7592023-1.828903-1.1887257-2.92-1.2 0 0 .5-.1.52-.18s.28-.15.45-.11 0-.29 0-.3c.1605333.0179878.3128884.0803149.44.18 0 0-.09-.3 0-.27s.4.14.53.28 0-.25 0-.25.28.11.36.24 0-.34 0-.27.33.11.37.25 0-.25.07-.24.25.26.36.29 0-.23 0-.22c.1809427.0538582.3553449.1276438.52.22-.14-.35-.68-.73-1.62-.82-.491806-.0379097-.986492-.0076228-1.47.09-.49.11-.88.18-.8.1.2977039-.2150431.6391295-.3618561 1-.43.1-.05-.35-.23-.26-.25s.49-.05.49-.05-.29-.2-.24-.3.78 0 .84-.09-.29-.21-.27-.23.64.07.66 0l-.31-.25s.53-.16.53-.16c-.0672332-.0502903-.1413176-.0906999-.22-.12-.11 0 .48-.2.48-.2-.75-.34-2.71.64-3.1 1.65-.1.24-.1 0-.08-.23.0214129-.206112.0214129-.413888 0-.62 0-.06-.16.16-.17.1 0-.22.08-.45 0-.69 0-.08-.22.24-.25.16s.06-.53 0-.84c0-.12-.21.26-.28.15s0-.58-.08-.65-.2.22-.21.17c-.23-.84.08-.95-.37-.47 0 0-.11-.5-.13-.48-.18.39-.48-.28-.58-.22s.21.31.21.42-.26.06-.26.06.5.37.52.47-.35.07-.35.07.42.23.45.36-.19.08-.19.15.4.32.41.43-.25.11-.25.18.51.37.52.46-.21.06-.3.11.43.41.45.5-.22 0-.23.08.27.25.34.41 0 .21-.1.14-.95-.94-1.15-1.15c-.3985347-.3987567-.9276346-.6402252-1.49-.68-.06 0 .32.29.32.39s-.17.06-.16.07c.1352018.0968452.2833089.1742648.44.23l-.09.17s.18.06.43.15c0 0-.19.12-.17.13.1204147.0788996.2518366.1395558.39.18l-.25.08s.57.28.57.28c-.0607011.0524833-.1175167.1092989-.17.17.1521494.0606722.3094506.1075279.47.14l-.3.11c.11.11.42.15.5.34 0 0 0 .11-.08.09-.8444906-.3724309-1.7736832-.5106008-2.69-.4-1.0457038.1711096-1.9807895.7501435-2.6 1.61 0 0 .6-.28.66-.2z" fill="#51c161"/><g fill="#8c4200"><ellipse cx="35.319991" cy="17.44951" rx="1" ry="1" transform="matrix(.84066114 -.5415615 .5415615 .84066114 -3.883927 22.038317)"/><ellipse cx="35.773217" cy="17.927845" rx="1" ry="1" transform="matrix(.5415615 -.84066114 .84066114 .5415615 1.265898 38.457028)"/><ellipse cx="35.331077" cy="18.260771" rx="1" ry="1" transform="matrix(.5415615 -.84066114 .84066114 .5415615 .786386 38.203576)"/></g><path d="m32.36 30.37h1v1h-1z" fill="#434a54"/><path d="m30 30.59c1.6678005.1295445 3.3448498.0725249 5-.17 0 0 .16.11-.07.38s-.81.33-1.13.38c-.0378553.0820893-.0615238.1700009-.07.26 0 .09.2.08.3.06h.1s0 .34-1.22.38c-.39 0-1.66 0-1.93-.34.0964336.0094936.1935664.0094936.29 0 .06 0 0-.26 0-.3-.4444179-.0136813-.8766498-.1485377-1.25-.39-.0752216-.0734759-.1273545-.1673151-.15-.27zm1.62.65c.60828.0647828 1.22172.0647828 1.83 0 .0211756.0853732.0211756.1746268 0 .26-.5762848.0928395-1.1637152.0928395-1.74 0-.13 0-.13-.11-.1-.25z" fill="#8c4200"/><path d="m30.42 30.44c.7973962-1.0865279 1.0888362-2.4635816.8-3.78 1.019865.4019929 1.8754739 1.1343659 2.43 2.08.3670937.4889821.6323297 1.046658.78 1.64z" fill="#fdf9ff"/></g></svg>