<svg height="48" viewBox="0 0 71 48" width="71" xmlns="http://www.w3.org/2000/svg"><g fill="none"><path d="m64.16.68h-57.27c-3.51253101 0-6.36 2.84746801-6.36 6.35999782v17.63999398h70v-17.67999397c-.0220136-3.50080268-2.8691313-6.32557156-6.37-6.31999783z" fill="#f6d660"/><path d="m.52 41.32c0 3.512531 2.84746899 6.36 6.36 6.36h57.27c3.512531 0 6.36-2.847469 6.36-6.36v-16.64h-70z" fill="#52c162"/><path d="m6.89.68c-3.51253101 0-6.36 2.84746899-6.36 6.36v34.27c0 3.512531 2.84746899 6.36 6.36 6.36h16.64v-47z" fill="#ed5565"/><path d="m9.15 29.5c-.5.36-.8.16-.65-.45l.54-2.25c.13231617-.6739533-.09044254-1.3686584-.59-1.84l-1.65-1.42c-.47-.4-.35-.75.27-.77l2.31-.07c.6605076-.0524876 1.2265409-.4927358 1.44-1.12l.72-2.46c.17-.6.49-.6.7 0l.87 2.42c.2516499.617761.8343187 1.0372825 1.5 1.08h2.35c.62 0 .74.35.27.75l-1.78 1.63c-.4846572.4752686-.6856565 1.1692853-.53 1.83l.57 2c.17.6-.12.82-.64.5l-1.91-1.18c-.5908371-.3238377-1.3110147-.3008533-1.88.06z" fill="#434a54"/></g></svg>