<svg height="48" viewBox="0 0 71 48" width="71" xmlns="http://www.w3.org/2000/svg"><g fill="none"><rect fill="#52c162" height="47" rx="6.36" width="70" x=".77" y=".68"/><path d="m3.47 1.85c-1.69368283 1.18971479-2.70125385 3.13022194-2.7 5.2v34.27c.00011478 2.1663807 1.10466685 4.1832249 2.93 5.35l55.44-21.89z" fill="#fff"/><path d="m1.42 4.25c-.42851737.87113903-.65091758 1.82917072-.65 2.8v34.27c-.00186053 1.046626.25582846 2.077382.75 3l49.61-19.58z" fill="#ffce54"/><path d="m2.39 2.81c-1.04920264 1.16298918-1.62996207 2.67367628-1.63 4.24v34.27c-.00135661 1.6452764.63692891 3.2266467 1.78 4.41l30-20.95z" fill="#434a54"/><path d="m1 5.48c-.13177643.51296463-.19896319 1.04038065-.2 1.57v34.27c-.00097147.6127075.08660009 1.2223403.26 1.81l26.32-18.4z" fill="#ed5565"/></g></svg>