<svg height="48" viewBox="0 0 71 48" width="71" xmlns="http://www.w3.org/2000/svg"><g fill="none"><rect fill="#ec5565" height="47" rx="6.64" width="70" x=".25" y=".75"/><g fill="#fff" transform="translate(21 10)"><path d="m15 1c.6019725-.09256803 1.2122271-.11939241 1.82-.08-.5463511.26151007-.9897823.69790277-1.26 1.24-.2857754.63604132-.2857754 1.36395868 0 2 .15.37.42.68.54 1.06.2341293.76598692.1952521 1.58947744-.11 2.33-.2320358.64671146-.632485 1.21976798-1.16 1.66-.28.23-.64.34-.94.55-.8512558.5211777-1.4126917 1.4076555-1.52 2.4-.0683103.7842354.1966609 1.5610002.73 2.14-1.0071026-.7787688-1.6707909-1.9195951-1.85-3.18-.2057111-1.29751948.0641823-2.62567889.76-3.74l-.17-.11c-1.2431839 1.9839242-1.1235899 4.5312765.3 6.39.2037057.2548715.4351285.4862943.69.69-.9763441-.4876158-1.8437889-1.1679647-2.55-2-.86685597-1.0510946-1.37802716-2.35002959-1.46-3.71-.20472459-3.75488508 2.4652254-7.0555999 6.18-7.64zm-2.69 4.24c0 .28666667.0166667.57333333.05.86l-.76.43.84.21.17.85.46-.73.86.1-.55-.67.36-.78-.8.32z"/><path d="m1.16 12c-.40294186-1.5710001-.28718572-3.23017157.33-4.73.08021571.59989086.35821674 1.15589291.79 1.58.50803237.43643066 1.17421597.64280276 1.84.57.43 0 .84-.2 1.28-.19.86237567.0442028 1.67950326.39947566 2.3 1 .43370632.3821598.77553746.8573051 1 1.39.18.41.15.88.3 1.3.29065373 1.0226061 1.0760278 1.8305268 2.09 2.15.6349244.180434 1.3124831.1380866 1.92-.12-1.0663719.7126754-2.3685069.9817115-3.63.75-1.27672498-.217349-2.43521388-.8798488-3.27-1.87l-.15.13c.80808835.9608084 1.91268831 1.6256791 3.14 1.89 1.2058983.274347 2.469904.1150185 3.57-.45.09-.06.25-.07.26-.21v.08c-.25.17-.45.39-.69.57-.8938261.7400593-1.9543486 1.251444-3.09 1.49-1.2675062.2473998-2.5799793.1116267-3.77-.39-2.10808116-.8882745-3.68771297-2.7004222-4.28-4.91zm3.69-.36c0 .29 0 .57.05.86l-.75.43.82.2c.08.28.12.57.18.86l.46-.73.86.1-.55-.67.36-.78-.8.31z"/><path d="m18.46 8.08c2.3802085-.64728429 4.926455-.06603508 6.79 1.55 1.1549218 1.0207308 1.9682955 2.3716991 2.33 3.87-.4301811-.4562656-1.0072313-.7465608-1.63-.82-.6647421-.0336368-1.3145604.2046299-1.8.66-.32.27-.54.64-.89.88-.768505.4991409-1.6962923.6918352-2.6.54-.7559991-.0701015-1.4635971-.4026725-2-.94-.4512595-.484107-1.0301901-.8307721-1.67-1-.818797-.2224021-1.6937544-.0802215-2.4.39-.3438611.240545-.6334314.5505555-.85.91.3928258-1.088544 1.1626812-2.0003082 2.17-2.57 1.2248238-.7179843 2.6814783-.9296656 4.06-.59l.06-.19c-2.6050793-.6796731-5.3198635.6227468-6.42 3.08.1836834-1.236317.6640406-2.4097609 1.4-3.42.8603413-1.1392645 2.073331-1.96198795 3.45-2.34zm2.18 2.2c0 .29 0 .58.05.86l-.75.42.84.22c.06.28.11.56.17.85l.47-.73.86.1-.55-.67.36-.78-.8.32z"/><path d="m14.25 14.46c1.3148679-.2262602 2.6660145-.1056221 3.92.35 1.3602091.5225881 2.5049794 1.4877175 3.25 2.74 1.3138044 2.2145453 1.3819772 4.9528211.18 7.23-.6342645 1.1646123-1.5614834 2.1435349-2.69 2.84.337682-.6104715.4169097-1.3307234.22-2-.2981148-.746025-.90862-1.3236287-1.67-1.58-.7543406-.3230762-1.3434096-.9410566-1.63-1.71-.3358334-.778105-.419755-1.6417973-.24-2.47.1365312-.3764667.2968544-.7438741.48-1.1.3337848-.8327958.308451-1.7665284-.07-2.58-.3774015-.8037151-1.1245807-1.3715714-2-1.52 1.028608.0075403 2.0250084.3596252 2.83 1 1.2672185.95596 2.0556804 2.4160746 2.16 4h.2c-.1568848-2.2325699-1.6212591-4.1602047-3.73-4.91-.3937867-.1338113-.8045224-.2112451-1.22-.23zm4.14 5.36v.88c-.25.13-.5.27-.74.41l.83.21c.06.28.11.57.17.85l.46-.73.86.1-.55-.67.36-.78-.8.32z"/><path d="m13.62 15.08c.5360302 1.9394035-.0995318 4.013753-1.63 5.32-.4564516.4185194-.9805412.7566417-1.55 1l.07.19c1.951437-.7919254 3.30046-2.6034705 3.5-4.7.0430758-.5302319-.0008368-1.0639396-.13-1.58.6161613 1.1836057.9158581 2.5064055.87 3.84-.0900312 1.5920411-.7586089 3.096341-1.88 4.23-1.7108568 1.7387205-4.1678439 2.5240588-6.57 2.1-1.29483715-.2434372-2.5042906-.8188752-3.51-1.67.61662723.1127836 1.25328244.0066744 1.8-.3.55917484-.3658695.94544905-.9434758 1.07-1.6.1-.4.06-.83.2-1.22.28928402-.7766228.84116615-1.4275607 1.56-1.84.53491293-.3418912 1.14677857-.5447006 1.78-.59.38 0 .75.11 1.13.12.986607.066159 1.948906-.3246598 2.61-1.06.520592-.6033842.7604986-1.3994379.66-2.19zm-4.96 5.54c0 .29 0 .57.05.86l-.75.42c.28.07.57.14.84.23 0 .28.11.56.16.84l.46-.73.86.1c-.18-.22-.36-.44-.55-.66.11-.27.24-.53.36-.79l-.8.32z"/></g></g></svg>