<svg height="48" viewBox="0 0 71 48" width="71" xmlns="http://www.w3.org/2000/svg"><g fill="none"><path d="m.9 7.61v9h70v-9c0-3.66717074-2.9728293-6.64-6.64-6.64h-56.71c-1.76276947-.00265478-3.45424962.69574249-4.70165483 1.9412719-1.2474052 1.24552941-1.94834717 2.93595663-1.94834517 4.6987281z" fill="#3bafda"/><path d="m.9 32.31h70v-15.67h-70z" fill="#fff"/><g fill="#3bafda"><path d="m.9 41.32c-.01066305 1.7696923.68557087 3.4704208 1.93413554 4.7246181s2.94614208 1.9580793 4.71586446 1.9553819h56.72c3.6671707 0 6.64-2.9728293 6.64-6.64v-9h-70z"/><path d="m34.6 26.88c-.23.16-.36.07-.3-.2l.25-1c.0534778-.3043414-.0477-.6153695-.27-.83l-.74-.65c-.21-.18-.16-.34.12-.35h1c.2992131-.0245816.5549373-.2252267.65-.51l.33-1.12c.08-.27.22-.27.32 0l.39 1.1c.1141969.2800227.3782305.4702822.68.49h1.06c.28 0 .34.16.13.34l-.81.71c-.2179338.2166753-.3086646.5304528-.24.83l.26.9c.08.27-.05.37-.29.22l-.86-.54c-.2618362-.1560879-.5881638-.1560879-.85 0z"/><path d="m23.6 23.38c-.23.16-.36.07-.3-.2l.25-1c.0534778-.3043414-.0477-.6153695-.27-.83l-.74-.65c-.21-.18-.16-.34.12-.35h1c.2992131-.0245816.5549373-.2252267.65-.51l.33-1.12c.08-.27.22-.27.32 0l.39 1.1c.1141969.2800227.3782305.4702822.68.49h1.06c.28 0 .34.16.13.34l-.81.71c-.2179338.2166753-.3086646.5304528-.24.83l.26.9c.08.27-.05.37-.29.22l-.86-.54c-.2618362-.1560879-.5881638-.1560879-.85 0z"/><path d="m23.6 30.38c-.23.16-.36.07-.3-.2l.25-1c.0534778-.3043414-.0477-.6153695-.27-.83l-.74-.65c-.21-.18-.16-.34.12-.35h1c.2992131-.0245816.5549373-.2252267.65-.51l.33-1.12c.08-.27.22-.28.32 0l.39 1.1c.1141969.2800227.3782305.4702822.68.49h1.06c.28 0 .34.16.13.34l-.81.71c-.2179338.2166753-.3086646.5304528-.24.83l.26.9c.08.27-.05.37-.29.22l-.86-.54c-.2618362-.1560879-.5881638-.1560879-.85 0z"/><path d="m45.6 23.38c-.23.16-.36.07-.3-.2l.25-1c.0534778-.3043414-.0477-.6153695-.27-.83l-.74-.65c-.21-.18-.16-.34.12-.35h1c.2992131-.0245816.5549373-.2252267.65-.51l.33-1.12c.08-.27.22-.27.32 0l.39 1.1c.1141969.2800227.3782305.4702822.68.49h1.06c.28 0 .34.16.13.34l-.81.71c-.2179338.2166753-.3086646.5304528-.24.83l.26.9c.08.27-.05.37-.29.22l-.86-.54c-.2618362-.1560879-.5881638-.1560879-.85 0z"/><path d="m45.6 30.38c-.23.16-.36.07-.3-.2l.25-1c.0534778-.3043414-.0477-.6153695-.27-.83l-.74-.65c-.21-.18-.16-.34.12-.35h1c.2992131-.0245816.5549373-.2252267.65-.51l.33-1.12c.08-.27.22-.28.32 0l.39 1.1c.1141969.2800227.3782305.4702822.68.49h1.06c.28 0 .34.16.13.34l-.81.71c-.2179338.2166753-.3086646.5304528-.24.83l.26.9c.08.27-.05.37-.29.22l-.86-.54c-.2618362-.1560879-.5881638-.1560879-.85 0z"/></g></g></svg>