<svg height="48" viewBox="0 0 71 48" width="71" xmlns="http://www.w3.org/2000/svg"><g fill="none"><path d="m.52 6.91v9h70v-9c0-3.66717074-2.9728293-6.64-6.64-6.64h-56.71c-1.76276947-.00265478-3.45424962.69574249-4.70165483 1.9412719-1.2474052 1.24552941-1.94834717 2.93595663-1.94834517 4.6987281z" fill="#ed5565"/><path d="m.52 31.61h70v-15.67h-70z" fill="#fff"/><path d="m.52 40.62c0 3.6671707 2.97282926 6.64 6.64 6.64h56.72c3.6671707 0 6.64-2.9728293 6.64-6.64v-9h-70z" fill="#4758a9"/><path d="m36.29 37.09h-1.39c-4.5430381.0055435-8.2334632-3.6669886-8.25-8.21v-11h17.89v11c-.0165368 4.5430114-3.7069619 8.2155435-8.25 8.21zm-7.64-17.17v9c.0165267 3.4384405 2.8115243 6.2155501 6.25 6.21h1.39c3.4384757.0055501 6.2334733-2.7715595 6.25-6.21v-9z" fill="#fff"/><path d="m40.36 34.84c.8408141-.5732675 1.55267-1.3157775 2.09-2.18h-2.09z" fill="#ed5565"/><path d="m40.36 32.66h2.09c.6444393-1.0328711 1.0128701-2.2139157 1.07-3.43h-3.16z" fill="#fff"/><path d="m40.36 29.23h3.16c0-.11 0-.22 0-.34v-3.09h-3.18z" fill="#ed5565"/><path d="m40.36 22.36h3.18v3.43h-3.18z" fill="#fff"/><path d="m40.36 18.92h3.18v3.43h-3.18z" fill="#ed5565"/><path d="m37.18 32.66v3.34c1.1394338-.1386146 2.2294905-.5465289 3.18-1.19v-2.18z" fill="#fff"/><path d="m37.18 29.23h3.18v3.43h-3.18z" fill="#ed5565"/><path d="m37.18 25.79h3.18v3.43h-3.18z" fill="#fff"/><path d="m37.18 22.36h3.18v3.43h-3.18z" fill="#ed5565"/><path d="m37.18 18.92h3.18v3.43h-3.18z" fill="#fff"/><path d="m34 32.66v3.34c.2984664.038635.5990464.0586737.9.06h1.39c.3009536-.0013263.6015336-.021365.9-.06v-3.37z" fill="#ed5565"/><path d="m34 29.23h3.18v3.43h-3.18z" fill="#fff"/><path d="m34 25.79h3.18v3.43h-3.18z" fill="#ed5565"/><path d="m34 22.36h3.18v3.43h-3.18z" fill="#fff"/><path d="m34 18.92h3.18v3.43h-3.18z" fill="#ed5565"/><path d="m30.83 32.66v2.18c.9503359.6313762 2.0366066 1.0288758 3.17 1.16v-3.37z" fill="#fff"/><path d="m30.83 29.23h3.18v3.43h-3.18z" fill="#ed5565"/><path d="m30.83 25.79h3.18v3.43h-3.18z" fill="#fff"/><path d="m30.83 22.36h3.18v3.43h-3.18z" fill="#ed5565"/><path d="m30.83 18.92h3.18v3.43h-3.18z" fill="#fff"/><path d="m28.74 32.66c.53733.8642225 1.2491859 1.6067325 2.09 2.18v-2.18z" fill="#ed5565"/><path d="m30.83 29.23h-3.16c.0571299 1.2160843.4255607 2.3971289 1.07 3.43h2.09z" fill="#fff"/><path d="m30.83 25.79h-3.18v3.09.34h3.16z" fill="#ed5565"/><path d="m27.65 22.36h3.18v3.43h-3.18z" fill="#fff"/><path d="m27.65 18.92h3.18v3.43h-3.18z" fill="#ed5565"/><path d="m35.56 16c2.5577572.0008879 5.1061015.3097782 7.59.92.3011828.0740481.6132917-.0716027.75-.35l2.13-4.34c.0875857-.1785581.0913173-.3867991.0101852-.5683806-.0811322-.1815815-.2387417-.3177339-.4301852-.3716194-6.6250647-1.83664168-13.6249353-1.83664168-20.25 0-.1896379.0561713-.3447685.1932601-.423841.3745481-.0790724.1812879-.0740064.3882498.013841.5654519l2.13 4.34c.1367083.2783973.4488172.4240481.75.35 2.5293382-.6216823 5.1254027-.9306577 7.73-.92z" fill="#4758a9"/></g></svg>