<svg height="47" viewBox="0 0 71 47" width="71" xmlns="http://www.w3.org/2000/svg"><g fill="none" fill-rule="evenodd"><g fill-rule="nonzero"><g><path d="m63.92 0h-57.27c-3.51253101 0-6.36 2.84746802-6.36 6.35999784v17.63999406h70v-17.66999405c-.0165275-3.50471357-2.8652507-6.33554744-6.37-6.32999785z" fill="#4758a9"/><path d="m.28 40.6c-.01066545 1.6954313.65606745 3.3249419 1.8521224 4.5266297 1.19605495 1.2016879 2.82241487 1.8760697 4.5178776 1.8733703h57.27c3.512531 0 6.36-2.847469 6.36-6.36v-16.64h-70.00012602z" fill="#ed5565"/></g><path d="m21.28 11.84h28v23.25h-28z" fill="#fff"/><path d="m35.12 26.45-13.84 5.75v2.89h28v-2.89z" fill="#57a863"/><path d="m45.05 24.21-8.78 4.85h8.14z" fill="#4758a9"/><path d="m35.29 27.52 6.69-3.34-.88-4.19-5.81 6.43" fill="#4758a9"/></g><path d="m42.1 18.84-6.81 7.59" stroke="#f6d660" stroke-linecap="round" stroke-linejoin="round" stroke-width=".6"/><circle cx="41.070965" cy="20.001871" fill="#f6d660" fill-rule="nonzero" r="1" transform="matrix(.94217449 -.33512271 .33512271 .94217449 -4.328132 14.920431)"/><path d="m35.29 28.66 8.14-2.34-.11-4.28-7.98 6.11" fill="#4758a9" fill-rule="nonzero"/><path d="m44.49 21.09-9.19 7" stroke="#f6d660" stroke-linecap="round" stroke-linejoin="round" stroke-width=".6"/><circle cx="43.304513" cy="22.036791" fill="#f6d660" fill-rule="nonzero" r="1" transform="matrix(.98836151 -.15212339 .15212339 .98836151 -2.848312 6.844104)"/><path d="m35.28 29.51 11.12-6.05" stroke="#f6d660" stroke-linecap="round" stroke-linejoin="round" stroke-width=".6"/><circle cx="45.05" cy="24.21" fill="#f6d660" fill-rule="nonzero" r="1"/><path d="m25.52 24.21.64 4.85h8.14z" fill="#4758a9" fill-rule="nonzero"/><path d="m35.27 27.52-6.69-3.34.88-4.19 5.81 6.43" fill="#4758a9" fill-rule="nonzero"/><path d="m35.27 28.66-8.13-2.34.11-4.28 7.98 6.11" fill="#4758a9" fill-rule="nonzero"/><path d="m28.47 18.84 6.8 7.59" stroke="#f6d660" stroke-linecap="round" stroke-linejoin="round" stroke-width=".6"/><circle cx="29.492462" cy="19.984315" fill="#f6d660" fill-rule="nonzero" r="1" transform="matrix(.33512271 -.94217449 .94217449 .33512271 .780156 41.074163)"/><path d="m26.08 21.09 9.19 7" stroke="#f6d660" stroke-linecap="round" stroke-linejoin="round" stroke-width=".6"/><circle cx="27.299126" cy="22.06895" fill="#f6d660" fill-rule="nonzero" r="1" transform="matrix(.15212339 -.98836151 .98836151 .15212339 1.33419 45.693152)"/><path d="m35.29 29.51-11.13-6.05" stroke="#f6d660" stroke-linecap="round" stroke-linejoin="round" stroke-width=".6"/><g fill-rule="nonzero"><circle cx="25.51" cy="24.21" fill="#f6d660" r="1"/><path d="m32.41 27.3 3.86-.82 1.8.65 1.58 3.19-4.54 1.17-4.19-1.19z" fill="#ed5565"/><path d="m39.65 27.53c.0242875-1.7638879-1.0143303-3.3694033-2.6331413-4.0703607-1.6188111-.7009574-3.5003189-.3598783-4.7700667.8647159s-1.6787006 3.0925247-1.036792 4.7356448h8.15c.1883341-.4882838.2865894-1.0066653.29-1.53z" fill="#ed5565"/><g fill="#f6d660"><circle cx="29.18" cy="30.59" r="1.83"/><rect height="1.47" rx=".49" transform="matrix(.99439345 .10574342 -.10574342 .99439345 3.239799 -2.924673)" width="6.9" x="25.750571" y="28.355078"/><circle cx="41.38" cy="30.59" r="1.83"/><rect height="1.47" rx=".49" transform="matrix(-.99439345 .10574342 -.10574342 -.99439345 85.645697 53.633286)" width="6.9" x="37.951021" y="28.352125"/><path d="m38.54 22.81c-1.8581264-1.6453154-4.6518736-1.6453154-6.51 0l3.25 3.62z" stroke="#f6d660" stroke-linecap="round" stroke-linejoin="round" stroke-width=".6"/><path d="m36.56 31.07h-2.56l.87-15.75h.82z"/></g></g><path d="m35.11 15.28c.0312895.2363619.0038117.4767925-.08.7 0 0 .28-.17.27-.31l-.12.6.29-.26-.26.52.4-.4c-.0835955.2159602-.1873892.4235475-.31.62l.34-.18-.29.53s.44-.27.46-.4-.35.69-.41.7.33-.22.38-.37c-.0941057.2186149-.2114469.4264764-.35.62 0 0 .43-.3.46-.47-.0870788.3247381-.2147522.6372019-.38.93 0 0 .29-.14.31-.2-.1398308.2538873-.3111886.4890842-.51.7.2045858-.0720474.3824446-.2045697.51-.38-.026789.2933912-.1340638.5736898-.31.81.2194974-.1970549.3760232-.4544528.45-.74.0836506.2862421.1306919.5819306.14.88.060693-.4044021.060693-.8155979 0-1.22 0 0 .32.5.29.65 0 0 0-1-.27-1.2.1581683.1782489.2804084.3853779.36.61-.1078622-.3967443-.2693515-.7769171-.48-1.13l.5.59c-.1495258-.3736479-.3407353-.7292306-.57-1.06l.36.42s-.2-.56-.36-.63c-.0922701-.0378786-.1769573-.0920784-.25-.16l.43.18s-.48-.7-.64-.72l.57.51s0-.42-.14-.51c.1775572.1578715.3323649.3396022.46.54.0466847-.2048367-.013538-.4193799-.16-.57.2051958.2054631.3863599.4335956.54.68-.0121807-.2032852-.0595503-.4029142-.14-.59.2002043.2374581.3745227.4955834.52.77-.0079978-.2660199-.0950293-.5236331-.25-.74.2507369.2797061.4504334.6012513.59.95 0 0-.07-.79-.18-.88s.48.91.55 1.11c0 0 0-.59-.09-.68.1629331.2371178.2909103.4964401.38.77 0 0 0-.68-.14-.77.1614623.2481206.2955776.5129984.4.79-.0111367-.1907869-.0481418-.3791763-.11-.56.1256732.1701558.2235564.3591717.29.56l-.09-.5c.1080662.1562594.198611.323935.27.5l-.09-.36c.1076377.0850351.2049649.1823623.29.29-.2034353-.3005592-.4380723-.5787717-.7-.83-.4937784-.2878515-1.0167056-.5224983-1.56-.7-.12 0-1.26-.07-1.34 0h.41l-.16-.16.16.16h.25l-.2-.29.18.18h.34c-.0914826-.1122027-.1993622-.2099685-.32-.29.1190568.082046.2266677.1795684.32.29h.29l-.32-.32.32.32c.1005736.0022241.1994862.0260995.29.07-.099973-.1534092-.2137813-.2973432-.34-.43.1325323.1270486.24694.2717407.34.43.0863938.0251044.1701256.0585971.25.1 0 0-.18-.46-.27-.51.1454789.151494.272989.3192705.38.5 0 0 0-.48-.12-.52.1397607.2015993.2602894.4158725.36.64-.0045073-.2062856-.034741-.4112024-.09-.61.1409906.2289181.2614599.4698567.36.72-.0128824-.205493-.042988-.4095425-.09-.61 0 0 .34.5.29.61s.14-.57 0-.68c.1384861.2008299.2181438.4363394.23.68v-.32c.0488043.1387448.0790661.2833288.09.43-.0059198-.096576-.0059198-.193424 0-.29 0 0 .2.2.16.36-.0445744-.280472-.1287478-.553194-.25-.81.182736.2558634.3433179.5268453.48.81v-.18c.0694866.1226489.1104986.2593556.12.4 0 0 .11-.63-.23-.9.1909558.1974319.3166279.4487762.36.72l.07-.21c.0725738.1757463.119715.3609438.14.55.0737499-.2832359.0067675-.5846569-.18-.81.2778781.2627099.4488341.6188683.48 1v-.59c.1071475.1927389.1910665.3975013.25.61 0 0 0-.86-.54-1.18-.557631-.270177-1.1704055-.4071098-1.79-.4-.699556-.0352572-1.400444-.0352572-2.1 0l.48-.23h-.23c.0765622.0056594.1534378.0056594.23 0 .092485-.0302439.1827109-.0670026.27-.11-.1089601-.0445899-.2232489-.0748428-.34-.09l.34.09.32-.12-.36-.08c.1159802.0423122.2370152.0692088.36.08.1066074-.0436455.2170978-.0771275.33-.1.09 0-.31-.2-.46-.2.2892473-.0692405.5907527-.0692405.88 0-.200379-.1207051-.4203802-.2053209-.65-.25.3375963.0220068.6723907.0755739 1 .16-.1066879-.1157524-.2462907-.196024-.4-.23.2559189.0120487.5071393.0731564.74.18-.1795599-.1460183-.3780209-.2671131-.59-.36.2797055.0577322.5515962.1483625.81.27 0 0-.32-.34-.43-.34s.43.18.43.18c-.0965832-.0898026-.2040966-.1670778-.32-.23.2832083.06961.5556846.1772549.81.32 0 0-.43-.57-.52-.57.1616328.0750483.315675.1654644.46.27-.0861953-.1006291-.1834783-.191203-.29-.27.2271466.0797491.4450645.1836792.65.31-.2339641-.3185292-.6047855-.507648-1-.51-.5843372.1166188-1.1431247.3367472-1.65.65-.4044881.2309923-.7289172.5798407-.93 1-.1315881-.2670853-.2925854-.5186436-.48-.75-.4478888-.4840239-1.0623988-.7805608-1.72-.83.2250469.0922284.4453239.1956918.66.31-.1827962.0154542-.3601349.0700199-.52.16.2594158.0138116.5170936.0506227.77.11-.2019128.0500529-.3992713.1169541-.59.2.2944591.0059184.5883082.0292928.88.07-.2002212.0392355-.3973883.0927045-.59.16.2952051.0197077.589027.0564355.88.11.09 0-.66.12-.66.12.2874004.041422.5691922.1152246.84.22l-.5.07s.66.14.7.31c-.5421968-.2273243-1.1003667-.414495-1.67-.56-.6548362-.177617-1.3451638-.177617-2 0-.45.22-.91.74-.86 1.06.1740287-.3058859.4214691-.5636363.72-.75l-.45.61.52-.45c-.1270863.1508038-.2253847.3236734-.29.51v-.07c.2123144-.287473.446332-.5582647.7-.81-.132912.1954314-.2531586.3991826-.36.61 0 0 .65-.66.77-.66-.1923657.2094061-.3539828.4450977-.48.7 0 0 .63-.61 1-.66-.1905246.1478119-.364833.3154162-.52.5l.54-.43c-.1101519.1514546-.2071709.3120379-.29.48 0 0 .36-.45.66-.48-.1340384.1309703-.2546388.2750209-.36.43.2094707-.160618.4378404-.2949531.68-.4-.1377464.107736-.264981.228274-.38.36.1833562-.1092047.3737769-.2060854.57-.29l-.2.32.36-.25-.27.25h.27l.21-.18-.2.17h.29l.08-.12-.09.13h.31l.08-.17-.08.17h.6c-.7373762-.0763571-1.479278-.0997504-2.22-.07-.908769.1438486-1.7012727.6967582-2.15 1.5-.18.5 0 .63 0 .63s0-.66.23-.75c0 0-.09.5 0 .63l.11-.43.12.25c.003704-.1925213.0305638-.3838973.08-.57.0003221.2000611.0306598.3989416.09.59 0 0 0-.79.14-1 0 0-.14.45 0 .61 0 0 0-.73.31-.91 0 0-.29.63-.11.81 0 0 .16-.77.52-1 0 0-.36.48-.2.7 0 0 .38-.81.7-.91 0 0-.31.36-.27.59 0 0 .36-.59.56-.61l-.2.48s.36-.46.5-.48-.18.22-.16.31l.41-.34-.12.2.23-.12.14-.16-.14.16h.33l.1-.12-.1.12h.26v-.12.12h.18v-.14.14h.23c-.3320785-.0409032-.6679215-.0409032-1 0-.4807542.2788199-.9186259.625749-1.3 1.03-.667764.4612922-1.0256616 1.2540545-.93 2.06.0174519-.2024727.0646245-.4012719.14-.59 0 0 0 .34.07.38-.0296005-.2156557-.0296005-.4343443 0-.65 0 0 0 .45.14.5-.0218514-.2795737-.0218514-.5604263 0-.84.0052612.1636627.0356147.325548.09.48.037127-.3454064.1282356-.6828456.27-1-.0908882.3250271-.1213928.6639676-.09 1 .0409846-.1932518.0944295-.3836495.16-.57 0 0 0 .29.14.38-.0230316-.2394474-.0230316-.4805526 0-.72 0 0 .07.2.14.34-.0137615-.1730602-.0137615-.3469398 0-.52 0 0 .07.34.25.41-.0448557-.1389901-.0684553-.2839593-.07-.43 0 0 .11.25.2.25-.045699-.1395936-.075881-.2837967-.09-.43l.23.32c-.0457827-.1566341-.07593-.3174198-.09-.48l.2.27s-.16-.38.07-.5l.07.32c.0162419-.1431109.0795561-.2767742.18-.38-.0205631.0718918-.0205631.1481082 0 .22 0 0 .09-.38.18-.4v.29c.0449-.0991997.1057003-.1904002.18-.27v.18c.1396713-.0953859.2908782-.1726694.45-.23h.7c-.1135764.0665649-.2207058.1435641-.32.23h.29s-.51 0-.65.2c.195879-.0248928.394121-.0248928.59 0 0 0-.59.09-.7.27.2099585-.0489193.4244601-.075732.64-.08 0 0-.55.16-.61.27.1730066-.0150505.3469934-.0150505.52 0 0 0-.59.11-.66.27 0 0 .57-.07.61 0-.2354537.071309-.4581894.1793021-.66.32h.46s-.48.11-.52.25c.1188027.0239731.2411973.0239731.36 0-.1539474.1440533-.2824255.3131034-.38.5.1184895-.1009877.2456481-.1913372.38-.27-.1579023.1876727-.2585617.4167598-.29.66l.25-.25c-.1177145.1683776-.2087829.3538873-.27.55l.27-.27s-.11.75 0 .86l.07-.81s.18 0 .36.63l-.2-.81s.29.2.29.43c.0206835-.2890296-.0767421-.5740896-.27-.79.1967489.1842618.3652302.3965484.5.63-.1202592-.342789-.2639309-.6769093-.43-1l.45.57c-.008679-.3156216-.1374319-.6160451-.36-.84l.52.43c-.0592636-.2218817-.1501985-.4340631-.27-.63l.29.34c-.0926009-.2307476-.2135282-.4490886-.36-.65l.36.38c-.0355796-.2508012-.102781-.4960863-.2-.73l.2.32-.09-.5.24.13c.001761-.115287-.0151234-.2301008-.05-.34 0-.06.09 0 .09 0l.07-.44z" fill="#57a863" stroke="#57a863" stroke-linecap="round" stroke-linejoin="round" stroke-width=".5"/><path d="m35.28 29.21c.8703396.0054568 1.5745432.7096604 1.58 1.58h-3.16c.0054568-.8703396.7096604-1.5745432 1.58-1.58zm0-.6c-1.2017057.0054748-2.1745252.9782943-2.18 2.18 0 .3313708.2686292.6.6.6h3.17c.3313708 0 .6-.2686292.6-.6-.0054748-1.2017057-.9782943-2.1745252-2.18-2.18z" fill="#ed5565" fill-rule="nonzero"/><rect fill="#f6d660" fill-rule="nonzero" height="4.67" rx="1.58" width="3.17" x="33.7" y="29.21"/><path d="m28.52 29.63 2.34.67 4.38 1.25 6.8-1.92" stroke="#f6d660" stroke-linecap="round" stroke-linejoin="round"/></g></svg>