<svg height="48" viewBox="0 0 71 48" width="71" xmlns="http://www.w3.org/2000/svg"><g fill="none"><rect fill="#fff" height="47" rx="6.36" width="70" x=".77" y=".25"/><g fill="#4758a9"><path d="m45.67 19c.1299614-.1452433.1516512-.3576397.0537306-.5261543-.0979206-.1685145-.2931915-.2548391-.4837306-.2138457h-4.8c-.5370064-.0263911-1.0316513-.2995532-1.34-.74l-2.42-4c-.0698315-.1881317-.2493262-.3129671-.45-.3129671s-.3801685.1248354-.45.3129671l-2.35 3.94c-.3009086.4450397-.7934682.7227988-1.33.75h-4.8c-.1923035-.047203-.392865.0368445-.4940641.207043-.1011991.1701984-.0792522.3865482.0540641.532957l2.43 4c.2471175.4659282.2471175 1.0240718 0 1.49l-2.43 4c-.1333163.1464088-.1552632.3627586-.0540641.532957.1011991.1701985.3017606.254246.4940641.207043h4.79c.5342859.0264234 1.0258622.299932 1.33.74l2.35 3.94c.0733295.1813567.2493793.3000695.445.3000695s.3716705-.1187128.445-.3000695l2.34-3.86c.3041378-.440068.7957141-.7135766 1.33-.74h4.88c.1905391.0409934.38581-.0453312.4837306-.2138457.0979206-.1685146.0762308-.380911-.0537306-.5261543l-2.43-4c-.2488902-.4654856-.2488902-1.0245144 0-1.49zm-9.6-1.07c.09-.18.26-.18.37 0s0 .33-.17.33c-.0865066.0223378-.1776756-.0125047-.2272347-.0868435-.0495592-.0743388-.0466566-.1718957.0072347-.2431565zm-4.9 8.92c-.23 0-.32-.15-.21-.32.0392392-.0771364.1184567-.1257167.205-.1257167s.1657608.0485803.205.1257167c.11.18 0 .32-.21.32zm.21-5.84c-.0370078.0828459-.119264.1361917-.21.1361917s-.1729922-.0533458-.21-.1361917c-.11-.18 0-.32.21-.32s.31.15.2.32zm5.07 8.6c-.11.18-.28.18-.37 0-.0487691-.0683065-.0521832-.1590915-.0086823-.2308681.043501-.0717765.1255617-.1107585.2086823-.0991319.21 0 .28.14.17.32zm2.06-3.5c-.3009086.4450397-.7934682.7227988-1.33.75h-1.8c-.5361647-.029338-1.0296054-.3018351-1.34-.74l-1-1.61c-.245341-.4628305-.245341-1.0171695 0-1.48l.94-1.59c.3009086-.4450397.7934682-.7227988 1.33-.75h1.88c.5365318.0272012 1.0290914.3049603 1.33.75l.94 1.59c.241957.4671986.241957 1.0228014 0 1.49zm2.88.75c-.23 0-.32-.15-.21-.32.0392392-.0771364.1184567-.1257167.205-.1257167s.1657608.0485803.205.1257167c.11.17 0 .32-.22.32zm.21-5.84c-.0392392.0771364-.1184567.1257167-.205.1257167s-.1657608-.0485803-.205-.1257167c-.11-.18 0-.32.21-.32s.32.14.2.32z"/><path d="m64.4.25h-57.27c-3.37275392-.00010439-6.1590894 2.63265354-6.35 6h70c-.1915298-3.37894355-2.9956707-6.01606659-6.38-6z"/><path d="m7.13 47.25h57.27c3.3727539.0001044 6.1590894-2.6326535 6.35-6h-70c.19152983 3.3789435 2.99567067 6.0160666 6.38 6z"/></g></g></svg>