<svg height="48" viewBox="0 0 71 48" width="71" xmlns="http://www.w3.org/2000/svg"><g fill="none"><rect fill="#ed5565" height="47" rx="6.36" width="70" x=".25" y=".8"/><path d="m32.5316846 12.0627744c.539494-.0468904 1.0999537-.1663591 1.6738657.1383215.4972716.1754.8500701.6926851.9624806 1.3522657.173597.653385.5774791 1.4098865.9591686 1.8876268.2051866.4402388 1.4513164 3.3035224 1.4491848 3.9363881l-.0143843.0136235.0103609.1150733c.0280054.2272499.0979256.37191.1877132.4155629l-.0050741.0043638.019516-.012638c1.3639296.629527 2.3302377.9806388 3.5742237 1.6315417l.4258727.2288641c.1693321.0588367.4588193.060857.4145753-.1733968-.1710914-.7768371-.1134679-.5417454-.136751-.9221552-.0780944-.4840947.1161973-.4042536.1227575-.9071953.0433672-.5372665 1.0326811-3.3760562 1.7534564-4.2832876-.0193766-.0303431.2220592-1.1250268.2220592-1.1250268l-.1558208-.7126984c-.0675439-.3258792.0252877-.8801638.8746771-.7724449.0303416-.0193741.3457833.2067903.3457833.2067903.5223203.0369027 1.0447053.0739082 1.5670249.1108122 2.3882956-.7170104 2.399436-.158554 2.9208001-.1125264.1577507-.0555695.6930627.4423503-.0650941.7683403l-2.9471438.9415581c-.2640453.1178205-.7855234.3825724-1.1202973.9672537-.0777803.2420417-.1253654.8339601-.061401 1.6005556-.0914778 1.3252084-.1345018 3.1115938-.7399928 4.677317.0547878.2643228-.0519244.3855774.1632818.8461876.1183962.2159079.1289904.4833418.0454142.7404866-.2291387.4906608-.4059057 1.0357674-.9567228 1.3804495-.4005366.3429498-1.0249179.3898398-1.6523367.1573998-.6526466-.1763531-1.5097371-.2048317-2.1143171-.113149-.4838513-.0424227-3.5865925-.3948843-4.1336045-.7131632l-.0253887-.104753c.0035864.0316749.0072229.0637146.0109488.0964038-.2542618-.1294377-.4506829-.1593739-.5512982-.1037175l.0024952.015661c-1.3635013.9627047-2.1838849 1.6721467-3.6112069 2.5339822-.1356201.1172275-.2821133.3669207-.0571216.4457312.7583063.240249.5258992.1726066.8669853.3426477.4582855.1744156.2919953.3027566.7242754.5599087.4436029.3061905 2.4074099 2.5823562 2.8327077 3.6601817.0359663-.0016091.8632722.7548223.8632722.7548223.2317064.0737601.4634182.1476429.6951253.2214043.3159917.104445.7496004.4619817.2316184 1.1437152.0016077.0359636-.3519773.1960619-.3519773.1960619l-.8794787 1.3016773c-.5731985 2.4268298-1.0624061 2.1572496-1.3629493 2.5857503-.0307507.1644009-.729618.3790347-.6328552-.4405433.2193423-1.0076911.4388111-2.0153897.6581588-3.0230804.0299871-.2875802.0614442-.8715694-.2775176-1.4538328-.1707242-.1883806-.659548-.5255498-1.3554214-.8534527-1.1019252-.7418263-2.6274684-1.6722789-3.6806789-2.979511-.2563042-.0847138-.3079577-.2377566-.8144609-.2816876-.2461798-.0054198-.4830815-.1299619-.6639873-.3309135-.3103554-.4437703-.6940481-.8694083-.7171429-1.5187709-.096735-.5183499.1748478-1.0825249.6898561-1.5096655.4790496-.477032.932258-1.2050549 1.1551485-1.7744779.2786647-.3978162 2.1352761-2.9086381 2.6844196-3.2232249.2490367-.1619165.3733501-.323421.3650785-.4396031l-.0522533-.5335703c-.1429513-1.3727252-.3075275-2.3790034-.3366034-3.8607944-.033712-.1760642-.176706-.4277777-.3574538-.2723344-.5872149.5365881-.4124313.3691388-.7302343.5795075-.380191.3096791-.4081925.101497-.8470328.3472866-.4869702.2310761-3.4400911.7937-4.5861642.6231059-.0165896.0319523-1.0853314.3702045-1.0853314.3702045-.1797313.1637836-.3595716.3275105-.5393044.491294-.2484478.2214344-.7748881.4181821-1.1062956-.3712701-.0319492-.0165896.0061941-.4028522.0061941-.4028522-.2292015-.4707941-.4583463-.9416956-.6875463-1.4124896-1.815097-1.7098194-1.3370298-1.9986955-1.5578507-2.4732239-.127-.1088313.0365552-.8213851.6979492-.327797.7630149.6938015 1.5259731 1.3877164 2.2889851 2.0815224.2340582.1697597.7240791.488997 1.3978149.4865791.2485045-.0536612.7849134-.3084105 1.4168224-.747103 1.193403-.5833821 2.7619702-1.4393149 4.4206716-1.697806.2015165-.1796089.3598821-.1478209.6511791-.5645.1277836-.210488.3540911-.3533798.6185732-.4095731z" fill="#fff"/></g></svg>