<svg height="48" viewBox="0 0 71 48" width="71" xmlns="http://www.w3.org/2000/svg"><g fill="none"><path d="m.52 6.89v9h70v-9c0-3.66717074-2.9728293-6.64-6.64-6.64h-56.71c-1.76276947-.00265478-3.45424962.69574249-4.70165483 1.9412719-1.2474052 1.24552941-1.94834717 2.93595663-1.94834517 4.6987281z" fill="#ed5565"/><path d="m.52 31.59h70v-15.67h-70z" fill="#fff"/><path d="m.52 40.61c0 3.6671707 2.97282926 6.64 6.64 6.64h56.72c3.6671707 0 6.64-2.9728293 6.64-6.64v-9h-70z" fill="#434a54"/><g fill="#57a863"><path d="m23.69 27.13c-.32.23-.51.1-.42-.29l.35-1.43c.0800735-.4273343-.058779-.8664084-.37-1.17l-1-.91c-.3-.26-.22-.48.17-.49h1.47c.4216193-.0299201.7841926-.3097321.92-.71l.46-1.56c.11-.38.31-.39.45 0l.55 1.54c.1697646.4042849.5616158.6707438 1 .68h1.5c.39 0 .47.22.17.48l-1.14 1c-.3086231.3004632-.4375917.7404738-.34 1.16l.36 1.26c.11.38-.07.52-.41.32l-1.22-.75c-.367626-.2146575-.822374-.2146575-1.19 0z"/><path d="m43.69 27.13c-.32.23-.51.1-.42-.29l.35-1.43c.0800735-.4273343-.058779-.8664084-.37-1.17l-1-.91c-.3-.26-.22-.48.17-.49h1.47c.4216193-.0299201.7841926-.3097321.92-.71l.46-1.56c.11-.38.31-.39.45 0l.55 1.54c.1697646.4042849.5616158.6707438 1 .68h1.5c.39 0 .47.22.17.48l-1.14 1c-.3086231.3004632-.4375917.7404738-.34 1.16l.36 1.26c.11.38-.07.52-.41.32l-1.22-.75c-.367626-.2146575-.822374-.2146575-1.19 0z"/><path d="m33.69 27.13c-.32.23-.51.1-.42-.29l.35-1.43c.0800735-.4273343-.058779-.8664084-.37-1.17l-1-.91c-.3-.26-.22-.48.17-.49h1.47c.4216193-.0299201.7841926-.3097321.92-.71l.46-1.56c.11-.38.31-.39.45 0l.55 1.54c.1697646.4042849.5616158.6707438 1 .68h1.5c.39 0 .47.22.17.48l-1.14 1c-.3086231.3004632-.4375917.7404738-.34 1.16l.36 1.26c.11.38-.07.52-.41.32l-1.22-.75c-.367626-.2146575-.822374-.2146575-1.19 0z"/></g></g></svg>