<svg height="48" viewBox="0 0 71 48" width="71" xmlns="http://www.w3.org/2000/svg"><g fill="none"><path d="m.9 6.89v9h70v-9c0-3.66717074-2.9728293-6.64-6.64-6.64h-56.71c-1.76276947-.00265478-3.45424962.69574249-4.70165483 1.9412719-1.2474052 1.24552941-1.94834717 2.93595663-1.94834517 4.6987281z" fill="#57a863"/><path d="m.9 31.59h70v-15.67h-70z" fill="#fff"/><path d="m.9 40.61c0 3.6671707 2.97282926 6.64 6.64 6.64h56.72c3.6671707 0 6.64-2.9728293 6.64-6.64v-9h-70z" fill="#ed5565"/><path d="m41.81 23.37-.39-.67c-.1311718-.2544392-.2061952-.5340721-.22-.82v-.78c-.0139305-.2680808-.1551504-.5133575-.38-.66l-.65-.37c-.2422443-.1527499-.4472501-.3577557-.6-.6l-.38-.65c-.1466425-.2248496-.3919192-.3660695-.66-.38h-.78c-.2859279-.0138048-.5655608-.0888282-.82-.22l-.67-.38c-.2388476-.1211562-.5211524-.1211562-.76 0l-.65.38c-.2536156.1332887-.5337254.2084401-.82.22h-.75c-.2680808.0139305-.5133575.1551504-.66.38l-.39.67c-.1530141.2420332-.3579668.4469859-.6.6l-.67.39c-.2248496.1466425-.3660695.3919192-.38.66v.75c-.0115599.2862746-.0867113.5663844-.22.82l-.38.65c-.1195615.2392265-.1195615.5207735 0 .76l.39.67c.1311718.2544392.2061952.5340721.22.82v.78c.0139305.2680808.1551504.5133575.38.66l.65.37c.2424577.1524826.4475174.3575423.6.6l.38.65c.1466425.2248496.3919192.3660695.66.38h.78c.2859279.0138048.5655608.0888282.82.22l.67.38c.2388476.1211562.5211524.1211562.76 0l.65-.38c.2533671-.1339226.5336232-.2091133.82-.22h.75c.2680808-.0139305.5133575-.1551504.66-.38l.39-.67c.1547831-.2406127.3593873-.4452169.6-.6l.67-.39c.2248496-.1466425.3660695-.3919192.38-.66v-.75c.0115599-.2862746.0867113-.5663844.22-.82l.38-.65c.1211562-.2388476.1211562-.5211524 0-.76zm-2.34.61-.23.39c-.0800482.154898-.1244642.3257288-.13.5v.46c-.0085195.1623741-.0939531.3109542-.23.4l-.41.24c-.1449703.0921202-.2678798.2150297-.36.36l-.23.41c-.0890458.1360469-.2376259.2214805-.4.23h-.48c-.1708713.0070018-.3381304.0513767-.49.13l-.39.23c-.1442303.0747207-.3157697.0747207-.46 0l-.41-.23c-.1550182-.079734-.3257769-.1241312-.5-.13h-.47c-.1623741-.0085195-.3109542-.0939531-.4-.23l-.23-.39c-.0921202-.1449703-.2150297-.2678798-.36-.36l-.38-.23c-.1360469-.0890458-.2214805-.2376259-.23-.4v-.47c-.0076357-.1707748-.051975-.3378999-.13-.49l-.23-.41c-.073077-.1446264-.073077-.3153736 0-.46l.23-.39c.080368-.1547754.1248032-.3256801.13-.5v-.45c.0085195-.1623741.0939531-.3109542.23-.4l.41-.24c.1449703-.0921202.2678798-.2150297.36-.36l.23-.41c.0890458-.1360469.2376259-.2214805.4-.23h.46c.1708713-.0070018.3381304-.0513767.49-.13l.39-.23c.1446264-.073077.3153736-.073077.46 0l.41.23c.154898.0800482.3257288.1244642.5.13h.47c.1623741.0085195.3109542.0939531.4.23l.23.39c.0921202.1449703.2150297.2678798.36.36l.4.23c.1360469.0890458.2214805.2376259.23.4v.47c.0073216.1708227.0516784.338014.13.49l.23.41c.073077.1446264.073077.3153736 0 .46z" fill="#ed5565"/><g fill="#fff"><path d="m2.9 11.92h2v2h-2z"/><path d="m6.9 11.92h2v2h-2z"/><path d="m10.9 11.92h2v2h-2z"/><path d="m14.9 11.92h2v2h-2z"/><path d="m18.9 11.92h2v2h-2z"/><path d="m22.9 11.92h2v2h-2z"/><path d="m26.9 11.92h2v2h-2z"/><path d="m30.9 11.92h2v2h-2z"/><path d="m34.9 11.92h2v2h-2z"/><path d="m38.9 11.92h2v2h-2z"/><path d="m42.9 11.92h2v2h-2z"/><path d="m46.9 11.92h2v2h-2z"/><path d="m50.9 11.92h2v2h-2z"/><path d="m54.9 11.92h2v2h-2z"/><path d="m58.9 11.92h2v2h-2z"/><path d="m62.9 11.92h2v2h-2z"/><path d="m66.9 11.92h2v2h-2z"/><path d="m2.9 33.57h2v2h-2z"/><path d="m6.9 33.57h2v2h-2z"/><path d="m10.9 33.57h2v2h-2z"/><path d="m14.9 33.57h2v2h-2z"/><path d="m18.9 33.57h2v2h-2z"/><path d="m22.9 33.57h2v2h-2z"/><path d="m26.9 33.57h2v2h-2z"/><path d="m30.9 33.57h2v2h-2z"/><path d="m34.9 33.57h2v2h-2z"/><path d="m38.9 33.57h2v2h-2z"/><path d="m42.9 33.57h2v2h-2z"/><path d="m46.9 33.57h2v2h-2z"/><path d="m50.9 33.57h2v2h-2z"/><path d="m54.9 33.57h2v2h-2z"/><path d="m58.9 33.57h2v2h-2z"/><path d="m62.9 33.57h2v2h-2z"/><path d="m66.9 33.57h2v2h-2z"/></g></g></svg>