<svg height="48" viewBox="0 0 71 48" width="71" xmlns="http://www.w3.org/2000/svg"><g fill="none"><rect fill="#52c162" height="47" rx="6.36" width="70" x=".9" y=".53"/><path d="m3 2.14c-1.36358997 1.20588037-2.1430774 2.93969355-2.14 4.76v34.27c.00087782 1.8386928.79995193 3.5864393 2.19 4.79l29.81-21.43z" fill="#434a54"/><path d="m70.8999994 6.89c.0007158-1.6081473-.6106719-3.15628116-1.71-4.33l-29.2899994 22 29.2399994 21c1.128572-1.1790354 1.7589774-2.7478854 1.76-4.38z" fill="#434a54"/><path d="m70.46 43.5-29.84-19.21 30-19.33c-.5397651-1.67095193-1.74436-3.04556474-3.33-3.8l-31.29 20.16-31.39-20.2c-1.5871689.72877719-2.80550006 2.07725648-3.37 3.73l30.17 19.42-30 19.36c.69845493 1.6513215 2.05951601 2.9325337 3.75 3.53l30.84-19.92 30.83 19.84c1.6549445-.6370012 2.9701077-1.9340492 3.63-3.58z" fill="#ffce54"/></g></svg>