<svg height="48" viewBox="0 0 71 48" width="71" xmlns="http://www.w3.org/2000/svg"><g fill="none"><path d="m.15 7.17v9h70v-9c0-3.66717074-2.9728293-6.64-6.64-6.64h-56.72c-1.76103749 0-3.44994747.69956942-4.69518903 1.94481097-1.24524155 1.24524156-1.94481097 2.93415154-1.94481097 4.69518903z" fill="#434a54"/><path d="m.15 31.88h70v-15.68h-70z" fill="#fff"/><path d="m.15 40.89c0 3.6671707 2.97282926 6.64 6.64 6.64h56.71c3.6671707 0 6.64-2.9728293 6.64-6.64v-9h-70z" fill="#57a863"/><path d="m2.27 2.16c-1.35465419 1.20308-2.12988244 2.92823582-2.13 4.74v34.27c.00011756 1.8117642.77534581 3.53692 2.13 4.74l25.88-21.91z" fill="#ed5565"/><circle cx="10.68" cy="24.03" fill="#fff" r="4"/></g></svg>