<svg height="48" viewBox="0 0 71 48" width="71" xmlns="http://www.w3.org/2000/svg"><g fill="none"><rect fill="#57a863" height="47" rx="6.36" width="70" x=".28" y=".81"/><path d="m63.92.81h-57.27c-3.51253101 0-6.36 2.84746802-6.36 6.35999782v16.63999428h70v-16.63999428c.0000021-1.68851034-.67144-3.30771798-1.866335-4.50073681-1.1948951-1.19301884-2.8151562-1.8619159-4.503665-1.85926101z" fill="#434a54"/><path d="m.28 13.81h70v22h-70z" fill="#fff"/><path d="m.28 15.81h70v18h-70z" fill="#ed5565"/><path d="m33.32 6.32c.3781435-.40390064.9067114-.63310571 1.46-.63310571s1.0818565.22920507 1.46.63310571c2.66 2.94 8 9.89 8 18s-5.38 15.05-8 18c-.3781435.4039006-.9067114.6331057-1.46.6331057s-1.0818565-.2292051-1.46-.6331057c-2.66-2.94-8-9.89-8-18s5.34-15.06 8-18z" fill="#ed5565"/><path d="m41.11 13.12c-1.67 2.1-2.83 6.54-2.83 11.7 0 4.82 1 9 2.51 11.26 2.1683511-3.5488513 3.371446-7.6028331 3.49-11.76-.099869-3.9402249-1.1900334-7.7919098-3.17-11.2z" fill="#434a54"/><path d="m28.45 13.12c-1.9799666 3.4080902-3.070131 7.2597751-3.17 11.2.118554 4.1571669 1.3216489 8.2111487 3.49 11.76 1.5-2.25 2.51-6.44 2.51-11.26 0-5.16-1.15-9.6-2.83-11.7z" fill="#434a54"/><g fill="#fff"><ellipse cx="36.28" cy="15.31" rx="1" ry="6.5"/><ellipse cx="33.28" cy="15.31" rx="1" ry="6.5"/><ellipse cx="36.28" cy="35.31" rx="1" ry="6.5"/><ellipse cx="33.28" cy="35.31" rx="1" ry="6.5"/><circle cx="34.78" cy="25.31" r="1.5"/></g></g></svg>