<svg height="48" viewBox="0 0 71 48" width="71" xmlns="http://www.w3.org/2000/svg"><g fill="none"><rect fill="#ed5565" height="47" rx="6.36" width="70" x=".76" y=".83"/><path d="m48 28.6c.0253139-.6559725.1960978-1.2981202.5-1.88l.87-1.51c.2780451-.5502009.2780451-1.1997991 0-1.75l-.89-1.55c-.2987509-.5935323-.4626583-1.245747-.48-1.91v-1.79c-.0371592-.6144407-.3637168-1.1747839-.88-1.51l-1.51-.86c-.5568658-.3516954-1.0283046-.8231342-1.38-1.38l-.87-1.51c-.3352161-.5162832-.8955593-.8428408-1.51-.88h-1.85c-.6556269-.0275987-1.2972851-.1982524-1.88-.5l-1.55-.89c-.5502009-.2780451-1.1997991-.2780451-1.75 0l-1.5.88c-.5810661.307379-1.2232561.4815901-1.88.51h-1.73c-.6144407.0371592-1.1747839.3637168-1.51.88l-.9 1.55c-.3537656.5552075-.8247925 1.0262344-1.38 1.38l-1.54.9c-.5152136.3394887-.8382146.9038123-.87 1.52v1.73c-.0246471.6560726-.1954694 1.2983645-.5 1.88l-.87 1.51c-.2780451.5502009-.2780451 1.1997991 0 1.75l.89 1.55c.3049202.5820332.4789797 1.2236642.51 1.88v1.79c.0371592.6144407.3637168 1.1747839.88 1.51l1.51.86c.5566553.3519586 1.0280414.8233447 1.38 1.38l.87 1.51c.3352161.5162832.8955593.8428408 1.51.88h1.79c.6556269.0275987 1.2972851.1982524 1.88.5l1.55.89c.5502009.2780451 1.1997991.2780451 1.75 0l1.5-.88c.5809423-.3076927 1.2232044-.4819234 1.88-.51h1.73c.6144407-.0371592 1.1747839-.3637168 1.51-.88l.89-1.55c.3537656-.5552075.8247925-1.0262344 1.38-1.38l1.54-.9c.5152136-.3394887.8382146-.9038123.87-1.52z" fill="#f6d660"/><path d="m35.76 16c4.5839634 0 8.3 3.7160366 8.3 8.3s-3.7160366 8.3-8.3 8.3-8.3-3.7160366-8.3-8.3 3.7160366-8.3 8.3-8.3zm0-2c-5.6885329 0-10.3 4.6114671-10.3 10.3s4.6114671 10.3 10.3 10.3 10.3-4.6114671 10.3-10.3c-.0055126-5.686248-4.613752-10.2944874-10.3-10.3z" fill="#ed5565"/><circle cx="35.76" cy="24.33" fill="#f6d660" r="8.3"/><path d="m37.74 20.41c1.4437061-.5930401 2.9892366-.8987495 4.55-.9h.22c-.5233245-.731189-1.1615828-1.3728243-1.89-1.9-1.6990747.2001786-3.346644.7120777-4.86 1.51-1.513356-.7979223-3.1609253-1.3098214-4.86-1.51-.7284172.5271757-1.3666755 1.168811-1.89 1.9h.22c1.5607634.0012505 3.1062939.3069599 4.55.9-2.6307013 2.0063433-4.4658507 4.8795212-5.18 8.11.4543166.7779272 1.0318167 1.4770062 1.71 2.07.2926097-3.7296438 2.3079156-7.1094412 5.45-9.14 3.1420844 2.0305588 5.1573903 5.4103562 5.45 9.14.6781833-.5929938 1.2556834-1.2920728 1.71-2.07-.7141493-3.2304788-2.5492987-6.1036567-5.18-8.11z" fill="#ed5565"/></g></svg>