<svg height="48" viewBox="0 0 71 48" width="71" xmlns="http://www.w3.org/2000/svg"><g fill="none"><path d="m.15 6.78v34.27c.00139441.8088067.15753513 1.6098765.46 2.36h69.08c.3024649-.7501235.4586056-1.5511933.46-2.36v-34.27c-.0013944-.80880674-.1575351-1.60987649-.46-2.36h-69.09c-.29904355.75079593-.45178549 1.5518426-.45 2.36z" fill="#4758a9"/><path d="m63.78.42h-57.27c-2.60292075-.00166581-4.94413666 1.58291349-5.91 4h69.08c-.9645096-2.41370051-3.3007264-3.99757633-5.9-4z" fill="#ed5565"/><path d="m6.51 47.42h57.27c2.6029207.0016658 4.9441367-1.5829135 5.91-4h-69.09c.96586334 2.4170865 3.30707925 4.0016658 5.91 4z" fill="#ed5565"/><path d="m53.06 33.88v-1.49h-.91v-1.22h-.84v-1.06h-.62v-.74h-.58c-.103755-.0590002-.1981271-.1331498-.28-.22l-.17-3.88c.1031312-.1659554.2526206-.2980623.43-.38v-2.7c-.2521929.1107184-.4475545.3205512-.54.58v-1.39h-.41v1.39h-.14v-.49h-.43v-.19h.43v-.37h-.43v-1.1c0-.18 0-.24-.18-.2-.1941932.1011612-.3464653.2675981-.43.47-.0260896.0772038-.0985071.1291724-.18.1291724s-.1539104-.0519686-.18-.1291724c0-.58.34-.41.34-.91 0-.17-.15-.11-.31 0s-.17-.09-.17-.29c.0877581-.1841133.161306-.374669.22-.57 0-.21-.19-.1-.3 0s-.19.07-.19-.19.28-.29.28-.55-.13-.11-.22 0-.3.09-.26 0c.0777181-.38768-.0421964-.7886442-.32-1.07-.1312778-.0851832-.2074319-.2336836-.2-.39 0-.13 0-.21-.11-.21s-.11.08-.11.21c.0074319.1563164-.0687222.3048168-.2.39-.2778036.2813558-.3977181.68232-.32 1.07 0 .13-.18.16-.26 0s-.22-.16-.22 0 .28.27.28.55-.08.31-.19.19-.3-.23-.3 0c.058694.195331.1322419.3858867.22.57 0 .2 0 .41-.17.29s-.31-.18-.31 0c0 .5.34.33.34.91-.0260896.0772038-.0985071.1291724-.18.1291724s-.1539104-.0519686-.18-.1291724c-.0835347-.2024019-.2358068-.3688388-.43-.47-.14 0-.18 0-.18.2v2.14h-.71v-.29h-.26v.29h-3.6v-1.85c-.1812325.1347009-.3370023.3006296-.46.49h-.65v-.4c.1320283-.0085682.2461757-.0951628.29-.22 0-.05 0-.07-.06 0-.0971816.0733025-.2235983.0956113-.34.06 0 0 0 0 .07-.12l.38-.27c.029207-.0308504.029207-.0791496 0-.11-.0226055-.0493242-.0777995-.0747984-.13-.06l-.31.22c-.07 0-.16.11-.2 0-.053039-.1396595-.181197-.2367489-.33-.25v-.06c-.0339321-.1911481.0436022-.3849839.2-.5.1496572-.1103148.2202196-.2984814.18-.48 0-.17-.14-.29-.26 0s-.25.15-.25.07v-.31c.0412883-.2191213.1624478-.4151146.34-.55.1142167-.0541919.1822041-.1741697.17-.3v-.32c0-.3-.34-.13-.44.09s-.15 0-.15-.07v-.34c0-.19.27-.27.27-.47v-.41c0-.33-.31-.12-.36 0-.13.28-.24.16-.24 0-.0212336-.154158.0305183-.3094138.14-.42.1053182-.1399643.1453862-.318449.11-.49 0-.36-.31-.13-.38 0s-.19.18-.19 0c.066328-.2038114.1430961-.404076.23-.6 0-.23-.16-.2-.19-.14s-.26.16-.26 0 .1-.2.1-.44c.21 0 .2-.49 0-.49h-.29c.15 0 .15-.06 0-.19-.045797-.1159701-.1674736-.183102-.29-.16.15 0 .15-.06 0-.19-.045797-.1159701-.1674736-.183102-.29-.16h-.1c0-.19 0-.66-.28-.66s-.28.47-.28.66h-.1c-.1225264-.023102-.244203.0440299-.29.16-.11.13-.11.19 0 .19-.1225264-.023102-.244203.0440299-.29.16-.11.13-.11.19 0 .19h-.27c-.2 0-.21.49 0 .49 0 .24.1.25.1.44s-.21.16-.26 0-.19-.09-.19.14c.0869039.195924.163672.3961886.23.6 0 .21-.12.17-.19 0s-.38-.37-.38 0c-.0353862.171551.0046818.3500357.11.49.1094817.1105862.1612336.265842.14.42 0 .15-.11.27-.24 0 0-.1-.36-.31-.36 0v.41c0 .2.27.28.27.47v.33c0 .1-.1.19-.15.07s-.44-.38-.44-.09v.21c-.0122041.1258303.0557833.2458081.17.3.1775522.1348854.2987117.3308787.34.55v.32c0 .08-.12.17-.25-.07s-.26-.13-.26 0c-.0402196.1815186.0303428.3696852.18.48.1563978.1150161.2339321.3088519.2.5v.06c-.148803.0132511-.276961.1103405-.33.25 0 .1-.13 0-.2 0l-.31-.22c-.0522005-.0147984-.1073945.0106758-.13.06-.029207.0308504-.029207.0791496 0 .11l.38.27c.1.07.1.08.07.12-.1164017.0356113-.2428184.0133025-.34-.06h-.06c.0438243.1248372.1579717.2114318.29.22v.47h-.68c-.1129239-.1905783-.2584724-.3598208-.43-.5v1.85h-3.6v-.29h-.26v.29h-.71v-2.14c0-.18 0-.24-.18-.2-.1984866.0985597-.3547271.265453-.44.47-.0260896.0772038-.0985071.1291724-.18.1291724s-.1539104-.0519686-.18-.1291724c0-.58.33-.41.33-.91 0-.17-.15-.11-.31 0s-.17-.09-.17-.29c.0877581-.1841133.161306-.374669.22-.57 0-.21-.19-.1-.3 0s-.19.07-.19-.19.28-.29.28-.55-.13-.11-.22 0-.3.09-.26 0c.0777181-.38768-.0421964-.7886442-.32-1.07-.1312778-.0851832-.2074319-.2336836-.2-.39 0-.13 0-.21-.11-.21s-.11.08-.11.21c.0074319.1563164-.0687222.3048168-.2.39-.2762532.2822719-.3959193.6824055-.32 1.07 0 .13-.18.16-.26 0s-.22-.16-.22 0 .28.27.28.55-.08.31-.19.19-.3-.23-.3 0c.058694.195331.1322419.3858867.22.57 0 .2 0 .41-.17.29s-.31-.18-.31 0c0 .5.34.33.34.91-.0260896.0772038-.0985071.1291724-.18.1291724s-.1539104-.0519686-.18-.1291724c-.0835347-.2024019-.2358068-.3688388-.43-.47-.14 0-.18 0-.18.2v1.1h-.43v.37h.43v.19h-.43v.49h-.12v-1.39h-.44v1.39c-.0924455-.2594488-.2878071-.4692816-.54-.58v2.7c.1787438.0846211.3283836.2203409.43.39l-.17 3.88c-.0818729.0868502-.176245.1609998-.28.22h-.58v.74h-.52v1.06h-.84v1.22h-.92v1.49h-1.08v1.53h37v-1.53h-1.09z" fill="#fff"/></g></svg>