<svg height="48" viewBox="0 0 71 48" width="71" xmlns="http://www.w3.org/2000/svg" xmlns:xlink="http://www.w3.org/1999/xlink"><defs><rect id="a" height="47" rx="6.36" width="70" x=".52" y=".53"/><mask id="b" fill="#fff"><use fill="#fff" fill-rule="evenodd" xlink:href="#a"/></mask></defs><g fill="none"><use fill="#fff" xlink:href="#a"/><path d="m-4.23.79h82.3v45.57h-82.3z" fill="#ed5565" mask="url(#b)"/><path d="m36.92 12.61c-.3498486.0004342-.685106-.1401576-.93-.39l-2.35-2.38-4.74-.55c-1.3038506-.16148485-2.2328873-1.34511329-2.08-2.65.0075127-.06914935.0424192-.1324053.0969164-.17562719.0544971-.04322189.1240404-.06280544.1930836-.05437281l7.29.85c.2956165.03438788.5707131.16840928.78.38l1.74 1.77 1.74-1.77c.2092869-.21159072.4843835-.34561212.78-.38l7.29-.85c.0690432-.00843263.1385865.01115092.1930836.05437281.0544972.04322189.0894037.10647784.0969164.17562719.1528873 1.30488671-.7761494 2.48851515-2.08 2.65l-4.75.55-2.35 2.38c-.2424622.2473754-.5736223.3877585-.92.39z" fill="#ffce54" mask="url(#b)"/><ellipse cx="36.92" cy="25.01" fill="#ffce54" mask="url(#b)" rx="8.24" ry="8.36"/><path d="m-4.23 27.59h82.3v20.25h-82.3z" fill="#4758a9" mask="url(#b)"/><g fill="#fff"><path d="m-4.23 40.4c2.74 0 5.49 1.79 8.23 1.79s5.49-1.79 8.23-1.79 5.49 1.79 8.23 1.79 5.49-1.79 8.23-1.79 5.49 1.79 8.23 1.79 5.49-1.79 8.23-1.79 5.49 1.79 8.23 1.79 5.49-1.79 8.23-1.79 5.49 1.79 8.23 1.79 5.49-1.79 8.23-1.79v-3c-2.74 0-5.49 1.79-8.23 1.79s-5.49-1.79-8.23-1.79-5.49 1.79-8.23 1.79-5.49-1.79-8.23-1.79-5.49 1.79-8.23 1.79-5.49-1.79-8.23-1.79-5.49 1.79-8.23 1.79-5.49-1.79-8.23-1.79-5.49 1.79-8.23 1.79-5.49-1.79-8.23-1.79z" mask="url(#b)"/><path d="m-4.23 34.44c2.74 0 5.49 1.79 8.23 1.79s5.49-1.79 8.23-1.79 5.49 1.79 8.23 1.79 5.49-1.79 8.23-1.79 5.49 1.79 8.23 1.79 5.49-1.79 8.23-1.79 5.49 1.79 8.23 1.79 5.49-1.79 8.23-1.79 5.49 1.79 8.23 1.79 5.49-1.79 8.23-1.79v-3c-2.74 0-5.49 1.79-8.23 1.79s-5.49-1.79-8.23-1.79-5.49 1.79-8.23 1.79-5.49-1.79-8.23-1.79-5.49 1.79-8.23 1.79-5.49-1.79-8.23-1.79-5.49 1.79-8.23 1.79-5.49-1.79-8.23-1.79-5.49 1.79-8.23 1.79-5.49-1.79-8.23-1.79z" mask="url(#b)"/><path d="m-4.23 28.48c2.74 0 5.49 1.79 8.23 1.79s5.49-1.79 8.23-1.79 5.49 1.79 8.23 1.79 5.49-1.79 8.23-1.79 5.49 1.79 8.23 1.79 5.49-1.79 8.23-1.79 5.49 1.79 8.23 1.79 5.49-1.79 8.23-1.79 5.49 1.79 8.23 1.79 5.49-1.79 8.23-1.79v-3c-2.74 0-5.49 1.79-8.23 1.79s-5.49-1.79-8.23-1.79-5.49 1.79-8.23 1.79-5.49-1.79-8.23-1.79-5.49 1.79-8.23 1.79-5.49-1.79-8.23-1.79-5.49 1.79-8.23 1.79-5.49-1.79-8.23-1.79-5.49 1.79-8.23 1.79-5.49-1.79-8.23-1.79z" mask="url(#b)"/></g></g></svg>