<svg height="47" viewBox="0 0 71 47" width="71" xmlns="http://www.w3.org/2000/svg"><g fill="none"><path d="m.52 40.62c0 3.512531 2.84746899 6.36 6.36 6.36h57.27c3.512531 0 6.36-2.847469 6.36-6.36v-5.39h-70z" fill="#4758a9"/><path d="m.52 23.48h70v11.75h-70z" fill="#ed5565"/><path d="m.52 11.73h70v11.75h-70z" fill="#fff"/><path d="m64.16 0h-57.27c-3.51253101 0-6.36 2.84746899-6.36 6.36v5.39h70v-5.39c.0000021-1.68851092-.67144-3.30771912-1.866335-4.50073836-1.1948951-1.19301924-2.8151562-1.86191653-4.503665-1.85926164z" fill="#f2d660"/><path d="m41.52 23.48-38.87-21.88c-.16072511.14225289-.31424946.29243976-.46.45-.14.15-.27.31-.39.48-.11.16-.22.32-.32.48v.08c-.09.15-.17.31-.25.48l-.06.11c-.07.15-.13.31-.19.47l-.06.15c0 .15-.09.31-.13.46s0 .12 0 .18-.06.32-.08.48 0 .12 0 .18c-.01206906.22650601-.01206906.45349399 0 .68v34.27c-.01206906.226506-.01206906.453494 0 .68v.18c0 .06 0 .32.08.48s0 .12 0 .18.08.31.13.46l.06.15c.06.16.12.32.19.47l.05.11c.08.16.16.32.25.48v.08c.1.17.21.33.32.48.12.17.25.32.39.48.14666667.16.3.31.46.45z" fill="#52c162"/><g fill="#fff"><path d="m12.5 17.14c-.21.15-.33.07-.28-.19l.23-1c.0518097-.2884325-.0416878-.5838845-.25-.79l-.69-.61c-.2-.17-.15-.32.11-.33h1c.2777885-.0261237.5135355-.2147213.6-.48l.3-1.06c.07-.26.21-.26.29 0l.36 1c.1036022.262086.3488125.4411285.63.46h1c.26 0 .31.15.12.32l-.75.67c-.2005397.2060548-.2833134.4995252-.22.78l.24.85c.07.26 0 .35-.27.21l-.8-.51c-.2426462-.1476159-.5473538-.1476159-.79 0z"/><path d="m12.5 22.65c-.21.15-.33.07-.28-.19l.23-1c.0518097-.2884325-.0416878-.5838845-.25-.79l-.69-.61c-.2-.17-.15-.32.11-.33h1c.2777885-.0261237.5135355-.2147213.6-.48l.3-1.06c.07-.26.21-.26.29 0l.36 1c.1036022.262086.3488125.4411285.63.46h1c.26 0 .31.15.12.32l-.75.67c-.2005397.2060548-.2833134.4995252-.22.78l.24.85c.07.26 0 .35-.27.21l-.8-.51c-.2426462-.1476159-.5473538-.1476159-.79 0z"/><path d="m12.5 28.16c-.21.15-.33.07-.28-.19l.23-1c.0518097-.2884325-.0416878-.5838845-.25-.79l-.69-.61c-.2-.17-.15-.32.11-.33h1c.2777885-.0261237.5135355-.2147213.6-.48l.3-1.06c.07-.26.21-.26.29 0l.36 1c.1036022.262086.3488125.4411285.63.46h1c.26 0 .31.15.12.32l-.75.67c-.2005397.2060548-.2833134.4995252-.22.78l.24.85c.07.26 0 .35-.27.21l-.8-.51c-.2426462-.1476159-.5473538-.1476159-.79 0z"/><path d="m12.5 33.68c-.21.15-.33.07-.28-.19l.23-1c.0518097-.2884325-.0416878-.5838845-.25-.79l-.69-.61c-.2-.17-.15-.32.11-.33h1c.2777885-.0261237.5135355-.2147213.6-.48l.3-1.06c.07-.26.21-.26.29 0l.36 1c.1036022.262086.3488125.4411285.63.46h1c.26 0 .31.15.12.32l-.75.67c-.2005397.2060548-.2833134.4995252-.22.78l.24.85c.07.26 0 .35-.27.21l-.8-.51c-.2426462-.1476159-.5473538-.1476159-.79 0z"/><path d="m11.25 33.93c-.1513203.284942-.3323252.5530973-.54.8-1.83 2.1-2.91-1.19-3.54-7.34-.12-1.19-.18-2.39-.19-3.58s0-2.4.12-3.61c.5-6.27 1.51-9.95 3.38-8.22.2152256.2052722.4034087.4371406.56.69.06.06.13-.07.15-.28.0164252-.1485603-.0006604-.298913-.05-.44-.3184908-.9844814-.8512729-1.8861127-1.56-2.64-2.35-2.17-4.77 2.45-5.4 10.32-.12 1.46-.17 2.93-.15 4.37s.09 2.9.24 4.33c.8 7.72 3.31 11.85 5.61 9.21.6822734-.8794889 1.1912935-1.8805619 1.5-2.95.0330332-.1515542.0330332-.3084458 0-.46 0-.13-.07-.27-.13-.2z"/></g></g></svg>