<svg height="48" viewBox="0 0 71 48" width="71" xmlns="http://www.w3.org/2000/svg"><g fill="none"><rect fill="#ed5565" height="47" rx="6.36" width="70" x=".39" y=".7"/><path d="m64.73.74c-.2331597-.01273013-.4668403-.01273013-.7 0h-57.28c-3.51253101 0-6.36 2.84746899-6.36 6.36v34.27l28-11.64z" fill="#57a863"/><path d="m70.39 7.06c-.005193-3.36889265-2.6365044-6.14931174-6-6.34l-64 40.72c.0546202 3.4734169 2.8861537 6.2604294 6.36 6.26h.57l63.07-40.1z" fill="#434a54"/><path d="m70.28 5.89-65.34 41.54c.58716255.1767849 1.19680543.2677261 1.81.27h3.36l60.28-38.32v-2.31c.0000237-.39589429-.0368018-.79093147-.11-1.18z" fill="#ffce54"/><path d="m.63 43.06 65.85-41.87c-.7791845-.32553249-1.6155503-.49212569-2.46-.49h-2.36l-61.28 39v1.67c.00694992.572013.09104171 1.1404735.25 1.69z" fill="#ffce54"/><g fill="#fff"><path d="m30.81 30.6c-.13.27-.3.26-.38 0l-.3-1.08c-.1070279-.3125647-.3615282-.5520944-.68-.64l-1-.21c-.29-.06-.32-.23-.07-.39l.95-.58c.2663531-.1813692.3998654-.5033695.34-.82l-.28-1.21c-.07-.29.06-.37.29-.18l.93.82c.2515762.1968368.5937869.2318356.88.09l1-.55c.26-.15.39 0 .29.25l-.37 1.09c-.09249.3160735-.0128239.6574997.21.9l.7.7c.22.21.14.38-.15.36h-1.07c-.3221073.0087894-.613653.1929235-.76.48z"/><path d="m40 24.65c-.13.27-.3.26-.38 0l-.31-1.08c-.1070279-.3125647-.3615282-.5520944-.68-.64l-1-.21c-.29-.06-.31-.23-.06-.39l.94-.58c.2647237-.1822344.3946954-.5051944.33-.82l-.27-1.21c-.07-.29.05-.37.28-.18l.94.82c.2515762.1968368.5937869.2318356.88.09l1-.55c.26-.14.4 0 .3.25l-.38 1.09c-.09249.3160735-.0128239.6574997.21.9l.7.7c.22.21.14.38-.15.36h-1.07c-.3221073.0087894-.613653.1929235-.76.48z"/></g></g></svg>