<svg height="48" viewBox="0 0 71 48" width="71" xmlns="http://www.w3.org/2000/svg"><g fill="none"><rect fill="#fff" height="47" rx="6.64" width="70" x=".01" y=".1"/><g fill="#434a54" transform="translate(10 4)"><path d="m.39 10.36 6.51-9.76 1.63 1.08-6.51 9.76z"/><path d="m41.08 1.68 1.63-1.08 3 4.47-1.63 1.08z"/><path d="m2.83 12c2.16666667-3.25333333 4.33666667-6.50666667 6.51-9.76l1.62 1.08-6.51 9.76z"/><path d="m38.63 3.33c.53-.39 1.09-.73 1.63-1.1 2.1666667 3.25333333 4.3366667 6.50666667 6.51 9.76l-1.63 1.08c-2.14-3.25-4.32-6.51-6.51-9.74z"/><path d="m11.78 3.85 1.63 1.08-6.51 9.76-1.63-1.08z"/><path d="m36.19 4.94 1.63-1.08 3 4.48-1.62 1.08c-1.02-1.5-2.01-2.99-3.01-4.48z"/><path d="m44.6 7c.54-.36 1.07-.72 1.61-1.07l3 4.45-1.63 1.08z"/><path d="m39.72 10.22 1.63-1.08 3 4.47-1.63 1.09z"/><path d="m5.27 25.55 1.63-1.08 6.51 9.76-1.63 1.09z"/><path d="m42.7 24.46 1.63 1.08-3 4.47-1.63-1.08z"/><path d="m2.83 27.17 1.63-1.08 3 4.47-1.63 1.08z"/><path d="m45.14 26.09 1.63 1.08-3 4.47-1.63-1.09z"/><path d="m.39 28.8 1.63-1.08 6.51 9.76-1.63 1.09z"/><path d="m47.58 27.72c.55.35 1.09.72 1.63 1.08l-3 4.47-1.63-1.09z"/><path d="m39.18 29.75 1.63 1.08-3 4.47-1.63-1.08z"/><path d="m6.36 32.47 1.62-1.09c1 1.48 2 3 3 4.47l-1.63 1.09z"/><path d="m38.63 35.85c1-1.49 2-3 3-4.47.54.37 1.09.72 1.62 1.09l-3 4.47z"/><path d="m44.05 33c.55.35 1.09.72 1.63 1.08l-3 4.47-1.63-1.09z"/></g><path d="m4.86 2.46c3.5712138-2.099871 7.9852527-2.16020989 11.6125309-.15874061s5.9297826 5.7678805 6.0574691 9.90874061c.0779181 2.3007738-.5275605 4.5730581-1.74 6.53 1.2823152-2.2490077.9398437-5.072533-.8429524-6.9497667-1.7827961-1.87723356-4.584903-2.3648599-6.8970476-1.2002333-.9079695.4604057-1.6800744 1.1497851-2.24 2-1.43934271 2.1681392-4.13441032 3.1297646-6.62113826 2.3624842-2.48672793-.7672803-4.1714099-3.0802783-4.13886174-5.6824842.01853267-.89026325.22647973-1.76636804.61-2.57 1.00810062-1.75403696 2.45559707-3.2153191 4.2-4.24z" fill="#ec5565" transform="translate(24 11)"/><path d="m.07 6.2c.05630289-1.94910357.60685621-3.85195347 1.6-5.53-.38352027.80363196-.59146733 1.67973675-.61 2.57-.03254816 2.60220591 1.65213381 4.91520386 4.13886174 5.68248423 2.48672794.76728037 5.18179556-.19434503 6.62113826-2.36248423 1.4139518-2.09671905 4.0118262-3.0521707 6.4473546-2.37122147 2.4355283.68094922 4.1611625 2.84521033 4.2826454 5.37122147.0572781 1.1236988-.2063156 2.2405036-.76 3.22-1.2440534 2.0345246-3.0839558 3.6370203-5.27 4.59-3.6917127 1.6194222-7.95612948 1.2314509-11.29498326-1.0276034-3.33885379-2.2590542-5.28512847-6.0732104-5.15501674-10.1023966z" fill="#4658a9" transform="translate(23 17)"/></g></svg>