<svg height="48" viewBox="0 0 71 48" width="71" xmlns="http://www.w3.org/2000/svg"><g fill="none"><path d="m.15 16.48h70v15.67h-70z" fill="#ed5565"/><path d="m63.78.81h-57.27c-3.51253101 0-6.36 2.84746899-6.36 6.36v9.3h70v-9.3c.0000021-1.68851092-.67144-3.30771912-1.866335-4.50073836-1.1948951-1.19301924-2.8151562-1.86191653-4.503665-1.85926164z" fill="#57a863"/><path d="m.15 41.45c0 3.512531 2.84746899 6.36 6.36 6.36h57.27c3.512531 0 6.36-2.847469 6.36-6.36v-9.3h-70z" fill="#fff"/><path d="m29.15 16.48-26.53-14.33c-1.55030545 1.19660998-2.46174016 3.04161949-2.47 5v34.27c-.00106594 1.669635.6565275 3.2722944 1.83 4.46l27.17-13.76z" fill="#434a54"/></g></svg>