<svg height="48" viewBox="0 0 71 48" width="71" xmlns="http://www.w3.org/2000/svg"><g fill="none" fill-rule="evenodd"><g fill-rule="nonzero"><path d="m64 47.4h-56.73c-1.76103749 0-3.44994747-.6995694-4.69518903-1.944811-1.24524155-1.2452415-1.94481097-2.9341515-1.94481097-4.695189v-16.83l24.11-23.53h39.26c3.6671707 0 6.64 2.97282926 6.64 6.64v33.72c0 3.6671707-2.9728293 6.64-6.64 6.64z" fill="#4658a9"/><path d="m54 18.31v6.27c0 5.43-2.57 7.3-6 8.77-3.44-1.48-6-3.34-6-8.77v-6.27zm0-1h-12.06c-.5522847 0-1 .4477153-1 1v6.27c0 6.31 3.43 8.31 6.65 9.69.2521726.1084252.5378274.1084252.79 0 3.2-1.38 6.62-3.37 6.62-9.69v-6.27c0-.5522847-.4477153-1-1-1z" fill="#fff"/><g transform="translate(43 10)"><g fill="#fff" stroke="#fff" transform="translate(1 6)"><g stroke-linecap="round" stroke-linejoin="round"><path d="m2 2.6c-.37437016.15405935-.80469243.06720531-1.09-.22-.11767768-.11850316-.17856311-.28198088-.16707274-.44859122.01149036-.16661034.09424128-.32018211.22707274-.42140878.24588414-.21626746.58207447-.29844732.9-.22.35.1 1.29 1 1.06 1-.31763658.08302691-.6285263.18999972-.93.32z"/><path d="m3 1.06c.21177078-.13421548.45950007-.20050923.71-.19.39 0 .67 0 .77.26.06748267.37032904.23326624.71571148.48 1-.40650635.13013018-.84349365.13013018-1.25 0-.39-.19-.48-.93-.71-1.06z"/><path d="m5.8 1.09c.13-.1.29-.1.71-.06s.58.06.67.35 0 .74.19 1c-.36061828.08830285-.74151188.03080947-1.06-.16-.35-.26-.32-1-.51-1.16z"/></g><path d="m7.72 1.28c-.29-.06-.48-.1-.61 0 .16.19 0 1 .35 1.22s.8.19.93-.16.16-.8-.67-1.06z"/><path d="m4.41 1c.1-.1.29-.13.67-.13s.67.06.8.32.1.74.32 1c-.39922157.13783877-.83623017.11634654-1.22-.06-.35-.22-.39-1-.58-1.12z"/><path d="m1.68 1.25c0-.16.22-.19.8-.22s.61 0 .8.39c.1.22.22.61.48.74-.71.16-.93.26-1.32 0-.27855107-.17769133-.50874133-.42162429-.67-.71 0-.1 0-.19-.1-.22z"/></g><path d="m9.47 3c-.59125462-.06038931-1.18797987.0361905-1.73.28.56-.57 1.22-1.23 1.64-1.63-.889305.3449943-1.69412603.87699465-2.36 1.56.60551626-.83651183 1.27413336-1.62548001 2-2.36-.92762969.38381144-1.73070005 1.0172678-2.32 1.83.25533636-.74351476.63766656-1.43712266 1.13-2.05-.49362777.21923075-.92116861.56402174-1.24 1 .12643348-.45018671.28346552-.89121289.47-1.32-.67189864.59538624-1.20741795 1.32874071-1.57 2.15l.69.42v.09l.05-.09.06-.21.08-.14.19.29-.07.09.12.34-.05.08.06-.07.14.39.06-.1v.71l.05-.06-.05.28c.80675523-.61943426 1.69946713-1.11800544 2.65-1.48zm-3.19-.37v-.09z" fill="#f6d660"/><path d="m3.39.47c.40421419.58631232.73974641 1.21711289 1 1.88-.35312318-.50177021-.79752403-.93260156-1.31-1.27l.62 1.21c-.4797695-.45033999-1.07526314-.75847333-1.72-.89.59958167.39036095 1.12451306.88481246 1.55 1.46-.52303614-.34795544-1.11777381-.57354559-1.74-.66.63672856.3677205 1.22183699.81832125 1.74 1.34-.5099413-.36512886-1.09358335-.614286-1.71-.73.76890113.51469412 1.5007018 1.08275858 2.19 1.7v-.29l.08.06-.08-.07v-.2l.1-.16.06.14.15-.46.11.18.21-.36c0 .14.08.27.11.42l.22-.33.19-.28c-.20282454-1.0987801-.84117236-2.06892454-1.77-2.69z" fill="#f2d660"/><path d="m6.73 3.26c.00111197-.01998454.00111197-.04001546 0-.06-.00599876-.1995944-.08831816-.38928694-.23-.53-.01361694-.19830826-.1075127-.38248839-.26-.51v-.08c.0597004.00847963.1202996.00847963.18 0-.16-.1-.26-.42-.45-.42.17972958-.0514077.37027042-.0514077.55 0-.09523627-.14392201-.24871199-.2389308-.42-.26.14621531-.17497629.31817959-.32670948.51-.45-.22683522.01135199-.44706315.08017322-.64.2l-.06.06c.28-.26.24-.7.58-.76-.27180051-.0009986-.53072795.11570109-.71.32.1-.19.1-.45.22-.51-.26588856.11142819-.48984958.3038947-.64.55-.01464889-.1798016-.06931587-.3540526-.16-.51-.06.26-.29.48-.13.84-.25581263-.14014402-.57437645-.08636052-.77.13.25417371-.04334397.51159652.05655146.67.26-.19430603-.04046354-.38801031.07145449-.45.26.1745914-.07050589.36176438-.10453734.55-.1-.12428895.10698175-.22332928.24017392-.29.39l.1-.06c-.07214415.10384289-.11686312.22424012-.13.35-.07559565.08643317-.13033542.18907025-.16.3-.15 0-.29.3-.29.6-.06476352.18790965-.06476352.39209035 0 .58.06.26.26.42.39.39.05397476-.03000675.09361524-.08045826.11-.14.03922718.01111986.08077282.01111986.12 0 .08455731-.0061446.16177709-.05027019.21-.12.05303898.1396595.18119704.23674894.33.25.15559598-.01768396.28752932-.12245455.34-.27.04253846.07852523.12115422.13093574.21.14.12 0 .23-.07.3-.23 0 .17.06.31.15.33s.32-.13.35-.42c.02763862-.17743574-.00030618-.35907695-.08-.52z" fill="#f6d660"/><g transform="translate(0 3)"><path d="m2.56 1.33c-.2137068.0031933-.41682939-.09282828-.55-.26-.27492296-.31343764-.73659719-.38120634-1.09-.16-.10155651.04790056-.2092397.08155156-.32.1-.16 0-.35.16-.29.48.13-.1.16 0 .26 0s0 0 0 .1c.10567545.27661179.37396786.45680819.67.45.21125135-.0192627.42109186.04947816.58.19.1.1 0 .06.1.22s.13.13 0 .26c-.14866604.12349129-.23466881.30673415-.23466881.5s.08600277.37650871.23466881.5c.80623161.60185367 1.92605078.54733064 2.67-.13.91843697-.65722099 2.14674181-.68107157 3.09-.06.11657665.21054329.20404142.43593328.26.67.06512544.16818796.24465662.2622281.42.22.21719795.00444528.42869445.07032124.61.19.16.1.39.06.32-.22-.13-.9-.67-1-.74-1.45.32 0 .55 0 .67-.1s.22-.35.35-.42.1-.13 0-.1c-.17662398.06050071-.36448561.08099471-.55.06-1.48-.16-5.62-1.29-6.43-1.06z" fill="#51c161"/><path d="m3 1.2c.26663896-.31673361.68295264-.46568987 1.09-.39h.1c.27343094-.16184748.60750463-.18411905.9-.06h.13c.47600867-.11492338.9784464-.0202612 1.38.26l.1.06c.77908744-.03800811 1.52699401.30976844 2 .93.08130734.1047053.19312266.18157834.32.22.19 0 .22.13.06.22-.25808877.16153323-.4850323.36815346-.67.61-.65992783.56195423-1.5159694.83890886-2.38.77-.81325392.07117485-1.62682583-.13309862-2.31-.58-.21298009-.16486791-.4368197-.31520795-.67-.45-.19-.06-.45-.32-.35-.58.01193774-.31463652-.06425927-.62635155-.22-.9.13993268-.0967812.31306091-.13284958.48-.1h.06z" fill="#51c161"/><path d="m1.34 1.49c-.06 0-.1-.19-.22-.19s-.13 0-.16 0c.00058618.05872519.02182782.11536956.06.16 0 .1.19 0 .32 0z" fill="#434a54"/></g></g><path d="m54 18.31v6.27c0 5.43-2.57 7.3-6 8.77-3.44-1.48-6-3.34-6-8.77v-6.27z" fill="#fff"/><path d="m48 23.61c.4337727-.0837771.8275997-.3088211 1.12-.64.241772-.2556576.5781271-.4005115.93-.4005115s.688228.1448539.93.4005115c.1896358.2402988.4788869.3805042.785.3805042s.5953642-.1402054.785-.3805042c.3881234-.3672995.9193786-.5431633 1.45-.48v-4.18h-12.06v4.18c.5306214-.0631633 1.0618766.1127005 1.45.48.1896358.2402988.4788869.3805042.785.3805042s.5953642-.1402054.785-.3805042c.2487716-.2578759.5916883-.4035394.95-.4035394s.7012284.1456635.95.4035394c.2808179.3451154.6801007.573277 1.12.64z" fill="#ec5565"/><g fill="#4658a9"><path d="m48 26.82c.4750523-.0943656.9312143-.2666934 1.35-.51.5311511-.2707385 1.1711937-.2082953 1.64.16.5610107.3058991 1.2389893.3058991 1.8 0 .3108949-.2936033.7348779-.4361493 1.16-.39.0534346-.501448.0734787-1.0058932.06-1.51v-.39c-.45-.1-.67 0-1.16.45s-1 .32-1.74.06-1.35-.8-2 0c-.2777019.3184687-.6688429.5158334-1.09.55-.4232771-.0264919-.8172119-.2252663-1.09-.55-.71-.8-1.35-.29-2 0s-1.29.35-1.77-.06-.67-.55-1.16-.45v.39c-.0007786.5050132.0326311 1.0094999.1 1.51.4126764-.0423585.8228875.1004828 1.12.39.5610107.3058991 1.2389893.3058991 1.8 0 .45-.19 1-.58 1.67-.16.4162143.2486731.8733285.4213606 1.35.51z"/><path d="m48 28.21c.5544732-.0305501 1.0932384-.1952682 1.57-.48.5563194-.2968813 1.2339721-.2462521 1.74.13.5002505.279595 1.1097495.279595 1.61 0 .19-.13.35-.39.77-.29-.1698746.736027-.453266 1.4411317-.84 2.09-.5517662.1807934-1.1528586.1340018-1.67-.13-.5985265-.3736484-1.3345647-.4546126-2-.22-.7327544.5120061-1.7072456.5120061-2.44 0-.6654353-.2346126-1.4014735-.1536484-2 .22-.5171414.2640018-1.1182338.3107934-1.67.13-.386734-.6488683-.6701254-1.353973-.84-2.09.42-.1.58.16.77.29.48684.2763924 1.08316.2763924 1.57 0 .5179408-.3745712 1.2028906-.4248783 1.77-.13.4767616.2847318 1.0155268.4494499 1.57.48z"/><path d="m48 33.35c1.243416-.4843003 2.4039504-1.1590296 3.44-2-.26-.1-.42 0-.64-.19-.4807994-.2060803-1.0312928-.1688848-1.48.1-.8162623.473663-1.8237377.473663-2.64 0-.4487072-.2688848-.9992006-.3060803-1.48-.1-.22.16-.39.1-.64.19 1.0314262.8476458 2.1930703 1.5230203 3.44 2z"/></g></g><g transform="translate(43 18)"><g stroke="#f2d660" stroke-linecap="round" stroke-linejoin="round" stroke-width=".09"><path d="m4.2 1.94v.27c0 .06.06.18.15.24h.21c.65 0 1.43-.27 2.08-.27s1 .21 1.37.21c.18729079.01344869.3549576-.11552577.39-.3 0-.15-.24-.24-.74-.24-.71 0-1.1.18-1.69.18-.89 0-1-.33-1-.48s.15-.36.62-.36c.11731968.01154116.23478394-.02049455.33-.09.0693527-.11911853.17425947-.21353462.3-.27.21-.12.62 0 .83-.15 0 .12-.18.3-.33.36.3-.09.62-.09.68.15-.15413998-.06124062-.32586002-.06124062-.48 0l-.3.09c.12 0 .18.21.36.21-.23877873.13551734-.53122127.13551734-.77 0-.15390524-.06131165-.31534871-.10167252-.48-.12-.3 0-.48.06-.48.18s.18.24.71.24.83-.15 1.63-.15c-.06-.09 0-.18-.09-.27.28070148-.0257865.5564997.08602359.74.3 0-.21.15-.39.09-.56.17899702.04123338.31876662.18100298.36.36 0-.09.12-.09.12-.18.17471276.09192242.27128972.28507634.24.48.09-.15.18-.09.24-.27.06631003.21497119-.00498303.448654-.18.59.19944585-.13219614.46637355-.09344857.62.09-.12667949-.0109942-.25339773.02068536-.36.09-.43199146.22186142-.91503043.32536977-1.4.3-.48 0-.54-.12-.83-.12.18 0 .54.39.86.39.14934508.01982302.30065492.01982302.45 0 .12332673-.02238683.25060018-.00117459.36.06.10109695.10570142.24412812.1607134.39.15-.01470187.0987546-.08465574.18036745-.18.21.15.09.06.15.21.27-.06 0-.12.06-.21 0 .09.09.09.21.18.27s-.12 0-.18 0 0 .27.09.33-.09.27-.24.15c.01308314.04248933.00160308.08873001-.02983346.12016654-.03143653.03143654-.07767721.0429166-.12016654.02983346-.09 0-.15-.12-.12-.15s0 0 0-.06c-.0542388.07647547-.15615378.10195422-.24.06 0 0-.06-.06-.06-.09-.06531107.03228058-.14332935.02437387-.20083609-.0203536s-.08437467-.11839891-.06916391-.1896464c0-.09.21-.12.27-.09s.12.06.18 0c.05709647-.02772287.09240757-.0865747.09-.15 0-.09-.09-.36-.48-.33-.51453139.00992605-1.0274344-.06093555-1.52-.21l-.09-.06c0 .12-.12.18-.12.3-.01387755.15456653.08867714.29557923.24.33-.02954496.05539679-.08721697.09-.15.09s-.12045504-.03460321-.15-.09c0 .09-.12.15-.12.27l-.09-.15c-.09.21-.33.33-.45.27-.04744919.05914282-.11917587.09355512-.195.09355512s-.14755081-.0344123-.195-.09355512c-.07941823.06172063-.19058177.06172063-.27 0 0 .09-.06.06-.09.18s-.12.09-.18.06c-.03013506-.02657663-.0473987-.06481992-.0473987-.105s.01726364-.07842337.0473987-.105c-.06832816.06111456-.17167184.06111456-.24 0 0-.06 0-.15.06-.18h.06c-.06 0-.15 0-.21 0-.0436826-.0520493-.0436826-.1279507 0-.18 0 0 .12-.09.18 0 0-.06 0-.12.06-.12.08425777-.0378103.18344799-.01301274.24.06.06.09.12.09.3.06.21094662-.04593997.40488728-.14983675.56-.3-.51-.09-.21-.42-.06-.54-.13638156-.04501473-.28361844-.04501473-.42 0-.62.33-1.28.71-1.69.59.00600814.0637912.02653179.12536215.06.18-.09 0-.27 0-.33-.09-.04883124.1045807-.04883124.2254193 0 .33-.10094797-.06790524-.21246177-.11859333-.33-.15.06.06 0 .18 0 .27-.09-.09-.24-.15-.3-.09-.07405116.06439479-.17564527.08697126-.27.06-.0576372.08513407-.14213288.14850583-.24.18 0-.06 0-.15 0-.18-.04437806.1162677-.12973709.21229661-.24.27.01456781-.06924207.01456781-.14075793 0-.21 0 .12-.24.18-.27.27.0130594-.07946704.0130594-.16053296 0-.24-.06662677.10850264-.17524607.18453615-.3.21.02852572-.05660951.02852572-.12339049 0-.18 0 .12-.21.18-.36.15s-.12.15-.27.06-.15-.12-.09-.18c-.12 0-.24-.12-.18-.21s0-.06 0-.09c-.04202974-.03216672-.06668011-.08207367-.06668011-.135s.02465037-.10283328.06668011-.135h.18c0-.24.21-.24.3-.06.08552073.13210219.23263722.21131876.39.21h.15c.26645248-.0883807.51648235-.2201532.74-.39.01277798-.06941687.01277798-.14058313 0-.21-.11562165.04450167-.21861115.11659433-.3.21v-.09h-.3s.06-.18.12-.21c-.1384215.02973149-.2815785.02973149-.42 0 .06-.06.06-.15.09-.24s-.21 0-.33 0 .06-.21.15-.24c-.14284308.02327394-.28938735.00233904-.42-.06.12 0 .18-.15.27-.15-.24 0-.3-.12-.42-.18.09 0 .15-.06.24-.06-.09 0-.24-.18-.18-.27s-.06.09-.12.12c-.09978901.02372001-.20440079-.01115059-.27-.09-.03484708-.05006572-.04494103-.11329734-.02741305-.17172392.01752797-.05842658.06076142-.10565998.11741305-.12827608-.05544421-.00307771-.10382888-.03863356-.12332661-.09062752-.01949774-.05199395-.00642272-.11059719.03332661-.14937248 0-.06.15-.15.21-.06l.09.12c-.01655785-.08923844-.01655785-.18076156 0-.27 0-.09.09-.09.18-.12.08996698.01046107.15593398.08962147.15.18.00856038.09216597.0287197.1828829.06.27 0 0 0-.09 0-.12s.15-.09.24-.06.12.21 0 .3c-.05717143.05832653-.05717143.15167347 0 .21.18924502.31610425.50029057.54034639.86.62.00494615-.12537734.05878988-.24383356.15-.33.00576078-.07330708.02616296-.14471471.06-.21 0-.18.12-.27.24-.21s-.06-.06-.06-.09-.18-.24-.12-.36.24-.09.3 0c0-.18.18-.33.18-.42 0 .09.09.21.06.3 0-.12.24-.27.39-.33-.06.09.12.24.09.33.10611015-.15946958.28875825-.25079363.48-.24-.04772245.07040071-.0689783.15542411-.06.24.1128727.00662365.22283263-.03736032.3-.12-.00148162.11140735-.04424024.2183039-.12.3.07886098-.01909153.16113902-.01909153.24 0-.09.09-.06.18-.15.24.12-.06.27-.06.3.06s0 .24-.09.33-.12.09-.15.09z" fill="#f2d660" fill-rule="nonzero"/><path d="m2.36 2.3c-.16240226.08282333-.27432461.23951462-.3.42"/><path d="m2.33 2.5c-.3.18-.42.33-.36.65"/><path d="m2.48 3.4c.20197304-.05391935.36792123-.19774111.45-.39"/><path d="m2.83 3.13c-.06.12 0 .33-.09.42.16240226-.08282333.27432461-.23951462.3-.42"/><path d="m2.89 3.46c.17268112-.10691507.30871387-.26387594.39-.45 0 .09 0 .24-.06.33.12206357-.09888889.2067287-.23646972.24-.39v.12c.07434444-.05764744.11848871-.14593598.12-.24"/><path d="m3.61 2.92v.15c.10907575-.08584568.16584931-.22210221.15-.36"/><path d="m3.73 2.89c.18-.12.21-.3.21-.56"/><path d="m3.93 2.62c.12-.09.15-.15.15-.42"/><path d="m3.7 1.4c-.03268683-.00313518-.06506512.00849658-.08828427.03171573s-.03485091.05559744-.03171573.08828427c0 .06-.09.15-.09.24s-.09.15-.18.12-.09-.06-.09-.15.15-.15.15-.27.06-.15.09-.15c-.06839838.04906172-.15689449.06040941-.23545863.03019243-.07856414-.03021697-.13664785-.09794152-.15454137-.18019243"/><path d="m4 1.49c-.06 0-.12-.06-.21 0s-.12 0-.15 0"/><path d="m3.55 1.64c.10352272.05338542.22647728.05338542.33 0-.05798988.02485275-.12514711-.00201018-.14999991-.06000004s.00201007-.12514711.05999991-.14999996"/><path d="m3.28 1.35c-.12 0-.21.09-.18.18s.15.09.24 0"/><path d="m3.07 2.83c.01502492-.10413477.10479242-.18107834.21-.18.11003891-.00314186.20617292-.07524237.24-.18.06 0 .09-.15.12-.21s.09 0 .12-.12c.03558261.01595529.0764483.01509446.11132744-.00234511.03487915-.01743958.06008723-.04961563.06867256-.08765489"/><path d="m2.71 1.85s-.06.09-.12.12c.02838975.08486027.00498402.17848318-.06.24.02952667.06688634.02952667.14311366 0 .21v.15"/><path d="m2.83 1.26c-.06.15 0 .33.09.36"/><path d="m2.89 1.73c0 .15 0 .36-.06.45-.03732789.06205651-.04172508.13850856-.01175825.20443557.02996682.06592701.09045898.1128839.16175825.12556443.27.06.42 0 .56-.42"/><path d="m4 3.25c0 .04970563-.04029437.09-.09.09"/><path d="m4.2 3.19c-.01114881.06770724-.04252349.13045661-.09.18"/><path d="m4.41 3.13c0 .06 0 .15-.06.18"/><path d="m2.6 1.29s.06.06.09.12-.18.09-.12.18"/><path d="m2.51 1.79-.12.09"/><path d="m2.42 2.06h-.09"/><path d="m1 1.52s0 0 0-.06"/><path d="m.72 1.43s0 0-.06 0"/><path d="m.75 1.85h.06"/><path d="m.63 1.67c-.04916583-.0480096-.11209282-.07947309-.18-.09"/><path d="m2.27 2.77c-.1786749.12780348-.29777714.32269806-.33.54"/><path d="m2.48 2.92c-.05499904.10944814-.13775484.20254842-.24.27"/><path d="m1.32 3.81c-.20002789.06251949-.4177094.02931384-.59-.09l-.09-.06"/><path d="m2.21 3.4c0 .12-.06.27-.12.3.24592541-.09131503.42737138-.303002.48-.56"/><path d="m.49 4h.24"/><path d="m5.66 3c.06287372.02387093.12317902.05402358.18.09.05968982-.08315136.14346154-.14598016.24-.18"/><path d="m3.55 3.6c-.0311721-.14876529.06203385-.29523178.21-.33"/><path d="m2.39 4.11c0-.06 0-.15.06-.21"/><path d="m1.08 4.2c0 .06-.09.12-.09.18"/><path d="m.63 4.26c.07245477-.0328118.13466049-.08464989.18-.15"/><path d="m4.68 3.84c-.06 0-.09 0-.12 0"/><path d="m4.65 4c-.01952853.00614144-.04047147.00614144-.06 0"/><path d="m4.8 4.14s-.06.06-.09.06"/><path d="m5.66 4.2c.06 0 .09-.09.12-.21"/><path d="m5.27 4.17c.09352878-.03944867.17594122-.101258.24-.18"/><path d="m6.1 3.93c-.0144156-.05913413-.0144156-.12086587 0-.18"/><path d="m8.3 4.2c-.03352774-.02447479-.05335145-.06348946-.05335145-.105s.01982371-.08052521.05335145-.105l.15-.09"/><path d="m6.49 3.16c-.48-.21-.45-.48-.83-.45"/><path d="m8.6 4.08v.15"/><path d="m8.87 4.08c-.01456781.06924207-.01456781.14075793 0 .21"/><path d="m6.58 1.29h-.24"/><path d="m4.08 2.3c0 .06.09.18.33.18-.01952853.00614144-.04047147.00614144-.06 0"/><path d="m4.2 1.94c-.06-.06 0-.18.12-.24-.06941687.01277798-.14058313.01277798-.21 0-.06.18-.24.27-.36.15 0 .12-.18.27-.3.24-.09930833-.03325568-.15298046-.14059993-.12-.24-.04744919.05914282-.11917587.09355512-.195.09355512s-.14755081-.0344123-.195-.09355512c-.01781224-.13306391.00301536-.2684433.06-.39"/></g><g fill="#f2d660" fill-rule="nonzero"><path d="m6.1 3.07c-.09.06-.18 0-.27.09s0 .09.09.09 0 .12.12.12c-.06.09.12.12.09.24.07769355-.07926858.10122921-.19694686.06-.3 0-.09-.18-.15-.09-.24z"/><path d="m.46 1.4c.0381979-.02113426.06190525-.06134526.06190525-.105s-.02370735-.08386574-.06190525-.105c-.13986978-.03384241-.28554192.02685432-.36.15h.21c.03 0 .09.12.18 0z"/><path d="m.6.87c.21 0 .27 0 .3.12.01268845.03187856.00977513.06785201-.00787769.09727339-.01765282.02942137-.04802313.04892062-.08212231.05272661-.09 0-.18-.06-.15-.09.02064869-.03084022.02586494-.06949951.0141283-.10470943-.01173665-.03520993-.03910521-.06300761-.0741283-.07529057z"/><path d="m1.2 1.35c.15 0 .21-.06.12-.18s-.12-.15-.27-.12c.15.09 0 .24.15.3z"/><path d="m.1 1.85c.05406715.11140489.18401697.16338482.3.12.03803926-.00858533.07021531-.03379341.08765489-.06867256.01743957-.03487914.0183004-.07574483.00234511-.11132744-.06-.09-.15-.12-.18 0-.01283982.04222599-.04622652.07505348-.08866334.08717829-.04243683.01212481-.08812686.00189066-.12133666-.02717829z"/><path d="m.54 3.66c-.06-.12-.24-.12-.39 0 .07552299-.02960342.16151625-.00503392.21.06.0240394.04258117.07151143.06631718.12.06 0 0 .09-.06.06-.12z"/><path d="m.78 3.49c0-.15-.21-.18-.33-.12.06 0 .15.06.15.12.02258842.04805308.06754428.08176998.12.09.06-.04.09-.06.06-.09z"/><path d="m.49 4c-.18 0-.27.18-.27.33.01169131-.04391398.04047796-.081319.07993408-.10386535.03945613-.02254636.08629676-.02835693.13006592-.01613465.09 0 .12 0 .12-.09s0-.09-.06-.12z"/><path d="m.51 4.53c.06 0 .12 0 .15-.12s.12-.06.15 0 .06.15 0 .21-.21.06-.27-.06z"/><path d="m4.65 3.63c-.1015175-.06109254-.2284825-.06109254-.33 0 .03578493-.01259146.07514772-.01012191.10907831.00684339.03393058.01696529.0595239.04697379.07092169.08315661 0 .03313708.02686292.06.06.06s.06-.02686292.06-.06c0 0 .06-.06.03-.09z"/><path d="m4.38 3.84c-.12-.06-.27.09-.3.21.06085413-.0479677.1332964-.07901439.21-.09.06 0 .12 0 .12-.06s.03-.06-.03-.06z"/><path d="m4.53 4.08c-.11660409.0226385-.20304026.12142269-.21.24.01096636-.02864743.03339653-.05141458.06187725-.06280687.02848073-.01139229.06042475-.01037481.08812275.00280687.06 0 .15 0 .15-.09.00334657-.02474508-.00505303-.04963357-.02270973-.06729027s-.04254519-.0260563-.06729027-.02270973z"/><path d="m4.8 4.32c-.03146986-.01819768-.07033642-.01788401-.10150847.00081922s-.04973896.05284965-.04849153.08918078v.21c.05250395-.05023952.11343123-.09085771.18-.12.04825558-.0502975.04825558-.1297025 0-.18z"/><path d="m8.15 4.05c-.02059704-.0293101-.05417655-.04675445-.09-.04675445s-.06940296.01744435-.09.04675445c-.04622242.10514429-.04622242.22485571 0 .33 0-.06.06-.15.12-.15.04222599-.01283982.07505348-.04622652.08717829-.08866335.01212481-.04243682.00189066-.08812685-.02717829-.12133665z"/><path d="m8.33 4.17c-.12.06-.12.27 0 .39-.002575-.07140377.03133199-.13921774.09-.18.09 0 .12-.12.09-.18-.04641016-.02679492-.10358984-.02679492-.15 0z"/><path d="m8.69 4.29c-.06 0-.12 0-.12.09-.0199933.106192.0277795.2136808.12.27.00120399-.05561027.02251994-.10890015.06-.15.09-.06.06-.18-.06-.21z"/><path d="m9 4.26c-.03817031.00809487-.06919575.03580488-.08153471.07282176s-.00414461.07780016.02153471.10717824c0 .06.09.09.21.06s-.09-.09-.06-.12-.09-.12-.09-.12z"/></g></g><g fill-rule="nonzero"><path d="m43.8 27.75 3-2.2h-3.7l3 2.2-1.13-3.53z" fill="#51c161" stroke="#51c161" stroke-linecap="round" stroke-linejoin="round" stroke-width=".41"/><path d="m49.84 27.75 3-2.2h-3.7l3 2.2-1.13-3.53z" fill="#51c161" stroke="#51c161" stroke-linecap="round" stroke-linejoin="round" stroke-width=".41"/><path d="m46.82 31.26 3-2.2h-3.7l3 2.2-1.13-3.53z" fill="#51c161" stroke="#51c161" stroke-linecap="round" stroke-linejoin="round" stroke-width=".41"/><path d="m55.79 31c-.111619-.0608714-.2437787-.0716862-.3638089-.0297709-.1200301.0419153-.2167286.1326488-.2661911.2497709-1.2778465 2.829917-4.0949522 4.6488464-7.2 4.6488464s-5.9221535-1.8189294-7.2-4.6488464c-.0494625-.1171221-.146161-.2078556-.2661911-.2497709-.1200302-.0419153-.2521899-.0311005-.3638089.0297709l-.7.39c-.2085511.1108844-.2958803.3641392-.2.58 1.5710299 3.4028107 4.9770332 5.5817901 8.725 5.5817901s7.1539701-2.1789794 8.725-5.5817901c.0958803-.2158608.0085511-.4691156-.2-.58z" fill="#f6d660"/><path d="m25.6.41h-18.4c-.74732745.00894405-1.48776341.1441835-2.19.4l-3.63 3.18c-.49298385.94464008-.75029238 1.99445888-.75 3.06l-.00000025 17.33h25.00000025z" fill="#4658a9"/><path d="m11.16 17.81v6.56h3.9v-6.71l6.71 6.71h3.82v-3l-7-7h7v-4h-7l7-7v-3h-3.83l-6.7 6.7v-6.7h-3.9v6.63l-6.16-6.16c-1.56329281.56647757-2.85814249 1.69724162-3.63 3.17l6.41 6.41h-7.16v4h7.16l-7.16 7.16v2.83h4z" fill="#fff"/><path d="m12.16 15.07v9.31h1.9v-9.45l9.45 9.45h2.08v-1.23l-9.78-9.78h9.78v-1.95h-9.78l9.78-9.78v-1.23h-2.09l-9.45 9.45v-9.45h-1.9v9.3l-8.33-8.34c-.6736073.40866358-1.26948293.93344041-1.76 1.55l8.49 8.49h-9.93v1.95h9.93l-9.93 9.93v1.09h2.23z" fill="#ec5463"/></g></g></svg>