<svg height="48" viewBox="0 0 71 48" width="71" xmlns="http://www.w3.org/2000/svg"><g fill="none"><rect fill="#3bafda" height="47" rx="6.36" width="70" x=".77" y=".53"/><g fill="#f6d660"><path d="m54.8 23.81c-1.819707-.388012-3.6752591.4825444-4.54 2.13-1.9055843 3.551492-5.6095723 5.7675731-9.64 5.7675731s-7.7344157-2.2160811-9.64-5.7675731c-.8616234-1.6513243-2.717905-2.5263117-4.54-2.14 1.4199834 6.7008503 7.3353469 11.4940434 14.185 11.4940434s12.7650166-4.7931931 14.185-11.4940434z"/><path d="m47.69 23.23c.014428-.380375.113499-.7527454.29-1.09l.5-.87c.1570699-.3148301.1570699-.6851699 0-1l-.52-.89c-.1752612-.3377358-.274257-.7098235-.29-1.09v-1c-.0224383-.3544603-.2116709-.6772688-.51-.87l-.87-.5c-.3229925-.2036665-.5963335-.4770075-.8-.8l-.5-.87c-.1927312-.2983291-.5155397-.4875617-.87-.51h-1c-.3801765-.015743-.7522642-.1147388-1.09-.29l-.9-.51c-.3148301-.1570699-.6851699-.1570699-1 0l-.86.51c-.3372546.176501-.709625.275572-1.09.29h-1c-.3544603.0224383-.6772688.2116709-.87.51l-.52.9c-.2047115.3221563-.4778437.5952885-.8.8l-.89.52c-.2972609.1970036-.4829368.5237932-.5.88v1c-.0140925.3804253-.1131829.7528685-.29 1.09l-.5.87c-.1570699.3148301-.1570699.6851699 0 1l.52.89c.1749573.3378534.2739349.7098725.29 1.09v1c.0224383.3544603.2116709.6772688.51.87l.87.5c.3229925.2036665.5963335.4770075.8.8l.5.87c.1927312.2983291.5155397.4875617.87.51h1c.3801765.015743.7522642.1147388 1.09.29l.9.51c.3148301.1570699.6851699.1570699 1 0l.86-.51c.3371315-.1768171.7095747-.2759075 1.09-.29h1c.3544603-.0224383.6772688-.2116709.87-.51l.52-.89c.2047115-.3221563.4778437-.5952885.8-.8l.89-.52c.2972609-.1970036.4829368-.5237932.5-.88z"/><path d="m6.77 6.8h3.68v4.92h-3.68z"/><path d="m6.77 14.19h3.68v4.92h-3.68z"/><path d="m6.77 21.57h3.68v4.92h-3.68z"/><path d="m6.77 28.95h3.68v4.92h-3.68z"/><path d="m6.77 36.34h3.68v4.92h-3.68z"/></g></g></svg>