<svg height="48" viewBox="0 0 71 48" width="71" xmlns="http://www.w3.org/2000/svg"><g fill="none"><path d="m.52 8.1h70v31h-70z" fill="#fff"/><path d="m64.16.1h-57.27c-3.51253101 0-6.36 2.84746619-6.36 6.35999374v1.63999839h70v-1.63999839c.0000021-1.68850925-.67144-3.30771586-1.866335-4.50073393-1.1948951-1.19301807-2.8151562-1.8619147-4.503665-1.85925981z" fill="#ed5565"/><path d="m.52 40.73c0 3.512531 2.84746899 6.36 6.36 6.36h57.27c3.512531 0 6.36-2.847469 6.36-6.36v-1.64h-70z" fill="#ed5565"/><path d="m43.09 31.32c.1452266.0251653.2911234-.040737.3682476-.1663392s.0698946-.2855295-.0182476-.4036608l-2.72-5c-.0881422-.1181313-.0953718-.2780586-.0182476-.4036608s.223021-.1915045.3682476-.1663392h.64c.36 0 .5-.24.3-.53l-3.49-5.11c-.2-.29-.07-.53.3-.53h.64c.36 0 .49-.23.28-.52l-3.76-5.14c-.081522-.1347211-.2275337-.21703-.385-.21703s-.303478.0823089-.385.21703l-3.88 5.15c-.21.28-.09.52.27.52h.63c.36 0 .5.24.3.53l-3.49 5.11c-.2.29-.07.53.3.53h.66c.1452266-.0251653.2911234.040737.3682476.1663392s.0698946.2855295-.0182476.4036608l-2.73 5c-.0881422.1181313-.0953718.2780586-.0182476.4036608s.223021.1915045.3682476.1663392h5.85c.1723967-.0026727.338792.063259.4625705.1832866.1237785.1200277.1947976.2843161.1974295.4567134v1.49c.0026319.1723973.073651.3366857.1974295.4567134.1237785.1200276.2901738.1859593.4625705.1832866h.86c.1723967.0026727.338792-.063259.4625705-.1832866.1237785-.1200277.1947976-.2843161.1974295-.4567134v-1.46c.0026319-.1723973.073651-.3366857.1974295-.4567134.1237785-.1200276.2901738-.1859593.4625705-.1832866h5.75z" fill="#57a863"/></g></svg>