<svg height="48" viewBox="0 0 71 48" width="71" xmlns="http://www.w3.org/2000/svg"><g fill="none"><path d="m64.54.38h-57.27c-3.51253101 0-6.36 2.84746806-6.36 6.35999791v17.63999419h70v-17.63999419c.0000021-1.68851036-.67144-3.30771803-1.866335-4.50073688-1.1948951-1.19301885-2.8151562-1.86191592-4.503665-1.85926103z" fill="#4758a9"/><path d="m.9 41c0 3.512531 2.84746899 6.36 6.36 6.36h57.27c3.512531 0 6.36-2.847469 6.36-6.36v-16.64h-70z" fill="#ed5565"/><path d="m21.87 9.49c-.2498765.34767275-.6518475.5537913-1.08.5537913s-.8301235-.20611855-1.08-.5537913l-1.72-2.13c-.2493781-.35175998-.6538103-.56079587-1.085-.56079587s-.8356219.20903589-1.085.56079587l-1.71 2.13c-.2498765.34767275-.6518475.5537913-1.08.5537913s-.8301235-.20611855-1.08-.5537913l-2.12-2.64c-.6-.74-1-.57-.92.38l.78 8.42c.10489235.9661536.908475 1.7056206 1.88 1.73h10.7c.9694453-.0249606 1.7698273-.765421 1.87-1.73l.74-8.43c.08-1-.33-1.12-.92-.37z" fill="#f6bb42"/></g></svg>