<svg height="48" viewBox="0 0 71 48" width="71" xmlns="http://www.w3.org/2000/svg"><g fill="none"><rect fill="#ffce54" height="47" rx="6.36" width="70" x=".25" y=".52"/><path d="m5.25 42.52v-37h8.11v37z" fill="#57a863"/><path d="m13.36 42.52v-37h8.11v37z" fill="#ff8416"/><path d="m26.47 42.52v-37h38.79v37z" fill="#ed5565"/><path d="m59.54 16.69c-.1092928-.2158243-.3196675-.3623353-.56-.39-.2340896-.0212455-.4632153.0764147-.61.26-.1411324.1454095-.1977677.3530723-.15.55-.4802155-.2119436-.9174577-.5102173-1.29-.88-1.0845543-.9336717-2.3321164-1.6591562-3.68-2.14-.9209694-.2119455-1.8717009-.2626963-2.81-.15-.7846901.1430298-1.5187053.4876379-2.13 1-.413561.3892847-.648051.9320429-.648051 1.5s.23449 1.1107153.648051 1.5l.15.18-.09.14c-.2657456.4237396-.2459274.9667594.05 1.37.26.35.33.35.39.35s.22-.28.23-.37c-.0127829-.1916605.0948723-.3710858.27-.45.14-.05.25 0 1.15.33 1.4303606.4154053 2.9454541.4430152 4.39.08.7134738-.168899 1.4565262-.168899 2.17 0 .304877.1124655.5360953.3660598.62.68.0699266.3343614-.0356589.6812852-.28.92-.22.24-.4.35-1.24.58-.7011276.1827098-1.4295512.2369181-2.15.16-.7288652-.0432056-1.4602806-.0029442-2.18.12-.7966531.1291422-1.6065363.1560263-2.41.08h-1.71l-.34-.46c-.0986745-.153772-.1602928-.3283572-.18-.51 0-.05 0-.1 0-.14l.2.12c.0689987.0484924.1610013.0484924.23 0 .11-.1.09-.26-.12-.76-.0437558-.1254946-.0673812-.2571218-.07-.39 0 0 0 0 0-.05.0495042.0285812.1104958.0285812.16 0 .06-.05.08-.07.12-1.33s0-1.6-.34-2l-.07-.09.15-.16c.2979482-.2917711.4972412-.6693789.57-1.08l.13-.8-.64.6c-.1130503.1481292-.2944841.2275065-.48.21-.1595897.0215043-.317819-.0479622-.41-.18-.2800204-.2755481-.6234018-.4781431-1-.59-.0942204-.0480816-.2057796-.0480816-.3 0-.0604877.0482596-.0939961.1227228-.09.2-.031946.1188502-.0789961.2331148-.14.34l-.06.1-.18-.18c-.1975917-.2042314-.4409687-.3584844-.71-.45-.27-.07-.45-.12-.58 0s-.12.25-.12.42-.06.31-.06.31-.08 0-.29-.17c-.3518934-.3033837-.8299477-.4154276-1.28-.3l-.67.07.16.41c0 .1 0 .12-.07.27-.2095595.2681595-.541115.4113312-.88.38-.2320747-.001645-.4625063.0390194-.68.12-.1869283.0681298-.381875.1118248-.58.13l-.47.07c.0372199-.2137854-.021273-.4331338-.16-.6-.1636039-.1792336-.3974538-.277889-.64-.27-.2626683-.0114698-.5138304.1084882-.67.32-.1783148.30352-.2077926.6719914-.08 1 0 .12.09.31.12.42.157947.3069703.3676924.5843755.62.82.2065656.200957.4002817.4147126.58.64.104448.1460524.2413753.2658638.4.35l.54.3-.06-.47c.0720096.0627107.1489217.1195588.23.17.13.08.25.15.36.09.06888-.0467455.1071256-.1270613.1-.21-.0037002-.0399144-.0037002-.0800856 0-.12.1700199.270872.3605795.5282947.57.77l.14.17c-.8648531-.0843089-1.7079043-.3213112-2.49-.7-.67-.3-.88-.36-1-.22-.0838834.079603-.1215549.1963846-.1.31.0670494.2207529.2083668.4115314.4.54-.118268.0962888-.19954.2305643-.23.38l-.2.63-.19.59.65-.06c.1983525-.017655.3954048-.0477138.59-.09l-.32.59.6-.12c.1684476-.0361683.3326677-.0897912.49-.16h.07l.09.13c.05.09.22.35.44.3s.2-.13.23-.3l.05.11c.18.39.36.57.55.55s.19 0 .22-.26c.0382461-.0803572.096854-.1493077.17-.2.0457188-.0440788.1064993-.069106.17-.07 0 0 .07.06.1.14s0 .31-.76.78c-1.3569124.7465632-2.2912714 2.0797789-2.53 3.61-.0750028.4065699-.0750028.8234301 0 1.23-.21-.23-.5-.52-.92-.93l-1.16-1.13c.3246577-.1775987.5246951-.5199704.52-.89-.0281025-.3458925-.2734244-.6354528-.61-.72-.1253166-.026154-.2546834-.026154-.38 0 0-.34.06-1 .09-2.55.08-4.13.38-7.27.78-8 .1-.18.17-.32.05-.43s-.25 0-.58.19c-.5870635.4089834-1.0616612.9592416-1.38 1.6-.7 1.32-1 3.12-1 6.86-.0231031.7836748-.006415 1.5680171.05 2.35-.1349268-.0308406-.2750732-.0308406-.41 0-.3403648.0669234-.5988207.3455712-.64.69-.0290354.4376119.2304613.8430755.64 1 .1469761.0677243.3013536.1180648.46.15-.073275.0773246-.1032664.1860433-.08.29-.0065574.0363735-.0065574.0736265 0 .11-.0653025.0158042-.1244586.0506019-.17.1-.07.08-.13.23 0 .49.0480706.0948638.1251362.1719294.22.22-.0978703.0919554-.1364219.2307412-.1.36.0317505.1005975.0993719.186014.19.24-.0245658.0781141-.0245658.1618859 0 .24-.0088227.1832658.0996116.3519413.27.42-.0178729.075625-.0178729.154375 0 .23l-.13-.06c-.1417491-.0842912-.3182509-.0842912-.46 0-.1067968.0686931-.1767819.1820155-.1903782.308267-.0135964.1262514.030656.2518763.1203782.341733.1774508.1326973.401516.1869066.62.15-.0335575.0779043-.0809951.1490606-.14.21l-.28.31.23.32c.1837547.2755044.1837547.6344956 0 .91l-.05.06c-.1017875-.1570835-.284173-.2424554-.47-.22-.1519275.0359342-.269065.1569763-.3.31-.07.25 0 .39.25.58.1531735.1380454.3452763.2253649.55.25-.0342133.0453959-.0746041.0857867-.12.12l-.52.4.72.11h.21c.06.22.25.65.45.65s.29-.18.33-.23c.0883159-.1232058.140286-.2687221.15-.42h.21l.73-.1-.54-.43-.11-.1c.3432075-.0479013.6454596-.2506314.82-.55.0503233-.1459967.0240316-.307503-.07-.43-.1119176-.1275771-.2839196-.1849111-.45-.15-.12653.0257861-.2295572.1173658-.27.24l-.06-.06c-.254644-.2847007-.254644-.7152993 0-1 .21-.24.17-.35-.05-.56-.0862872-.0873807-.1512994-.1934533-.19-.31h.11c.1665046.0985731.3734954.0985731.54 0 .1421008-.0924832.2004122-.2715824.14-.43-.0757186-.1460098-.2172062-.2465405-.38-.27.1027961-.0161662.1975546-.0653003.27-.14.046632.0566996.1004129.1071192.16.15.16.12.16.12.16.78s0 .84.19 1 .18.17.3.12c.0857558-.0424182.1342662-.1353964.12-.23.0498373-.0630113.120949-.1056783.2-.12.2295029.1748432.4466841.3652944.65.57.2647322.2796281.5718222.5158512.91.7h.25c.1421349-.0181515.2805083-.058651.41-.12.3983808-.2054594.7413935-.5038804 1-.87.271809.1915036.5557367.3652005.85.52.2018607.1395307.4358306.225549.68.25.07.24.16.51.26.81.53 1.57.35 2-.21 2.35-.19.11-.29.13-.91.13s-.81 0-1.07.21c-.2959281.2974065-.4856989.6839767-.54 1.1-.0022959.0895343.0434797.1734563.12.22.13.07.3 0 .59-.13l.13-.08c.0940037.1173886.23059.1928705.38.21.2443048.0268306.4899345-.0372467.69-.18l.1-.07.07.07c.1564984.131916.3553418.2029315.56.2.2084089-.0013461.4111896-.0677742.58-.19l.1-.07c.1749423.1112941.3736421.1798112.58.2.42.05.48 0 .73-.34.1733287-.2044843.240042-.4787499.18-.74 0-.16-.06-.42-.06-.58-.0045473-.0532364-.0045473-.1067636 0-.16.0958599-.0496602.1963358-.0898505.3-.12.2146247-.0711714.4249729-.1546429.63-.25.16-.09.73-.68.73-.9s-.14-.22-.56-.26-.56-.13-.63-.28 0-.5.29-.93c.17-.26.32-.51.46-.76l.28-.06c.15 0 .95-.38 1.61-.68 1.0952799-.6082775 2.3181136-.9508079 3.57-1v.28c.0776163.7343911.4060742 1.4195614.93 1.94.6016708.5762517.8947312 1.4034982.79 2.23v1l-.16.15c-.15.14-.17.16-.81.2s-.78.06-1 .26c-.2232644.1693353-.3763405.4149689-.43.69-.0516165.1004223-.0516165.2195777 0 .32.0585788.064019.1435293.0972605.23.09.1867253-.0307016.3643206-.1024227.52-.21l.17-.11.1.09c.1287436.1396749.3100421.2191313.5.2191313s.3712564-.0794564.5-.2191313c.1268227.1684479.3295057.2622826.54.25.29 0 .44 0 .59-.23l.14.09c.1788719.127274.3906881.2001943.61.21.122305.0014482.2417209-.0371864.34-.11l.05.05c.15.11.36 0 .63-.16l.14-.09c.0929957.1333939.2385368.2207186.4.24.2331496.0211201.4646879-.0548534.64-.21l.11-.09.12.09c.2106535.1767305.4924562.2434733.76.18.1524188-.0412729.2841987-.1374366.37-.27.2880782.2103359.6468318.3000243 1 .25.1004831-.014123.187017-.0780828.23-.17.0321702-.1839186-.0150646-.3728578-.13-.52-.2474638-.282584-.4103473-.6291447-.47-1 0-.34.07-.5.53-.84s.71-.74.62-1c-.0560461-.168539-.2239447-.2734756-.4-.25-.2 0-.43-.21-.58-.54-.34-.77-.27-1.63.26-3.1.4218328-.9042951.6337819-1.8922513.62-2.89.0545644-.5072938-.0211552-1.0201223-.22-1.49-.1436379-.3517245-.3246784-.6869847-.54-1l-.21-.29.28-.23c.594644-.4491694.9067011-1.1798395.82-1.92-.1264304-.7500891-.6397999-1.3775407-1.35-1.65-.4404365-.2028944-.9286887-.2790756-1.41-.22-.5426083.008748-1.0839356.0555294-1.62.14-.5195003.0812492-1.0442112.1246966-1.57.13-.76 0-.86 0-1.11-.15s-.28-.17-.33-.5c-.0184743-.138956-.1101016-.2573078-.24-.31-.21-.07-.61.3-.78.54-.0613599-.0974407-.1116703-.2014156-.15-.31-.07-.2-.07-.43.37-.65l.61-.29-.46-.28c-.2606375-.149557-.5701105-.1891408-.86-.11-.299837.0636716-.5622849.2434304-.73.5l-.05.08-.16-.15c-.1992992-.1737089-.2907867-.4405474-.24-.7.0712067-.2575563.2724437-.4587933.53-.53.1508013-.060627.3191987-.060627.47 0 .0438187.0227691.0763588.0625403.09.11.08.29.28.26.32.25.27-.05.43-.53.38-.89v-.12c.3918334.0805445.7445391.2921679 1 .6.1980287.347073.1980287.772927 0 1.12l-.39.64.62-.12c.4030973-.0834844.7600573-.3155085 1-.65.2157279-.4012966.2413889-.8778586.07-1.3.2528771.1080861.4586485.3032142.58.55.1174664.1591979.1403778.3692191.06.55-.0482709.1734688-.122439.3386614-.22.49-.1.13-.18.24-.12.36.0459212.0760927.1315731.1189187.22.11.3275579-.0394162.6349224-.1791273.88-.4.1092638-.1320828.1970088-.2805743.26-.44.2343747.3354893.560844.5959701.94.75.45.19.62.21.7.07s-.08-.28-.14-.33c-.118576-.1882017-.2063471-.3941262-.26-.61.22.16.58.45 1 .84.4444397.5027824 1.0790787.7965296 1.75.81.4017003.0150985.7816608-.182481 1-.52.3190974-.2640713.4423742-.6975285.31-1.09zm-25.14 11.31c.0905561-.005219.1790643-.0290482.26-.07.0211558.0264516.0486829.0470969.08.06-.0862974-.0113147-.1737026-.0113147-.26 0zm20.85 6c-.455116.075725-.8749072.2926171-1.2.62-.0210079-.1804366-.0612363-.3581119-.12-.53-.14-.43-.1-.66.45-1.31.08-.09.47-.56.47-.77.0070476-.0845288-.0220173-.1680904-.08-.23-.09-.09-.23-.09-.45-.09s-.3 0-.42-.14-.25-.37.05-.75l.2-.25.19.12c1.55 1 1.55 1 1.62 2.08s.04 1.11-.71 1.25z" fill="#ffce54"/></g></svg>