<svg height="48" viewBox="0 0 71 48" width="71" xmlns="http://www.w3.org/2000/svg"><g fill="none"><g fill="#fff"><path d="m64.4.1h-57.27c-.23648604-.01307633-.47351396-.01307633-.71 0h58.7c-.2398116-.01344756-.4801884-.01344756-.72 0z"/><path d="m7.13 47.1h57.27c.2364843.0131377.4735157.0131377.71 0h-58.7c.23980986.0135107.48019014.0135107.72 0z"/><path d="m70.74 41.19h-70c.22139572 3.0539023 2.5874041 5.5165682 5.63 5.86h58.7c3.0582687-.3254608 5.4454814-2.7926683 5.67-5.86z"/></g><path d="m70.77 41.19v-.46z" fill="#ed5565"/><path d="m.77 40.73v.46c.01-.19 0-.3 0-.46z" fill="#ed5565"/><path d="m.77 40.73v.46h70c0-.15 0-.3 0-.46v-5.41h-70z" fill="#ed5565"/><path d="m.77 29.46h70v5.86h-70z" fill="#fff"/><path d="m.77 23.6h70v5.86h-70z" fill="#ed5565"/><path d="m.77 17.73h70v5.86h-70z" fill="#fff"/><path d="m.77 11.87h70v5.86h-70z" fill="#ed5565"/><g fill="#fff"><path d="m70.77 6.46v-.46c-.02.16 0 .31 0 .46z"/><path d="m.77 6v.46c0-.15 0-.31 0-.46z"/><path d="m.79 6v.46 5.41h70v-5.41c0-.15 0-.31 0-.46z"/></g><path d="m.79 6h70c-.2213957-3.05390228-2.5874041-5.5165682-5.63-5.86h-58.7c-3.05826874.3254608-5.44548145 2.79266829-5.67 5.86z" fill="#ed5565"/><path d="m30.09.14h-23.67c-3.21745896.36144101-5.64987515 3.08230302-5.65 6.32v23h29.32z" fill="#4758a9"/><path d="m11 22c-.78.55-1.23.24-1-.69l.84-3.48c.1923885-1.0393876-.1493719-2.1059804-.91-2.84l-2.54-2.2c-.72-.63-.53-1.16.42-1.19l3.56-.1c1.0165035-.0800563 1.8885746-.7557149 2.22-1.72l1.12-3.8c.27-.92.76-.94 1.08 0l1.34 3.75c.3920938.9515917 1.292783 1.5960504 2.32 1.66h3.63c1 0 1.15.53.42 1.16l-2.76 2.42c-.7498031.7307617-1.0643806 1.7995672-.83 2.82l.88 3.06c.27.92-.18 1.27-1 .77l-3-1.82c-.9107426-.5011155-2.0220838-.4666256-2.9.09z" fill="#fff"/></g></svg>