<svg height="48" viewBox="0 0 71 48" width="71" xmlns="http://www.w3.org/2000/svg"><g fill="none"><path d="m.15 6.74v9h70v-9c0-3.66717074-2.9728293-6.64-6.64-6.64h-56.72c-1.76103749 0-3.44994747.69956942-4.69518903 1.94481097-1.24524155 1.24524156-1.94481097 2.93415154-1.94481097 4.69518903z" fill="#4758a9"/><path d="m.15 31.44h70v-15.67h-70z" fill="#fff"/><path d="m.15 40.45c0 1.7610375.69956942 3.4499475 1.94481097 4.695189 1.24524156 1.2452416 2.93415154 1.944811 4.69518903 1.944811h56.71c1.7610375 0 3.4499475-.6995694 4.695189-1.944811 1.2452416-1.2452415 1.944811-2.9341515 1.944811-4.695189v-9h-70z" fill="#57a863"/><path d="m28.65 27.6 6.64-8 6.36 8z" fill="#434a54"/></g></svg>