<svg height="47" viewBox="0 0 71 47" width="71" xmlns="http://www.w3.org/2000/svg"><g fill="none"><rect fill="#ed5565" height="47" rx="6.36" width="70" x=".87"/><path d="m30.64 33.18c-.92.65-1.45.28-1.19-.82l1-4.09c.2271638-1.222396-.1748115-2.4771599-1.07-3.34l-3-2.59c-.85-.74-.63-1.36.49-1.4l4.19-.12c1.1941491-.0842146 2.2239275-.870305 2.62-2l1.32-4.5c.32-1.08.89-1.1 1.27 0l1.58 4.41c.4482557 1.1372799 1.5104942 1.9154766 2.73 2h4.28c1.12 0 1.35.63.5 1.37l-3.26 2.85c-.8913238.8554353-1.2705877 2.1145913-1 3.32l1 3.6c.31 1.09-.21 1.49-1.17.9l-3.47-2.15c-1.0715991-.5882468-2.3785407-.5460874-3.41.11z" fill="#57a863"/></g></svg>