<svg height="47" viewBox="0 0 71 47" width="71" xmlns="http://www.w3.org/2000/svg"><g fill="none" fill-rule="evenodd"><g fill-rule="nonzero"><path d="m6.75 0c-3.51253101 0-6.36 2.84746899-6.36 6.36v34.28c0 3.512531 2.84746899 6.36 6.36 6.36h17c0-15.6666667 0-31.3333333 0-47z" fill="#4758a9"/><path d="m23.73 0v47h23.35c0-15.6666667 0-31.3333333 0-47z" fill="#f6d660"/><path d="m64 0h-16.92v47h16.92c3.512531 0 6.36-2.847469 6.36-6.36v-34.28c0-3.51253101-2.847469-6.36-6.36-6.36z" fill="#ed5565"/></g><path d="m42.09 28.82v-1.7c0-3.12-.08-7.86-.08-9.18.0097362-.5237276-.1178272-1.0408767-.37-1.5-.1190794-.2097811-.2672111-.4016789-.44-.57-.1109723-.1073668-.2314673-.2044322-.36-.29-.1325709-.0645002-.2874291-.0645002-.42 0-.0664056.0202079-.1277601.0542937-.18.1l-3 2.75c-.0470173.0367073-.1129827.0367073-.16 0l-.08-.13-.12-.11-.1-.12-.08-.07c-.2365106-.4318738-.357095-.9176567-.35-1.41 0-.21.16-.42.28-.86.0859632-.3259107.1163892-.6639776.09-1-.002907-.0577997-.0436721-.1067178-.1-.12-.2600171-.0781485-.514018-.1750698-.76-.29-.3107983-.1537069-.6532792-.2324776-1-.23-.1609746-.0150955-.3230846.0124977-.47.08-.11.07-.1.17-.14.2-.0948603.0613767-.2074165.0895158-.32.08-.49 0-.5.52-.5.52.2155861.0728734.4206719.1737353.61.3.3059326.2621109.4599278.660245.41 1.06.0339663.5726365-.0905974 1.143553-.36 1.65l-.07.08-.1.12-.12.11-.07.06c-.0470173.0367073-.1129827.0367073-.16 0l-3-2.75c-.0522399-.0457063-.1135944-.0797921-.18-.1-.1325709-.0645002-.2874291-.0645002-.42 0-.1285327.0855678-.2490277.1826332-.36.29-.1191986.119191-.2263816.2498202-.32.39-.3308918.5001522-.4985893 1.0905869-.48 1.69 0 1.32 0 6.06-.08 9.18v2.4c-.004102.0847935.0432518.1637166.12.2.0698515.0457162.1601485.0457162.23 0l.14-.13.33-.32.18-.19c1.0156362-1.0021043 1.711592-2.282663 2-3.68l.23.13.23.14c.42.25 1 .61.84.69s-1 1.17-1.58 1.91h-.08c-.3534622 0-.64.2865378-.64.64s.2865378.64.64.64c.2175786.0017685.4211513-.1071285.5404428-.2890986s.1379586-.412083.0495572-.6109014l1.94-2.39.82.22v.11l-2.44 3.87c-.0262412.0462823-.0432236.0972295-.05.15-.0223627.1569176.0477255.3126691.18.4l2.59 1.86c.0522737.0351477.1095984.0621241.17.08h.18.18c.0604016-.0178759.1177263-.0448523.17-.08l2.76-1.8c.1322745-.0873309.2023627-.2430824.18-.4-.0067764-.0527705-.0237588-.1037177-.05-.15l-2.44-3.87v-.11l.82-.22 1.94 2.39c-.0884014.1988184-.0697343.4289313.0495572.6109014s.3228642.2908671.5404428.2890986c.3534622 0 .64-.2865378.64-.64s-.2865378-.64-.64-.64h-.08c-.6-.74-1.47-1.81-1.58-1.91s.42-.44.84-.69l.23-.14.23-.13c.288408 1.397337.9843638 2.6778957 2 3.68l.18.19.33.32.14.13c.0698515.0457162.1601485.0457162.23 0 .0767482-.0362834.124102-.1152065.12-.2z" fill="#866f57" fill-rule="nonzero"/><path d="m32.06 19.2h6.65v5.56c0 1.0382953-.8417047 1.88-1.88 1.88h-2.89c-1.0382953 0-1.88-.8417047-1.88-1.88z" stroke="#f6d660" stroke-linecap="round" stroke-linejoin="round"/><g fill-rule="nonzero"><path d="m32.06 19.2h6.65v3.47h-6.65z" fill="#ed5565"/><path d="m33.94 26.64h2.89c1.0382953 0 1.88-.8417047 1.88-1.88v-2.1h-6.65v2.1c0 1.0382953.8417047 1.88 1.88 1.88z" fill="#0046ae"/><g fill="#f6d660" stroke="#f6d660" stroke-linecap="round" stroke-linejoin="round" stroke-width=".08"><path d="m36.24 22.59c.4920456-.1390395.8313265-.5886889.83-1.1 0-.7-.83-1-.86-1.21-.08.29.28.68.28 1.15s-.45.64-.45.64-.15.07-.19.07-.13-.12-.22-.12-.14.13-.25.13-.17-.13-.25-.13-.13.11-.22.12-.08-.07-.19-.07-.45 0-.45-.64.36-.87.28-1.15c0 .17-.86.51-.86 1.21-.0013265.5113111.3379544.9609605.83 1.1l-.24.43c.1891947.005368.3729813.0643184.53.17.22.19.2.59.2.88.024365.2021659-.0292794.4060145-.15.57-.16.13-.26.14-.26.3s.1.16.26.24.2.26.51.26.3-.15.51-.26.26-.11.26-.24-.11-.17-.26-.3c-.1207206-.1639855-.174365-.3678341-.15-.57 0-.29 0-.69.2-.88.1570187-.1056816.3408053-.164632.53-.17z"/><path d="m35.39 20.2-.14.39-.37-.18.18.37-.39.14.39.14-.18.37.37-.18.14.39.14-.39.37.18-.18-.37.39-.14-.39-.14.18-.37-.37.18z"/><path d="m34.41 22.63c-.2928941-.0676929-.5622596-.2127359-.78-.42-.2348131.2060564-.5109942.3594904-.81.45.2841093.1309809.5552985.2883376.81.47.2278342-.2121937.4920609-.3815699.78-.5z"/><path d="m36.37 22.63c.2879391.1184301.5521658.2878063.78.5.2547015-.1816624.5258907-.3390191.81-.47-.2990058-.0905096-.5751869-.2439436-.81-.45-.2177404.2072641-.4871059.3523071-.78.42z"/><path d="m34.66 24.36c.0107144.1297792.0107144.2602208 0 .39.1704445-.0550691.2995052-.1955176.34-.37 0-.13.06-.63-.08-.71l-.37-.07c.0876839.2471791.1316738.5077345.13.77z"/><path d="m35.88 23.67c-.14.08-.11.58-.08.71.0404948.1744824.1695555.3149309.34.37-.0107144-.1297792-.0107144-.2602208 0-.39-.0018784-.262282.0421174-.5228725.13-.77z"/><path d="m33.64 23.83c-.1262065.0342139-.2017974.1631632-.17.29v.05h-.08c-.1113945.0231008-.191266.1212354-.191266.235s.0798715.2118992.191266.235h.06v.05c-.0471318.0810056-.0427994.1820358.011094.2587092s.1474875.1149619.2396676.0980458c.09218-.0169161.1660807-.0859418.1892384-.176755.0026199-.0199142.0026199-.0400858 0-.06.0601289.0778244.1616528.1110889.2561774.0839372.0945247-.0271518.1629185-.1092243.1725797-.2070956s-.0413656-.1917323-.1287571-.2368416h.05c.1097433-.0722855.1409465-.2193864.07-.33-.0459212-.0760927-.1315731-.1189187-.22-.11-.0361722-.0085161-.0738278-.0085161-.11 0 .003146-.0663467-.0225441-.1308141-.0704595-.176813-.0479155-.0459988-.1133774-.0690373-.1795405-.063187z"/><path d="m36.43 24.53c.0386265.2607056.2331199.471076.49.53-.0443073-.0729976-.0716472-.1550175-.08-.24-.0146812-.1445884.0342743-.2884099.134119-.3940148.0998446-.1056049.2406971-.1625419.385881-.1559852h.15c-.1195648-.1634878-.3075764-.2630233-.51-.27-.1496396-.0215384-.3009896.0257856-.4117054.1287319s-.1689076.2504593-.1582946.4012681z"/></g></g></g></svg>