<svg height="47" viewBox="0 0 71 47" width="71" xmlns="http://www.w3.org/2000/svg"><g fill="none"><rect fill="#ffce54" height="47" rx="6.36" width="70" x=".25"/><path d="m63.89 4c1.301116.00547846 2.3545215 1.058884 2.36 2.36v34.28c-.0054785 1.301116-1.058884 2.3545215-2.36 2.36h-57.28c-1.301116-.0054785-2.35452154-1.058884-2.36-2.36v-34.28c.00547846-1.301116 1.058884-2.35452154 2.36-2.36h57.27" fill="#ed5565"/><path d="m42.33 19.11-.74-4.51h2.65l-1.66-2.52-1.01-.57h-3.98l-1.26 7.6h-2.16l-1.26-7.6h-3.98l-1.01.57-1.66 2.52h2.65l-.74 4.51h-3.92l6.42 16.38h9.14l6.44-16.38z" fill="#ffce54"/></g></svg>