<svg height="48" viewBox="0 0 71 48" width="71" xmlns="http://www.w3.org/2000/svg"><g fill="none"><rect fill="#4758a9" height="47" rx="6.36" width="70" x=".28" y=".95"/><path d="m70.28 10.75-66.76 36.37c.55244716.3143865 1.14916132.5436326 1.77.68l65-27.84z" fill="#fff"/><path d="m69 3.53-66.61 42.78c.36537287.3321372.76806829.6207356 1.2.86l66.69-36v-3.82c.0007413-1.37875279-.4486976-2.72004718-1.28-3.82z" fill="#f6d660"/><path d="m16.87 6.54-.41 6.62-1.78-4.22.68 4.49-2.75-3.63 1.8 4.14-3.61-2.74 2.81 3.45-4.08-1.77 3.57 2.65-4.44-.58 4.2 1.63-6.59.59 6.6.43-4.18 1.69 4.4-.58-3.56 2.58 4.13-1.78-2.81 3.49 3.58-2.66-1.78 4.05 2.87-3.52-.78 4.39 1.8-4.1.41 6.48.64-6.46 1.56 4.13-.59-4.45 2.85 3.53-1.87-4.12 3.58 2.83-2.85-3.54 4.26 1.74-3.77-2.7 4.59.76-4.35-1.68 6.83-.42-6.83-.62 4.5-1.47-4.66.57 3.85-2.64-4.34 1.71 3-3.56-3.65 2.8 1.76-4.28-2.84 3.63.61-4.54-1.68 4.28z" fill="#fff"/></g></svg>