<svg height="48" viewBox="0 0 71 48" width="71" xmlns="http://www.w3.org/2000/svg"><g fill="none"><rect fill="#ed5565" height="47" rx="6.36" width="70" x=".77" y=".38"/><g fill="#ffce54"><path d="m40.37.38h-9.21l4.61 19.75z"/><path d="m31.16 47.38h9.21l-4.6-19.75z"/><path d="m70.77 27.38v-7l-35 3.5z"/><path d="m.77 20.38v7l35-3.5z"/><path d="m67.42 46.62c1.9479771-1.0512701 3.209242-3.0397508 3.33-5.25l-35-17.49-35 17.49c.12075795 2.2102492 1.38202286 4.1987299 3.33 5.25l31.65-21.8z"/><path d="m70.75 6.39c-.120758-2.21024916-1.3820229-4.19872987-3.33-5.25l-31.65 21.8-31.65-21.8c-1.94797714 1.05127013-3.20924205 3.03975084-3.33 5.25l35 17.49z"/></g><path d="m35.77 35.83c-6.5998028 0-11.95-5.3501972-11.95-11.95s5.3501972-11.95 11.95-11.95 11.95 5.3501972 11.95 11.95c-.027395 6.588422-5.361578 11.922605-11.95 11.95zm0-16.89c-2.0020881 0-3.8070377 1.2060288-4.5732037 3.055717-.7661659 1.8496882-.3426649 3.9787715 1.0730251 5.3944616 1.4156901 1.41569 3.5447734 1.839191 5.3944616 1.0730251 1.8496882-.766166 3.055717-2.5711156 3.055717-4.5732037-.0216765-2.7264132-2.2236361-4.9328212-4.95-4.96z" fill="#ed5565"/><circle cx="35.77" cy="23.88" fill="#ffce54" r="8.45"/></g></svg>