<svg height="48" viewBox="0 0 70 48" width="70" xmlns="http://www.w3.org/2000/svg"><g fill="none"><path d="m0 6.93v9h70v-9c0-3.66717074-2.9728293-6.64-6.64-6.64h-56.71c-1.76276947-.00265478-3.45424962.69574249-4.70165483 1.9412719-1.2474052 1.24552941-1.94834717 2.93595663-1.94834517 4.6987281z" fill="#f6d660"/><path d="m0 31.63h70v-15.63h-70z" fill="#57a863"/><path d="m0 40.64c0 3.6671707 2.97282926 6.64 6.64 6.64h56.72c3.6671707 0 6.64-2.9728293 6.64-6.64v-9h-70z" fill="#ed5565"/><path d="m27.77 36.24c-1.25.9-2 .37-1.58-1.16l1.41-5.71c.3332525-1.697935-.1816989-3.4517551-1.38-4.7l-4-3.68c-1.14-1-.83-1.92.69-1.95l5.66-.09c1.6434728-.1256839 3.0508983-1.2256047 3.57-2.79l1.86-6.24c.45-1.51 1.22-1.53 1.72 0l2.05 6.2c.5742079 1.5579976 1.9959235 2.6447337 3.65 2.79l5.77.14c1.51 0 1.81.9.65 1.93l-4.44 3.93c-1.2119285 1.199496-1.7382145 2.9287214-1.4 4.6l1.33 5.06c.4 1.53-.31 2.08-1.6 1.24l-4.65-3.06c-1.4275167-.8402446-3.2064424-.8054396-4.6.09z" fill="#fff"/></g></svg>