<svg height="47" viewBox="0 0 71 47" width="71" xmlns="http://www.w3.org/2000/svg"><g fill="none"><path d="m7 0c-3.51253101 0-6.36 2.84746899-6.36 6.36v34.28c0 3.512531 2.84746899 6.36 6.36 6.36h17c0-15.6666667 0-31.3333333 0-47z" fill="#ed5565"/><path d="m24 0v47h23.35c0-15.6666667 0-31.3333333 0-47z" fill="#4a89dc"/><path d="m64.27 0h-16.95v47h16.95c3.512531 0 6.36-2.847469 6.36-6.36v-34.28c0-3.51253101-2.847469-6.36-6.36-6.36z" fill="#ed5565"/><g fill="#f6bb42"><path d="m5.3 19.34h3v15.35h-3z"/><path d="m16.3 19.34h3v15.35h-3z"/><circle cx="12.3" cy="27" r="3"/><circle cx="12.3" cy="15.3" r="3"/><path d="m9.3 31.01h6v1h-6z"/><path d="m9.3 22.31h6v1h-6z"/><path d="m12.3 32.7h3l-3 2-3-2z"/><path d="m12.3 19.31h3l-3 2-3-2z"/></g></g></svg>