<svg height="48" viewBox="0 0 71 48" width="71" xmlns="http://www.w3.org/2000/svg"><g fill="none"><g fill="#fff"><path d="m41.14 35h-8.78c-1.41 0-2.82 0-4.23 0 .4408314.3072115.9177373.5590984 1.42.75 3.7666667.06 7.5333333.06 11.3 0 .3769133.0427108.7585982.0052239 1.12-.11.3786045-.1810188.745939-.3847224 1.1-.61v-.03c-.6422985-.0516029-1.2877015-.0516029-1.93 0z"/><path d="m27.14 33.79c-.22 0-.46-.05-.66.07l.73.57c5.6133333.06 11.2266667.06 16.84 0 .26-.21.53-.4.78-.62-5.9.07-11.83-.13-17.69-.02z"/><path d="m6.59 47.52c.22652055.0115099.45347945.0115099.68 0h56.73c-19.11.02-38.26.04-57.41 0z"/><path d="m38.15 36.2c-2.55 0-5.09-.05-7.64.06 3.3056392 1.3062276 6.9843608 1.3062276 10.29 0-.8804651-.0882957-1.7664409-.1083555-2.65-.06z"/><path d="m45.61 31c-1.68 0-3.37 0-5 0-1.8615854-.1237526-3.6253153-.878629-5-2.14-1.3743607 1.3184946-3.1865987 2.0839782-5.09 2.15h-6.52c.1624796.2565253.3394326.5035917.53.74 1.66.1 3.32.1 5 .06 1.1723967.0665 2.3477961-.0584706 3.48-.37.9649018-.3374142 1.8696533-.8269253 2.68-1.45 1.2747935 1.0398508 2.8391695 1.661411 4.48 1.78 2.21.07 4.43.1 6.65 0 .1941244-.2231192.3712855-.4604481.53-.71-.5768237-.0746607-1.1594036-.0947497-1.74-.06z"/><path d="m25.27 32.67c.17.2.37.42.66.38 1.55-.06 3.11 0 4.66 0h14.93c.25 0 .37-.28.55-.41-6.94 0-13.87-.15-20.8.03z"/></g><path d="m70.63 40.91v-33.72c.0000166-3.65937443-2.9606422-6.62897779-6.62-6.64h-56.76c-3.65935783.01102221-6.6200166 2.98062557-6.62 6.64v33.72c-.0004714 3.4196272 2.59629434 6.2803974 6 6.61h57.45c3.6203241-.0490397 6.5339737-2.9893792 6.55-6.61zm-25.4-23c.13-.39.17-.79.26-1.19.27.31.34.74.57 1.07.41 0 .82-.11 1.23-.13-.31.29-.63.56-.91.87l.52 1.1c-.3755384-.1694674-.7396421-.3632107-1.09-.58-.32.27-.59.59-.93.83.07-.4.17-.8.22-1.2-.3488069-.2253246-.7130402-.4258199-1.09-.6.3984992-.0817368.8033649-.1285807 1.21-.14zm-4.23-5.29c.35.22.68.47 1 .7.37-.22.68-.5 1-.74-.12.39-.22.78-.37 1.16.3173241.2737346.6512967.5275538 1 .76-.4163804.0218437-.8336196.0218437-1.25 0-.14.39-.25.8-.39 1.19-.16-.4-.28-.8-.42-1.2-.4185596.0427395-.8393699.0594384-1.26.05.32-.28.68-.5 1-.78-.07-.36-.21-.76-.31-1.14zm-5.94-1.4c.2299972-.56031.4237301-1.1348285.58-1.72.2411454.5536693.438419 1.1254284.59 1.71h1.77c-.49.37-1 .71-1.48 1.09.15.58.39 1.14.54 1.72-.52-.3-1-.7-1.45-1-.53.3-1 .72-1.5 1 .14-.57.37-1.12.53-1.69-.4717762-.394814-.96593-.7620905-1.48-1.1.65-.04 1.26-.03 1.84-.02zm-6.77 1.38c.36.21.66.5 1 .72.35-.22.68-.47 1-.7-.1.39-.26.77-.37 1.16.3129004.2791495.647264.5332658 1 .76-.4081754.0547024-.8218246.0547024-1.23 0-.1685557.3894262-.3089169.7904584-.42 1.2-.1694328-.3817177-.2968486-.7807303-.38-1.19-.43 0-.86 0-1.29 0 .35-.24.7-.48 1-.73-.11-.44-.22-.82-.35-1.22zm-3 5.23c.19-.35.36-.72.52-1.09.1327956.3891537.223317.791471.27 1.2.41 0 .83.08 1.23.15-.3415689.2111094-.6955432.4014541-1.06.57.045921.4170522.1160392.8310835.21 1.24-.3353519-.2393418-.6438147-.5142761-.92-.82l-1.11.6c.16-.37.33-.74.52-1.1-.2796077-.3199929-.5838734-.6175714-.91-.89.3922408.0255171.7828124.0722522 1.17.14zm5.3 18.43c2.54-.11 5.09-.06 7.64-.06.8820128-.0683081 1.7679872-.0683081 2.65 0-3.321548 1.3466837-7.0330913 1.3681584-10.37.06zm12.56-1.17c-.354061.2252776-.7213955.4289812-1.1.61-.3614018.1152239-.7430867.1527108-1.12.11-3.7666667.0466667-7.5333333.0466667-11.3 0-.5022627-.1909016-.9791686-.4427885-1.42-.75 1.41-.05 2.82 0 4.23 0h8.78c.6422985-.0516029 1.2877015-.0516029 1.93 0zm1-.66c-5.6133333.06-11.2266667.06-16.84 0l-.73-.57c.2-.12.44-.06.66-.07 5.9-.11 11.79.09 17.69 0-.35.21-.62.43-.93.64zm1.47-1.41h-15.03c-1.55 0-3.11 0-4.66 0-.29 0-.49-.18-.66-.38 6.93-.18 13.87 0 20.8-.07-.18.17-.3.43-.55.43zm1.23-1.26c-2.21.11-4.43.08-6.65 0-1.6408305-.118589-3.2052065-.7401492-4.48-1.78-.8103467.6230747-1.7150982 1.1125858-2.68 1.45-1.1322039.3115294-2.3076033.4365-3.48.37-1.66 0-3.33 0-5-.06-.1905674-.2364083-.3675204-.4834747-.53-.74h6.55c1.9034013-.0660218 3.7156393-.8315054 5.09-2.15 1.3746847 1.261371 3.1384146 2.0162474 5 2.14h5c.555528-.0503532 1.114472-.0503532 1.67 0-.1753082.2723487-.3726349.5298768-.59.77zm-1-4.5c-1.1882824 1.2719379-2.7834462 2.088973-4.51 2.31-.477896.0562788-.958811.0829963-1.44.08.3472043.1013281.7086332.14524 1.07.13.8060331-.0347611 1.6050276-.1656888 2.38-.39 1.1548429-.3953581 2.2190193-1.0175443 3.13-1.83.3.07.61.11.91.18-.7837398.9026336-1.766145 1.6111976-2.87 2.07-1.8243151.7330286-3.8519532.782743-5.71.14-1.1698527-.4147908-2.2251757-1.1000655-3.08-2-1.1091075 1.2112065-2.5842263 2.026034-4.2 2.32-1.945402.3793217-3.9623528.02297-5.66-1-.6666623-.4220015-1.2723044-.9334326-1.8-1.52.3009345-.0365275.5985223-.0967138.89-.18 1.1786001 1.0486108 2.6139513 1.7662865 4.16 2.08.8202649.1454936 1.6597351.1454936 2.48 0-.2057026-.0282305-.4142974-.0282305-.62 0-2.0120235-.0370685-3.9249983-.8800743-5.31-2.34-.8160311-.7654171-1.436704-1.7152867-1.81-2.77 1.5828966-.6436304 3.3069179-.8608571 5-.63 1.5586303.2648029 3.0322672.8953824 4.3 1.84-1.6943828-1.6858832-3.9897986-2.6285148-6.38-2.62-.25-.28-.46-.59-.68-.88 2.1893651-.0935749 4.3407265.5940101 6.07 1.94.4.26.67.67 1.06.93-1.045396-1.3728224-1.582559-3.0655927-1.52-4.79-.02434-1.3221264.3220748-2.6246462 1-3.76.2046068.4349431.4489797.8500423.73 1.24-.4479401 1.0218958-.7087451 2.1159223-.77 3.23.001532 1.5136406.4276787 2.9964927 1.23 4.28-.4408266-.9499562-.7341994-1.9615863-.87-3-.2403749-2.5530739.8010217-5.0591685 2.78-6.69 1.6539925 1.4625555 2.6429196 3.5342496 2.74 5.74.0250604 1.4780779-.3479749 2.9356786-1.08 4.22.911018-1.3169781 1.4025256-2.8786477 1.41-4.48-.0451665-1.1335247-.3100719-2.2474856-.78-3.28.2910038-.3959001.5327787-.8257223.72-1.28.6999831 1.1700632 1.047224 2.5173577 1 3.88.0289694 1.6547345-.4759766 3.2747698-1.44 4.62 1.8466228-1.9021885 4.4220152-2.9185032 7.07-2.79-.2492763.258081-.4643696.5471127-.64.86-1.8309093-.0065588-3.6215892.5369161-5.14 1.56-.4339954.298524-.8421018.6330374-1.22 1 1.2105275-.8641084 2.5911162-1.4606591 4.05-1.75 1.7393836-.2669719 3.5185767-.0596872 5.15.6-.4073175 1.053213-1.0665459 1.9905534-1.92 2.73z" fill="#039188"/><g fill="#f2d660"><path d="m44.87 19.91c.34-.24.62-.56.93-.83.3503579.2167893.7144616.4105326 1.09.58l-.52-1.1c.29-.31.61-.58.91-.87-.41 0-.82.1-1.23.13-.23-.33-.3-.76-.57-1.07-.09.4-.13.8-.26 1.19-.4108721.0207066-.8191189.0775934-1.22.17.3769598.1741801.7411931.3746754 1.09.6-.09.4-.15.8-.22 1.2z"/><path d="m24.89 18.59c-.19.36-.36.73-.52 1.1l1.11-.6c.2761853.3057239.5846481.5806582.92.82-.0939608-.4089165-.164079-.8229478-.21-1.24.3644568-.1685459.7184311-.3588906 1.06-.57-.41-.07-.82-.12-1.23-.15-.046683-.408529-.1372044-.8108463-.27-1.2-.17.37-.33.74-.52 1.09-.4072061-.0666004-.8178683-.1100037-1.23-.13.3188385.270028.6163867.5642329.89.88z"/><path d="m41.62 14.53c.15.4.27.81.42 1.2.14-.4.25-.8.39-1.19.4163804.0218437.8336196.0218437 1.25 0-.3487033-.2324462-.6826759-.4862654-1-.76.14-.38.25-.77.37-1.16-.35.24-.67.52-1 .74-.34-.24-.67-.48-1-.7.13.39.27.79.39 1.19-.32.28-.68.5-1 .78.3949431-.0103624.7889455-.0437524 1.18-.1z"/><path d="m34.16 14c.52-.31 1-.73 1.5-1 .49.34.94.74 1.45 1-.15-.58-.39-1.14-.54-1.72.48-.38 1-.72 1.48-1.09h-1.85c-.151581-.5845716-.3488546-1.1563307-.59-1.71-.1562699.5851715-.3500028 1.15969-.58 1.72-.6 0-1.21 0-1.81 0 .51407.3379095 1.0082238.705186 1.48 1.1-.17.59-.4 1.14-.54 1.7z"/><path d="m28.87 14.54c.0831514.4092697.2105672.8082823.38 1.19.1110831-.4095416.2514443-.8105738.42-1.2.4081754.0547024.8218246.0547024 1.23 0-.352736-.2267342-.6870996-.4808505-1-.76.12-.39.27-.77.37-1.16-.34.23-.67.48-1 .7-.35-.22-.65-.51-1-.72.13.39.24.79.37 1.17-.34.26-.69.49-1 .73.36.05.8.05 1.23.05z"/></g><path d="m42.35 23.92c-1.4588838.2893409-2.8394725.8858916-4.05 1.75.3778982-.3669626.7860046-.701476 1.22-1 1.5184108-1.0230839 3.3090907-1.5665588 5.14-1.56.1756304-.3128873.3907237-.601919.64-.86-2.6479848-.1285032-5.2233772.8878115-7.07 2.79.9640234-1.3452302 1.4689694-2.9652655 1.44-4.62.047224-1.3626423-.3000169-2.7099368-1-3.88-.1872213.4542777-.4289962.8840999-.72 1.28.4699281 1.0325144.7348335 2.1464753.78 3.28-.0074744 1.6013523-.498982 3.1630219-1.41 4.48.7320251-1.2843214 1.1050604-2.7419221 1.08-4.22-.0970804-2.2057504-1.0860075-4.2774445-2.74-5.74-1.9789783 1.6308315-3.0203749 4.1369261-2.78 6.69.1358006 1.0384137.4291734 2.0500438.87 3-.8023213-1.2835073-1.228468-2.7663594-1.23-4.28.0612549-1.1140777.3220599-2.2081042.77-3.23-.2810203-.3899577-.5253932-.8050569-.73-1.24-.6779252 1.1353538-1.02434 2.4378736-1 3.76-.062559 1.7244073.474604 3.4171776 1.52 4.79-.39-.26-.66-.67-1.06-.93-1.7292735-1.3459899-3.8806349-2.0335749-6.07-1.94.22.3.43.61.68.88 2.3902014-.0085148 4.6856172.9341168 6.38 2.62-1.2677328-.9446176-2.7413697-1.5751971-4.3-1.84-1.6930821-.2308571-3.4171034-.0136304-5 .63.373296 1.0547133.9939689 2.0045829 1.81 2.77 1.3850017 1.4599257 3.2979765 2.3029315 5.31 2.34.2057026-.0282305.4142974-.0282305.62 0-.8202649.1454936-1.6597351.1454936-2.48 0-1.5460487-.3137135-2.9813999-1.0313892-4.16-2.08-.2914777.0832862-.5890655.1434725-.89.18.5276956.5865674 1.1333377 1.0979985 1.8 1.52 1.6976472 1.02297 3.714598 1.3793217 5.66 1 1.6157737-.293966 3.0908925-1.1087935 4.2-2.32.8548243.8999345 1.9101473 1.5852092 3.08 2 1.8580468.642743 3.8856849.5930286 5.71-.14 1.103855-.4588024 2.0862602-1.1673664 2.87-2.07-.3-.07-.61-.11-.91-.18-.9109807.8124557-1.9751571 1.4346419-3.13 1.83-.7749724.2243112-1.5739669.3552389-2.38.39-.3613668.01524-.7227957-.0286719-1.07-.13.481189.0029963.962104-.0237212 1.44-.08 1.7265538-.221027 3.3217176-1.0380621 4.51-2.31.8002115-.7589902 1.4071208-1.6984995 1.77-2.74-1.6232171-.6509089-3.391279-.8546504-5.12-.59z" fill="#fff"/></g></svg>