<svg height="48" viewBox="0 0 71 48" width="71" xmlns="http://www.w3.org/2000/svg"><g fill="none"><rect fill="#ed5565" height="47" rx="6.36" width="70" x=".9" y=".95"/><path d="m.9 8.02h70v32.85h-70z" fill="#57a863"/><g fill="#f6d660"><path d="m39.46 20.92c.16.55-.1.74-.58.44l-1.8-1.14c-.552648-.2969019-1.217352-.2969019-1.77 0l-1.72 1c-.49.29-.76.08-.59-.46l.62-2c.1506764-.5922795-.0655648-1.2174132-.55-1.59l-1.93-1.36c-.47-.33-.38-.61.18-.62h2.37c.6140226-.0402356 1.1505646-.4290342 1.38-1l.71-2c.19-.54.52-.55.74 0l.84 2c.2693822.5601382.8114336.9391951 1.43 1l1.89.09c.57 0 .68.34.24.71l-1.59 1.32c-.4538889.4184209-.6452803 1.0500127-.5 1.65z"/><path d="m44.26 18.83c.2273242.4666323.4146622.951704.56 1.45.6860111 2.3034087.4286848 4.7850096-.7153466 6.8986545s-3.0810121 3.686116-5.3846534 4.3713455h-.11c-3.2947933.9579446-6.8495134.0301179-9.2558326-2.4158889-2.4063191-2.4460067-3.2758769-6.0154277-2.2641674-9.2941111.1584842-.4930418.3592292-.9714841.6-1.43.052419-.1629201-.0371072-.3374962-.2-.39-.1281697-.0437159-.2698825.0008224-.35.11-1.0031016 1.1483258-1.761851 2.4888965-2.23 3.94-1.1011238 3.4853037-.4996837 7.2855018 1.6238746 10.2604497 2.1235583 2.974948 5.5221515 4.7785001 9.1761254 4.8695503 4.4538381.0853191 8.5514736-2.424718 10.4988716-6.4311621 1.9473981-4.006444 1.3897196-8.7792732-1.4288716-12.2288379-.0745631-.1166088-.2173941-.1696603-.35-.13-.0796361.0211032-.1475966.0730379-.1888744.1443359-.0412777.071298-.0524773.1560943-.0311256.2356641z"/></g></g></svg>