<svg height="48" viewBox="0 0 71 48" width="71" xmlns="http://www.w3.org/2000/svg"><g fill="none" fill-rule="evenodd"><g fill-rule="nonzero"><path d="m64.17.43h-58.32c-2.94937931.36373371-5.29794254 2.64286116-5.75 5.58v35.72c.49388474 3.2419958 3.28060151 5.6378925 6.56 5.64h56.72c3.6671707 0 6.64-2.9728293 6.64-6.64v-33.73c-.0115341-3.35289352-2.5208995-6.17110394-5.85-6.57z" fill="#4658a9"/><path d="m25 .38h-18.4c-3.64375352.02193439-6.58909066 2.9761968-6.6 6.62v17.33h25z" fill="#4658a9"/><path d="m10.54 17.79v6.56h3.9v-6.71l6.71 6.71h3.85v-3l-7-7h7v-4h-7l7-7v-3h-3.83l-6.7 6.7v-6.7h-3.9v6.56l-6.16-6.16c-1.56329281.56647757-2.85814249 1.69724162-3.63 3.17l6.41 6.41h-7.19v4h7.16l-7.16 7.16v2.83h4z" fill="#fff"/><path d="m11.54 15v9.31h1.9v-9.45l9.45 9.45h2.11v-1.23l-9.78-9.78h9.78v-1.95h-9.78l9.78-9.78v-1.23h-2.09l-9.45 9.45v-9.45h-1.9v9.3l-8.33-8.34c-.6736073.40866358-1.26948293.93344041-1.76 1.55l8.49 8.49h-9.96v1.95h9.93l-9.93 9.93v1.09h2.23z" fill="#ec5463"/><path d="m39.32 13.48h16.4v11.7c.14 4.7-2.79 7.62-8.17 8.94-3.82-1-8.23-2.92-8.23-8.8v-11.83z" fill="#92dbfc"/><path d="m47.53 35.12h-.24c-2.22-.55-9-2.24-9-9.77v-11.84c0-.5522847.4477153-1 1-1h16.4c.5522847 0 1 .4477153 1 1v11.7c.1 3.48-1.37 8.06-8.93 9.91zm-7.21-20.64v10.84c0 4.07 2.24 6.47 7.23 7.77 4.94-1.27 7.28-3.85 7.17-7.88v-10.73z" fill="#fff"/><path d="m39.32 13.48h16.4v11.7c.14 4.7-2.79 7.62-8.17 8.94-3.82-1-8.23-2.92-8.23-8.8v-11.83z" fill="#92dbfc"/><path d="m39.38 26.58c.6 4.9 4.62 6.65 8.15 7.53 4.83-1.18 7.67-3.66 8.1-7.55z" fill="#e77329"/><path d="m46.88 15.66v-1.47h1.12v1.46h3.19v1.14h-3.19v13.48h-1.14v-13.5h-3.18v-1.17z" fill="#434a54"/></g><path d="m46.43 24.3v5.47" stroke="#434a54" stroke-linecap="round" stroke-linejoin="round" stroke-width=".1"/><path d="m46.1 24.4v5" stroke="#434a54" stroke-linecap="round" stroke-linejoin="round" stroke-width=".1"/><path d="m45.75 25.1v4" stroke="#434a54" stroke-linecap="round" stroke-linejoin="round" stroke-width=".1"/><path d="m45.46 25.41v3.25" stroke="#434a54" stroke-linecap="round" stroke-linejoin="round" stroke-width=".1"/><path d="m45.14 25.6v2.71" stroke="#434a54" stroke-linecap="round" stroke-linejoin="round" stroke-width=".1"/><path d="m44.81 25.77v2.18" stroke="#434a54" stroke-linecap="round" stroke-linejoin="round" stroke-width=".1"/><path d="m44.52 25.94v1.67" stroke="#434a54" stroke-linecap="round" stroke-linejoin="round" stroke-width=".1"/><g fill-rule="nonzero"><path d="m44.3 27.12 2.92 3c1-1.11.31-5.26-1-6-.1211967.4804699-.3699631.9192662-.72 1.27-.63.43-2.18.94-1.67 1.26.0559631-.111622.1701347-.182098.295-.182098s.2390369.070476.295.182098c.18.53-.4.69-.62.68-.1724182-.0052235-.3356894-.0787678-.4538544-.2044354-.1181651-.1256676-.1815323-.2931514-.1761456-.4655646.013794-.3599045.2200626-.6845866.54-.85.1698952-.1089312.3509179-.1994426.54-.27.5649226-.1944444.9936297-.6607574 1.14-1.24.24-1 .48-.84.53-.85 1.47.15 2.44 2.78 2.49 4.64.088777 1.1302975-.2305327 2.2549769-.9 3.17-.15.08-3.51-4-3.51-4l.32-.18z" fill="#f5bb43"/><path d="m48 18.49c.2-.17.31-.28.43-.26.1384215.0297315.2815785.0297315.42 0 .3301931-.0647064.6698069-.0647064 1 0 .1443918.0315606.2764479.104539.38.21.3265127.2765362.4630386.7173196.35 1.13-.09.72-.06 1-.1 1.44-.07.71-.23 1.3-.51 1.25.39.67.42 1.25.67 1.71.3126605.7693202.4195025 1.6068236.31 2.43-.1 1-.37 3.31.44 4.85-.13.1-.46 0-.75-.31s-.42-.3-.65-.12c-.73.56-1.42 1.23-2.43.56-.23-.15-.3-.34-.13-.81.4006377-1.1466726.593657-2.3555829.57-3.57v-8.49z" fill="#55a963"/><g fill="#ffe1cf"><path d="m48.74 17.77c.0699833.1835557.0699833.3864443 0 .57-.1121905.2198476-.1121905.4801524 0 .7.23-.33.56-.26.75-.45s.23-.38.38-.41c-.2254802-.1247851-.3522263-.3743164-.32-.63 0-.37.56-.66.1-1.22-.2275183-.2754848-.6294304-.3279082-.92-.12-.0786702.0585451-.1435299.1336458-.19.22 0 .06 0 .21-.06.29-.0502256.0597876-.1072809.1134868-.17.16 0 0-.07.08 0 .13s.05 0 .09 0l-.07.12v.08.21c0 .08-.1.16.06.25.1146429.0443765.2371616.0647963.36.06z"/><path d="m46.86 19.68c-.27.07-.7 0-1 0-.14 0-.26-.06-.24-.2.0248316-.1891887.0248316-.3808113 0-.57.0036871-.4301042.1136127-.8526308.32-1.23.169671-.3097867.278303-.6492616.32-1-.0205095-.1500812.0358641-.3004108.15-.4.0650173-.0457019.1167718-.1078072.15-.18.08-.12.16-.15.17-.08.0168667.0451426.0168667.0948574 0 .14.09-.07.23-.16.27-.18s.21-.14.21 0 .11 0 .13 0 0 .06 0 .08.1.07 0 .15.1.07 0 .14-.2.13-.23.2c-.0986896.1138191-.2172934.2087022-.35.28-.09 0-.1.09-.1.23.0158162.5787511-.0447048 1.1570629-.18 1.72 0 .1 0 .18.08.15.1226197-.0415691.2506167-.0651475.38-.07v.84z"/><path d="m46.92 22.88c.381548-.1675377.7807213-.2916504 1.19-.37.304387-.0993564.5989668-.2265612.88-.38.2-.11.37-.25.48-.29.1368571-.0409304.2519209-.1344198.32-.26.332018-.5570436.5305364-1.1834036.58-1.83 0-.34-.09-.71-.41-.44-.338631.293641-.5909786.6738908-.73 1.1-.0647703.2629607-.1586849.5178716-.28.76 0 .11-.14.11-.27.13-.4194358.0655074-.8114592.2493768-1.13.53-.3802373.2812081-.7776788.5383761-1.19.77-.31.17-.37.19-.43.33-.0488436.1115439-.1127741.2158517-.19.31-.052537.0563178-.0748541.1344277-.06.21v.45c0 .1 0 .12.06.13s.09 0 .11-.13c0 .12.14.08.15 0 0 .13.16.05.17-.06 0 .08.13 0 .14 0 .0226815-.0955294.0527726-.1891461.09-.28.0491264-.1297068.1278877-.2461366.23-.34.13-.09.07-.19.33-.32z"/><path d="m50 30.77c0 .11.08.23.1.3s0 .09 0 .13c-.1104421.2313744-.1878639.4771045-.23.73-.0211778.0972387-.0620141.1891204-.12.27 0 .07 0 .12.06.19.0745278.0279745.1579282-.0071414.19-.08.0208943.0254366.0520821.0401788.085.0401788s.0641057-.0147422.085-.0401788c0 0 .12 0 .16-.06s.11 0 .13-.07.14 0 .14-.14c-.0067347-.0329932-.0067347-.0670068 0-.1.0110413-.0460136.0110413-.0939864 0-.14.0080862-.081918.0355047-.160746.08-.23.0713027-.0943422.1035332-.2125207.09-.33 0-.12-.08-.11-.13-.27s-.25-.26-.4-.27c-.1097208.0047104-.2134811.0512237-.29.13z"/><path d="m47.3 31.6c.2052185.1512478.4935983.1113183.65-.09-.1122315-.0455061-.2194663-.1024746-.32-.17-.0920993.1072459-.2041807.1955525-.33.26z"/></g><path d="m48.59 16.23c.05-.34.37-.29.52-.25.1185899.0260165.2414101.0260165.36 0 .29-.08.5 0 .47.3.0928914.0755125.1447684.1903831.14.31 0 .12 0 .16.12.18s.33.14.18.33c.1618328.0909514.2371266.2833689.18.46-.0472136.0629515-.1213107.1-.2.1s-.1527864-.0370485-.2-.1c-.1279629.0648291-.2825297.0450129-.39-.05-.07.09-.26.08-.29 0-.0286274-.0690324-.0877784-.1207895-.16-.14-.08 0-.08-.24 0-.26-.0239618-.0541336-.0239618-.1158664 0-.17 0 0 0-.1-.06-.15-.0899223-.1013273-.1132933-.2454485-.06-.37-.1550728.012848-.3081506-.0418226-.42-.15.01-.05-.14-.1-.19-.04z" fill="#e77329" stroke="#e77329" stroke-linecap="round" stroke-linejoin="round" stroke-width=".1"/><path d="m48.59 16.59c.07.09.14.08.15.14-.0077812.026099-.0077812.053901 0 .08 0 0 0 0-.06 0h-.11c-.0072753-.0158727-.0072753-.0341273 0-.05v-.06z" fill="#434a54"/><path d="m48.63 16.5c.1082322.0106415.2100438.0562812.29.13.06.06 0 0 0 0-.0452735.0010666-.0888784-.0171021-.12-.05-.0454124-.0423036-.1002652-.0731583-.16-.09z" fill="#434a54"/></g></g></svg>