<svg height="48" viewBox="0 0 71 48" width="71" xmlns="http://www.w3.org/2000/svg"><g fill="none"><path d="m1.05 43.19c.06.2.13.3933333.21.58.16123596.3782532.35883033.7399513.59 1.08.11333333.1666667.23666667.33.37.49.44344605.5315255.97031101.9874663 1.56 1.35 1.00042199.6417027 2.16151794.9882985 3.35 1h28.71c0-15.6666667 0-31.3333333 0-47h-28.71c-3.51253101 0-6.36 2.84746899-6.36 6.36v34.27c-.01094124.2165285-.01094124.4334715 0 .65.05279744.4149186.14658922.8235828.28 1.22z" fill="#fff"/><path d="m47.45 47.66h16.95c.5749185-.0026727 1.146811-.0834105 1.7-.24h.19l.21-.08.37-.14.23-.11.33-.16h.05c.16-.09.32-.18.47-.29l.24-.18.25-.19.1-.09c.2745798-.2347907.5288185-.4923746.76-.77l.21-.29.15-.2.14-.23c.06-.1.12-.19.18-.3.1910382-.3510085.3484074-.7193193.47-1.1 0-.16.09-.32.12-.48v-.13c.0862856-.4212066.1298397-.8500463.13-1.28v-34.4c-.0001603-.42995366-.0437144-.85879344-.13-1.28 0-.19-.09-.38-.14-.56-.1215926-.38068073-.2789618-.7489915-.47-1.1-.06-.1-.12-.2-.18-.3l-.14-.23-.15-.2-.21-.29-.14-.15-.27-.3-.25-.22-.2-.19-.13-.09c-.2796312-.22122896-.5773435-.41858885-.89-.59l-.33-.16-.23-.11-.37-.14-.21-.08h-.19c-.553189-.15658954-1.1250815-.2373273-1.7-.24h-28.52v47z" fill="#ed5565"/><path d="m25.81 14.71h-4v-4c0-1.1045695-.8954305-2-2-2h-3c-1.1045695 0-2 .8954305-2 2v4h-4c-1.1045695 0-2 .8954305-2 2v3c0 1.1045695.8954305 2 2 2h4v4c0 1.1045695.8954305 2 2 2h3c1.1045695 0 2-.8954305 2-2v-4h4c1.1045695 0 2-.8954305 2-2v-3c0-1.1045695-.8954305-2-2-2z" fill="#ccd1d9"/></g></svg>