<svg height="48" viewBox="0 0 71 48" width="71" xmlns="http://www.w3.org/2000/svg"><g fill="none"><rect fill="#57a863" height="47" rx="6.36" width="70" x=".52" y=".66"/><path d="m62.52 8.66v31h-54v-31zm1.64-8h-57.27c-3.51253101 0-6.36 2.84746899-6.36 6.36v34.27c0 3.512531 2.84746899 6.36 6.36 6.36h57.27c3.512531 0 6.36-2.847469 6.36-6.36v-34.29c0-3.51253101-2.847469-6.36-6.36-6.36z" fill="#ed5565"/><path d="m42.09 30.33c-.3477734.1696081-.7090109.3100893-1.08.42-1.7186057.5122311-3.5703194.3205863-5.147594-.5327549s-2.7508406-2.2984411-3.262406-4.0172451c-.3716387-1.3601589-.3368751-2.7993704.1-4.14 1.2072012-3.5628344 5.0457787-5.502139 8.63-4.36.3650684.1166233.719657.263811 1.06.44.1210244.0335846.2474743-.0318205.29-.15.0308594-.097034-.0057553-.2028097-.09-.26-.8581028-.7434886-1.8583415-1.3048471-2.94-1.65-4.5029406-1.4325587-9.3237701 1.0045396-10.84 5.48-1.010902 2.9973385-.2609184 6.3083124 1.9429202 8.5774656 2.2038387 2.2691532 5.4915031 3.1154899 8.5170798 2.1925344 1.0940605-.3196053 2.1137754-.8532561 3-1.57.0879949-.0543293.1289096-.1607075.1-.26-.03405-.1207925-.1586457-.19199-.28-.16z" fill="#fff"/></g></svg>