<svg height="48" viewBox="0 0 71 48" width="71" xmlns="http://www.w3.org/2000/svg"><g fill="none"><path d="m6.51.95c-3.51253101 0-6.36 2.84746899-6.36 6.36v34.27c0 3.512531 2.84746899 6.36 6.36 6.36h17c0-15.6666667 0-31.3333333 0-47z" fill="#57a863"/><path d="m23.49.95v47h23.35c0-15.6666667 0-31.3333333 0-47z" fill="#fff"/><path d="m63.78.95h-16.95v47h16.95c3.512531 0 6.36-2.847469 6.36-6.36v-34.27c.0026549-1.68850883-.6662424-3.30876993-1.8592616-4.50366499-1.1930193-1.19489505-2.8122275-1.8663371-4.5007384-1.86633501z" fill="#ed5565"/><g transform="translate(25 16)"><path d="m19.3 3.37c.2541699-.19734741.4167193-.48993633.45-.81.0314565-.300485-.0545448-.60148978-.24-.84-.0032051-.14333306-.0889253-.27191331-.22-.33h-.11c-.0403427-.09819398-.0906032-.19201355-.15-.28-.0721366-.08179517-.1759398-.12865362-.285-.12865362s-.2128634.04685845-.285.12865362c-.1047441.11186766-.1954169.23612297-.27.37-.0958607-.07147999-.210616-.1132092-.33-.12-.0954762-.00797262-.1898849.02470731-.26.09-.1310191.14475588-.1310191.36524412 0 .51.0128004.04578889.0128004.09421111 0 .14v.14c-.0684163.25210746-.0684163.51789254 0 .77-.2126349.0751414-.3561811.27451113-.36.5.0074578.0901798.0311732.17826572.07.26.0372927.07571879.096534.13844485.17.18-.1643071.0780537-.3187288.17540656-.46.29-.347536.24958368-.55254.65213688-.55 1.08-.0034192.05661509-.0034192.11338491 0 .17-.1645218-.01638791-.3262139.05129714-.43.18-.0654224.07517617-.1132506.16399995-.14.26-.0214317.05808617-.0214317.12191383 0 .18h-.08c-.1925459.01566235-.340636.17681921-.34.37-.0025598.02326313-.0025598.04673687 0 .07-.069427.06772032-.142895.13117-.22.19-.2848621.19162837-.515599.45335979-.67.76-.1357901-.07685233-.2971484-.0946802-.4464407-.04932557s-.2734659.14992633-.3435593.28932557v.11.16c-.0065297.03973352-.0065297.08026648 0 .12-.1591984-.07473967-.3343652-.10908608-.51-.1-.2937565-.00651274-.5838679.06601511-.84.21-.1328837.08343197-.2511305.18816486-.35.31-.0575689.07226877-.1248759.13621036-.2.19-.0884684.05051348-.1824086.09077358-.28.12h-.14c-.1126726-.04381159-.2301694-.07402508-.35-.09-.1728131-.01899241-.3471869-.01899241-.52 0-.15 0-.27.21-.32.38-.0051054-.13739992-.0859802-.26063763-.21-.32-.17663533-.08023123-.36638942-.12766975-.56-.14-.21997837.00621478-.43832601.03980673-.65.1-.08022343-.1463979-.22473292-.24644293-.39-.27h-.11c-.12926565-.16391031-.32174819-.2655992-.53-.28-.15782948-.01789893-.31748051.00986647-.46.08-.08534785-.04925494-.18151336-.0767308-.28-.08-.15618677-.01268484-.31187908.0297767-.44.12v-.06c.0086113-.02938205.0086113-.06061795 0-.09.00375529-.04992949.00375529-.10007051 0-.15.01681822-.05200746.01681822-.10799254 0-.16-.01500088-.03918023-.03518016-.07617557-.06-.11-.03569344-.04755638-.07974465-.08821903-.13-.12-.12197546-.19512564-.36137705-.28180553-.58-.21-.03821556-.03420615-.08224243-.06129961-.13-.08-.00440858-.10349195-.02815077-.2052442-.07-.3-.10403993-.22915119-.30023138-.40354359-.54-.48-.04839315-.1765111-.16790965-.32500129-.33-.41-.10708236-.03582964-.22291764-.03582964-.33 0v-.05c.00890928-.04624144.00890928-.09375856 0-.14-.01737267-.07654099-.0515284-.14826803-.1-.21-.02215578-.21863118-.1844634-.39716956-.4-.44.01373152-.12762729-.03462224-.25409096-.13-.34-.03247888-.02934061-.0696651-.05300457-.11-.07-.00411781-.12392189-.03124568-.24599733-.08-.36-.06686706-.26147159-.31071824-.43805347-.58-.42-.06523081-.08031987-.1578151-.13373388-.26-.15v-.07h.14c.10613784-.06730515.18971952-.16481712.24-.28.02895252-.08424864.02895252-.17575136 0-.26.08351652-.20942002.0133533-.44880044-.17-.58h-.08c.04670886-.10852072.04670886-.23147928 0-.34.08417669-.10950852.13300942-.24205449.14-.38.00252802-.14354048-.0555597-.28149881-.16-.38.00204784-.02996505.00204784-.06003495 0-.09.03679055-.14479321-.00067586-.29840549-.1-.41-.12920584-.16229504-.35421798-.21229774-.54-.12h-.1-.06c-.11763625-.01573422-.23663999.01672134-.33.09-.11781963.09636982-.21047447.21990961-.27.36h-.07c-.14502997.0406172-.26758569.13794086-.34.27-.06637068.12222344-.09425622.26165118-.08.4-.0707661.04914401-.12899712.11422573-.17.19-.2.37.07.66.31.83-.03975781.03026672-.07364812.06754607-.1.11-.10482557.1829412-.07185608.4137276.08.56.03764328.11371028.11137825.21202358.21.28.11093895.0669731.24226271.09181814.37.07l-.06.07c-.00629225.04310492-.00629225.08689508 0 .13-.12449617.05206749-.21203985.1662549-.23.3-.03941292.22417495.04926241.45164643.23.59.0180963.28817755.19007962.54424161.45.67.01104174.08588217.04184865.16803393.09.24.08284647.09881341.19487545.16883152.32.2-.05334253.0723148-.08145028.16015151-.08.25.01124634.11299635.06062088.21879895.14.3.04670534.05703898.10938504.09882545.18.12v.06c.0766764.0816822.17902798.13462267.29.15.04729687.02325138.10270313.02325138.15 0 .0728108-.01928678.14088409-.05332343.2-.1v.08c-.07658081.27898763.03174639.57588439.27.74.01004454.21278893.10779412.41190845.27.55.16240211.15875824.3740073.25750733.6.28h.13l.11.07c-.00220785.10077926.02948571.19938143.09.28.03924384.0535419.0864581.10075616.14.14.03155522.02617235.06953247.04343474.11.05h.17c.05748655.0388458.12204087.06602657.19.08.01932513.10603003.08061998.19977509.17.26.10706823.05744007.2299136.07849928.35.06.04865828.03075285.1031186.05117547.16.06.04625259.1330732.14863113.2391081.28.29.13446179.0347179.27553821.0347179.41 0 .07477908.1217478.19255466.2109717.33.25.17153477.0602208.35846523.0602208.53 0 .05708351.041726.12155275.0722641.19.09h.07c.18413606-.0175569.3585496-.0908106.5-.21.09919537.0699345.21873745.1050939.34.1.17313957.0036899.33993138-.0652024.46-.19h.07l.23-.15c.11053078-.0583385.22818615-.10203903.35-.13.1170854-.03513183.2101204-.12444547.25-.24.0312002.13941535.1281457.25500422.26.31.1324885.0432727.2626609.093339.39.15.05 0 .13.09.13.07.097353.1857267.2903104.301501.5.3.1563086-.0043947.3026991-.0775899.4-.2.1972325.1513357.432676.2448207.68.27.4410909-.0588874.866029-.2050661 1.25-.43l.17-.08c.0927985-.0141307.1872015-.0141307.28 0 .2060242.0000714.3745783-.16404715.38-.37.0037648-.02988189.0037648-.06011811 0-.09l.11.05c.0612416.02301995.1287584.02301995.19 0 .1156968-.00143656.2278729-.03999708.32-.11.077444-.05888288.1364305-.1386881.17-.23.0102414-.04947556.0102414-.10052444 0-.15.0183515-.07894757.0183515-.16105243 0-.24.3488641-.0170853.6899451-.10917718 1-.27.3394637-.22535918.556896-.59388861.59-1 .051175-.06581514.0792856-.14663334.08-.23h.11c.0389497.01296325.0810503.01296325.12 0h.1c.0759354-.01646353.145432-.05468667.2-.11l.07-.07c.0399966-.02930167.0683356-.07181016.08-.12 0 0 0-.12 0-.15.0110577-.05276018.0110577-.10723982 0-.16-.0116451-.07483555-.0389019-.14638462-.08-.21l.14-.07c.3918637-.29691171.6677442-.72134314.78-1.2.0611911-.13692845.1457916-.26213728.25-.37.1223135-.12271374.1430916-.31387265.05-.46-.035802-.05987442-.0878016-.10840744-.15-.14h.1c.0581624-.02046479.1123078-.05092156.16-.09 0 0 .05 0 .08-.08.030876-.04763858.0576394-.09781986.08-.15v-.07c.0037443-.03657108.0037443-.07342892 0-.11-.0078579-.09771079-.035051-.19288664-.08-.28z" fill="#57a863" transform="translate(0 7)"/><path d="m15.14 11.81v-.13c-.0041178-.1239219-.0312457-.2459973-.08-.36-.07-.13-.47-.44-.63-.42-.2585899.0943043-.4890877.2525565-.67.46-.25.24-.22.44-.57.42h-.19v-.08c.0133333-.0727273.0133333-.1472727 0-.22-.004172-.091871-.0209973-.1827273-.05-.27l-.2-.23s-.38-.21-.4-.2h-.35l-.58.32h-.06l-.36.09h-.09l.32-.46-.63.07h-.19-.22c-.0764237-.0228181-.1477268-.0601673-.21-.11-.09062719-.0663915-.187798-.1233537-.29-.17-.15541194-.0688714-.31588382-.1257052-.48-.17-.13028548-.0382637-.26446304-.0617447-.4-.07-.12157486.0030817-.23965931.0412854-.34.11-.15532743.1069999-.28508829.247005-.38.41-.13227361-.1578627-.28340076-.2989147-.45-.42l-.06-.05c-.24933497-.1694343-.53924013-.2695206-.84-.29-.25439845-.0211621-.5046159.0745092-.68.26.00365203-.0599444.00365203-.1200556 0-.18-.04290362-.32539221-.20287777-.62401062-.45-.84-.20579781-.22248964-.4969895-.34624611-.8-.34-.11278072.01878058-.2173071.07104377-.3.15-.08539102.09134834-.14116496.20638209-.16.33v.06.06c-.00380476.04658912-.00380476.09341088 0 .14v.1l.06.17.06.09v.05l.1.14.25.21.1.05.14.07h.07.1.08.07.14.13.18c-.00429121.0331952-.00429121.0668048 0 .1.02295383.1076873.07887671.2055524.16.28.29357632.2047867.64207401.316306 1 .32h.29c.21404927-.0046832.42227135-.0706201.6-.19.01711105.1714963.09517155.3311655.22.45.1272488.126342.2861288.2161438.46.26.28834927.0691716.58349616.106065.88.11.18003693.0053703.35956931-.0217289.53-.08.1394776-.05317.2682092-.1310865.38-.23-.0409736.1532696-.0611543.3113523-.06.47v.41c-1.76 0-3.19.43-3.19 1s1.43 1 3.19 1 3.19-.43 3.19-1-.91-.77-2.16-.9c.0228099-.0865799.0675885-.1658036.13-.23.2384589-.1688071.5185868-.2690998.81-.29.1291825-.005744.2555118-.039887.37-.1h.08l.4.17.35.1h.1.32c.3556698-.0320018.6985339-.1485756 1-.34h.06.06l.14-.11z" fill="#039188"/><g fill="#57a863" transform="translate(3)"><path d="m3.83 8.83-.24-.36h-.11.07c-.04596637.01143341-.09403363.01143341-.14 0-.07613113-.00155657-.14834471-.03405268-.2-.09-.07029778-.07033656-.11590942-.16155984-.13-.26-.02201591-.13045607-.05892382-.25795612-.11-.38-.09915195-.16897961-.23605512-.31272794-.4-.42-.16-.13-.31-.25-.33-.39-.00289136-.02658829-.00289136-.05341171 0-.08.01042038-.1252168.04434575-.24734816.1-.36v-.09c.04275851-.09052605.06332673-.18993907.06-.29 0 0 0 0 0-.07.00151782-.0299808.00151782-.0600192 0-.09-.04018764-.21423647-.17159059-.40039066-.36-.51-.08825987-.05894226-.18203294-.10917783-.28-.15 0 0-.06-.14-.14-.16s-.12.13-.16.16v-.09c-.01696418-.05579577-.06294242-.09794249-.12-.11-.0437291-.00987396-.0886859.01056095-.11.05 0 0 0-.12-.15-.12s-.11.17-.14.17-.17 0-.19.11.1.12.11.14c-.01397104.05580553-.01397104.11419447 0 .17 0 .07.17 0 .22 0-.00279734.01654929-.00279734.03345071 0 .05.05.08.22 0 .22 0v-.07c0 .06 0 .17.09.19.06281878.01332039.12714846-.01482385.16-.07l.1.07c.06073893.0452764.10611598.10810616.13.18-.02070835.13331146-.0647126.26193927-.13.38-.07922888.16587934-.12347968.34628648-.13.53v.09c-.0048254.05656394-.0048254.11343606 0 .17.014795.1061307.06397244.20448558.14.28.04957911.06631846.1066205.12671524.17.18.15665159.10303612.29803587.22758893.42.37.07927779.17756747.12990607.36657971.15.56.01779983.10326171.0480191.20399261.09.3.03907182.09120896.10544987.16806776.19.22.12426748.07291858.26592129.11092327.41.11h.16l.19-.05c.07411396-.02821032.14460919-.0651364.21-.11.07537701-.03300834.138382-.08901278.18-.16zm-.89-.85v-.1.09z"/><path d="m3.21 2.55c.19 0 .08-.55.08-.55l-.13.11c.04697755.06426962.07472201.14056691.08.22.00922741.06969591.00922741.14030409 0 .21z"/><path d="m5.32 8.3-.13-.29v-.2-.2-.19l-.06-.18-.1-.16-.09-.08-.09-.08-.17-.05h-.16-.31-.33-.13l-.25-.12-.16-.27v-.32l.07-.18.1-.14.06-.06.22-.22h.05l.17-.14.13-.1.18-.15c.05737818-.04590297.10789043-.0997827.15-.16l.2-.23.14-.25c-.07548813-.07215679-.16362641-.12978567-.26-.17.09648214.04000915.18465629.09766148.26.17v-.2-.25l-.1-.17-.12-.17-.13-.15-.07-.07h-.32l-.17.2-.22.25.35.26c.00640021.02289445.00640021.04710555 0 .07-.17.38-.54.56-.87.8-.17455377.11584169-.32415831.26544623-.44.44-.13274014.22344479-.19867553.48024578-.19.74-.03037112.40685439.14633333.80161966.47 1.05.17832792.11688261.38678167.17941873.6.18h.16.34.2c.03586457-.01084622.07413543-.01084622.11 0 .00686292.01941125.00686292.04058875 0 .06-.00766141.05010314-.03238806.09602407-.07.13l-.1.08.27.25v.28l.3.06h.07.09z"/><path d="m2.37 3.45c0 .17.07.33.19.38.23271188.02408358.46728812.02408358.7 0h.1v-.07l.16-.54c-.06097277.02460823-.1248124.04140813-.19.05h-.33-.12c-.02226263-.05101009-.02226263-.10898991 0-.16.09 0 .2-.07.38-.14s.29-.26.26-.27-.09.09-.24.16c-.11976228.06272652-.25589888.08716129-.39.07-.05 0 0-.09 0-.16.04770968-.09761359.10824503-.18841661.18-.27.03648954-.08165257.05360203-.17063751.05-.26 0-.09.21-.2.22-.23s0-.11-.09-.11-.18.14-.18.14h-.06c-.03279556-.00846778-.06720444-.00846778-.1 0l-.12.08-.1.08c-.16618752.12134732-.30290491.27857231-.4.46 0 .17.15.36.16.38-.03458004.135003-.06129167.27190008-.08.41z"/></g><g transform="translate(6)"><path d="m11 5.26s-.13-.08-.29-.22l-.22-.34c-.2217049-.56512262-.50331159-1.10486876-.84-1.61-.38790306-.56254596-.88428373-1.04192729-1.46-1.41.00950709-.03645676.02653885-.07052028.05-.1 0 0 .18-.2.12-.23s-.23 0-.35 0-.19 0-.52-.26c-.81191298-.49999739-1.73751483-.78559201-2.69-.83-.51 0-.74.15-.77.25v.08c-.18 0-.75 0-.73.52 0 .21.05.28.22.33.29078681.03200428.56735833.14263288.8.32.19519684.13730403.3109545.36135112.31.6-.00202974.1038033-.02587979.20601781-.07.3l.18.88.13.47v.1l.12.85.81 1.39h.19.17c.09645357-.09269679.17153126-.20531332.22-.33h.09c0 .05.21.32.34.38s.2 0 .32.13c.20377842.24270066.39406532.49641653.57.76.03703715.05549248.07709762.10890644.12.16.032.01333333.068.01333333.1 0 .07 0 .09 0 .06-.05-.10940529-.11514862-.19443726-.25119979-.25-.4-.06687564-.24141567-.16433185-.47329423-.29-.69h.15c.20380575.10273975.3764339.25810508.5.45.02597326.17103283.08003506.33659711.16.49.05902799.14896098.13628302.29003537.23.42 0 .1.1.18.16.19s0-.11-.06-.19-.06-.3-.16-.58c-.05183192-.22862711-.12206064-.45269015-.21-.67l-.08-.07h.06l.1.07c.12858928.14598674.22713501.31589317.29.5.06.17.13.45.21.71s.21.55.24.48c.02317546-.30677476-.02473345-.61476067-.14-.9-.09455025-.29085371-.1451085-.59420316-.15-.9.09311475.0489185.16448524.13099455.2.23.1.22 0 .36.15 1 .06699376.29354626.17470317.57628348.32.84.07.21 0 .72.1.83.03046063-.3927436.03046063-.7872564 0-1.18 0-.27 0-.28-.08-.94s-.08-.75-.09-.77c.0921089.10106452.15441372.22567417.18.36.12.42.12 1.13.2 1.31.05734352.10994937.10745001.22352408.15.34.08.23-.07 1.19.09 1.19s.13-1.3.1-1.69-.06-1.47-.07-1.58c.0853975.10146115.1591887.21214806.22.33v.07c0 .28 0 1.25.08 1.58.053645.23372266.0904066.47100174.11.71-.0164666.23543344-.0498866.46937326-.1.7 0 .09 0 .25.11.24s0-.21.07-.32c.0257515-.07019552.0592945-.13728148.1-.2.06-.17.07-1.3.17-1.86.1296224-.36656327.2004967-.75130952.21-1.14.0005284-.38088224-.0742379-.75811228-.22-1.11h.18c.0247154.01245972.0529781.01599256.08.01zm-2.69-3.51-.11-.07z" fill="#866f57"/><path d="m2.77 8.52c-.11245818-.00912059-.21504811-.06774341-.28-.16 0-.05.08-.11.07-.15s-.06-.1-.09-.1c-.05260643-.1522628-.14599948-.28716388-.27-.39-.12-.06 0 .11 0 .18-.01283809.05593954-.01283809.11406046 0 .17.04208835.05475426.06650471.12102725.07.19 0 0 0 .06-.09.09h-.11c-.10255176-.04306805-.21003302-.07329716-.32-.09.01333333-.032.01333333-.068 0-.1.00096341-.0840399-.04036525-.16294008-.11-.21-.03914855-.01167184-.08085145-.01167184-.12 0-.01454797-.04553286-.01454797-.09446714 0-.14 0-.15.09-.17.09-.17-.03970172-.00690828-.08029828-.00690828-.12 0h-.07-.07c-.05601209-.01218076-.11398791-.01218076-.17 0-.15 0-.26.2-.29.31h-.08c-.09531962.03677126-.15867339.1278423-.16.23-.02475209-.01429062-.05524791-.01429062-.08 0-.04475043.09148753-.04475043.19851247 0 .29.00706281.06397422.03520721.12378107.08.17 0 .07.09.2.15.2.038774.05717134.10119141.09388746.17.1.09014359-.00844841.17475453-.04722842.24-.11.07128802-.01322344.13925803-.04041144.2-.08.05348131-.00342102.10516234-.02064804.15-.05.05746236.0609089.12985898.10572586.21.13.08 0 .25-.17.34-.29 0 0 .07.13.14.13l.14.22h.53l.22-.22s-.14-.14-.37-.15zm-.42 0h.05v.08z" fill="#f6d660"/><path d="m7.39 11.48c.00376476-.0298819.00376476-.0601181 0-.09.03509179-.079639.03509179-.170361 0-.25v-.06c-.07-.09-.14-.09-.14-.09 0-.0331371-.02686292-.06-.06-.06 0 0 0-.18-.11-.21-.08777593-.028296-.18222407-.028296-.27 0-.01793473-.0338342-.04162153-.0642887-.07-.09-.03444436-.0353572-.08074723-.0567277-.13-.06l-.09-.09c-.02718817-.039112-.07239749-.0617167-.12-.06-.02745446-.0445539-.06112732-.0849613-.1-.12l-.21-.18v-.34l-.41.41v.07l-.21.13-.18.08s0 0-.15 0h-.14c-.04641016-.0267949-.10358984-.0267949-.15 0-.10810544.0084654-.20160366.0785891-.24.18-.05252583-.0131251-.10747417-.0131251-.16 0-.12 0-.25.08-.24.23-.01025258.0528406-.01025258.1071594 0 .16.02208024.0369931.05300688.0679198.09.09 0 0-.09-.16 0-.21s.17 0 .24 0c.06713209.0283375.14286791.0283375.21 0-.00512629.0264203-.00512629.0535797 0 .08-.09390129.0540003-.15410971.151839-.16.26 0 .1580961.10044964.2987256.25.35h.06s-.12-.17-.05-.27.11 0 .15 0c.06688634.0295267.14311366.0295267.21 0 .08886667-.0329387.13696906-.1291435.11-.22l.09-.06c.09-.06.19-.15.27-.19s0 .05.12.06c.0314068.0160272.0685932.0160272.1 0 .01860269.0543425.07310507.0878824.13.08.06227149.0077189.12116948-.0301441.14-.09h.13c-.00778402.0192426-.00778402.0407574 0 .06.00430159.093689.0552242.1790024.13564653.2272558.08042232.0482534.17966239.0530376.26435347.0127442h.06s.15 0 .2.09-.15.22-.15.22c.05604433.011877.11395567.011877.17 0h.1c.04320654.0456281.10617837.0669424.16821555.0569364s.11511448-.0500379.14178445-.1069364z" fill="#f6d660"/><path d="m9.68 9.87-.2-.15s-.6-.47-1.37-1l-1.6-1.2c.01052387-.22621905-.0165089-.45261855-.08-.67-.04875266-.15589395-.11946285-.30404864-.21-.44.15-.12.14-.35.14-.5s-.19-.36-.11-.26c.0569428.07811223.08519859.1734755.08.27-.01079533.13807126-.08456578.26348102-.2.34-.07831391.04090405-.17168609.04090405-.25 0-.06050167-.19604419-.14444189-.38407029-.25-.56-.12-.23-.37-.6-.37-.61v-.1s-.1-.22-.16-.32c-.06076903-.11312213-.1142123-.23002926-.16-.35.01809091-.18956937.01809091-.38043063 0-.57-.01587749-.15335294-.04943366-.3043557-.1-.45.07242029-.02330795.11841326-.09438799.11-.17-.08938068-.07452973-.16693062-.16219489-.23-.26-.09530637-.15860049-.18209602-.32216559-.26-.49-.08948982-.14371899-.20885836-.26649806-.35-.36.02133577-.06153643.02133577-.12846357 0-.19 0 0 0 .07-.2.07-.15344613-.02180978-.30216421-.06912917-.44-.14-.12547492-.04271844-.25748717-.06302802-.39-.06-.02636446.00567766-.05363554.00567766-.08 0h-.08c-.0167618-.16566248-.08296261-.32245388-.19-.45-.01017544.06922799-.03038794.136603-.06.2-.05401446.09570272-.12135424.18324443-.2.26-.00744295-.11120098-.02416784-.22158526-.05-.33 0-.21-.12-.16-.12-.16v.08c.00276926.22122017-.0451196.44014069-.14.64l-.17.08s.07-.09.06-.28-.15-.27-.15-.27c.01941188.11921496.01941188.24078504 0 .36-.02884986.14115889-.09438281.27222478-.19.38.00946616-.06967997.00946616-.14032003 0-.21 0-.27-.12-.26-.12-.26-.00620021.08283092-.02649152.16399614-.06.24-.05483158.17955544-.15069268.34388875-.28.48-.26.28-.37.29-.34.41.00484611.02940787.02141808.05559052.04592309.07255553.02450502.01696501.05484531.02326009.08407691.01744447h.08.05c.14399848.08176176.30473288.12964009.47.14.1 0 .18-.08.36-.08s.22.06.22.06c.03826836.05783559.08966573.10580646.15.14h.19c.03747723.0564271.05827386.12228308.06.19h.05c-.0199827.07236681-.04676877.14268025-.08.21-.06.13-.17.24-.16.26h.06.07l-.22.35c-.1.16-.25.39-.21.39h.14c-.00289136.02658829-.00289136.05341171 0 .08-.17024383.2312988-.28642994.4978434-.34.78 0 .28.05.22.14.48.06034459.219694.10380456.44368004.13.67.05968308-.01971952.11676373-.04658101.17-.08l.15.24c-.03021946.18208785-.0094529.36898686.06.54.12322175.21004804.2709199.40474106.44.58l-.12-.1c-.03416069-.04146204-.07916697-.07262024-.13-.09-.05971191-.03028906-.13028809-.03028906-.19 0 .02983014.09902813.07360237.19330677.13.28.09170401.07285264.19256343.13336829.3.18-.10053322.00253207-.19938165.02639204-.29.07-.0686458.06581224-.12908421.1396814-.18.22 0 .06.11.14.33.24-.06598632.0134694-.13401368.0134694-.2 0-.16 0-.18-.11-.2-.1 0 0 .06.09.06.09-.0796246-.01096028-.1603754-.01096028-.24 0-.08455731.0061446-.16177709.05027019-.21.12.11630143.08398448.24931117.14196308.39.17l.43.11c-.03572656.06188022-.03572656.13811978 0 .2 0 0 .13.1.51 0 .1385483-.03480387.27272956-.08512184.4-.15h.07s.13.29.22.28.14-.46.14-.65l.49.56s.09.11.15.1c0 0 .11.22.21.4s.19.36.28.32.11-.17.12-.19v.03c.14.13.37.4.41.39v-.12c.02007968-.1292246.02007968-.2607754 0-.39.09.13.25.35.31.32.01717731-.1059751.01717731-.21402488 0-.32.06.06.16.15.2.13s0-.23 0-.27c.00447322-.04989995.00447322-.10010005 0-.15v-.07l.61.72c.0622019.0598245.14382531.0953129.23.1.09177957.012933.18118404-.0358331.22-.12.0842714.0951198.19614617.1615454.32.19.13399727.0124676.26419777-.0488032.34-.16l.1.07c.25147132.0208233.5015184-.0541909.7-.21h.06c.39.16.73-.2.69-.24zm-3.75-3.46c.00261989.0199142.00261989.0400858 0 .06.00154074-.01997033.00154074-.04002967 0-.06zm-2.84-2.67c-.00577381-.04314101-.00577381-.08685899 0-.13-.01001675.06616415-.01336687.13316667-.01.2zm-.29.16c-.04210797.03151307-.08952476.05522146-.14.07z" fill="#866f57"/><path d="m2.34 1.3v.01z" fill="#866f57"/><path d="m2.39 3.28c0-.15-.21-.24-.41-.24s-.24.08-.38.08-.36-.2-.66-.2h-.06l-.07.06h-.05v.05c-.00592744.02295689-.00592744.04704311 0 .07 0 0-.09 0-.22.16-.05587032.05762366-.10002063.12554722-.13.2-.00513922.04318096-.00513922.08681904 0 .13-.00836637.03956252-.00836637.08043748 0 .12l.07.15.13.14.1.06h.07.14c.05962293.00493748.11832517-.01707586.16-.06l-.12-.11-.13-.22c-.007621-.029516-.007621-.060484 0-.09.05947248-.20250192.24911886-.33855258.46-.33h.12.06l.09.1.08.11s.82-.01.75-.18z" fill="#f6d660"/></g><g transform="translate(7 3)"><path d="m.34.39h-.05z" fill="#f9c83a"/><path d="m.38.43h-.07z" fill="#8f4620"/><path d="m1.06 5.42c.02271084.00762231.04728916.00762231.07 0z" fill="#977c2e"/></g></g></g></svg>