<svg height="48" viewBox="0 0 71 48" width="71" xmlns="http://www.w3.org/2000/svg"><g fill="none"><g fill="#fff"><path d="m64.54.66h-57.27c-.23648604-.01307633-.47351396-.01307633-.71 0h58.7c-.2398116-.01344756-.4801884-.01344756-.72 0z"/><path d="m7.27 47.66h57.27c.2364843.0131377.4735157.0131377.71 0h-58.69c.23648434.0131377.47351566.0131377.71 0z"/><path d="m70.88 41.76h-70c.22139572 3.0539023 2.5874041 5.5165682 5.63 5.86h58.7c3.0582687-.3254608 5.4454814-2.7926683 5.67-5.86z"/></g><path d="m70.9 41.76v-.46z" fill="#ed5565"/><path d="m.9 41.3v.46c.02-.15 0-.31 0-.46z" fill="#ed5565"/><path d="m.9 41.3v.46h70c0-.15 0-.3 0-.46v-5.41h-70z" fill="#ed5565"/><path d="m.9 30.03h70v5.86h-70z" fill="#fff"/><path d="m.9 24.16h70v5.86h-70z" fill="#ed5565"/><path d="m.9 18.3h70v5.86h-70z" fill="#fff"/><path d="m.9 12.43h70v5.86h-70z" fill="#ed5565"/><g fill="#fff"><path d="m70.9 7v-.46c-.01.18 0 .33 0 .46z"/><path d="m.9 6.57v.46c0-.15 0-.31 0-.46z"/><path d="m.93 6.57v.46 5.41h70v-5.44c0-.15 0-.31 0-.46z"/></g><path d="m.93 6.57h70c-.2213957-3.05390228-2.5874041-5.5165682-5.63-5.86h-58.74c-3.0425959.3434318-5.40860428 2.80609772-5.63 5.86z" fill="#ed5565"/><path d="m30.23.71h-23.67c-3.21006791.3554292-5.64407035 3.06035417-5.66 6.29v23h29.32z" fill="#4758a9"/><path d="m19.07 18.74c-.36.23-.55.09-.44-.32l.43-1.51c.1042493-.4521706-.0274749-.9263779-.35-1.26l-1.09-1c-.31-.29-.22-.52.21-.52h1.58c.4455008-.0236547.8362645-.3050046 1-.72l.56-1.65c.14-.4.35-.4.48 0l.53 1.67c.1585609.4268508.5468012.7257958 1 .77l1.61.07c.42 0 .5.25.17.52l-1.27 1c-.3442023.308884-.5000314.7763715-.41 1.23l.34 1.36c.1.41-.1.55-.46.32l-1.28-.85c-.3985668-.2325191-.8914332-.2325191-1.29 0zm.62 2.79c-.3477734.1696081-.7090109.3100893-1.08.42-1.7186057.5122311-3.5703194.3205863-5.147594-.5327549s-2.7508406-2.2984411-3.262406-4.0172451c-.3716387-1.3601589-.33687514-2.7993704.1-4.14 1.2072012-3.56283445 5.0457787-5.50213895 8.63-4.36.3650684.11662326.719657.26381096 1.06.44.1210244.03358462.2474743-.03182049.29-.15.0308594-.097034-.0057553-.20280974-.09-.26-.8581028-.74348864-1.8583415-1.30484709-2.94-1.65-4.5029406-1.43255872-9.32377015 1.0045396-10.84 5.48-1.010902 2.9973385-.26091845 6.3083124 1.94292022 8.5774656 2.20383868 2.2691532 5.49150308 3.1154899 8.51707978 2.1925344 1.0940605-.3196053 2.1137754-.8532561 3-1.57.0879949-.0543293.1289096-.1607075.1-.26-.03405-.1207925-.1586457-.19199-.28-.16zm2-2.22c-.14.4-.38.41-.54 0l-.59-1.46c-.1978696-.417217-.592601-.7066867-1.05-.77l-1.48-.12c-.42 0-.49-.27-.16-.53l1.25-1c.3487397-.2923033.4902488-.7640002.36-1.2l-.58-1.65c-.14-.4 0-.53.38-.29l1.45 1c.3855443.2405942.8744557.2405942 1.26 0l1.32-.94c.34-.25.55-.11.45.3l-.37 1.59c-.0814461.4540093.0818786.9173957.43 1.22l1.1.86c.33.26.26.5-.16.53l-1.53.12c-.4500499.0668855-.8307661.3676512-1 .79z" fill="#ffce54"/></g></svg>