<svg height="48" viewBox="0 0 71 48" width="71" xmlns="http://www.w3.org/2000/svg"><g fill="none"><path d="m.39 6.93v9h70v-9c0-3.66717074-2.9728293-6.64-6.64-6.64h-56.75c-3.65544958.01651575-6.61003731 2.98451311-6.61 6.64z" fill="#57a863"/><path d="m.39 31.63h70v-15.63h-70z" fill="#434a54"/><path d="m.39 40.64c0 3.6671707 2.97282926 6.64 6.64 6.64h56.72c3.6671707 0 6.64-2.9728293 6.64-6.64v-9h-70z" fill="#f6d660"/><path d="m.39 31.13h70v1h-70z" fill="#fff"/><path d="m70.39 16.46h-70v-1h70z" fill="#fff"/><path d="m2.51 1.91c-1.35465419 1.20308-2.12988244 2.92823582-2.13 4.74v34.27c.00011756 1.8117642.77534581 3.53692 2.13 4.74l25.87-21.88z" fill="#ed5565"/></g></svg>