<svg height="48" viewBox="0 0 70 48" width="70" xmlns="http://www.w3.org/2000/svg"><g fill="none"><path d="m0 7.59-.00000755 9h10.78000755c1.1208533-1.9377896 2.6411794-3.6149206 4.46-4.92 4.7292793-3.38068818 10.9401685-3.86940127 16.14-1.27 2.7412864 1.3779956 5.021069 3.5257176 6.56 6.18h32.06v-9c0-3.66717074-2.9728293-6.64-6.64-6.64h-56.71c-1.76450358-.00265939-3.4575027.69710956-4.70519657 1.94480343-1.24769386 1.24769387-1.94746282 2.94069299-1.94480343 4.70519657z" fill="#4658a9"/><path d="m10.79 32.31h-10.79v9c0 3.6671707 2.97282926 6.64 6.64 6.64h56.72c3.6671707 0 6.64-2.9728293 6.64-6.64v-9z" fill="#51c161"/><path d="m39.64 28c-.349463 1.4989538-.9189734 2.9378945-1.69 4.27h32.05v-15.68h-32c1.9717172 3.4584649 2.5578261 7.5362108 1.64 11.41z" fill="#ec5565"/><path d="m8.69 24.46c-.00305302-2.7527214.72140456-5.457363 2.1-7.84h-10.79v15.68h10.78c-1.37465939-2.3837913-2.09561893-5.0882519-2.09-7.84z" fill="#ec5565"/><path d="m23 9.39c7.5638351-.70185532 14.47809 4.3063172 16.1694595 11.711955 1.6913694 7.4056379-2.3631099 14.9189535-9.481678 17.5704039-7.1185682 2.6514505-15.1001982-.3787798-18.6655894-7.0864014-3.56539112-6.7076217-1.61214165-15.0186704 4.5678079-19.4359575 2.1821262-1.5597341 4.7392269-2.51217647 7.41-2.76" fill="#fff" stroke="#fff" stroke-width="2"/><path d="m23 9.39c7.5638351-.70185532 14.47809 4.3063172 16.1694595 11.711955 1.6913694 7.4056379-2.3631099 14.9189535-9.481678 17.5704039-7.1185682 2.6514505-15.1001982-.3787798-18.6655894-7.0864014-3.56539112-6.7076217-1.61214165-15.0186704 4.5678079-19.4359575 2.1821262-1.5597341 4.7392269-2.51217647 7.41-2.76" fill="#434a54"/><path d="m24.68 9.31c7.1833493.15390237 13.2720712 5.329168 14.5814221 12.3938543s-2.5203331 14.0782039-9.1714221 16.7961457c-1-1-1.9-2-2.94-2.93-.7101958-.5374549-1.57945-.822514-2.47-.81 0-.24 0-.4766667 0-.71.7060761-.2980603 1.2061494-.9420941 1.32-1.7.2371387-.9649768.0197889-1.9854157-.59-2.77-.2029518-.2190778-.4523887-.389925-.73-.5v-.22c.8300312.1447329 1.5342722.6916435 1.88 1.46.3801961.9819461.86996 1.9178647 1.46 2.79-.2704283-1.2814565-.4707261-2.5767155-.6-3.88-.0343034-.4956696-.2824983-.9519102-.68-1.25-.6109617-.3939717-1.3230322-.6023826-2.05-.6v-.32h2.31v-.63h-2.3v-.31c.6169872-.0324742 1.1943796-.313953 1.6-.78.2253206-.3137362.2253206-.7362638 0-1.05-.4047466-.4741067-.9873478-.7599794-1.61-.79 0-.08 0-.23 0-.3h2.31c0-.21 0-.42 0-.63h-2.3v-.31c.7191143.0392297 1.435182-.1198964 2.07-.46.4552018-.3145821.7336436-.826915.75-1.38.059497-.8233871.2207237-1.6362385.48-2.42-.4729949.5602163-.8884207 1.1666039-1.24 1.81-.2124033.476341-.5601532.8797309-1 1.16-.3107217.1591027-.6514255.2510928-1 .27 0-.14 0-.29 0-.43.6370566-.108449 1.1915457-.497693 1.51-1.06.4086442-.7364295.3377873-1.64576-.18-2.31-.3335169-.413332-.8064533-.6906932-1.33-.78 0-.72 0-1.44 0-2.16.8636562-.7985777 1.5751891-1.7472882 2.1-2.8.1061773-.2312211.1443312-.4878925.11-.74-.6425748.6207288-1.3955007 1.1158963-2.22 1.46 0-1.0266667 0-2.0533333 0-3.08m-7.37 1.73c2.0817442-1.09248698 4.3894372-1.68481768 6.74-1.73v3.36c-.71.32-1.58.67-1.81 1.49-.09.56-.06 1.13-.1 1.69.32-.1.55-.37.87-.47.3469575-.1339214.6815611-.2978772 1-.49v1.74c-.6260242.0947334-1.1784648.4605882-1.51 1-.4081691.7269253-.3452889 1.6268971.16 2.29.3320743.4302207.8141232.7194501 1.35.81v.43c-.3243847-.0135354-.6433001-.0881751-.94-.22-.4986633-.2800162-.8920088-.7155058-1.12-1.24-.3479014-.6284175-.7565188-1.2212477-1.22-1.77.246124.7588588.4005552 1.5444436.46 2.34.0027507.4971594.2044211.9725253.56 1.32.6573821.464431 1.4582112.6805839 2.26.61v.32h-2.3v.62h2.3v.3c-.6096068.0332678-1.1812549.3065084-1.59.76-.2517837.3271655-.2517837.7828345 0 1.11.4049941.4529003.9733676.7262951 1.58.76v.31h-2.3v.63h2.3v.32c-.7661671-.0081163-1.5152546.2264112-2.14.67-.3585104.3031724-.5756729.7411168-.6 1.21-.1241574 1.2973162-.3245032 2.586208-.6 3.86.5888601-.8570214 1.0754972-1.7799538 1.45-2.75.3378562-.7917738 1.0523891-1.3596394 1.9-1.51v.22c-.4665195.1881667-.8449994.5452232-1.06 1-.4093205.8482559-.4562453 1.8264587-.13 2.71.1846378.578981.6225056 1.0426058 1.19 1.26v.71c-1.0446101-.0535558-2.0726711.2772735-2.89.93-1 .86-1.88 1.78-2.8 2.7-5.3647826-2.3110331-8.92454484-7.4987622-9.1508513-13.3357607-.22630645-5.8369985 2.9211064-11.2847717 8.0908513-14.0042393" fill="#f2d660"/></g></svg>