<svg height="48" viewBox="0 0 71 48" width="71" xmlns="http://www.w3.org/2000/svg"><g fill="none"><rect fill="#fff" height="47" rx="6.36" width="70" x=".87" y=".28"/><path d="m31.21 46.66c.1540593-.3743702.0672053-.8046924-.22-1.09l-19.29-19.29h18.59c.4062651.0023626.77358-.2413038.929371-.6165185.1557909-.3752147.0690889-.807391-.219371-1.0934815l-24.27-24.26c-1.46466952.11701674-2.843222.73913273-3.9 1.76l20.17 20.21h-18.54c-.40626507-.0023626-.77358004.2413038-.92937095.6165185s-.069089.807391.21937095 1.0934815l19.25 19.29h-20.39c-.39888645-.001389-.76044687.2344113-.92.6-.00201819.0366389-.00201819.0733611 0 .11 1.11341444 2.020158 3.23335493 3.2791118 5.54 3.29h23.08c.3963877-.0099588.7494502-.2531797.9-.62z" fill="#4758a9"/><path d="m6.87 24.28h21l-23.37-23.37c-2.21580197 1.05307198-3.62835054 3.28668872-3.63 5.74v34.27c.00076295 1.6224345.6234933 3.1828393 1.74 4.36h25.26z" fill="#ed5565"/><g fill="#fff"><path d="m6.76 40.52c-.34.23-.54.1-.44-.28l.37-1.43c.07867585-.4300094-.07300289-.8698778-.4-1.16l-1.11-.9c-.31-.26-.23-.48.18-.49h1.55c.4465811-.0116493.84176476-.2922297 1-.71l.49-1.56c.12-.38.33-.38.47 0l.58 1.54c.18127167.3947139.5662866.656524 1 .68h1.55c.42 0 .5.21.19.48l-1.2 1c-.3250637.2904809-.4634896.7365198-.36 1.16l.38 1.25c.12.38-.08.52-.43.31l-1.28-.75c-.39242172-.2152476-.86757828-.2152476-1.26 0zm2.5.35c-.11.37-.35.38-.54 0l-.7-1.32c-.24288731-.3881965-.65383485-.6399482-1.11-.68l-1.49-.07c-.42 0-.51-.24-.19-.48l1.18-.91c.30899246-.2754447.41634125-.7127916.27-1.1l-.7-1.49c-.17-.36 0-.49.36-.28l1.52.87c.39039017.2230348.86960983.2230348 1.26 0l1.24-.89c.32-.23.54-.11.47.27l-.25 1.46c-.040765.4369183.1582149.8616637.52 1.11l1.17.76c.35.23.3.45-.12.49l-1.52.15c-.4492475.0384141-.83733313.3294784-1 .75z"/><path d="m11.39 14c.0796611.1438811.1465828.294455.2.45.5163091 1.5160167-.2940294 3.1635557-1.81 3.68-.58893828.1908382-1.2197714.2116349-1.82.06-.74129622-.1842986-1.37901159-.6555418-1.77284272-1.3100517-.39383113-.6545098-.511514-1.4386665-.32715728-2.1799483v-.07c.04652612-.1582701.10675387-.3121855.18-.46.01279474-.0523247-.01815522-.1053817-.07-.12-.03337325-.021978-.07662675-.021978-.11 0-.77553362.9560601-1.00710735 2.2428216-.61355517 3.4092777.39355217 1.1664562 1.35733881 2.0499135 2.55355517 2.3407223.72529493.1897983 1.49040596.1619761 2.2-.08 1.9136587-.6158069 2.9657852-2.6663343 2.35-4.58v-.06c-.1620781-.4605064-.417397-.8826337-.75-1.24-.0333732-.021978-.0766268-.021978-.11 0-.0518448.0146183-.0827947.0676753-.07.12z"/><path d="m7.39 19.37c-.24.16-.38.07-.31-.2l.26-1c.05910204-.3036755-.0475088-.6158929-.28-.82l-.78-.63c-.22-.18-.16-.33.13-.34h1.09c.30505263-.0190409.57087449-.2144982.68-.5l.34-1.09c.08-.27.23-.27.33 0l.41 1.08c.12756963.2807869.40189906.466249.71.48h1.11c.29 0 .35.15.13.34l-.85.7c-.2253252.2038792-.3212246.514593-.25.81l.27.88c.08.27-.06.37-.3.22l-.9-.53c-.27692876-.1530435-.61307124-.1530435-.89 0zm1.75.24c-.08.26-.25.27-.38 0l-.49-.93c-.16714568-.276656-.45770497-.4554617-.78-.48l-1-.05c-.3 0-.36-.17-.14-.34l.83-.64c.22475749-.1875915.30169427-.4993879.19-.77l-.49-1c-.12-.25 0-.34.25-.2l1.06.61c.27281442.1551629.60718558.1551629.88 0l.87-.62c.23-.16.38-.08.33.19l-.18 1c-.0298845.305971.1077751.6042334.36.78l.82.53c.25.16.21.32-.08.34l-1.06.1c-.30408598.0393479-.56170826.2431386-.67.53z"/></g></g></svg>