<svg height="48" viewBox="0 0 71 48" width="71" xmlns="http://www.w3.org/2000/svg"><g fill="none"><rect fill="#4758a9" height="47" rx="6.36" width="70" x=".25" y=".28"/><path d="m.25 22.28h70v3h-70z" fill="#f6d660"/><path d="m12.08 41.68c-.54.39-.86.17-.7-.49l.59-2.48c.1289409-.7295285-.1062222-1.4760779-.63-2l-1.77-1.57c-.5-.45-.37-.83.29-.85l2.48-.07c.7105846-.0634444 1.315651-.5427827 1.54-1.22l.78-2.7c.19-.66.53-.67.75 0l.94 2.67c.2844675.6661261.9263146 1.1095841 1.65 1.14h2.53c.66 0 .8.38.3.83l-1.93 1.72c-.523143.5233124-.7420012 1.2779958-.58 2l.62 2.18c.18.66-.13.9-.69.54l-2.06-1.3c-.6312476-.3358625-1.3937787-.3091739-2 .07zm4 .6c-.17.64-.56.66-.86 0l-1.12-2.28c-.3675336-.6581005-1.0307261-1.097745-1.78-1.18l-2.38-.13c-.68 0-.82-.41-.31-.84l1.89-1.59c.5193736-.4894336.6895228-1.2452128.43-1.91l-1.11-2.59c-.27-.63 0-.85.57-.48l2.43 1.5c.628378.3527579 1.4018051.3218208 2-.08l2-1.54c.52-.4.86-.2.76.46l-.41 2.53c-.0704019.7399093.2427789 1.4643757.83 1.92l1.87 1.32c.56.4.47.78-.19.85l-2.43.26c-.7139852.1109217-1.3052414.6132962-1.53 1.3z" fill="#fff"/></g></svg>