<svg height="48" viewBox="0 0 71 48" width="71" xmlns="http://www.w3.org/2000/svg"><g fill="none"><path d="m64.17.62h-58.32c-2.94937931.36373371-5.29794254 2.64286116-5.75 5.58v35.72c.49388474 3.2419958 3.28060151 5.6378925 6.56 5.64h56.72c3.6671707 0 6.64-2.9728293 6.64-6.64v-33.71c-.0014359-3.360525-2.513344-6.19017877-5.85-6.59z" fill="#4658a9"/><path d="m25 .57h-18.4c-3.63980479.03837356-6.57020228 2.99999294-6.57 6.64v17.33h25z" fill="#4658a9"/><path d="m10.54 18v6.56h3.9v-6.71l6.71 6.71h3.85v-3l-7-7h7v-4h-7l7-7v-3h-3.83l-6.7 6.7v-6.7h-3.9v6.56l-6.18-6.12c-1.56329281.56647757-2.85814249 1.69724162-3.63 3.17l6.41 6.41h-7.17v4h7.16l-7.16 7.13v2.83h4z" fill="#fff"/><path d="m11.54 15.23v9.31h1.9v-9.45l9.45 9.45h2.11v-1.24l-9.78-9.78h9.78v-1.95h-9.78l9.78-9.78v-1.23h-2.09l-9.47 9.44v-9.45h-1.9v9.3l-8.33-8.34c-.6736073.40866358-1.26948293.93344041-1.76 1.55l8.49 8.49h-9.94v1.95h9.93l-9.93 9.95v1.09h2.23z" fill="#ec5463"/><g fill="#ed5565"><path d="m41.7 13.45c-.32.23-.51.1-.41-.29l.35-1.43c.0800735-.4273343-.058779-.8664084-.37-1.17l-1-.91c-.3-.26-.22-.48.17-.49h1.46c.4178745-.03377452.7756097-.31288658.91-.71l.46-1.57c.11-.38.31-.39.44 0l.55 1.54c.167665.40599717.5607954.67332585 1 .68h1.49c.39 0 .47.22.17.48l-1.13 1c-.3068898.3015042-.4355707.7405333-.34 1.16l.36 1.26c.11.38-.07.52-.41.32l-1.21-.75c-.3664497-.2189619-.8235503-.2189619-1.19 0z"/><path d="m53.7 17.45c-.32.23-.51.1-.41-.29l.35-1.43c.0800735-.4273343-.058779-.8664084-.37-1.17l-1-.91c-.3-.26-.22-.48.17-.49h1.46c.4178745-.0337745.7756097-.3128866.91-.71l.46-1.57c.11-.38.31-.39.44 0l.55 1.54c.167665.4059972.5607954.6733259 1 .68h1.49c.39 0 .47.22.17.48l-1.13 1c-.3068898.3015042-.4355707.7405333-.34 1.16l.36 1.26c.11.38-.07.52-.41.32l-1.21-.75c-.3664497-.2189619-.8235503-.2189619-1.19 0z"/><path d="m35.7 24.45c-.32.23-.51.1-.41-.29l.35-1.43c.0800735-.4273343-.058779-.8664084-.37-1.17l-1-.91c-.3-.26-.22-.48.17-.49h1.46c.4178745-.0337745.7756097-.3128866.91-.71l.46-1.57c.11-.38.31-.39.44 0l.55 1.54c.167665.4059972.5607954.6733259 1 .68h1.49c.39 0 .47.22.17.48l-1.13 1c-.3068898.3015042-.4355707.7405333-.34 1.16l.36 1.26c.11.38-.07.52-.41.32l-1.21-.75c-.3664497-.2189619-.8235503-.2189619-1.19 0z"/><path d="m50.2 29.48c-.23.16-.36.07-.3-.2l.25-1c.0534778-.3043414-.0477-.6153695-.27-.83l-.75-.65c-.21-.18-.16-.34.12-.35h1c.2992131-.0245816.5549373-.2252267.65-.51l.33-1.12c.08-.27.22-.28.32 0l.4 1.1c.1141969.2800227.3782305.4702822.68.49h1.07c.28 0 .34.16.13.34l-.81.71c-.2196604.2156486-.3106727.5303996-.24.83l.26.9c.08.27-.05.37-.29.23l-.87-.54c-.2624261-.1539312-.5875739-.1539312-.85 0z"/></g></g></svg>