<svg height="48" viewBox="0 0 70 48" width="70" xmlns="http://www.w3.org/2000/svg"><g fill="none"><path d="m0 7.49v9h70v-9c0-3.66717074-2.9728293-6.64-6.64-6.64h-56.71c-1.76276947-.00265478-3.45424962.69574249-4.70165483 1.9412719-1.2474052 1.24552941-1.94834717 2.93595663-1.94834517 4.6987281z" fill="#fff"/><path d="m0 32.2h70v-15.68h-70z" fill="#ed5565"/><path d="m0 41.21c0 3.6671707 2.97282926 6.64 6.64 6.64h56.72c3.6671707 0 6.64-2.9728293 6.64-6.64v-9h-70z" fill="#57a863"/><path d="m6.37.85c-3.51253101 0-6.36 2.84746899-6.36 6.36v34.27c0 3.512531 2.84746899 6.36 6.36 6.36h11.63v-47z" fill="#ed5565"/><path d="m6.51 7.35h5v5h-5z" fill="#fff"/></g></svg>