<svg height="48" viewBox="0 0 71 48" width="71" xmlns="http://www.w3.org/2000/svg"><g fill="none"><path d="m.87 24.84v16.64c.00086914.6410145.09864053 1.2782142.29 1.89.06.2.13.3933333.21.58.17562965.3695073.38661344.7211469.63 1.05.11333333.1666667.23666667.33.37.49.21067407.2547101.44141191.492136.69.71h.05c.2542854.2203868.52507738.4209734.81.6.48629297.3021654 1.01098913.537606 1.56.7h.06c.23665813.067393.47707265.1208185.72.16h.19c.27173829.0378053.54565294.0578479.82.06h28.73c0-7.6666667 0-15.3333333 0-23z" fill="#4758a9"/><path d="m70.87 7.2c-.0028092-.41658277-.0463497-.8318925-.13-1.24 0-.19-.09-.38-.14-.56-.1215926-.38068073-.2789618-.7489915-.47-1.1-.06-.1-.12-.2-.18-.3l-.14-.23-.15-.2-.21-.29-.14-.15-.27-.3-.25-.22-.2-.19h-.06-.06c-.2796035-.22126717-.5773191-.41862924-.89-.59l-.26-.13-.12-.06-.17-.08-.2-.07-.3-.11h-.08-.19c-.2499838-.06816073-.5037537-.12158599-.76-.16h-.12c-.2716793-.03835865-.5456307-.05840387-.82-.06h-28.56v24h34.92v-17.96z" fill="#ed5565"/><path d="m36 47.84h28.56c.2743693-.0015961.5483207-.0216414.82-.06h.12c.256226-.0385264.5099894-.0919503.76-.16h.19.08l.3-.11.2-.07.15-.07.21-.1.2-.09.28-.17.2-.12.19-.14.18-.13.12-.09.1-.09c.2746124-.2347557.5288539-.4923425.76-.77l.21-.29.15-.2.14-.23c.06-.1.12-.19.18-.3.1910382-.3510085.3484074-.7193193.47-1.1 0-.16.09-.32.12-.48v-.11c.0830046-.4048317.1265418-.8167609.13-1.23 0 0 0 0 0-.05v-16.84h-34.82z" fill="#fff"/><path d="m50.78 41.18c-.46.32-.73.14-.59-.41l.5-2c.1148447-.6103399-.0842205-1.2375828-.53-1.67l-1.5-1.29c-.43-.37-.32-.68.25-.7l2.09-.11c.5961128-.0446449 1.1097695-.4367493 1.31-1l.66-2.24c.16-.54.45-.55.64 0l.79 2.2c.2258992.569415.7588254.9584123 1.37 1h2.14c.56 0 .67.31.25.68l-1.62 1.36c-.4429238.4292465-.6288245 1.0590326-.49 1.66l.52 1.8c.16.54-.11.75-.59.45l-1.74-1.07c-.538759-.291347-1.1929862-.2683917-1.71.06z" fill="#ed5565"/><path d="m36 .84h-28.76c-.33517794.00372519-.66954317.03381806-1 .09h-.15c-.31254951.05993945-.62009934.14351278-.92.25l-.17.06c-.29284968.11209598-.5769652.2457974-.85.4l-.12.07c-.51862714.29896781-.98757107.67682191-1.39 1.12l-.14.15c-.18002754.20254977-.34702932.41631206-.5.64-.71199106 1.05056833-1.09175466 2.29089717-1.09 3.56l-.00000605 17.64h35.09000605c0-7.9866667 0-15.98 0-23.98z" fill="#fff"/><path d="m15.79 17.68c-.46.33-.73.14-.59-.41l.5-2c.1148447-.6103399-.0842205-1.2375828-.53-1.67l-1.5-1.3c-.43-.37-.32-.68.25-.7l2.1-.06c.5961128-.0446449 1.1097695-.4367493 1.31-1l.66-2.24c.16-.54.45-.55.64 0l.79 2.2c.2258992.569415.7588254.9584123 1.37 1h2.14c.56 0 .67.31.25.68l-1.63 1.42c-.4429238.4292465-.6288245 1.0590326-.49 1.66l.52 1.8c.16.54-.11.75-.59.45l-1.74-1.07c-.5382499-.2935095-1.1936456-.2705132-1.71.06z" fill="#4758a9"/></g></svg>