<svg height="48" viewBox="0 0 71 48" width="71" xmlns="http://www.w3.org/2000/svg"><g fill="none"><path d="m.87 11.92h70v23.56h-70z" fill="#fff"/><path d="m64.23.19h-56.72c-3.66717074 0-6.64 2.97282926-6.64 6.64v5.08h70v-5.08c0-3.66717074-2.9728293-6.64-6.64-6.64z" fill="#ec5565"/><path d="m.87 40.55c0 3.6671707 2.97282926 6.64 6.64 6.64h56.72c3.6671707 0 6.64-2.9728293 6.64-6.64v-5.07h-70z" fill="#ec5565"/><path d="m10.47.76h.81c1.5999635.0629462 3.1638419.49412492 4.57 1.26 1.4315257.78628274 2.6658761 1.88728228 3.61 3.22.7666196 1.08366367 1.3322747 2.29626554 1.67 3.58.453498 1.7262377.4946049 3.5349418.12 5.28-.5651874 2.622935-2.0695656 4.9488532-4.23 6.54-1.6148172 1.1876026-3.5389586 1.8822384-5.54 2h-1.19c-1.56572987-.0911584-3.09050648-.5356-4.46-1.3-1.07078624-.6115876-2.02813608-1.4031772-2.83-2.34-1.50923201-1.7294336-2.44243594-3.8859386-2.67-6.17 0-.37 0-.75-.08-1.12v-.08c.00286495-.049959.00286495-.100041 0-.15.01956071-1.3710632.29072402-2.72687981.8-4 .8016103-2.03016612 2.19531336-3.77229495 4-5 1.59638567-1.08260483 3.46284734-1.69898735 5.39-1.78zm.17.63c-.4390729.03790328-.85194996.22493306-1.17.53-.20022087.23856418-.35908387.50896929-.47.8v6.69c0 .08 0 .18.1.2l3.6 1 .22.05c.0346651-.0049138.0658827-.0236025.0865873-.051836s.0291456-.0636249.0234127-.098164c0-1.75 0-3.5 0-5.25.0088105-.0563242.0088105-.1136758 0-.17 0-.06-.11-.06-.17-.06-.2790099-.00431526-.5504658-.09132037-.78-.25-.4416411-.30060727-.7581689-.75228181-.89-1.27-.1207702-.41371224-.0351815-.86026184.23-1.2.3538712-.35949637.8355883-.56440587 1.34-.57.08 0 .19 0 .18-.14s-.08-.1-.14-.11c-.7137586-.11852571-1.4400649-.14206341-2.16-.07zm-4.42 1.11c.7 1.4 1.40666667 2.79666667 2.12 4.19 0-1.2 0-2.4.18-3.59.0168297-.29304443.0951976-.57925762.23-.84l-.34-.61c-.75785781.19571119-1.4896866.48105728-2.18.85zm6.39 2.07h.86c.28 0 0 .21 0 .31v1.83l2.35-4.06c-.7424213-.43643513-1.539341-.77268817-2.37-1l-.85 2.88zm-8.95-.16 1.44 1.59c.04907846-.05435651.11094843-.09560315.18-.12.29501659-.04425032.59498341-.04425032.89 0 .14583209-.00724076.29172024.01311572.43.06.09037246.06186585.12740052.17706427.09.28 0 .14-.21.21-.19.37s.25.18.3.34c.02766522.0880205.00460055.18412329-.06.25-.07.07-.18.14-.15.25s.2.11.29.19l1.59 1.49c0-.52666667 0-1.05 0-1.57 0-.1-.07-.18-.12-.27l-2.84-4.27c-.66660649.43435797-1.28069335.94441919-1.83 1.52zm12.73-1.31-2.77 4.17c0 .08-.14.16-.13.27v1.66l1.94-1.8c.0478103-.03672045.0856337-.08485931.11-.14-.08-.08-.23-.13-.24-.27s.23-.18.25-.33c.0169494-.06897399.0169494-.14102601 0-.21 0-.06-.14-.08-.17-.16s-.06-.21 0-.28c.1690858-.08838377.359927-.12655201.55-.11.2730135-.01869963.5469865-.01869963.82 0 .0741656.01555463.1430569.05000028.2.1l1.29-1.28c-.5555944-.61647729-1.1834538-1.1637558-1.87-1.63zm-14.6 4.15 2.73 1.28.42-.43c-.11-.1-.25-.2-.26-.36s.29-.21.28-.4-.27-.17-.31-.33.13-.29.24-.4l-1.77-1.5c-.52517206.65549749-.97156151 1.37039187-1.33 2.13zm15.19-.75c.0880375.14935374.1617011.30672604.22.47 0 .18-.17.29-.25.44s.21.16.25.29-.07.28-.18.37c.1638513.12054075.2748919.29963851.31.5l2.59-1.32c-.338473-.71026782-.7543252-1.38099731-1.24-2l-1.68 1.24zm-11.85-.27c0 .15.17.2.2.34s-.24.25-.25.43.22.28.34.41c-.11.08-.29.13-.32.28s.16.35.29.49c-.13.1-.37.15-.37.35v3.13h-.45v-.54l-3.75-.18c-.05701407.7879025-.02346143 1.5797447.1 2.36h3.65v-1.64h.46v2.62c.11502076.7009681.44732937 1.3480954.95 1.85.41110253.4133086.96713578.6500711 1.55.66.50893234-.0077854.99696355-.2037103 1.37-.55.52414849-.5192611.89446678-1.1733747 1.07-1.89 0-.09.08-.19 0-.29-.02113426-.0381979-.06134526-.0619052-.105-.0619052s-.08386574.0237073-.105.0619052c-.19758957.3021091-.48933635.5305855-.83.65-.47545337.1477449-.98454663.1477449-1.46 0-.43781988-.0891219-.82253218-.3479938-1.07-.72-.06-.58 0-1.16-.06-1.74 0-1.28 0-2.57 0-3.85 0-.17-.27-.17-.25-.34.0986863-.06197662.1893682-.13586558.27-.22.09309534-.10576561.09309534-.26423439 0-.37-.09-.06-.2-.1-.29-.16.09-.11.26-.13.34-.25.07027884-.12487062.03077338-.28289244-.09-.36-.11-.07-.23-.11-.33-.18.09707484-.11424772.21187026-.21216147.34-.29.03910311-.0179193.06417424-.05698658.06417424-.1s-.02507113-.0820807-.06417424-.1c-.32 0-.64 0-1 0-.1 0-.24 0-.28.11zm10.42-.09c.06.1.19.15.24.26s-.08.14-.14.2c-.1318198.07677193-.1938396.23388883-.15.38.05.14.21.18.31.27s-.1.09-.16.13c-.1254359.04234557-.2016649.1693939-.18.3 0 .18.2.26.32.36-.05.16-.31.17-.27.36v2.7 2.7c-.0123135.1848609-.1079743.3541069-.26.46-.3897762.3131918-.8703068.4920754-1.37.51-.5096364.0468401-1.0178383-.1034731-1.42-.42-.1283326-.105671-.2396357-.2304654-.33-.37-.0222329-.0335174-.0597791-.0536675-.1-.0536675s-.0777671.0201501-.1.0536675c-.05.08 0 .17 0 .25.1346739.5337097.3650725 1.0385537.68 1.49.250207.3686647.5958419.6624543 1 .85.5129688.2255467 1.0970312.2255467 1.61 0 .6783665-.3371033 1.1985457-.9254439 1.45-1.64.1232886-.2841459.1879141-.5902668.19-.9 0-1.86 0-3.72 0-5.58 0-.2-.24-.24-.36-.35.13-.13.29-.26.29-.45s-.2-.22-.32-.32c.11-.13.32-.22.34-.41s-.22-.27-.25-.44.14-.16.19-.26-.08-.19-.18-.18c-.33 0-.67 0-1 0-.0420341-.00912643-.0855313.00708472-.1113394.04149545-.025808.03441074-.0291915.08070725-.0086606.11850455zm-14.19 1.65c-.29807411.7770041-.50609859 1.58561537-.62 2.41l3.74.35c0-.52 0-1 0-1.57l-3.09-1.19zm15.78 1.22v1.6l3.51-.41c-.1169779-.81727768-.3249354-1.61892053-.62-2.39l-2.93 1.2zm-3.84.48v.73l1.71-.78c0-.35 0-.71 0-1.07.0988939-.14998802.1606001-.32139415.18-.5-.65.52-1.27 1.08-1.9 1.62zm-6.95-1.24c0 .07.11.08.17.11v1.11l1.73.86c0-.3 0-.6 0-.9-.51-.36-1-.8-1.45-1.17-.1094631-.09202372-.23486927-.1632002-.37-.21-.12 0-.12.13-.1.2zm.15 1.55v.67h1.73l-1.73-.72zm6.79.72 1.64-.07c0-.21 0-.43 0-.65l-1.67.71zm3.73.54v2.16h3.52c.1197125-.8041847.1498968-1.6191631.09-2.43l-3.64.27zm-9.75-.09c-.01312207.1363517-.01312207.2736483 0 .41-.08905958-.1291107-.1859058-.2526732-.29-.37-.03037329-.0344401-.07407991-.0541699-.12-.0541699s-.08962671.0197298-.12.0541699c-.05384691.0634487-.05384691.1565513 0 .22l.45.57c-.15.19-.33.37-.47.57s.14.3.26.18.28-.32.42-.48c.12.15.23.32.37.47.03230091.0383325.07987285.0604555.13.0604555s.09769909-.022123.13-.0604555c0-.06 0-.13 0-.19-.1476804-.1643584-.28463009-.3380507-.41-.52.17-.2.34-.39.5-.59s-.09-.31-.22-.22c-.10701974.0968054-.20416294.2039978-.29.32.01595252-.1194698.01595252-.2405302 0-.36-.02746571-.0609727-.08812674-.1001788-.155-.1001788s-.12753429.0392061-.155.1001788zm1.65.01c-.00704248.1265688-.00704248.2534312 0 .38-.09286836-.1289488-.19303173-.2524836-.3-.37-.0417293-.0364271-.09933116-.0486793-.15227362-.0323893s-.09369305.0588045-.10772638.1123893c-.01323107.0693938.00931513.1407902.06.19l.42.54-.42.49c-.0564256.0454796-.08007298.120363-.06.19.02147099.0505017.06599972.0875332.11956943.0994376.05356972.0119043.10959141-.0027826.15043057-.0394376.14-.15.27-.32.41-.48l.34.44c.0415932.068016.12297321.100568.2.08.05172221-.0129612.09358884-.0508366.11164986-.1010061.01806101-.0501694.00994272-.1060394-.02164986-.1489939l-.4-.52c.17-.2.35-.39.5-.6s-.12-.3-.24-.2c-.09742208.0966269-.18766179.2002355-.27.31.01538208-.1195071.01538208-.2404929 0-.36-.02746571-.0609727-.08812674-.1001788-.155-.1001788s-.12753429.0392061-.155.1001788zm1.69-.02c-.0133095.1363426-.0133095.2736574 0 .41-.0936938-.1459879-.2044773-.280271-.33-.4-.0664732-.0253792-.1417195-.0066759-.1885743.0468725-.0468548.0535483-.0554042.1306114-.0214257.1931275l.46.59c-.15.19-.33.37-.47.57s.11.29.24.2.29-.33.44-.5l.28.36c.06.08.15.2.27.15s.12-.16.09-.26c-.1464047-.1619364-.2833009-.3322219-.41-.51.16-.2.34-.39.5-.59s-.09-.3-.22-.22c-.1065736.0972509-.2036757.2043981-.29.32.0138436-.116256.0138436-.233744 0-.35-.0274657-.0609727-.0881267-.1001788-.155-.1001788s-.1275343.0392061-.155.1001788zm1.75.01c-.0127273.1330296-.0127273.2669704 0 .4-.0893293-.128912-.1861632-.2524587-.29-.37-.0303733-.0344401-.0740799-.0541699-.12-.0541699s-.0896267.0197298-.12.0541699c-.0538469.0634487-.0538469.1565513 0 .22l.44.57-.44.52c-.0344401.0303733-.0541699.0740799-.0541699.12s.0197298.0896267.0541699.12c.0650316.0597335.1649684.0597335.23 0l.4-.46c.12.15.23.32.36.47.0321667.0420297.0820737.0666801.135.0666801s.1028333-.0246504.135-.0666801c0-.06 0-.13 0-.19-.1470053-.1649257-.2839209-.3385748-.41-.52.17-.2.34-.39.5-.59s-.09-.3-.22-.22c-.1064472.0973769-.203538.2045116-.29.32.0154929-.1194999.0154929-.2405001 0-.36-.0274657-.0609727-.0881267-.1001788-.155-.1001788s-.1275343.0392061-.155.1001788zm1.65.03c-.0084589.1298624-.0084589.2601376 0 .39-.0931028-.1346795-.1967625-.2617462-.31-.38-.062475-.0530276-.1549158-.0502815-.214133.006361s-.0660669.1488701-.015867.213639l.46.6-.42.49c-.0581233.0487172-.0817081.1273334-.06.2.0203266.0542808.0669085.0944647.1235837.1066093.0566752.0121447.1156326-.0054236.1564163-.0466093.14-.15.27-.32.41-.47.12.15.23.31.36.46.0375129.0464446.0969541.0693482.1559327.0600834.0589786-.0092649.1085343-.0492906.13-.1050001.0214657-.0557094.0115802-.1186388-.0259327-.1650833l-.39-.51c.16-.2.34-.38.49-.58s-.09-.32-.23-.22c-.100423.0967019-.1939831.2002862-.28.31.0138436-.116256.0138436-.233744 0-.35-.0274657-.0609727-.0881267-.1001788-.155-.1001788s-.1275343.0392061-.155.1001788zm-7.53 2.01c-.05387775.0362782-.08047704.1015285-.06731716.1651346.01315989.0636061.06346721.1129447.12731716.1248654h.41 8.15c.0897085.0154728.1777861-.0348573.21-.12.0131243-.053284-.0002799-.1096264-.035993-.1512917-.0357132-.0416653-.0893427-.0635288-.144007-.0587083h-8.48c-.05555956-.0158412-.11444044-.0158412-.17 0zm1.87.41c-.45593859.2433337-.85214415.5848903-1.16 1h1.69c.20977344-.09544.40503134-.2200011.58-.37.19539529-.1951748.35154863-.4260102.46-.68-.52 0-1 0-1.57 0zm3.43-.05c.0787756.1680596.1724854.3287048.28.48.1965075.2408607.4464539.4326004.73.56.0525258.0131251.1074742.0131251.16 0h1.57c-.2377868-.3357087-.5362487-.6239957-.88-.85-.12-.07-.23-.2-.39-.18h-1.46zm-8.94 1.01c-.22124514.155449-.49089723.22641-.76.2-.42626295-.1197816-.81287672-.3510595-1.12-.67.08213618.4223103.19920524.8370692.35 1.24h3.76c-.20236774-.3937955-.31506312-.827502-.33-1.27-.21421531-.0779169-.44430541-.1019562-.67-.07-.43546718.1062413-.84856707.2890888-1.22.54zm14.2-.49c-.0163975.439099-.1290523.8692355-.33 1.26h3.5c.12-.33.21-.66.3-1-.231648.2040496-.5097515.3482514-.81.42-.2023153.0333462-.4099722-.0018499-.59-.1-.3463664-.2027151-.7035672-.386323-1.07-.55-.3221386-.1221731-.6778614-.1221731-1 0zm-6.51.51c-.3140264.0336491-.57566384.2556445-.66.56-.06 0 0 .16.05.22.05970964.0083479.1202904.0083479.18 0l1.8-.06c.0246679-.2385391-.0927194-.4694008-.3-.59-.3344684-.1652914-.7144415-.2145472-1.08-.14zm.11.99c-.5776082.1140642-1.09940099.4207938-1.48.87-.09487876.0998847-.17259306.2147667-.23.34 0 .09.08.16.16.14h3.65c.11 0 .13-.14.07-.21-.3184718-.4871738-.7794095-.8643046-1.32-1.08-.2735575-.092274-.5661928-.1129306-.85-.06zm-9.08.37c.14.31.28.61.45.9h4.38c-.36383936-.1864001-.70032335-.4219389-1-.7-.07667898-.0835446-.14069323-.1778814-.19-.28-.12978727.0642452-.25077857.1449061-.36.24-.20678468.1441203-.46036636.2048371-.71.17-.59-.09-1-.59-1.61-.67-.34753782-.0137778-.68610355.1122839-.94.35zm17.68-.34c-.57.09-1 .54-1.54.66-.2181755.0374455-.4423657.016751-.65-.06-.1551031-.121753-.3188698-.2320449-.49-.33-.0464683.1013697-.1070711.1956407-.18.28-.2989668.2816858-.6354954.520621-1 .71h4.18c.1855223-.3235674.3524594-.6574417.5-1-.2210255-.1743711-.4991811-.2599574-.78-.24zm-15.15 1.58c-.47695171.2110156-.93524459.4619058-1.37.75.1613648.2323706.33494199.4560181.52.67l15.23.05c.2252978-.2647146.4356257-.5418133.63-.83-.4004281-.3510687-.8870892-.589222-1.41-.69-.2115857-.0367323-.4291519-.0160117-.63.06-.389723.1716792-.7643682.375727-1.12.61-.2271906.1397588-.5008011.1829605-.76.12-.4274299-.1767566-.8447363-.3770637-1.25-.6-.2855944-.1494366-.6130681-.1987337-.93-.14-.66.14-1.19.61-1.86.74-.3552068.0361887-.7112776-.0599504-1-.27-.43772855-.3175612-.9596402-.4984905-1.5-.52-.50986288.0636164-.98976611.2757475-1.38.61-.23772189.1933848-.55098884.2670946-.85.2-.59-.17-1-.67-1.62-.83-.2371005-.0549816-.48548874-.033991-.71.06zm2.15 1.62c-.71304581.2118461-1.41407561.4622139-2.1.75.21.19.42.38.65.55.04496555.0178197.09503445.0178197.14 0h11.69c.1 0 .22 0 .3-.05s.41-.34.61-.51c-.6681807-.5735269-1.5194332-.8891997-2.4-.89-.3632737.0005076-.7156989.1238564-1 .35-.3389128.2580735-.7715698.3598752-1.19.28-.53-.07-.93-.46-1.46-.55-.5234217-.0651201-1.0545289.0216622-1.53.25-.39397601.2192724-.83921955.3297205-1.29.32-.57160993-.1737327-1.13256799-.3807529-1.68-.62-.22536786-.0652807-.46463214-.0652807-.69 0zm2.05 1.66c-.52187751.1644851-1.00972175.4219584-1.44.76 2.66460313 1.1984671 5.7239968 1.1508359 8.35-.13-.5783328-.3730516-1.2357883-.6059004-1.92-.68-.4622428.0083404-.9114527.1545948-1.29.42-.2904857.2222662-.6363613.3606164-1 .4-.44 0-.73-.39-1.1-.59-.50452105-.2448333-1.08865527-.2666022-1.61-.06z" fill="#fff" transform="translate(25 12)"/><g fill="#f5bb43" transform="translate(25 13)"><path d="m6.24 1.53c.6903134-.36894272 1.42214219-.65428881 2.18-.85l.34.61c-.14150419.15713776-.23517878.3514258-.27.56-.08 1.5-.11 2.67-.13 3.86-.70666667-1.38666667-1.41333333-2.78-2.12-4.18z"/><path d="m12.62 3.6.89-2.87c.8181427.22692267 1.6018923.56329587 2.33 1l-2.35 4.06c0-.61 0-1.22 0-1.83 0-.1-.07 0-.21-.07s-.37-.25-.66-.29z"/><path d="m3.69 3.48c.54930665-.57558081 1.16339351-1.08564203 1.83-1.52l2.82 4.28c0 .08.13.16.12.27v1.57l-1.59-1.49c-.08-.08-.25-.06-.29-.19s.08-.18.15-.25c.06460055-.06587671.08766522-.1619795.06-.25 0-.15-.26-.18-.3-.34s.17-.22.19-.37c.03740052-.10293573.00037246-.21813415-.09-.28-.13827976-.04688428-.28416791-.06724076-.43-.06-.29501659-.04425032-.59498341-.04425032-.89 0-.06905157.02439685-.13092154.06564349-.18.12z"/><path d="m16.4 2.06c.6865462.4662442 1.3144056 1.01352271 1.87 1.63l-1.27 1.31c-.0569431-.04999972-.1258344-.08444537-.2-.1-.2730135-.01869963-.5469865-.01869963-.82 0-.190073-.01655201-.3809142.02161623-.55.11-.09.07-.07.19 0 .28s.12.1.17.16c.0169494.06897399.0169494.14102601 0 .21 0 .15-.25.17-.25.33s.15.18.24.27c-.0243663.05514069-.0621897.10327955-.11.14l-1.94 1.8c0-.55 0-1.11 0-1.66 0-.11.08-.18.13-.27z"/><path d="m1.81 6.22c.35843849-.75960813.80482794-1.47450251 1.33-2.13l1.77 1.5c-.11.11-.25.23-.24.4s.26.17.31.33-.26.23-.28.4.15.26.26.36l-.42.43z"/><path d="m17 5.49 1.71-1.26c.4856748.61900269.901527 1.28973218 1.24 2l-2.59 1.32c-.0351081-.20036149-.1461487-.37945925-.31-.5.11-.09.22-.22.18-.37s-.23-.16-.25-.29.25-.26.25-.44c-.062075-.16020526-.1390808-.31421684-.23-.46z"/><path d="m1.54 6.85 3.09 1.19v1.57l-3.74-.35c.12357943-.82559138.34167842-1.63423534.65-2.41z"/><path d="m17.3 8.07 2.93-1.2c.2950646.77107947.5030221 1.57272232.62 2.39l-3.51.41c-.02-.54-.03-1.07-.04-1.6z"/><path d="m13.49 8.54c.63-.54 1.25-1.1 1.9-1.62-.0193999.17860585-.0811061.35001198-.18.5v1.07l-1.71.78c0-.27 0-.48-.01-.73z"/><path d="m6.55 7.3c0-.07 0-.23.1-.2.13513073.0467998.2605369.11797628.37.21.5.37.94.81 1.45 1.17v.9l-1.73-.86c0-.37 0-.74 0-1.11-.08-.03-.17-.03-.19-.11z"/><path d="m6.72 8.85 1.73.72h-1.73c0-.27 0-.49 0-.72z"/><path d="m13.51 9.62 1.67-.71v.65z"/><path d="m17.27 10.17 3.64-.27c.0598968.8108369.0297125 1.6258153-.09 2.43h-3.52c-.0133333-.72-.0233333-1.44-.03-2.16z"/><path d="m.85 9.94 3.75.18v2.22h-3.65c-.12655024-.7933892-.16011041-1.5988333-.1-2.4z"/></g><g fill="#4a88dc" transform="translate(26 25)"><path d="m2 1.47c.37143293-.25091124.78453282-.43375873 1.22-.54.22569459-.03195619.45578469-.00791692.67.07.01493688.44249802.12763226.87620448.33 1.27h-3.76c-.15079476-.40293081-.26786382-.81768975-.35-1.24.30712328.31894048.69373705.55021836 1.12.67.27617835.02027257.55018618-.06157392.77-.23z"/><path d="m16.16 1c.3221386-.12217306.6778614-.12217306 1 0 .3664328.16367699.7236336.34728486 1.07.55.1800278.09815008.3876847.13334617.59.1.3002485-.07174863.578352-.21595044.81-.42-.09.34-.18.67-.3 1h-3.5c.1967577-.38165881.3092928-.80110813.33-1.23z"/><path d="m9.65 1.48c.3655585-.07454716.7455316-.02529139 1.08.14.2072806.12059919.3246679.35146086.3.59l-1.8.06c-.05970964.0083479-.12029036.0083479-.18 0-.09-.06-.05-.22-.05-.22.0794968-.3051811.337051-.53103632.65-.57z"/><path d="m9.76 2.51c.2838072-.05293059.5764425-.03227399.85.06.5405905.21569542 1.0015282.59282621 1.32 1.08.06.07 0 .21-.07.21h-3.65c-.09 0-.18 0-.16-.14.05740694-.12523329.13512124-.2401153.23-.34.38059901-.44920621.90239184-.75593578 1.48-.87z"/><path d="m.68 2.88c.25389645-.23771613.59246218-.36377784.94-.35.59.09 1 .58 1.61.67.24963364.03483709.50321532-.02587965.71-.17.10922143-.09509394.23021273-.17575481.36-.24.04930677.10211861.11332102.19645539.19.28.29967665.27806111.63616064.5135999 1 .7h-4.38c-.11-.28-.29-.59-.43-.89z"/><path d="m18.34 2.53c.2808189-.01995742.5589745.06562891.78.24-.1475406.34255827-.3144777.67643258-.5 1h-4.18c.3645046-.18937898.7010332-.42831424 1-.71.0729289-.08435926.1335317-.17863031.18-.28.1711302.09795514.3348969.20824703.49.33.2076343.07675102.4318245.0974455.65.06.6-.11 1.02-.56 1.58-.64z"/><path d="m3.09 4c.22451126-.09399104.4728995-.1149816.71-.06.6.16 1 .66 1.62.83.29901116.06709463.61227811-.00661524.85-.2.39023389-.33425247.87013712-.5463836 1.38-.61.5403598.02150948 1.06227145.20243885 1.5.52.28872243.21004957.64479324.30618868 1 .27.66-.13 1.19-.6 1.86-.74.3018735-.05589571.6137102-.01385031.89.12.4052637.22293629.8225701.42324338 1.25.6.2591989.06296051.5328094.01975885.76-.12.3556318-.23427299.730277-.43832079 1.12-.61.2008481-.0760117.4184143-.09673229.63-.06.5229108.10077799 1.0095719.33893126 1.41.69-.1943743.28818668-.4047022.5652854-.63.83l-15.23-.05c-.18505801-.21398185-.3586352-.43762938-.52-.67.44470555-.28614709.91308068-.5337168 1.4-.74z"/><path d="m5.25 5.62c.22536786-.06528072.46463214-.06528072.69 0 .54743201.23924706 1.10839007.4462673 1.68.62.45078045.00972045.89602399-.10072755 1.29-.32.47547106-.22833784 1.0065783-.31512006 1.53-.25.52.08.93.47 1.46.55.4184302.07987517.8510872-.02192648 1.19-.28.2843011-.22614362.6367263-.34949244 1-.35.8805668.00080029 1.7318193.31647308 2.4.89-.2.18-.4.35-.61.51s-.2 0-.3.05h-11.69c-.04496555.01781971-.09503445.01781971-.14 0-.22-.17-.44-.36-.65-.55.69973393-.33020494 1.41754133-.62066653 2.15-.87z"/><path d="m7.28 7.4c.5210666-.14932416 1.08042726-.08075737 1.55.19.36.2.66.55 1.1.59.3636387-.03938358.7095143-.17773382 1-.4.3785473-.26540517.8277572-.41165958 1.29-.42.6842117.07409958 1.3416672.30694842 1.92.68-2.6260032 1.28083585-5.68539687 1.32846713-8.35.13.44453507-.34697648.94982236-.6080981 1.49-.77z"/></g><g fill="#ec5565" transform="translate(30 13)"><path d="m3.49 12.57h1.57c-.10845137.2539898-.26460471.4848252-.46.68-.17496866.1499989-.37022656.27456-.58.37-.56 0-1.12 0-1.69 0 .30221604-.4332817.69884932-.7923032 1.16-1.05z"/><path d="m6.92 12.53h1.46c.15 0 .26.11.39.18.34375127.2260043.64221318.5142913.88.85h-1.57c-.05252583.0131251-.10747417.0131251-.16 0-.28354611-.1273996-.53349249-.3191393-.73-.56-.10355018-.1484828-.19389544-.3057505-.27-.47z"/><g stroke="#fff" stroke-linecap="round" stroke-linejoin="round" stroke-width="1.05"><path d="m5.67.45c.71993511-.07206341 1.44624139-.04852571 2.16.07.06 0 .14 0 .14.11s-.1.14-.18.14c-.50441171.00559413-.98612879.21050364-1.34.57-.26518152.33973816-.35077019.78628776-.23 1.2.1318311.51771819.44835893.96939273.89 1.27.22953415.15867963.50099009.24568474.78.25.06 0 .14 0 .17.06.0088105.0563242.0088105.1136758 0 .17v5.25c.00573294.03453906-.00270812.06993046-.02341272.098164-.0207046.02823355-.0519222.04692215-.08658728.051836l-.22-.05-3.6-1c-.1 0-.1-.12-.1-.2 0-2.23 0-4.46 0-6.69.11091613-.29103071.26977913-.56143582.47-.8.31805004-.30506694.7309271-.49209672 1.17-.53"/><path d="m.14 5.23c0-.11.18-.11.28-.11h1c.03910311.0179193.06417424.05698658.06417424.1s-.02507113.0820807-.06417424.1c-.12812974.07783853-.24292516.17575228-.34.29.1.08.22.12.33.18.12077338.07710756.16027884.23512938.09.36-.08.12-.25.14-.34.25.09.06.2.09.29.16.09309534.10576561.09309534.26423439 0 .37-.0806318.08413442-.1713137.15802338-.27.22 0 .17.27.16.25.34v3.85c0 .58 0 1.16.06 1.74.24746782.3720062.63218012.6308781 1.07.72.47545337.1477449.98454663.1477449 1.46 0 .34066365-.1194145.63241043-.3478909.83-.65.02113426-.0381979.06134526-.0619052.105-.0619052s.08386574.0237073.105.0619052v.29c-.17553322.7166253-.54585151 1.3707389-1.07 1.89-.37303645.3462897-.86106766.5422146-1.37.55-.58286422-.0099289-1.13889747-.2466914-1.55-.66-.50267063-.5019046-.83497924-1.1490319-.95-1.85 0-.87 0-1.75 0-2.62 0-1.04666667 0-2.09 0-3.13 0-.2.23-.25.37-.35-.13-.14-.31-.28-.29-.49s.21-.2.32-.28c-.11-.14-.32-.22-.34-.41s.21-.27.25-.43-.22-.19-.2-.34"/><path d="m10.64 5.26c-.0205309-.0377973-.0171474-.08409381.0086606-.11850455.0258081-.03441073.0693053-.05062188.1113394-.04149545h1c.1 0 .22.07.18.18s-.16.15-.19.26.24.26.25.44-.22.28-.34.41c.12.09.31.14.32.32s-.16.32-.29.45c.13.1.37.15.36.35v5.58c-.0020859.3097332-.0667114.6158541-.19.9-.2514543.7145561-.7716335 1.3028967-1.45 1.64-.51296885.2255467-1.09703115.2255467-1.61 0-.40415813-.1875457-.749793-.4813353-1-.85-.31492752-.4514463-.54532613-.9562903-.68-1.49 0-.08-.08-.17 0-.25.02223294-.0335174.05977909-.0536675.1-.0536675s.07776706.0201501.1.0536675c.09036429.1395346.20166741.264329.33.37.4021617.3165269.91036357.4668401 1.42.42.49969322-.0179246.9802238-.1968082 1.37-.51.1520257-.1058931.2476865-.2751391.26-.46.05-.9 0-1.8 0-2.7s0-1.8 0-2.7c0-.19.22-.21.27-.36-.12-.1-.3-.19-.32-.36-.0216649-.1306061.0545641-.25765443.18-.3.05 0 .17 0 .16-.13s-.26-.14-.31-.27c-.0438396-.14611117.0181802-.30322807.15-.38.06-.05.18-.1.14-.2s-.17-.16-.24-.26"/></g><path d="m5.67.45c.71993511-.07206341 1.44624139-.04852571 2.16.07.06 0 .14 0 .14.11s-.1.14-.18.14c-.50441171.00559413-.98612879.21050364-1.34.57-.26518152.33973816-.35077019.78628776-.23 1.2.1318311.51771819.44835893.96939273.89 1.27.22953415.15867963.50099009.24568474.78.25.06 0 .14 0 .17.06.0088105.0563242.0088105.1136758 0 .17v5.25c.00573294.03453906-.00270812.06993046-.02341272.098164-.0207046.02823355-.0519222.04692215-.08658728.051836l-.22-.05-3.6-1c-.1 0-.1-.12-.1-.2 0-2.23 0-4.46 0-6.69.11091613-.29103071.26977913-.56143582.47-.8.31805004-.30506694.7309271-.49209672 1.17-.53"/><path d="m.14 5.23c0-.11.18-.11.28-.11h1c.03910311.0179193.06417424.05698658.06417424.1s-.02507113.0820807-.06417424.1c-.12812974.07783853-.24292516.17575228-.34.29.1.08.22.12.33.18.12077338.07710756.16027884.23512938.09.36-.08.12-.25.14-.34.25.09.06.2.09.29.16.09309534.10576561.09309534.26423439 0 .37-.0806318.08413442-.1713137.15802338-.27.22 0 .17.27.16.25.34v3.85c0 .58 0 1.16.06 1.74.24746782.3720062.63218012.6308781 1.07.72.47545337.1477449.98454663.1477449 1.46 0 .34066365-.1194145.63241043-.3478909.83-.65.02113426-.0381979.06134526-.0619052.105-.0619052s.08386574.0237073.105.0619052v.29c-.17553322.7166253-.54585151 1.3707389-1.07 1.89-.37303645.3462897-.86106766.5422146-1.37.55-.58286422-.0099289-1.13889747-.2466914-1.55-.66-.50267063-.5019046-.83497924-1.1490319-.95-1.85 0-.87 0-1.75 0-2.62 0-1.04666667 0-2.09 0-3.13 0-.2.23-.25.37-.35-.13-.14-.31-.28-.29-.49s.21-.2.32-.28c-.11-.14-.32-.22-.34-.41s.21-.27.25-.43-.22-.19-.2-.34"/><path d="m10.64 5.26c-.0205309-.0377973-.0171474-.08409381.0086606-.11850455.0258081-.03441073.0693053-.05062188.1113394-.04149545h1c.1 0 .22.07.18.18s-.16.15-.19.26.24.26.25.44-.22.28-.34.41c.12.09.31.14.32.32s-.16.32-.29.45c.13.1.37.15.36.35v5.58c-.0020859.3097332-.0667114.6158541-.19.9-.2514543.7145561-.7716335 1.3028967-1.45 1.64-.51296885.2255467-1.09703115.2255467-1.61 0-.40415813-.1875457-.749793-.4813353-1-.85-.31492752-.4514463-.54532613-.9562903-.68-1.49 0-.08-.08-.17 0-.25.02223294-.0335174.05977909-.0536675.1-.0536675s.07776706.0201501.1.0536675c.09036429.1395346.20166741.264329.33.37.4021617.3165269.91036357.4668401 1.42.42.49969322-.0179246.9802238-.1968082 1.37-.51.1520257-.1058931.2476865-.2751391.26-.46.05-.9 0-1.8 0-2.7s0-1.8 0-2.7c0-.19.22-.21.27-.36-.12-.1-.3-.19-.32-.36-.0216649-.1306061.0545641-.25765443.18-.3.05 0 .17 0 .16-.13s-.26-.14-.31-.27c-.0438396-.14611117.0181802-.30322807.15-.38.06-.05.18-.1.14-.2s-.17-.16-.24-.26"/><path d="m5 .88c-.25226907.13316646-.45545907.34336301-.58.6-.0991447.15276274-.15765811.32830299-.17.51v6.48l3.56.95c0-1.71333333 0-3.42333333 0-5.13-.75447241-.09275244-1.40233277-.58055318-1.7-1.28-.25661781-.41745419-.30360592-.93078577-.12704145-1.38789155.17656446-.45710578.55643046-.80555809 1.02704145-.94210845-.28950623-.02393273-.58049377-.02393273-.87 0-.38965928-.01172457-.77760196.05633555-1.14.2z"/><path d="m.49 5.34c.06319883.10145769.08131437.22464331.05.34-.06594526.11397821-.14298582.22116507-.23.32.13.13.33.24.33.44s-.2.22-.32.3c.06.14.2.22.28.36.04688452.12978418-.02025336.27301167-.15.32-.07.06-.21.08-.19.19 0 1.88 0 3.77.05 5.65.05120491.376235.17336753.7393294.36 1.07.30145079.6074102.84673161 1.0581756 1.5 1.24.48838845.1142533 1.0023247.0121951 1.41-.28.53679895-.4150097.92878147-.9889841 1.12-1.64-.12369548.0898195-.25407521.1700532-.39.24-.5685844.2575609-1.21044383.3036613-1.81.13-.48345272-.1129416-.90761758-.4016588-1.19-.81-.05792637-.2388844-.08481465-.4842399-.08-.73 0-1.65 0-3.3 0-5-.13-.1-.28-.22-.25-.4s.28-.22.35-.39c-.10136087-.040349-.19849725-.09059196-.29-.15-.05596511-.04935659-.08802616-.12037985-.08802616-.195s.03206105-.14564341.08802616-.195c.09486994-.06816296.19521153-.12836792.3-.18-.13-.14-.37-.15-.44-.34s0-.25.11-.35z"/><path d="m11 5.33c.0547711.10075938.0724648.21753822.05.33 0 .16-.24.2-.31.35.14.09.36.18.34.38s-.21.26-.35.33c.05.17.3.21.32.4s-.13.3-.25.41v5.1c.0046729.1996582-.0223287.3987953-.08.59-.1353692.2143953-.3206508.3928147-.54.52-.60370115.3519003-1.3180964.4626316-2 .31-.31506869-.0754996-.61121742-.215064-.87-.41.14028994.4267597.35344062.8259943.63 1.18.27766676.3563274.66379026.612573 1.1.73.5241991.1139141 1.0720091-.0066041 1.5-.33.4703171-.3560617.8194928-.8483994 1-1.41.0754983-.1956225.1226419-.4010339.14-.61 0-1.87 0-3.74 0-5.62 0-.11-.11-.13-.18-.18-.0672808-.02254724-.1224232-.07161344-.152637-.13581787-.0302139-.06420443-.0328739-.13796822-.007363-.20418213.08-.12.2-.21.28-.33-.12-.09-.31-.15-.32-.32s.2-.31.33-.44c-.0938413-.09923558-.1745054-.21014869-.24-.33-.0250239-.11037598-.0033094-.22618652.06-.32z"/><path d="m2.55 10.08c.02746571-.0609727.08812674-.1001788.155-.1001788s.12753429.0392061.155.1001788c.01595252.1194698.01595252.2405302 0 .36.08583706-.1160022.18298026-.2231946.29-.32.13-.09.32.09.22.22s-.33.39-.5.59c.12536991.1819493.2623196.3556416.41.52v.19c-.03230091.0383325-.07987285.0604555-.13.0604555s-.09769909-.022123-.13-.0604555c-.13-.15-.24-.31-.37-.47-.14.16-.27.33-.42.48s-.34 0-.26-.18.32-.38.47-.57l-.45-.57c-.05384691-.0634487-.05384691-.1565513 0-.22.03037329-.0344401.07407991-.0541699.12-.0541699s.08962671.0197298.12.0541699c.1040942.1173268.20094042.2408893.29.37-.00254567-.1339785.00749844-.2679.03-.4z"/><path d="m4.17 10.1c.02746571-.0609727.08812674-.1001788.155-.1001788s.12753429.0392061.155.1001788c.01538208.1195071.01538208.2404929 0 .36.08233821-.1097645.17257792-.2133731.27-.31.13-.1.32.06.24.2s-.34.4-.5.6l.4.52c.03159258.0429545.03971087.0988245.02164986.1489939-.01806102.0501695-.05992765.0880449-.11164986.1010061-.07702679.020568-.1584068-.011984-.2-.08l-.34-.44c-.14.16-.27.32-.41.48-.04083916.036655-.09686085.0513419-.15043057.0394376-.05356971-.0119044-.09809844-.0489359-.11956943-.0994376-.02007298-.069637.0035744-.1445204.06-.19l.42-.49-.42-.54c-.05068487-.0492098-.07323107-.1206062-.06-.19.01403333-.0535848.05478392-.0960993.10772638-.1123893s.11054432-.0040378.15227362.0323893c.10696827.1175164.20713164.2410512.3.37.00216548-.1338054.01218271-.2673684.03-.4z"/><path d="m5.83 10.08c.02746571-.0609727.08812674-.1001788.155-.1001788s.12753429.0392061.155.1001788c.0138436.116256.0138436.233744 0 .35.08632428-.1156019.18342641-.2227491.29-.32.13-.08.31.09.22.22s-.33.39-.5.59c.12669913.1777781.26359533.3480636.41.51 0 .09 0 .22-.09.26s-.21-.07-.27-.15l-.28-.36c-.15.16-.28.35-.44.5s-.31-.07-.24-.2.32-.37.47-.57l-.46-.59c-.03397854-.0625161-.0254291-.1395792.0214257-.1931275.04685481-.0535484.12210106-.0722517.1885743-.0468725.12552268.119729.23630623.2540121.33.4.00057274-.1343025.01396684-.2682435.04-.4z"/><path d="m7.54 10.08c.02746571-.0609727.08812674-.1001788.155-.1001788s.12753429.0392061.155.1001788c.01549286.1194999.01549286.2405001 0 .36.08646199-.1154884.18355283-.2226231.29-.32.13-.09.31.09.22.22s-.33.39-.5.59c.12607908.1814252.26299474.3550743.41.52v.19c-.03216672.0420297-.08207367.0666801-.135.0666801s-.10283328-.0246504-.135-.0666801c-.13-.15-.24-.31-.36-.47l-.4.46c-.06503157.0597335-.16496843.0597335-.23 0-.03444007-.0303733-.05416995-.0740799-.05416995-.12s.01972988-.0896267.05416995-.12l.44-.52-.44-.57c-.05384691-.0634487-.05384691-.1565513 0-.22.03037329-.0344401.07407991-.0541699.12-.0541699s.08962671.0197298.12.0541699c.10383681.1175413.20067067.241088.29.37-.01088624-.1230931-.01088624-.2469069 0-.37z"/><path d="m9.18 10.09c.02746571-.0609727.08812674-.1001788.155-.1001788s.12753429.0392061.155.1001788c.0138436.116256.0138436.233744 0 .35.08601694-.1097138.17957703-.2132981.28-.31.14-.1.33.09.23.22s-.33.39-.49.58l.39.51c.03751293.0464445.04739844.1093739.02593274.1650833-.02146569.0557095-.07102143.0957352-.13000004.1050001-.05897861.0092648-.11841983-.0136388-.1559327-.0600834-.13-.15-.24-.31-.36-.46-.14.16-.27.32-.41.47-.04078366.0411857-.09974109.058754-.15641629.0466093-.0566752-.0121446-.10325716-.0523285-.12358371-.1066093-.02170814-.0726666.00187671-.1512828.06-.2l.42-.49-.46-.6c-.05019992-.0647689-.04335016-.1569965.01586701-.213639.05921716-.0566425.151658-.0593886.21413299-.006361.11323753.1182538.21689724.2453205.31.38.00193457-.1271745.01195479-.2540973.03-.38z"/><path d="m1.62 12.09c.05555956-.0158412.11444044-.0158412.17 0h8.48c.0546643-.0048205.1082938.017043.144007.0587083.0357131.0416653.0491173.0980077.035993.1512917-.0322139.0851427-.1202915.1354728-.21.12h-8.15c-.14 0-.27 0-.41 0-.09112698.0165685-.17843146-.043873-.195-.135s.04387302-.1784315.135-.195z"/></g></g></svg>