<svg height="48" viewBox="0 0 71 48" width="71" xmlns="http://www.w3.org/2000/svg"><g fill="none"><rect fill="#434a54" height="47" rx="6.36" width="70" x=".39" y=".13"/><path d="m64 .13h-57.25c-1.69759961-.00374563-3.32579077.67346662-4.52 1.88l65.89 43.62c1.4373379-1.2052121 2.2682833-2.9842405 2.27-4.86v-34.27c.0026819-1.69371995-.6703292-3.31854958-1.8698473-4.51431329s-2.8264495-1.86367809-4.5201527-1.85568671z" fill="#ed5565"/><g fill="#fff"><path d="m11.83 23.87c-.27.19-.43.08-.35-.24l.29-1.19c.0759407-.3644843-.0412079-.7423829-.31-1l-.88-.76c-.25-.21-.18-.4.14-.41h1.23c.3516771-.0246752.6546861-.2568509.77-.59l.39-1.3c.09-.32.26-.32.37 0l.46 1.29c.13639.3268201.4465578.5478146.8.57h1.26c.33 0 .4.18.15.4l-1 .83c-.2726603.2549469-.3806245.6405333-.28 1l.3 1.05c.09.32-.06.43-.34.26l-1-.63c-.3094011-.1786328-.6905989-.1786328-1 0z"/><path d="m21.92 27.2c-.27.19-.42.08-.35-.24l.29-1.19c.077935-.3645767-.039511-.7434347-.31-1l-.88-.76c-.25-.21-.18-.4.14-.41h1.23c.3516771-.0246752.6546861-.2568509.77-.59l.39-1.3c.09-.32.26-.32.37 0l.43 1.29c.13639.3268201.4465578.5478146.8.57h1.25c.33 0 .4.18.15.4l-1 .83c-.2726603.2549469-.3806245.6405333-.28 1l.3 1.05c.09.32-.06.43-.34.26l-1-.63c-.3094011-.1786328-.6905989-.1786328-1 0z"/><path d="m6.78 33c-.27.19-.42.08-.35-.24l.29-1.19c.07594067-.3644843-.04120789-.7423829-.31-1l-.88-.76c-.25-.21-.18-.4.14-.41h1.23c.35167711-.0246752.65468608-.2568509.77-.59l.39-1.3c.09-.32.26-.32.37 0l.46 1.29c.13639002.3268201.44655776.5478146.8.57h1.31c.33 0 .4.18.15.4l-1 .83c-.27266033.2549469-.38062452.6405333-.28 1l.3 1.05c.09.32-.06.43-.34.26l-1-.62c-.30940108-.1786328-.69059892-.1786328-1 0z"/><path d="m13.78 42c-.27.19-.42.08-.35-.24l.29-1.19c.0759407-.3644843-.0412079-.7423829-.31-1l-.88-.76c-.25-.21-.18-.4.14-.41h1.23c.3516771-.0246752.6546861-.2568509.77-.59l.39-1.3c.09-.32.26-.32.37 0l.46 1.29c.13639.3268201.4465578.5478146.8.57h1.31c.33 0 .4.18.15.4l-1 .83c-.2726603.2549469-.3806245.6405333-.28 1l.3 1.05c.09.32-.06.43-.34.26l-1-.62c-.3094011-.1786328-.6905989-.1786328-1 0z"/><path d="m16.34 33.07c-.18.13-.29.06-.24-.16l.2-.82c.0471548-.2444393-.0317577-.4962076-.21-.67l-.6-.52c-.17-.15-.13-.27.1-.28h.84c.2398847-.0199831.4446043-.1813967.52-.41l.26-.9c.06-.22.18-.22.25 0l.32.88c.0924902.22542.3066746.3772962.55.39h.85c.22 0 .27.13.1.27l-.65.57c-.1760367.174802-.2480688.4288099-.19.67l.21.72c.06.22 0 .3-.23.18l-.69-.43c-.2098249-.1235715-.4701751-.1235715-.68 0z"/></g><g fill="#f6d660"><path d="m42.67 14 11.36 1-3.19 11.61z"/><path d="m56.93 4.71-3.73 10.77 11.91 1.81z"/></g></g></svg>