<svg height="48" viewBox="0 0 71 48" width="71" xmlns="http://www.w3.org/2000/svg"><g fill="none"><path d="m63.89.12h-57.28c-3.51253101 0-6.36 2.84746899-6.36 6.36v17.64h70v-17.64c0-3.51253101-2.847469-6.36-6.36-6.36z" fill="#4758a9"/><path d="m.25 40.75c0 3.512531 2.84746899 6.36 6.36 6.36h57.27c1.6867769 0 3.3044678-.6700695 4.4971991-1.8628009 1.1927314-1.1927313 1.8628009-2.8104222 1.8628009-4.4971991v-16.63h-70z" fill="#ed5565"/><path d="m2.15 1.95c-1.21883516 1.19574529-1.90384575 2.83256006-1.9 4.54v34.27c.00114902 1.7251958.70529477 3.3754245 1.95 4.57l23.05-21.21z" fill="#fff"/><circle cx="10.25" cy="23.62" fill="#f6d660" r="4"/></g></svg>