<svg height="48" viewBox="0 0 71 48" width="71" xmlns="http://www.w3.org/2000/svg"><g fill="none"><path d="m64.2699931.85h-45.6399931v47h45.6399931c3.5125305 0 6.359999-2.847469 6.359999-6.36v-34.27c.0026549-1.68850883-.6662423-3.30876993-1.8592613-4.50366499-1.1930191-1.19489505-2.812227-1.8663371-4.5007377-1.86633501z" fill="#57a863"/><g fill="#fff"><path d="m48 27.56c-.54.37-.85.16-.7-.46l.58-2.33c.1330176-.6977609-.1010269-1.4149939-.62-1.9l-1.76-1.48c-.5-.42-.37-.78.29-.8l2.46-.07c.6983036-.0461053 1.302944-.5015487 1.54-1.16l.77-2.55c.19-.62.52-.63.75 0l.93 2.51c.2815655.6419323.9001149 1.071051 1.6 1.11h2.51c.66 0 .79.36.29.78l-1.91 1.62c-.5093424.4858056-.7258173 1.2035907-.57 1.89l.61 2.05c.18.62-.12.85-.69.51l-2-1.22c-.6294759-.3388886-1.3919711-.3160138-2 .06zm8.55 2.53c-.3980744.4396285-.83299.8444345-1.3 1.21-4.5766149 3.5665818-11.159398 2.8489433-14.86-1.62-.6821618-.8361744-1.2288173-1.7742622-1.62-2.78-.4131501-.9903973-.6663063-2.0401518-.75-3.11-.3887132-5.7463046 3.9537808-10.720027 9.7-11.11.5956425-.0494393 1.1943575-.0494393 1.79 0h.05c.125043.0089316.2453524-.0495248.3156089-.1533494.0702565-.1038245.0797864-.2372438.025-.35-.0547865-.1127562-.1655659-.187719-.2906089-.1966506-1.6774905-.5547244-3.4481235-.7722302-5.21-.64-3.4652158.221026-6.7006404 1.8097742-8.9942993 4.4166309-2.2936588 2.6068568-3.4576034 6.0182093-3.2357007 9.4833691v.05c.0994958 1.2974049.3962394 2.5720536.88 3.78.4935217 1.2113313 1.1678516 2.3408339 2 3.35 4.655855 5.6028138 12.9225098 6.4888432 18.66 2 1.3776298-1.0725387 2.5239689-2.412769 3.37-3.94.0933333-.1244444.0933333-.2955556 0-.42-.0740213-.0709301-.1741541-.1079688-.2765157-.102282-.1023616.0056867-.1977754.0535891-.2634843.132282z"/><path d="m7 .85c-3.51253101 0-6.36 2.84746899-6.36 6.36v34.27c0 3.512531 2.84746899 6.36 6.36 6.36h11.64v-47z"/></g></g></svg>