<svg height="48" viewBox="0 0 71 48" width="71" xmlns="http://www.w3.org/2000/svg"><g fill="none"><path d="m17.14 10.14 16.16 9.33c.05 0 .1.08.17.07h37.4v-9.39z" fill="#fff"/><path d="m18.49 37.55c-.44.26-.89.5-1.32.77h13 40.69v-9.4h-37.43z" fill="#fff"/><path d="m3.35 46.28c4.61-2.65 9.21-5.32 13.82-8 .43-.27.88-.51 1.32-.77l14.93-8.62 8.09-4.67-7.91-4.56-.14-.11c-.06 0-.11 0-.17-.07l-16.16-9.33-13.76-7.95c-1.59089932 1.2568459-2.51927084 3.17253317-2.52 5.2v33.72c.00805338 2.0100417.92755775 3.9078987 2.5 5.16z" fill="#3cafda"/><g fill="#ec5565"><path d="m17.14 10.14h53.73v-2.75c0-1.76103749-.6995694-3.44994747-1.944811-4.69518903-1.2452415-1.24524155-2.9341515-1.94481097-4.695189-1.94481097h-56.72c-1.50018832-.00257534-2.9566308.50523996-4.13 1.44z"/><path d="m33.62 19.65 7.91 4.56-8.09 4.67h37.45v-9.39h-37.4z"/><path d="m17.17 38.32c-4.61 2.64-9.22 5.31-13.82 8 1.17737969.9519876 2.6458988 1.4709114 4.16 1.47h56.72c3.6671707 0 6.64-2.9728293 6.64-6.64v-2.78h-40.68c-4.34-.05-8.68-.04-13.02-.05z"/></g><path d="m11.52 29.23c-.54.38-.87.16-.72-.49l.54-2.43c.1173272-.7399666-.1413623-1.4897912-.69-2l-1.83-1.55c-.52-.44-.4-.81.27-.83l2.51-.06c.71052-.0471982 1.3205737-.5225648 1.54-1.2l.73-2.65c.18-.64.52-.65.76 0l1 2.63c.3011302.6657938.941395 1.1143626 1.67 1.17h2.56c.67 0 .81.38.32.82l-1.91 1.68c-.5381462.5142391-.7461946 1.2847889-.54 2l.67 2.15c.2.65-.11.89-.69.53l-2.11-1.29c-.6277025-.3419253-1.3901673-.3228637-2 .05z" fill="#fff"/></g></svg>