<svg height="48" viewBox="0 0 71 48" width="71" xmlns="http://www.w3.org/2000/svg"><g fill="none"><path d="m2.26 46.15 18.49-13.87c.0617367-.0529838.1330092-.0937109.21-.12.63-.55 1.34-1 2-1.53 2.78-2.08 5.55-4.17 8.34-6.25v-.11c-3.43-2.55-6.83-5.13-10.26-7.68l-.06-.1c-.2880837-.1590515-.5594481-.3466614-.81-.56l-11.87-8.9-6-4.53c-1.43367465 1.2649899-2.25041011 3.08806013-2.24 5v33.72c-.00048711 1.8812812.79947248 3.673918 2.2 4.93z" fill="#ec5565"/><path d="m20.16 15.93c.2505519.2133386.5219163.4009485.81.56h49v-9c0-3.66717074-2.9728293-6.64-6.64-6.64h-56.68c-1.62187932-.00199408-3.18788475.59237617-4.4 1.67l6 4.53z" fill="#434a54"/><path d="m21 16.59c3.43 2.55 6.83 5.13 10.26 7.68v.11c-2.78 2.07-5.56 4.17-8.34 6.25-.66.52-1.37 1-2 1.53h49v-15.68h-48.92z" fill="#fff"/><path d="m20.75 32.28-18.49 13.87c1.20954059 1.0753325 2.77156612 1.6695427 4.39 1.67h56.72c3.6671707 0 6.64-2.9728293 6.64-6.64v-9h-49.01c-.0894817.015228-.1747008.0493156-.25.1z" fill="#55a963"/></g></svg>