<svg height="48" viewBox="0 0 71 48" width="71" xmlns="http://www.w3.org/2000/svg"><g fill="none"><path d="m6.75.42c-3.51253101 0-6.36 2.84746899-6.36 6.36v34.27c0 3.512531 2.84746899 6.36 6.36 6.36h21.75v-47z" fill="#57a863"/><path d="m70.39 41.05v-34.27c0-3.51253101-2.847469-6.36-6.36-6.36h-35.53v47.0000709l35.5-.0000709c1.6937032.0079914 3.3206346-.659923 4.5201527-1.8556867s1.8725292-2.8205934 1.8698473-4.5143133z" fill="#ed5565"/><circle cx="28.5" cy="23.92" fill="#ffce54" r="11.43"/><path d="m34.42 18.16h-11.85v7.36c-.0470828 3.0269185 2.1398399 5.6273529 5.13 6.1 1.6933539.2243103 3.4013155-.2912209 4.6877746-1.4149583 1.286459-1.1237373 2.0268878-2.7469041 2.0322254-4.4550417v-7.58z" fill="#ed5565"/><path d="m31.89 20.7v5c0 1.8722453-1.5177547 3.39-3.39 3.39s-3.39-1.5177547-3.39-3.39v-5z" fill="#fff"/><g fill="#4758a9"><circle cx="28.5" cy="22.81" r="1"/><circle cx="28.5" cy="27.02" r="1"/><circle cx="28.5" cy="24.92" r="1"/><circle cx="26.4" cy="24.91" r="1"/><circle cx="30.6" cy="24.92" r="1"/></g></g></svg>