<svg height="48" viewBox="0 0 71 48" width="71" xmlns="http://www.w3.org/2000/svg"><g fill="none"><path d="m.25 7.6v9h70v-9c0-3.66717074-2.9728293-6.64-6.64-6.64h-56.72c-3.66717074 0-6.64 2.97282926-6.64 6.64z" fill="#ed5565"/><path d="m.25 32.3h70v-15.67h-70z" fill="#4758a9"/><path d="m.25 41.31c0 3.6671707 2.97282926 6.64 6.64 6.64h56.72c3.6671707 0 6.64-2.9728293 6.64-6.64v-9h-70z" fill="#fff"/><path d="m26.33 18.56-.74-4.5h2.65l-1.66-2.52-1-.58h-3.99l-1.25 7.6h-2.17l-1.26-7.6h-3.98l-1.01.58-1.66 2.52h2.66l-.74 4.5h-3.93l6.42 16.39h9.15l6.44-16.39z" fill="#ffce54"/></g></svg>