<svg height="48" viewBox="0 0 71 48" width="71" xmlns="http://www.w3.org/2000/svg"><g fill="none"><rect fill="#57a863" height="47" rx="6.36" width="70" x=".01" y=".98"/><g fill="#fff"><path d="m10 35h51s-.9 2-2 2h-47c-1.1 0-2-2-2-2z"/><path d="m51.01 31.98h2v8h-2z"/><path d="m9.38 13.3c-.12 1.64-.27 4.54 1.12 4.83 1.67.16.75-2.86 1.35-3.41.11-.27.33-.27.34.07v2.56c-.02502.5908696.3740047 1.1159021.95 1.25.3615074-.1291017.760163.0525081.9.41.0666667 1.48.1366667 2.9566667.21 4.43.11 2.22 1 .3 1.07-2.49 0-1.64-.32-3-.11-3.33 0-.31.4-.33.68-.18.3038719.4075488.807203.6150288 1.31.54 1-.29 1.65-.8 1.67-1.6-.0271958-.7842822-.1860776-1.5584084-.47-2.29 0-.14-.2-.5-.15-.64.19.29.47.27.53 0-.1126651-.5582222-.430153-1.0540741-.89-1.39-.178112-.1845161-.449171-.2448914-.6887576-.1534128-.2395867.0914785-.4014301.3171438-.4112424.5734128-.02736.8977411.2710024 1.7750687.84 2.47.1754243.3848688.2477906.8087287.21 1.23-.2853986.1599479-.6452004.0828475-.84-.18-.3066751-.2148-.5825603-.4704986-.82-.76.2062668-.6550283.181558-1.3609956-.07-2-.0958326-.3962694-.2804841-.7655723-.54-1.08-.0682892-.1048053-.1849098-.1680099-.31-.1680099s-.2417108.0632046-.31.1680099c-.291655.8534629-.2668113 1.7833282.07 2.62.1796084.2779328.2956997.5920621.34.92-.11.32-.35.24-.52-.12-.2012393-.7838693-.2987384-1.5907584-.29-2.4-.07-.63-.15-2-.57-2.32-.0947439-.1337876-.258672-.2002213-.419826-.1701392-.161154.030082-.2900759.1511811-.330174.3101392-.0488676.6090213-.0488676 1.2209787 0 1.83.2423761.9694405.4128395 1.9554544.51 2.95 0 1.39-.8.6-.76-.09.1880969-.876691.1880969-1.783309 0-2.66-.0361937-.2621627-.2777517-.4455678-.54-.41h-.08c-.6952073.4270398-1.119167 1.1841106-1.12 2-.0982138.3955677-.1749923.7961511-.23 1.2-.09.64-.51 1.09-.8-.09-.21-.82-.4-2.92-.83-2.43zm4.54 6.74c-1.47.73-2.9 1.41-4.35 2.11.05-1 2.07-2.8 3.45-2.82.9 0 .67.35.91.71zm-4.2 4.23c-.82 1.32-.89 3.28-.44 3.87.23461623.2586149.58713807.3761222.93.31.495874-.397457.7339143-1.0347907.62-1.66-.17-.27-.31-.31-.48-.08-.36.74-.51.23-.54-.18-.04242405-.6949067-.00889226-1.3923681.1-2.08.09-.59 0-.41-.19-.17zm35-2.11c-.79-1.72-1.89-3.42-2.24-4.07s-3-4.51-3.36-4.95c-.86-1 1.39.43-.29-1.61l-1.2-1c-.27-.19-.92-.54-1 0-.0569823.4034856-.0366197.814131.06 1.21.1737952.3639822.3994792.700824.67 1 2.7954127 3.7332238 5.245504 7.7129486 7.32 11.89.36-.17.28-2.22.07-2.51zm-3.47 5.76c.0178479.2673341.1422273.5163247.3452557.6911547s.4677223.2608748.7347443.2388453c1.17-.14 2.21-.8 3.16-2.55.3969736-.5992511.6439244-1.2852257.72-2 .1191104-3.33222-.142584-6.6671453-.78-9.94-.0508349-.2271911-.0508349-.4628089 0-.69.1743036-.0335927.336524-.1129771.47-.23.2-.21-.53-1.92-1-2.58-.15-.3-.2-.49-.45 0-.297026.577049-.4383474 1.2216125-.41 1.87.56 3.91.73 7.34 1.1 11.25.061357.4052314-.0392239.8183314-.28 1.15-1.0241067 1.1570859-2.281712 2.0841012-3.69 2.72zm15.84 0c-.84.49-.84 1.06-.16 1.08 1.17-.14 2.56-.24 3.51-1.69.3371569-.6841244.5343437-1.4286745.58-2.19.1559553-3.2840678-.0621128-6.5752184-.65-9.81-.0657114-.329495-.102518-.6640998-.11-1 .08-.2.46 0 .6-.2s-1-1.75-1.41-2.41c-.15-.3-.2-.49-.45 0-.2788763.581346-.3630336 1.237072-.24 1.87.6252918 3.7085984 1.0193855 7.4524882 1.18 11.21-.0389665.3408964-.1161173.6763344-.23 1-.3358253.4943467-.7248138.9504023-1.16 1.36-.38.28-1.19.56-1.46.77zm.63-3.81c0-1 0-1.85 0-2.59-.0074935-.6447958-.1470299-1.2812177-.41-1.87-.13123-.5302848-.2016833-1.073782-.21-1.62-.11-.6-.08-1.5-.25-2.21-.0837039-.4152986-.1338656-.8366574-.15-1.26.07-.2.34 0 .47-.22s-.68-2.47-1.12-3.12c-.15-.29-.44-.19-.79.28-.275361.5237603-.3046538 1.1425703-.08 1.69.9161288 4.1636291 1.3622521 8.4168956 1.33 12.68 0 .36 1.24-1.07 1.23-1.75zm-6.22-5.5c-.8379223-.2959905-1.5456065-.8762915-2-1.64-.098128-.2905462-.0728266-.6086206.07-.88.1974791-.1731745.4744293-.2231794.72-.13.0869256.109718.1514783.2354259.19.37.29.14.41.06.44-.06s-.09-.33-.09-.56c.0219863-.2500834.1949435-.4611581.4358255-.5318758.2408819-.0707176.5004909.0133652.6541745.2118758.1872493.3365993.2869659.7148348.29 1.1 0 .18-.28 0-.44 0-.1476452.0764016-.2345418.2343955-.22.4 0 .45-.08 1.17-.09 1.72zm-9.77 6.61c.0642441-1.516608.0442133-3.0356135-.06-4.55-.06-1.88-.36-5.52-.51-6.13-.16-1.14.47.13.38-.54-.2799194-1.1096312-.8178413-2.1375074-1.57-3-.23-.34-.23-.41-.59.08-.2630784.7440981-.2630784 1.5559019 0 2.3.5084888 2.2002813.8428565 4.4372007 1 6.69.160514 2.243218.1805531 4.49428.06 6.74.6991242-.2549797 1.1893719-.889189 1.26-1.63zm17.76-2.22c-.93-1.58-2.34-3.3-2.72-3.93s-3.55-4.79-4-5.2c-1.16-1.24.53-.2-.22-1.16-.4097207-.5016713-.8724011-.9576462-1.38-1.36-.27-.18-.44-.52-.53.06-.0290656.5129219-.0290656 1.0270781 0 1.54.0630684.3678794.2216986.7127278.46 1 3.136364 3.5997606 5.9410972 7.4755136 8.38 11.58.35-.19.24-2.21 0-2.49zm-35-4.55-.1.64c-.03032.1017205-.1238569.1714435-.23.1714435s-.19968-.069723-.23-.1714435c-.18-.82-.91-.92-1.36.34-.3.24-.84.29-.9-.07.07-.85-.27-1-.95-.56-.22-1.68-.44-3.29-.66-5 .2672318.1195678.5796101.0727111.8-.12-.28-.89-.88-2.71-1.21-2.84-.16-.2-.3-.07-.51 0-.4284343.1261393-.6832531.565482-.58 1 .42 2.58.7 4.55 1.11 7.13.0618934.2951739-.1254651.5851336-.42.65h-.09c-.55-.37-.69-1.13-1.62-1.1-.7778488.1115278-1.3976645.7071949-1.54 1.48-.1333381.5554432-.1333381 1.1345568 0 1.69.3759303.4547436 1.0036215.6126788 1.55.39.2696775-.2137409.574118-.3794918.9-.49.1.12 0 1.49-1.94 2.55-1.19.54-2.13.66-2.64-.32-.32-.61 0-2.94-.75-2.4-2.29 6 5.37 6.81 6.23.24.08-.27.4-.54.46-.1-.18 5.94-5.93 6.35-6.91 4.48-.230357-.6414084-.345463-1.3185022-.34-2-.15-1.17-.75-.72-.85.44-.0713869.4798135-.0948358.9655413-.07 1.45.31 4.69 7.72 2.68 8.92-1.2.64-2.15-.1-3.73.24-3.72.5699281.4994402 1.4359674.4458708 1.94-.12v-.05c.0488119-.073246.1248628-.1239564.2112453-.1408573.0863825-.016901.1759373.0014083.2487547.0508573h.05c.294777.2106033.6694373.2754556 1.0178521.1761866.3484147-.099269.632634-.3518468.7721479-.6861866.1305486-.7370206.2107342-1.482079.24-2.23-.3007551.0553775-.5690208.2234907-.75.47zm-6.79 2.19c-.1253034.0682994-.2719548.0861837-.41.05-.1440827.0113404-.2826227-.0579297-.36-.18-.0030563-.1602889.0581617-.3151345.17-.43.0904867-.1087822.2317122-.1616643.3713935-.1390688.1396812.0225955.2570315.117306.3086065.2490688.0550114.153574.0245718.3247963-.08.45zm8.38-8.72c-.85 2.45.49 5.14 1.41 4.88.67.28 1.09-1 1.37-2.41.19-.39.33-.44.42-.23 0 1.87.13 2.29.61 2.86.5727801.5003639 1.4272199.5003639 2 0l.83-.84c.1931491-.1841271.4968509-.1841271.69 0 .1739594.3616583.4351306.6743764.76.91.5725818.1945065 1.2056915.0602105 1.65-.35.31-.53.38-.71.52-.91.1076219-.1730999.3326473-.2304593.51-.13l.08.06c-.1343268.1769128-.1752685.4076752-.11.62.1333673.1208343.3366327.1208343.47 0 .4648465-.3780275.8118335-.8811587 1-1.45 0-.44-.22-.4-.38-.31s-.22.17-.43.3c-.3395488.1434858-.7317972.0728811-1-.18-.1782885-.5317401-.3284959-1.0724865-.45-1.62 0 0-.35-.76 0-.8.16 0 .51.12.56-.17-.0343814-.5749754-.2928897-1.1135345-.72-1.5-.2794369-.333113-.7755253-.3778057-1.11-.1l-.07.07c-.2047259.2432087-.314802.5521319-.31.87-.0953252.4154742.0081734.8516466.28 1.18.4908762.6992709.7208979 1.5485819.65 2.4-.192116.2845859-.5168046.4507057-.86.44-.22 0-.59-.15-.79-1.62-.15-1.11 0-2.67-.43-3.4-.17-.44-.3-.87-.71-.11-.3554897.480992-.4456511 1.108365-.24 1.67.7629787 1.0052705.6646802 2.4199142-.23 3.31-.2573607.2774723-.6725558.3397515-1 .15-.3436019-.1730458-.5767473-.5077222-.62-.89.0756974-.9606924.0421495-1.9268717-.1-2.88-.0602181-.1694573-.2052343-.2946731-.3816592-.3295478-.1764249-.0348746-.3581764.0257475-.4783408.1595478-.8107499.9142029-1.3509237 2.0361024-1.56 3.24-.24.79-.5.56-.68.24-.44-.42-.47-3.67-1-3.14zm-10.47 0c.57.28 1.65.16 1.6-.77 0-.08 0-.36 0-.44-.12-.27-.44-.21-.51.08.0327714.0938892.0327714.1961108 0 .29 0 0-.23 0-.22-.24-.0121469-.0812293-.0467869-.1574372-.1-.22-.0388225-.0137258-.0811775-.0137258-.12 0-.056132-.0017761-.1059881.035616-.12.09-.0087844.0697244-.0087844.1402756 0 .21.0010926.0549104-.0300222.1053879-.0795685.129084-.0495464.0236961-.1083717.0162334-.1504315-.019084-.0431534-.0261459-.0724627-.07011-.08-.12.0119872-.0761981.0119872-.1538019 0-.23-.03655-.0413974-.0857784-.0695279-.14-.08-.1047991.0171613-.1984726.0752918-.2603744.1615792s-.0869507.1936487-.0696256.2984208c-.048878.3354336.1038435.6682881.39.85zm16.8 7.18c.57.28 1.93.12 1.6-.77 0-.08 0-.36 0-.44-.11-.27-.43-.21-.51.08.0372762.0930731.0372762.1969269 0 .29 0 0-.23 0-.22-.24-.0110605-.0815465-.0458335-.1580471-.1-.22-.0386701-.014587-.0813299-.014587-.12 0-.08 0-.08 0-.12.09-.0098485.0696536-.0098485.1403464 0 .21.0057355.0334402-.002953.0677455-.0239148.0944241-.0209617.0266786-.0522374.0432368-.0860852.0455759-.0376074.0195658-.0823926.0195658-.12 0-.0414016-.0279312-.070141-.0710404-.08-.12.0165166-.0757771.0165166-.1542229 0-.23-.0354839-.0426871-.0852085-.0711012-.14-.08-.1021642.0171276-.1933169.0741968-.2533497.158618-.0600329.0844211-.084013.1892575-.0666503.291382-.0563118.3340362.0935296.6692076.38.85zm9.79-3c.57.28 1.65.16 1.6-.77 0-.08 0-.36 0-.44-.11-.27-.43-.21-.5.08.0327714.0938892.0327714.1961108 0 .29 0 0-.23 0-.22-.24-.0104735-.0817146-.0453209-.1583788-.1-.22-.0382576-.016697-.0817424-.016697-.12 0-.056132-.0017761-.1059881.035616-.12.09-.0097176.0696627-.0097176.1403373 0 .21.0057355.0334402-.002953.0677455-.0239148.0944241-.0209617.0266786-.0522374.0432368-.0860852.0455759-.0376074.0195658-.0823926.0195658-.12 0-.0414016-.0279312-.070141-.0710404-.08-.12.0113655-.0762454.0113655-.1537546 0-.23-.0384915-.0389433-.0869071-.0666093-.14-.08-.2122985.0309339-.359747.2275319-.33.44v.06c-.048878.3354336.1038435.6682881.39.85zm5.07 7.46c-.6948143 1.0059369-.8196581 2.2997719-.33 3.42.2252356.606238.6620957 1.1105806 1.23 1.42.1680017.156006.3913406.2384729.6204133.2290846.2290727-.0093882.4449144-.1098542.5995867-.2790846l.07-.09c.59-.61.6-2.18.87-2.49.0392125-.199734.1913561-.3582254.3893214-.4055649.1979653-.0473396.4053501.0251777.5306786.1855649.2129084.3074561.497876.5580903.83.73.4954324.5041281 1.288934.5598877 1.85.13.4739219-.2628831.8310824-.6950473 1-1.21.29-.77.13-4.35.07-6.47 0-.17-.57-2.91-.57-2.94s-.07-1.4-.13-1.73c0-.13 0-.17.09-.15.0753437.0723385.1635179.1299908.26.17.15 0 .28-.23.19-.46l-1.36-2.55c-.11-.11-.26-.23-.43 0-.21842.1918663-.3425296.4692878-.34.76 0 .6.15 1.22.19 1.82l.54 3.1c.18 2.21.22 4 .39 6.23.0620816.675561-.1465261 1.3481407-.58 1.87-.2087547.1398059-.4812453.1398059-.69 0-.3779765-.4151502-.7130133-.8674499-1-1.35-.1111647-.1675871-.2988955-.2683375-.5-.2683375s-.3888353.1007504-.5.2683375c-.8.79-1.17 2.25-1.71 3.27-.1111647.1675871-.2988955.2683375-.5.2683375s-.3888353-.1007504-.5-.2683375c-.5759884-.9533244-.7890095-2.0823364-.6-3.18zm-4.81-12.88c.5519792.4152321.8383789 1.0949541.75 1.78-.1.64-.37 1.32-.57 1.23s.15-.63-.06-1.21c-.2763676-.4053148-.523654-.8297119-.74-1.27-.0362675-.1645422.0203264-.335746.1475161-.4462551.1271897-.110509.3046196-.1426374.4624839-.0837449zm6.54 13.59c.0474669-.9244831.0140061-1.8513462-.1-2.77 0-.74-.83-6.4-1-7-.2-1.06.77-.14.66-.76-.33-.78-1.17-1.91-1.43-2.58-.16-.29-.09-.55-.44-.08-.3111301.8429928-.4207172 1.7470863-.32 2.64.84 4.44 1.7 8.13 1.57 12.35.39 0 .85-.92 1-1.84zm8.77-11.72c.4747362.5276335.722617 1.2209812.69 1.93-.09.69-.34 1.43-.52 1.33-.0713344-.4328625-.088132-.8729594-.05-1.31-.2533574-.4429254-.4804169-.9003836-.68-1.37-.0573937-.1610265-.0185906-.3406676.1001496-.4636486.1187403-.122981.2969098-.1680615.4598504-.1163514zm-34.77 9.33c.4338846.3409793.6790673.8684937.66 1.42.017486.3973715-.1716112.7755659-.5 1-.0725667-.328179-.0894687-.6662193-.05-1-.1654747-.3639437-.3845763-.7010232-.65-1-.12-.41.26-.48.53-.42zm-12-11.43c.5091072.3002444.7704866.8913638.65 1.47.0088729.3931541-.1738694.7660976-.49 1-.089326-.325339-.1231336-.663415-.1-1-.2246943-.3159825-.422074-.6505243-.59-1-.12-.38.26-.53.53-.47zm13 4.62c-.5218232.3445992-.691539 1.0321658-.39 1.58.1907249.2515766.5171184.3590476.82.27.5.06.79-.94.79-.94s0-.28-.57.25c-.0582866.0269839-.1249571.0294786-.1850973.006926-.0601401-.0225526-.108731-.0682703-.1349027-.126926-.0025098-.0199213-.0025098-.0400787 0-.06-.0576796-.2618509-.0296326-.5353093.08-.78.08-.25-.1-.36-.39-.19zm3.8-5c-.4342868.3060374-.7178969.782357-.78 1.31 0 .35-.08.34.15.56s.32.21.65 0c.1622702-.1041013.2744216-.2705195.31-.46.08-.39-.41.19-.47-.25-.0214635-.3982084.1685552-.7782458.5-1 0-.27 0-.46-.36-.24zm3.06.55c-.1200408.4988-.1936879 1.007634-.22 1.52-.09.38.4.54.61.05.2137981-.5287513.3355547-1.0901843.36-1.66-.11-.58-.49-.56-.75.08zm19.3 9.92c.07-.07 2.72-2 2.72-2 .27-.1.21 1 .09 1-.8209631.8158828-1.770241 1.4915254-2.81 2-.2233396-.2959229-.2233396-.7040771 0-1zm2.42 0c.47.23.66 1.62.6 2 .0931283.5028014-.1661185 1.0048348-.63 1.22-.0800678-.3946635-.1036368-.7987037-.07-1.2-.1945098-.4459264-.3387327-.9121353-.43-1.39-.0724429-.1591659-.046113-.3458876.0675184-.4788149s.2939836-.1879848.4624816-.1411851zm-15.79 6c.2243903-.2579245.4835355-.4834145.77-.67.1737183-.0649661.3690115-.0305026.51.09-.0533775.2873437-.0867908.5780392-.1.87.0025172.0734608.0348757.1427201.0896045.1917873s.1270967.0737006.2003955.0682127h.07c.3528989-.2667007.7881645-.401173 1.23-.38.32 0 .33.57.13.58-.5784884.1438695-1.1412522.3448566-1.68.6-.1558539.1032623-.3636659.077816-.49-.06-.0873037-.1552338-.0873037-.3447662 0-.5 0-.28-.09-.44-.32-.4s-.33.16-.42 0c-.0729392-.1080405-.0463013-.2545487.06-.33zm18.58.74c.1322241.1326825.1322241.3473175 0 .48-.18.17-.31.27-.5.44s-.14.38.13.45c.5951032-.0512968 1.1636051-.2696847 1.64-.63.1192152-.0999506.1631744-.2637985.11-.41-.1614126-.0782582-.3436388-.1027886-.52-.07-.08 0-.33 0-.21-.27.0886034-.1263098.1592756-.2642888.21-.41.07-.17 0-.29-.27-.38-.2384156-.0390002-.4815844-.0390002-.72 0-.1553218.0252193-.2671101.1628048-.26.32.0272607.2123516.1892299.3824192.4.42zm-15.22-5.15-.25-.15h-5c-.25-.1-.18-.18 0-.26 1.19-.16 3.31-.51 3.45-2.56.1119603-.6629425-.1845463-1.3283776-.7523377-1.6884343-.5677914-.3600566-1.2961309-.3445128-1.8480441.03944-.5519131.3839528-.81976 1.061432-.6796182 1.7189943 0 .28.09.82-.19.88-1.83.17-3.82 1.32-3.89 2.15-.11.08-.36-.15-.33-.5-.080653-1.5103529-.5083947-2.9817844-1.25-4.3-.58-.58-.4-.39-.78-.11-.2502204.2920812-.3533369.6824508-.28 1.06 0 0 .47 1.34.86 2.26.3243412.9646589.4368982 1.9879048.33 3-.655088 1.346896-1.7004358 2.4654182-3 3.21-.4030503.1853266-.8669497.1853266-1.27 0-.2395369-.1657051-.3667928-.4510668-.33-.74 1.3244155-.7146799 2.3911907-1.8269242 3.05-3.18.3017972-.7322278.3301918-1.5485725.08-2.3-.0730237-.3942754-.2528943-.7609346-.52-1.06.16-.11.63.25.7 0-.1342994-.6152447-.4392937-1.1801774-.88-1.63-.2536816-.2939972-.6931245-.3379415-1-.1-.3927059.4398096-.4977427 1.06614-.27 1.61.2.49.73.58 1.11 1.56.0713208.3325865.0505764.6783273-.06 1-.6651916.8203287-1.435089 1.5498821-2.29 2.17-.06.07 0 0 0-.3s.13-1.1.09-1.1c-.66.43-.88 1.75-1 2.14-1.67 1.16-3.56 2-4.65 3.21-.57.9 3.91-1 4.43-1.26.1091716.2957921.2464671.5804292.41.85.5818329.7152833 1.5282044 1.0242228 2.42.79 1.4376888-.6025983 2.6582899-1.6279032 3.5-2.94.0746442-.1959802.2939424-.2944406.49-.22h.05c.65 1.47 2.53 2.52 5 2.63.56-.69.29-1 .06-1.17-.5287335-.1981176-1.002049-.5205209-1.38-.94-.0498634-.47519.2433965-.9192693.7-1.06 1.5482443-.1445935 3.0787717-.4393121 4.57-.88.0612952-.5557594.2348006-1.0932856.51-1.58.1166749-.0868721.2067325-.2046398.26-.34zm-4.09-3.13c.1593654-.1325764.3906346-.1325764.55 0 .195193.068941.3159314.2646205.29.47-.1593654.1325764-.3906346.1325764-.55 0-.1938119-.0694368-.3112143-.2665051-.28-.47zm-2 5.08c-.5674701.0611495-.9981891.5392476-1 1.11.2 1.09-.27.71-.55.57-.7498112-.435786-1.2584103-1.1913137-1.38-2.05-.0172001-.283705.1965765-.5286574.48-.55h.09c.687104.1269731 1.3820348.2071574 2.08.24.58 0 .87.49.33.68zm-8.89-12c.388851-.2902535.469374-.8404941.18-1.23l-.09-.1c-.3710646-.1871796-.8089354-.1871796-1.18 0-.3837481.3329346-.4568691.9006981-.17 1.32.29.14.58.44.39.6-.89 1-3.34 2.62-3.05 2.68.5336961.0798544 1.0763039.0798544 1.61 0 .9533648-.8215949 1.8364349-1.7213898 2.64-2.69l-.33-.27c-.0877302-.0556799-.1144595-.1715071-.06-.26l.06-.06zm-.39 0c-.1804308.004889-.3428354-.1087943-.4-.28-.0850334-.1168409-.0629957-.2799197.05-.37.1804308-.004889.3428354.1087943.4.28.0828135.119387.0562977.2829013-.06.37z"/></g></g></svg>