<svg height="48" viewBox="0 0 71 48" width="71" xmlns="http://www.w3.org/2000/svg"><g fill="none"><rect fill="#57a863" height="47" rx="6.36" width="70" x=".25" y=".95"/><path d="m64.59 1c-.2331602-.0127103-.4668398-.0127103-.7 0h-57.28c-3.51253101 0-6.36 2.84746899-6.36 6.36v34.27.1l.47-.3 27.53-11.44z" fill="#4758a9"/><path d="m70.25 7.85v-.54c-.0026884-2.56592937-1.5493818-4.87807829-3.92-5.86l-.24-.09h-.05l-.53-.17-.58-.12c-.21 0-.42 0-.63-.05l-64 40.7c.00352463.2374092.02021694.47444.05.71v.22c0 .07.08.4.13.6v.1c.6713961 2.3788511 2.66026944 4.1532381 5.1 4.55h.17c.28167654.0389496.56564506.0589944.85.06h.56l63.07-40.1z" fill="#ffce54"/><g fill="#fff"><path d="m6.54 12c-.28.17-.43.05-.32-.26l.39-1.19c.09125094-.3508919.00538232-.72423373-.23-1l-.81-.82c-.23-.24-.15-.42.18-.4l1.23.05c.35847921-.00365506.68060281-.21971357.82-.55l.49-1.29c.12-.31.29-.31.38 0l.35 1.33c.10383079.3395644.39761024.58633913.75.63l1.25.1c.33 0 .38.21.12.41l-1 .77c-.29246126.2437667-.43336173.6245788-.37 1l.22 1.08c.06.33-.1.44-.37.24l-1-.7c-.30940108-.1786328-.69059892-.1786328-1 0z"/><path d="m18.54 12c-.28.17-.43.05-.32-.26l.39-1.19c.0912509-.3508919.0053823-.72423373-.23-1l-.81-.82c-.23-.24-.15-.42.18-.4l1.23.05c.3584792-.00365506.6806028-.21971357.82-.55l.49-1.29c.12-.31.29-.31.38 0l.35 1.33c.1038308.3395644.3976102.58633913.75.63l1.25.1c.33 0 .38.21.12.41l-1 .77c-.2924613.2437667-.4333617.6245788-.37 1l.22 1.08c.06.33-.1.44-.37.24l-1-.7c-.3094011-.1786328-.6905989-.1786328-1 0z"/><path d="m18.54 23c-.28.17-.43.05-.32-.26l.39-1.19c.0912509-.3508919.0053823-.7242337-.23-1l-.81-.82c-.23-.24-.15-.42.18-.4l1.23.05c.3584792-.0036551.6806028-.2197136.82-.55l.49-1.29c.12-.31.29-.31.38 0l.35 1.33c.1038308.3395644.3976102.5863391.75.63l1.25.1c.33 0 .38.21.12.41l-1 .77c-.2924613.2437667-.4333617.6245788-.37 1l.22 1.08c.06.33-.1.44-.37.24l-1-.7c-.3094011-.1786328-.6905989-.1786328-1 0z"/><path d="m6.54 23c-.28.17-.43.05-.32-.26l.39-1.19c.09125094-.3508919.00538232-.7242337-.23-1l-.81-.82c-.23-.24-.15-.42.18-.4l1.23.05c.35847921-.0036551.68060281-.2197136.82-.55l.49-1.29c.12-.31.29-.31.38 0l.35 1.33c.10383079.3395644.39761024.5863391.75.63l1.25.1c.33 0 .38.21.12.41l-1 .77c-.29246126.2437667-.43336173.6245788-.37 1l.22 1.08c.06.33-.1.44-.37.24l-1-.7c-.30940108-.1786328-.69059892-.1786328-1 0z"/><path d="m12.54 17.47c-.28.17-.43.05-.32-.26l.39-1.19c.0912509-.3508919.0053823-.7242337-.23-1l-.81-.82c-.23-.24-.15-.42.18-.4l1.23.05c.3584792-.0036551.6806028-.2197136.82-.55l.49-1.29c.12-.31.29-.31.38 0l.35 1.33c.1038308.3395644.3976102.5863391.75.63l1.25.1c.33 0 .38.21.12.41l-1 .77c-.2924613.2437667-.4333617.6245788-.37 1l.22 1.08c.06.33-.1.44-.37.24l-1-.7c-.3094011-.1786328-.6905989-.1786328-1 0z"/></g></g></svg>