<svg height="48" viewBox="0 0 71 48" width="71" xmlns="http://www.w3.org/2000/svg"><g fill="none"><path d="m3.88 47 .51-.12 66.47-30.61v-8.94c0-3.51253101-2.847469-6.36-6.36-6.36h-17.9l-44.32 44.62c.45058418.5563086.99144843 1.0329452 1.6 1.41z" fill="#ed5565"/><path d="m7.24 1c-3.51253101 0-6.36 2.84746899-6.36 6.36v34.27c-.00043906.9148677.19743754 1.8189591.58 2.65l22.69-43.28z" fill="#4758a9"/><path d="m25.1 1h-.95l-22.7 43.28c.13977502.3058448.30362365.6001036.49.88.11.16.22.31.34.46l44.32-44.62z" fill="#ffce54"/><path d="m70.87 30.89v-14.63l-66.47 30.61z" fill="#fff"/><path d="m4.4 46.87-.41.19c.98182054.5888276 2.10514653.8999025 3.25.9h57.27c3.512531 0 6.36-2.847469 6.36-6.36v-10.7z" fill="#57a863"/></g></svg>