<svg height="48" viewBox="0 0 70 48" width="70" xmlns="http://www.w3.org/2000/svg"><g fill="none"><path d="m63.64 47.27h-57.27c-1.690243.0026597-3.31202323-.6676092-4.507207-1.862793s-1.86545271-2.816964-1.862793-4.507207l-.00000789-17.63h70.00001579l-.0000079 17.63c.0026549 1.6885088-.6662424 3.3087699-1.8592616 4.503665-1.1930193 1.194895-2.8122275 1.8663371-4.5007384 1.866335z" fill="#fff"/><path d="m0 6.63c0-3.51253101 2.84746899-6.36 6.36-6.36h57.27c3.512531 0 6.36 2.84746899 6.36 6.36v16.64h-69.99z" fill="#ed5565"/><path d="m19.4 9.91c-.15.1-.24 0-.2-.13l.16-.64c.0351712-.1928924-.0331037-.39013095-.18-.52l-.49-.41c-.14-.12-.1-.21.08-.22h.69c.1941409-.01186939.3628817-.13744396.43-.32l.22-.7c.05-.17.15-.17.21 0l.26.69c.0792418.18017119.253419.30015997.45.31h.7c.18 0 .22.1.08.22l-.54.45c-.143134.13184144-.2042594.33049903-.16.52l.17.57c.05.17 0 .23-.19.14l-.57-.34c-.1743022-.09608399-.3856978-.09608399-.56 0zm-3 2.52c-.15.1-.24 0-.2-.13l.16-.64c.0376179-.1911023-.0267604-.3880242-.17-.52l-.49-.41c-.14-.11-.1-.21.08-.22h.69c.1941409-.0118694.3628817-.137444.43-.32l.22-.7c.05-.17.15-.17.21 0l.26.69c.0792418.1801712.253419.30016.45.31h.71c.18 0 .22.1.08.22l-.54.45c-.143134.1318414-.2042594.330499-.16.52l.17.57c.05.17 0 .23-.19.14l-.57-.34c-.1743022-.096084-.3856978-.096084-.56 0zm6.14 0c-.15.1-.24 0-.2-.13l.16-.64c.0331806-.192735-.0347656-.389024-.18-.52l-.49-.41c-.14-.11-.1-.21.08-.22h.69c.1941409-.0118694.3628817-.137444.43-.32l.22-.7c.05-.17.15-.17.21 0l.26.69c.0792418.1801712.253419.30016.45.31h.7c.18 0 .22.1.08.22l-.54.45c-.143134.1318414-.2042594.330499-.16.52l.17.57c.05.17 0 .23-.19.14l-.57-.34c-.1743022-.096084-.3856978-.096084-.56 0zm-1.06 3.45c-.15.1-.24 0-.2-.13l.16-.64c.0368458-.1959905-.0314166-.3969855-.18-.53l-.49-.41c-.14-.12-.1-.22.08-.22h.69c.193229-.0143394.3607776-.1390267.43-.32l.22-.7c.05-.17.15-.17.21 0l.26.69c.0792418.1801712.253419.30016.45.31h.71c.18 0 .22.1.08.22l-.54.45c-.143134.1318414-.2042594.330499-.16.52l.17.57c.05.17 0 .23-.19.14l-.57-.34c-.1743022-.096084-.3856978-.096084-.56 0zm-3.79 0c-.15.1-.24 0-.2-.13l.16-.64c.0368458-.1959905-.0314166-.3969855-.18-.53l-.49-.41c-.14-.12-.1-.22.08-.22h.69c.193229-.0143394.3607776-.1390267.43-.32l.22-.7c.05-.17.15-.17.21 0l.26.69c.0792418.1801712.253419.30016.45.31h.7c.18 0 .22.1.08.22l-.54.45c-.143134.1318414-.2042594.330499-.16.52l.17.57c.05.17 0 .23-.19.14l-.57-.34c-.1743022-.096084-.3856978-.096084-.56 0zm-1.55.44c-.2699852.1393822-.5509225.2564394-.84.35-2.77797.9440325-5.80408832-.4849678-6.84-3.23-.34968377-1.0232872-.38106265-2.1285212-.09-3.17.87093055-2.79759459 3.8075204-4.39655226 6.63-3.61.2946629.07963772.5822946.1833189.86.31.093709.02599697.1911232-.02713805.22-.12.0243609-.07721115-.0091103-.16088911-.08-.2-1.7765392-1.35850618-4.1019289-1.77023496-6.23691233-1.10429505-2.13498347.66593991-3.81392862 2.32669307-4.50308767 4.45429505-.36726258 1.2564357-.32876895 2.596714.11 3.83.80832494 2.0813093 2.57379434 3.642837 4.738249 4.1909008 2.1644546.5480637 4.4603202.0149108 6.161751-1.4309008.0671094-.0421924.0961504-.1251667.07-.2-.0410988-.0914208-.1461464-.1351907-.24-.1z" fill="#fff"/></g></svg>