<svg height="48" viewBox="0 0 71 48" width="71" xmlns="http://www.w3.org/2000/svg"><g fill="none"><path d="m.25 6.88v9h70v-9c0-3.66717074-2.9728293-6.64-6.64-6.64h-56.72c-3.66717074 0-6.64 2.97282926-6.64 6.64z" fill="#fff"/><path d="m.25 31.58h70v-15.67h-70z" fill="#4758a9"/><path d="m.25 40.59c0 3.6671707 2.97282926 6.64 6.64 6.64h56.72c3.6671707 0 6.64-2.9728293 6.64-6.64v-9h-70z" fill="#ed5565"/><path d="m33.39 5.07v10.19c0 8-9 11.24-9.34 11.38-.2122621.0734683-.4353839.1106553-.66.11-.2246161.0006553-.4477379-.0365317-.66-.11-.38-.13-9.26-3.33-9.34-11.35v-10.22zm-16 2v8.19c0 4.22 4.32 6.57 6 7.33 1.68-.76 6-3.13 6-7.33v-8.19z" fill="#ed5565"/><path d="m15.39 5.07v10.19c.07 6.71 8 9.49 8 9.49s8-2.78 8-9.49v-10.19z" fill="#4758a9"/><path d="m16 18.27c1.87 4.54 7.38 6.48 7.38 6.48s5.54-1.94 7.39-6.46l-7.39-7.39z" fill="#fff"/></g></svg>