<svg height="48" viewBox="0 0 71 48" width="71" xmlns="http://www.w3.org/2000/svg"><g fill="none"><path d="m.63 6.92v9h70v-9c0-3.66717074-2.9728293-6.64-6.64-6.64h-56.72c-3.66717074 0-6.64 2.97282926-6.64 6.64z" fill="#fff"/><path d="m.63 31.62h70v-15.67h-70z" fill="#4758a9"/><path d="m.63 40.63c0 3.6671707 2.97282926 6.64 6.64 6.64h56.73c3.6671707 0 6.64-2.9728293 6.64-6.64v-9h-70z" fill="#ed5565"/><path d="m23.77 35.62c-.2246161.0006553-.4477379-.0365317-.66-.11-.38-.13-9.26-3.33-9.34-11.35v-10.23c0-1.1045695.8954305-2 2-2h16c1.1045695 0 2 .8954305 2 2v10.19c0 8-9 11.24-9.34 11.38-.2116749.076873-.434813.1174435-.66.12zm-6-19.68v8.19c0 4.22 4.32 6.57 6 7.33 1.68-.76 6-3.13 6-7.33v-8.19z" fill="#fff"/><path d="m15.77 13.93v10.19c.07 6.71 8 9.49 8 9.49s8-2.78 8-9.49v-10.19z" fill="#ed5565"/><g fill="#fff"><path d="m22.52 13.56h2.5v15.64h-2.5z"/><path d="m19.48 16.46h8.58v2.5h-8.58z"/><path d="m18.14 21.46h11.25v2.5h-11.25z"/></g><path d="m23.76 33.62s6.41-2.24 7.74-7.54h-15.5c1.4 5.3 7.76 7.54 7.76 7.54z" fill="#4758a9"/></g></svg>