<svg height="48" viewBox="0 0 71 48" width="71" xmlns="http://www.w3.org/2000/svg"><g fill="none"><path d="m64.51.68h-57.27c-3.51253101 0-6.36 2.84746801-6.36 6.35999782v17.63999398h70v-17.67999397c-.0220136-3.50080268-2.8691313-6.32557156-6.37-6.31999783z" fill="#fff"/><path d="m.87 41.31c0 3.512531 2.84746899 6.36 6.36 6.36h57.27c3.512531 0 6.36-2.847469 6.36-6.36v-16.63h-70z" fill="#3bafda"/><path d="m19.57 26c-.1546397 0-.28.1253603-.28.28s.1253603.28.28.28.28-.1253603.28-.28-.1253603-.28-.28-.28zm3 3.73c-.1546397 0-.28.1253603-.28.28s.1253603.28.28.28.28-.1253603.28-.28-.1253603-.28-.28-.28zm30.43-5.26c-.0594998-.2250294.0441504-.4613519.25-.57.2-.23.33-.47.06-.7h-.1c.19-.34.09-.75-.15-.77-.4281801-.0231845-.850456.1081114-1.19.37-.62-.61-.74.06-.92.65-.1303231-.0847687-.2917384-.1067799-.44-.06.0533277.5334808-.0927243 1.0678175-.41 1.5-.25.09-.56.19-.85.31.1093486-.0980128.1861137-.2271177.22-.37.0280002-.2583984.181309-.4864921.41-.61.242435-.1054688.3574861-.3842463.26-.63-.0742654-.0609193-.1088931-.1578216-.0900552-.252011.0188379-.0941895.088072-.1703194.1800552-.197989.2005715-.0538011.3208087-.2586496.27-.46-.1204028-.1866094-.1566996-.4152792-.1-.63.08-.18-.27-.35-.57-.06-.2619438.2613989-.3581156.6460862-.25 1 .06.23-.21.2-.37.16.1323017-.1369529.2011183-.3231046.1897136-.5131828-.0114047-.1900783-.1019857-.3666661-.2497136-.4868172-.31-.23-.36-.05-.6.25-.1271042.1369614-.1726974.3307324-.12.51.0346673.0689244.040441.1488219.0160434.2220145-.0243975.0731926-.0769549.1336464-.1460434.1679855-.0802819.0464879-.1297119.1322298-.1297119.225s.04943.1785121.1297119.225c.19.16.17.27 0 .47-.1601307.2206783-.1601307.5193217 0 .74.1199302.205236.155767.4489262.1.68-.0545517.4345476-.2393141.8424192-.53 1.17-.2059027.2193625-.3657206.4777915-.47.76-.3154402.3107397-.684789.5614903-1.09.74.0201203-.1359261.0201203-.2740739 0-.41.0699853-.2654472.1168273-.5364617.14-.81.0187004-.0477576.0457938-.0917844.08-.13.37-.35.09-.8.33-1s.23-.43 0-.41-.14 0-.14-.08c.0311229-.0856641.0678695-.1691792.11-.25v-.05c.0569784-.0605732.1011888-.13199.13-.21l.09-.13c.0897342.1018807.1577832.2209665.2.35-.12.25-.08.5.13.46.49.31.84.08.44-.44.07-.17 0-.24-.33-.24-.1346394-.1034477-.2383893-.2417809-.3-.4.08-.45.39-.91.39-1.14.029647-.2820683.1528596-.5460953.35-.75.2550411-.349378.3757376-.7789156.34-1.21.2189567-.3368216.4967122-.6315134.82-.87.2-.15.35-.41.17-.52-.0954459-.0442043-.1565319-.1398147-.1565319-.245s.061086-.2007957.1565319-.245c.1573449-.0767687.2464826-.2469407.22-.42.29-.12.51 0 .51.14s.09.25.24.21c.1848933-.0363884.3751067-.0363884.56 0 .25 0 .2 0 .18-.21s0-.28.2-.09c.0367025.0562157.0944728.095307.1603053.1084735s.1341941-.0006985.1896947-.0384735l.07-.07c.0440394-.2263668-.0551924-.4565845-.25-.58-.2-.12-.29-.24-.2-.35s.13-.12-.18-.2c-.6033319-.1167702-1.2227157.1011611-1.62.57l-.09-.1c-.13-.09-.08-.21 0-.34s0-.31-.36-.12c-.2472586.0954858-.4233333.317493-.46.58 0 .17 0 .23-.23.31-.2216324.1040644-.3193899.3662323-.22.59.0713708.1490689.2081965.2563107.37.29.19 0 .25.28 0 .2s-.51 0-.39.25c.024233.2995106.024233.6004894 0 .9-.1577997.2239377-.2288745.4975755-.2.77-.0418466.2882349-.15152.5624184-.32.8 0-.67-.07-2.23-.08-3.47.0296755-.1215483.0296755-.2484517 0-.37.14-.49.53-1.38 1-1.43.1730959.0264843.3444593-.0572048.43-.21-.0055646-.0557485.011378-.1114093.0470596-.1546029.0356817-.0431936.0871437-.0703384.1429404-.0753971.12 0 .17-.21 0-.38-.0546519-.0754909-.076939-.169661-.0619219-.2616403.015017-.0919793.0660978-.174171.1419219-.2283597h.05c.1986167-.0665114.3059609-.2811999.24-.48v-.08c-.1093463-.1438265-.2914573-.2122418-.4684556-.1759891-.1769983.0362526-.3175478.1707551-.3615444.3459891-.1.2-.16.28-.31.18-.1159913-.0716388-.2630254-.0694067-.3767887.00572s-.1735508.2094749-.1532113.34428c.1660519.4639981.1146445.9780716-.14 1.4l-.06.11c0-.17.08-.32.11-.41.0954013-.2643892.0010082-.5598805-.23-.72-.19-.06-.17-.14 0-.43.23-.55 0-.69-.27-.8-.2203053-.0576464-.3923536-.2296947-.45-.45-.0300062-.1072871-.1023788-.1977447-.2004669-.2505614-.0980882-.0528167-.2134459-.0634446-.3195331-.0294386-.118835.0317766-.2141075.1205344-.2542077.2368249-.0401002.1162906-.0197841.2449064.0542077.3431751.0629056.0620166.0983213.1466644.0983213.235s-.0354157.1729834-.0983213.235c-.13.15 0 .45.32.37-.0255765.1888232.0761663.3719602.25.45.12.09.07.23-.06.45-.0050379-.0868102-.0451871-.1678321-.1112093-.2244225-.0660221-.0565904-.1522313-.0838757-.2387907-.0755775-.31.06-.37 0-.45-.21-.1580945-.1892266-.4390285-.2159822-.63-.06-.24.2-.58.81.12.74.3 0 .45 0 .3.17-.1052845.1078642-.132225.269899-.0675078.4060283.0647173.1361293.2073888.2175288.3575078.2039717.206344-.0040776.4110969.036873.6.12-.29.11-.32.28-.08.4.399539.0635244.7328767.33939.87.72.0477915.2775846.0745344.5583844.08.84 0 .11-.1 0-.09 0 0-.0497056-.0402944-.09-.09-.09-.16-.33-.38-.49-.51-.39-.0629983.2513248.0317526.5158378.24.67-.17.23 0 .49.18.43.0908612-.0717994.2191388-.0717994.31 0 .0797049.4599055.0797049.9300945 0 1.39-.0584023.261809-.0303317.5354971.08.78.0704734.2620106.0704734.5379894 0 .8-.1279772.3305312-.2923208.6458028-.49.94-.146849.0592049-.2675203.1692287-.34.31.0288656-.2710675.1213795-.5314771.27-.76.0790639-.0762719.1134764-.1877689.0911517-.2953334-.0223247-.1075644-.0982654-.196158-.2011517-.2346666-.24-.1-.78.12-.49.92-.06-.18-.23-.14-.39.14-.1498718.1757167-.1498718.4342833 0 .61.1530449.1158798.1882419.3314612.08.49-.1011302.1943924-.035819.4338665.15.55.1707822.1818371.2384532.4374829.18.68-.0298849.2925722-.0298849.5874278 0 .88-.09.36-.24.7-.31 1-.0453801.1559961-.1200425.3019272-.22.43.0515994-.1089944.0723506-.2300428.06-.35-.0221467-.1662818.0208504-.3346874.12-.47.0936069-.1929528.034468-.4252844-.14-.55-.0771903-.047496-.1322228-.1238451-.1528765-.2120927-.0206537-.0882477-.005219-.1810891.0428765-.2579073l.07-.08c.0690088-.0680442.0824914-.1744752.0326298-.2575779-.0498616-.0831026-.150116-.1212914-.2426298-.0924221h-.11c0-.54-.09-1.57-.11-2-.0330198-.4652554.1386248-.9217572.47-1.25.10909-.0499987.1936911-.1414987.2350024-.2541658s.0359104-.2371678-.0150024-.3458342c-.0402315-.0901198-.0427919-.1925777-.0071119-.2845944.03568-.0920168.106643-.1659656.1971119-.2054056.2147916-.1558491.2907019-.4410584.181801-.6830605-.1089009-.242002-.372707-.3743389-.631801-.3169395.24-.27-.11-.84.1-1 .1799501-.0933308.3006068-.271215.3207776-.4729222.0201707-.2017073-.0628722-.3999614-.2207776-.5270778.11-.39-.24-.43-.14-.76s-.17-.43-.37-.14-.25.23-.39.06c-.0751112-.1209503-.2030296-.1992207-.344913-.2110443-.1418833-.0118236-.2809924.0441944-.375087.1510443-.1.82-.14 6.32.62 6.41 0 .29.15 1.23.23 1.86-.0559843-.023342-.1069211-.0572999-.15-.1-.21-.18-.29.06-.19.29s-.21.16 0 .41c.0860349.1278414.1565317.2654781.21.41-.33-.2-.5.23-.39.61.0576087.1944364.0779657.3980061.06.6v-.06c-.1733454-.1425721-.3104262-.3242041-.4-.53v-.17c.0014375-.1373343.0470158-.2705633.13-.38.21-.27.49-.65-.25-1.33-.4101823.5723725-.7087336 1.2169718-.88 1.9.0629555.4034523.2866242.7642083.62 1-.1237989-.0075171-.2445904.0400674-.33.13-.0662542.1354988-.2099516.2153307-.36.2h-.07c-.25754-.0887127-.5423221-.0437472-.76.12-.1933297.1933588-.313509.4478563-.34.72.0182342.2039261-.0550359.4054187-.2.55-.15.11-.34.37-.07.55.1447066.0563565.3052934.0563565.45 0-.3822811.3241113-.814548.5841468-1.28.77.1080439-.4346698.1351623-.8855133.08-1.33l-.57.67c.12 1.25-.64 1.55-1.46 2.13-.65.45-2.14 1.59-3.12 2.39-.11-.11-.2-.22-.28-.32-.738659-.7909767-1.5676725-1.4924497-2.47-2.09-.833905-.5086307-1.7105557-.9436101-2.62-1.3-.5689757-.27328-1.0047675-.7630956-1.21-1.36-.0324362-.4706628-.3563324-.8705346-.81-1 .1365215-.0352497.2255348-.1665151.2077683-.30639-.0177664-.139875-.1367695-.2447188-.2777683-.2447188s-.2600019.1048438-.2777683.2447188c-.0177665.1398749.0712468.2711403.2077683.30639h-.17c-.138583-.6015645-.1179026-1.2288691.06-1.82.2289395-.8089782.1394839-1.6749085-.25-2.42-.107878.511757-.3077875.9996717-.59 1.44-.2519532.9497776-.0844626 1.9620034.46 2.78h-.51c-.09-.15-.16-.3-.21-.39s-.37-.3-.64-.55c-.0125854-.5385662.1003973-1.0726659.33-1.56.21-.41-.39-1.41-.29-2.42-.1601397.1970946-.2914529.4159499-.39.65.0155026-.2564326.0155026-.5135674 0-.77.5624321-.9716106.6073674-2.1586494.12-3.17.3415464-.8606905.602661-1.7511585.78-2.66l-.09.09c.13-1 0-2 0-2.16-.4384971.9394946-.6671282 1.9632158-.67 3-.087232.1751884-.1543269.3596993-.2.55-.0993208-.5189499-.2961293-1.0143645-.58-1.46-.63 2.1.24 3.26.45 4.19 0 .17-.05.33-.08.51-.23-.62-.79-1.23-.91-1.69-.37 1.4.58 3.11 1 4.13-.0381663.1679958-.0648943.3383868-.08.51-.0294485-.1574507-.0834395-.3093003-.16-.45-.3387795-.5151211-.5700671-1.0933402-.68-1.7-.2184134.4019674-.331914.8525303-.33 1.31 0-.1 0-.19-.07-.27.0849458-.0655423.1230237-.1751618.0970015-.2792504-.0260221-.1040885-.1112059-.1828926-.2170015-.2007496-.0172701-.604343.0569009-1.2078253.22-1.79-.2156191-.0836271-.3500968-.2996064-.33-.53 0-.2 0-.37 0-.67.437936-1.1985556.6052682-2.4791591.49-3.75-.1164558.2613351-.2606141.5094215-.43.74-.1455924-.6207585.1629751-1.2587427.74-1.53 1.6-1.26 1.3-2.12 1.88-2.55-.5979808.3084701-1.1499739.6989043-1.64 1.16.6203972-.7518002 1.0462518-1.6447211 1.24-2.6-.705101.4154518-1.2401139 1.0673881-1.51 1.84-.0428492.483628-.143569.9603682-.3 1.42l-.13.2c.1594758-.8879876.0976529-1.8015925-.18-2.66-.1007885.4652318-.2764042.9110256-.52 1.32-.2309746.8292226-.1527907 1.7141221.22 2.49-.0913624.4203193-.1116432.8529773-.06 1.28-.229601.2871977-.3719065.6342842-.41 1-.13.85.52 1.08.4 1.72-.0430662.2914288-.0664525.5854277-.07.88-.0333173.108128.0071175.2253892.1.29.118177.1184954.1500949.298034.08.45 0 .11-.12.5-.19.91-.0916596-.1627509-.1462908-.3437169-.16-.53-.1464532.2602558-.2446967.5448234-.29.84-.4-1.14.71-1.16-.39-3.48-.2264567.5632531-.3484468 1.1630377-.36 1.77-.0529924-.4588075-.1743357-.9071037-.36-1.33.1-.9.62-.82.57-2-.1464983-.6294502-.115341-1.2872159.09-1.9-.2847689.2877954-.5121495.6271693-.67 1-.1783578-.5255884-.2761319-1.0751465-.29-1.63-.4611701.7484525-.6746217 1.6232543-.61 2.5-.3347816-.2532217-.628269-.5568294-.87-.9.22 1.47.49 2.43.92 2.73.1800712.1408966.3326212.3137866.45.51-.1319285.0252719-.2273217.1406728-.2273217.275s.0953932.2497281.2273217.275c.08306.0041603.1636713-.028817.22-.09.07.14.13.28.18.43l-.14-.08c-.5233826-.1725901-.9923264-.4794725-1.36-.89.0320772.764932.4980191 1.4444306 1.2 1.75.510438.3142872.9720173.7017443 1.37 1.15-.0455047.4247846.0271657.8538857.21 1.24-.4728683-.3590495-.8819177-.7951434-1.21-1.29.0062417 1.052984.6006707 2.0141063 1.54 2.49.3600099.1559729.6965694.3612742 1 .61l.1.08c.0800629.3969274.3280612.7397487.68.94.3315954.1972096.6288264.4471538.88.74-1.07 0-2.4-.12-2.77-.17-.26-.34-.5-.67-.67-.91.1271182-1.0640325-.155318-2.1365749-.79-3-.3052118.7120034-.3052118 1.5179966 0 2.23-.1130861-.0920395-.2374165-.169326-.37-.23-.1284929-.2923774-.2754564-.5762841-.44-.85-.22-1 .22-1.54-1.47-3.33-.150158.5324838-.1148968 1.1001904.1 1.61-.1772418-.315218-.3149471-.6510845-.41-1-.29-1.17-1.27-1.06-1.66-1.64.53 1.88.9 2.09 1.25 2.35.3852002.3014291.7432371.636043 1.07 1-.65-.1-1.26.16-1.67-.3.45 1.4 2.27 1.05 2.95 2.06-.1396854-.013273-.2803146-.013273-.42 0-.5568299.0538325-1.1165031-.068596-1.6-.35.39 1.23 2.47.8 3.29 1.76.1887391.195301.3471631.4177687.47.66l-.12.06-.85-.05c-1.23-1-1.51-1.33-3.26-1.24.3979275.3685695.8260981.7030778 1.28 1-.7704319.051323-1.498883.3695783-2.06.9.5277072-.0011445 1.0551072.0255593 1.58.08-.1025077.3783391-.3025013.7231557-.58 1 .8-.51 1.68-.33 2.32-.59.582912-.2063277 1.1296303-.5033104 1.62-.88h.08c-.1119624.0616166-.1679972.191224-.1361878.3149993.0318094.1237754.1433904.2103066.2711878.2103066s.2393784-.0865312.2711878-.2103066c.0318094-.1237753-.0242254-.2533827-.1361878-.3149993h.22l.46.06c-.0215518.1145538.0275778.2308783.1247204.2953016.0971426.0644232.2234166.0644232.3205592 0 .0971426-.0644233.1462722-.1807478.1247204-.2953016.6 0 1.27.07 1.68.05h.21c.16.21.27.39.37.52.231337.2678207.4784424.5216047.74.76-.3806651.0639628-.7693349.0639628-1.15 0h-.15c.1348975-.0375037.2213558-.1688869.2024303-.3076158-.0189255-.1387288-.1374165-.2421526-.2774303-.2421526s-.2585048.1034238-.2774303.2421526c-.0189255.1387289.0675328.2701121.2024303.3076158-.3372704.0404919-.6713813.1039729-1 .19-1-.19-1.7-.93-3.07-.45.2873175.0690654.5523122.2101665.77.41-1.42-.11-2.7.84-3 .84.4481916.1094147.9087512.1598409 1.37.15l-.29.11c-1.3016582-.0898665-2.5560605.5051219-3.31 1.57.6234649-.2133994 1.2666421-.3641441 1.92-.45-.2027414.2989214-.4826481.5373604-.81.69 1.1021666.3616261 2.2991479-.1698855 2.77-1.23-.0864645.4350868-.3151222.8290816-.65 1.12.7272361-.17683 1.3621132-.619104 1.78-1.24-.0407406.1381322-.0741209.2783294-.1.42.3524253-.3379127.8052046-.5520176 1.29-.61.62-.14.95-.88 1.52-1.13-.1208914.059953-.2552685.0875175-.39.08.1818488-.0927755.3877364-.1276717.59-.1.0612416.0230199.1287584.0230199.19 0-.0568442.1352736.0003829.2914864.1311597.3580267.1307769.0665404.2907409.0208364.3666245-.1047498.0758835-.1255862.041945-.2884529-.0777842-.3732769.115017-.0489064.244983-.0489064.36 0 .202821.1084726.4409433.1301201.66.06.1879063-.083015.4020937-.083015.59 0-.3874387.2107276-.669944.5729139-.78 1-.3898686.5400334-.6249803 1.1762181-.68 1.84.4960647-.166127.9359048-.4674348 1.27-.87.1966767-.3527382.2605315-.7642468.18-1.16-.0273505-.2525951-.0273505-.5074049 0-.76.079877.0487266.145431.1177308.19.2.0707779.239346.301628.3946452.55.37.2161219-.0178528.4325197.0310113.62.14.6094124.2054935 1.2013189.4596454 1.77.76 1.2729052.7752927 2.486265 1.6443659 3.63 2.6l.38.38-.29.25c-.2620373.1777178-.4752288.418418-.62.7-.1180983.2914352-.3385803.529698-.62.67-.2963273.1342548-.5292431.3779205-.65.68-.28618.2062021-.5508506.4407204-.79.7-.2795482.3465963-.2400643.8511125.09 1.15.1495639-.1641652.2621043-.3585532.33-.57.195833-.3389106.4617588-.6321109.78-.86.2105372-.0892407.3688603-.2696554.43-.49.1225778-.2561436.312745-.4739715.55-.63.3019788-.1687807.5512193-.4180212.72-.72.1169498-.1853413.250858-.3594219.4-.52.2257445.2318934.4176363.4944822.57.78.2196893.3855379.5116911.7250749.86 1 .3328376.3080402.6161689.6655773.84 1.06.1584387.3242121.3530064.6294822.58.91.0679939.0703252.1453951.1309.23.18.1873559-.5557982.0820918-1.1685854-.28-1.63-.3203504-.2189823-.5676695-.5290019-.71-.89-.1234683-.3320331-.3657837-.6064197-.68-.77-.3947795-.3010347-.7628145-.6356119-1.1-1 .1293748-.1280586.2662854-.2482728.41-.36.49-.38 3-2.07 3.77-2.73.2735507-.277183.5751713-.5251822.9-.74.2089224.0300857.4210776.0300857.63 0 .2595618.0352509.4523828.2580662.45.52 0 .25.17.28.43.23.078016-.0301397.1659357-.0192708.2342632.0289604.0683276.0482312.1080109.127435.1057368.2110396.0745642.2661976.3239601.4449313.6.43l1.42-.63c-.0309037-.2059479-.0067528-.4164062.07-.61.09-.12-.11-.28-.37-.34-.2421959-.0680568-.5016628.0145008-.66.21-.0672247.0779079-.1687273.1173801-.2709243.105357-.1021971-.0120232-.1917675-.0739747-.2390757-.165357-.1173258-.2115173-.3381782-.3447903-.58-.35-.1314142.06934-.2885858.06934-.42 0-.2118412-.0638989-.440853-.034818-.63.08-.1238287.0557958-.2552661.0928679-.39.11.1897468-.0977483.3620619-.22614.51-.38.3018835-.1832598.6469091-.2833172 1-.29.0815645.117336.2171925.18515.36.18.3542401.1317848.7357797.1730323 1.11.12l.18-.08c.517591.0427408 1.0244887.1711549 1.5.38.3233672.2041851.6895757.3308179 1.07.37.35 0 .28.17.24.33-.2673176.2594095-.3937982.6314111-.34 1 .0892603.1471802.13115.3182295.12.49-.0292504.0631965-.0111602.1382133.0436797.1811314.0548399.0429182.1320057.0424496.1863203-.0011314.12-.1.2 0 .16.16-.013923.0891293.0255441.1781689.1009332.2277104.0753891.0495414.1727796.0504367.2490668.0022896.21-.12.33 0 .37.14s.66.14.6-.1-.07-.39.1-.45c.1267491-.0949266.1855651-.2556901.15-.41.0524145.0140006.1075855.0140006.16 0 .1180418-.0831897.1600645-.2386735.1-.37.0889276.1015995.2151653.162915.35.17-.1096468.2487502-.130821.5275434-.06.79.16.31.27.23.43.06s.35 0 .18.23c-.1198677.2000414-.0628398.4588602.13.59.1585388.1082419.3741202.0730449.49-.08.1330658-.0926022.1684931-.2741668.08-.41-.0558521-.1829216.0128598-.3809737.17-.49.16-.18.24-.59 0-.65-.2105377-.0428431-.3925916-.1739219-.5-.36.2375352.1151131.5234457.0168314.64-.22.21-.24-.1-.51-.45-.63s-.35-.33-.27-.37 0-.2-.33-.27c-.732735-.0553407-1.4695661.0122585-2.18.2h-.26c-.3808238.0164749-.7612173-.0412634-1.12-.17h.07c.31 0 .64-.18.86-.16.1497621.0299063.3010891-.0437122.37-.18.11-.12.17-.2.33-.14.0595051.04261.136902.0511661.2042775.0225826.0673754-.0285835.1150093-.0901831.1257225-.1625826l.08-.12c.1147132.0967747.2525104.1622283.4.19.1372906.0291243.2524513.1219958.31.25.1132381.1131708.2967619.1131708.41 0l.06-.07c1-.12.57-.67-.07-.66-.13-.22-.38 0-.47.1-.0652578.0862768-.1818187.115417-.28.07l-.16-.08.25-.17c.17-.1.19-.27 0-.35s-.07-.25.16-.41.23-.41-.06-.65c-.1542863-.1160679-.3549997-.1507999-.5393163-.0933248-.1843167.0574751-.3297146.2001342-.3906837.3833248-.13.32-.22.34-.4.26.0727964-.1767219.1597457-.3472762.26-.51.16-.27-.08-.43-.41-.41-.2210804-.0165754-.4317148.0965431-.54.29-.0608658.1294599-.1796596.2222676-.32.25-.2132269.0705027-.360559.2656182-.37.49-.1870213.4096484-.4638654.7719382-.81 1.06-.111158.1332266-.261711.2277599-.43.27l-.42-.1c.0681651-.0637367.0951561-.1601333.07-.25-.0587321-.1969401-.0005849-.4101463.15-.55.1075005-.1819764.1075005-.4080236 0-.59-.0558739-.1106063-.096253-.2283788-.12-.35.37-.29.76-.43.93-.59.2103082-.1623145.4765596-.2342743.74-.2.4925292-.0005771.9807165-.0921122 1.44-.27.4174664.0029758.8124725.1895065 1.08.51.1080395.2716606.3677361.4526613.66.46.1643203-.1397016.4056797-.1397016.57 0 .1445474.1655401.3816321.2145921.58.12.1283309-.1037158.3116691-.1037158.44 0 .2.09.67.14.45-.56l.21-.13c.37-.26.38-.4.15-.66-.1390944-.211798-.3900482-.3215903-.64-.28-.1308747.0362112-.2691253.0362112-.4 0 .78-.58.44-.74-.17-1s-.85 0-.87.17-.11.2-.35.09c-.1994123-.0897192-.4343017-.0114227-.54.18 0 .12-.09.15-.28.15-.268829.0759396-.493639.260864-.62.51-.0711234.0235549-.138482.0572342-.2.1-1.06.53-1.9.12-2.25.32.176897-.3178776.3209731-.6529383.43-1 .2407288-.026153.4728214-.1046549.68-.23.0431735.0231572.0750426.0629119.0882523.1100894.0132096.0471774.0066185.097701-.0182523.1399106-.08.1 0 .43.25.35.35.27.91.28.47-.39.0147386-.0637785.0027867-.1308097-.0330868-.1855638-.0358734-.0547542-.0925551-.0924797-.1569132-.1044362h-.1c-.1164646.0283625-.2394529-.0014528-.33-.08.2022032-.1393997.3726054-.3200261.5-.53.0824016-.1686889.2106253-.3107746.37-.41.3474941-.3837304.5553697-.8734713.59-1.39l.19-.11c.4713819-.371582 1.1080996-.4559662 1.66-.22.4048884.3706545.9602328.5298532 1.5.43.2605235-.1949539.5881322-.2777561.91-.23.2045488.0769733.4353879.0121763.57-.16.0355461-.165317.164683-.2944539.33-.33.26-.07.26-.68-.71-.62zm-29.1 8.15c-.0903497.0272668-.1775148.0641443-.26.11l.25-.13h.06zm-1.87.81c.0589761-.1065607.1369221-.2014515.23-.28h.16c-.1408233.0846526-.2687904.1890467-.38.31zm6.65-1c-.4662904-.2532382-.822465-.6699624-1-1.17-.2273438-.1011878-.4189835-.268437-.55-.48.4354963-.09448.8843078.088222 1.13.46.1244413.4433215.3095238.8673287.55 1.26zm15.24-2.66h-.06zm.2.39c.0379489.0892514.0922098.1706428.16.24-.0815578-.0553154-.1360171-.1424503-.15-.24zm.13-.66c-.0953334.0976106-.1551895.2243647-.17.36.0276387-.1445452.093212-.2791429.19-.39zm-20.47.13c-.1546397 0-.28.1253603-.28.28s.1253603.28.28.28.28-.1253603.28-.28-.1253603-.28-.28-.28zm2.62-.77c-.1546397 0-.28.1253603-.28.28s.1253603.28.28.28.28-.1253603.28-.28-.1253603-.28-.28-.28z" fill="#57a863"/><path d="m39.38 17.62c-.1498449-.0438463-.3041502-.070682-.46-.08.29.12.38-.18.27-.34s0-.22.08-.41c.0541074-.1730014.1314826-.3378441.23-.49h.07c.14.06.31-.18.13-.34.2786046-.4158644.61536-.7896629 1-1.11-.0862974-.0113147-.1737026-.0113147-.26 0l.1-.17c.0521084.0161654.1078916.0161654.16 0 .1546562-.0006513.2867145-.1118165.3137318-.264096.0270173-.1522794-.0587389-.3020891-.2037318-.355904 0-.14.08-.28.11-.42.1932997 0 .35-.1567003.35-.35s-.1567003-.35-.35-.35c-.0404898-.2057633-.1374394-.3962001-.28-.55.0491942-.0892188.0479617-.1977086-.0032466-.2857869-.0512082-.0880782-.1448803-.1428241-.2467534-.1442131-.0796124-.0012227-.1559803.0315064-.21.09-.12871-.0669816-.262449-.1238207-.4-.17.0337298-.0728582.0368482-.1561964.0086575-.2313716s-.0853378-.1359137-.1586575-.1686284h-.11c-.1563372-.000093-.2846091.1237557-.29.28l-.45-.09c.0606424-.0776388.0721959-.1828833.0298408-.271829-.042355-.0889456-.1313429-.1463133-.2298408-.148171-.0844838-.0002946-.1634013.0421-.2097982.112704-.046397.070604-.0539961.159865-.0202018.237296l-.3-.05c.018022-.1239428-.0664393-.2395215-.19-.26-.1074546-.0017885-.200475.074319-.22.18l-.31-.07c-.032265-.0696661-.1032864-.1130681-.18-.11-.0360154-.0097738-.0739846-.0097738-.11 0h-.14c.0734918-.01534.1401034-.0539046.19-.11.16-.22 0-.34-.27-.23s-.34-.15-.41-.47c-.003666-.3011987-.1895363-.57011735-.47-.68l-.1-.1c.1481183-.11690563.2391147-.29161884.25-.48.0268217-.27926218-.1372245-.54173605-.4-.64v-.32h.48v-.54h-.48v-.51h-.48v.52h-.48v.54h.48v.32c-.2627755.09826395-.4268217.36073782-.4.64.0108853.18838116.1018817.36309437.25.48l-.1.1c-.2804637.10988265-.466334.3788013-.47.68-.07.32-.2.57-.41.47s-.43 0-.27.23c.0483801.057925.1156766.0968862.19.11h-.14c-.0360154-.0097738-.0739846-.0097738-.11 0-.0767136-.0030681-.147735.0403339-.18.11l-.31.07c-.019525-.105681-.1125454-.1817885-.22-.18-.1231041.0053574-.2201165.1067794-.22.23l-.3.05c.026179-.0622361.0260717-.132415-.0002975-.1945708-.0263691-.0621558-.0767578-.1110031-.1397025-.1354292h-.09c-.0984979.0018577-.1874858.0592254-.2298408.148171-.0423551.0889457-.0308016.1941902.0298408.271829l-.46.09c.0000962-.1508172-.119279-.2746137-.27-.28-.0985251.0048648-.1883623.0578541-.2402846.1417286s-.0592935.1879142-.0197154.2782714c-.1371702.0471767-.2708362.1039848-.4.17-.0532326-.059598-.1301307-.0925543-.21-.09-.1012971.0034749-.1939905.0578637-.2464343.1445978-.0524439.0867342-.0575465.1940848-.0135657.2854022-.1389293.1563055-.2353478.3456989-.28.55-.1932997 0-.35.1567003-.35.35s.1567003.35.35.35c.0257801.1426274.0625565.2830464.11.42-.1449929.0538149-.2307491.2036246-.2037318.355904.0270173.1522795.1590756.2634447.3137318.264096.0523499.0144845.1076501.0144845.16 0l.1.17c-.0862974-.0113147-.1737026-.0113147-.26 0 .3833354.3216908.7199133.6952923 1 1.11-.18.16 0 .4.13.34h.07c.0985174.1521559.1758926.3169986.23.49 0 .19.06.31.08.41s0 .46.27.34c-.2132818-.0011237-.4255641.0292023-.63.09-3.65 1.13-4.45 5.58-2.36 9.72.3186519 3.2794417 3.0751135 5.7810493 6.37 5.7810493s6.0513481-2.5016076 6.37-5.7810493c2.13-4.17 1.3-8.63-2.32-9.75zm-2.06.35c-.47.25-1.09.62-1.51.87-.0587963-.0471774-.1269803-.0812693-.2-.1 0-.29-.06-.25-.24-.25s-.22 0-.24.25c-.0730197.0187307-.1412037.0528226-.2.1-.44-.26-1.1-.65-1.58-.9.6991948.0950071 1.4044306.1384577 2.11.13.6214584.0045976 1.2426168-.028798 1.86-.1zm-3.64-4.91c-.3435185.3806191-.3435185.9593809 0 1.34-.2120143-.3313193-.5236072-.5868955-.89-.73l1.56-1.83.16-.07c.0255397.5241013.1988863 1.0302734.5 1.46-.1478692.3124562-.2230824.6543344-.22 1-.1177309-.5691783-.5478016-1.022496-1.11-1.17zm-1.12 1.71c-.1177076-.1428439-.2558645-.2675222-.41-.37l.19-.22c.0290754.2135576.1041349.4182653.22.6zm5.8 0c.0385458-.0673967.0719732-.1375943.1-.21.0042139-.0432309.0042139-.0867691 0-.13.0044257-.0565803.0044257-.1134197 0-.17-.0042943-.0264938-.0042943-.0535062 0-.08l.19.22c-.1548403.1055264-.2930344.2336087-.41.38zm-.21-1.1c-.3663928.1431045-.6779857.3986807-.89.73.3435185-.3806191.3435185-.9593809 0-1.34-.5489883.1506922-.9689128.5937319-1.09 1.15.0030824-.3456656-.0721308-.6875438-.22-1 .3011137-.4297266.4744603-.9358987.5-1.46l.16.07z" fill="#ffce54"/></g></svg>