<svg height="47" viewBox="0 0 71 47" width="71" xmlns="http://www.w3.org/2000/svg"><g fill="none"><path d="m7 0c-3.51253101 0-6.36 2.84746899-6.36 6.36v34.27c-.00265489 1.6885088.6662424 3.3087699 1.85926164 4.503665 1.19301924 1.194895 2.81222744 1.8663371 4.50073836 1.866335h17c0-15.6666667 0-31.3333333 0-47z" fill="#57a863"/><path d="m24 0v47h23.35c0-15.6666667 0-31.3333333 0-47z" fill="#ffce54"/><path d="m64.27 0h-16.95v47h16.95c3.512531 0 6.36-2.847469 6.36-6.36v-34.29c-.0055167-3.50862513-2.8513705-6.35000434-6.36-6.35z" fill="#ed5565"/><path d="m31.23 31c-.74.49-1.15.19-.91-.67l.87-3.18c.2034183-.9534863-.0858834-1.9453781-.77-2.64l-2.31-2.1c-.66-.6-.47-1.08.42-1.08h3.31c.9467091-.0401614 1.7775992-.6426552 2.11-1.53l1.14-3.47c.28-.84.73-.84 1 0l1.14 3.49c.3465078.8902518 1.1683361 1.506623 2.12 1.59l3.37.13c.89 0 1 .52.36 1.08l-2.63 2.16c-.7108646.6546026-1.0292018 1.6323525-.84 2.58l.74 2.84c.22.86-.2 1.16-.94.68l-2.7-1.76c-.8305965-.4867974-1.8594035-.4867974-2.69 0z" fill="#57a863"/></g></svg>