<svg height="48" viewBox="0 0 71 48" width="71" xmlns="http://www.w3.org/2000/svg"><g fill="none"><rect fill="#4a89dc" height="47" rx="6.36" width="70" x=".87" y=".24"/><path d="m31.47 31.27c-.74.49-1.15.19-.91-.66l.87-3.18c.2052923-.9535544-.0842667-1.946328-.77-2.64l-2.3-2.1c-.66-.6-.47-1.08.42-1.08h3.31c.9467091-.0401614 1.7775992-.6426552 2.11-1.53l1.14-3.47c.28-.84.73-.84 1 0l1.14 3.49c.3465078.8902518 1.1683361 1.506623 2.12 1.59l3.37.13c.89 0 1.05.52.36 1.08l-2.63 2.16c-.7108646.6546026-1.0292018 1.6323525-.84 2.58l.74 2.84c.22.86-.2 1.16-.94.68l-2.66-1.76c-.8305965-.4867974-1.8594035-.4867974-2.69 0z" fill="#fff"/></g></svg>