<svg height="48" viewBox="0 0 71 48" width="71" xmlns="http://www.w3.org/2000/svg"><g fill="none"><path d="m0 7.19v9h70v-9c0-3.66717074-2.9728293-6.64-6.64-6.64h-56.71c-1.76276947-.00265478-3.45424962.69574249-4.70165483 1.9412719-1.2474052 1.24552941-1.94834717 2.93595663-1.94834517 4.6987281z" fill="#434a54"/><path d="m0 31.9h70v-15.68h-70z" fill="#ed5565"/><path d="m0 40.91c0 3.6671707 2.97282926 6.64 6.64 6.64h56.72c3.6671707 0 6.64-2.9728293 6.64-6.64v-9h-70z" fill="#57a863"/><path d="m.01 31.02h70v1.75h-70z" fill="#fff"/><path d="m70 17.1v-1.75h-70v1.75z" fill="#fff"/><path d="m2.23 2.24c-1.41314449 1.25710561-2.22109968 3.05862731-2.22 4.95v33.72c-.00109968 1.8913727.80685551 3.6928944 2.22 4.95l30.77-21.86z" fill="#4758a9"/><path d="m10.14 30c-.4.54-.78.43-.83-.26l-.18-2.54c-.09474847-.7432481-.55170064-1.3912213-1.22-1.73l-2.19-1c-.62-.27-.61-.67 0-.89l2.37-.83c.66889219-.2737989 1.11238642-.9174543 1.13-1.64l-.07-2.82c0-.68.3-.8.72-.25l1.71 2.26c.4645914.5632235 1.2120373.8084792 1.92.63l2.45-.75c.64-.2.88.12.54.7l-1.34 2.23c-.3479131.6579598-.3289784 1.4494299.05 2.09l1.26 1.89c.38.57.15.9-.51.73l-2.37-.61c-.719363-.1445218-1.4601075.1164659-1.93.68z" fill="#ffce54"/></g></svg>