<svg height="48" viewBox="0 0 71 48" width="71" xmlns="http://www.w3.org/2000/svg"><g fill="none"><path d="m.39 7.62v9h70v-9c0-3.66717074-2.9728293-6.64-6.64-6.64h-56.75c-3.65544958.01651575-6.61003731 2.98451311-6.61 6.64z" fill="#57a863"/><path d="m.39 32.33h70v-15.67h-70z" fill="#ffce54"/><path d="m.39 41.34c-.01107136 3.6632876 2.94673299 6.6434657 6.61 6.66h56.72c3.6671707 0 6.64-2.9728293 6.64-6.64v-9h-70z" fill="#57a863"/><path d="m2.51 2.61c-1.35465419 1.20308-2.12988244 2.92823582-2.13 4.74v34.27c.00011756 1.8117642.77534581 3.53692 2.13 4.74l25.87-21.88z" fill="#ed5565"/><g fill="#434a54"><path d="m37.51 29.33c-.51.32-.8.12-.64-.43l.61-2c.1486418-.6209887-.0547901-1.2735063-.53-1.7l-1.6-1.35c-.46-.38-.33-.7.29-.7h2.3c.6438471-.0157772 1.2188604-.4069427 1.47-1l.79-2.23c.19-.54.51-.54.7 0l.8 2.25c.2663742.58037.8323583.9653932 1.47 1l2.35.08c.61 0 .73.34.25.7l-1.83 1.39c-.4904037.40032-.7177507 1.0399745-.59 1.66l.52 1.83c.15.55-.14.75-.66.44l-1.87-1.13c-.5876109-.3128896-1.2923891-.3128896-1.88 0z"/><path d="m55.17 29.33c-.51.32-.8.12-.64-.43l.61-2c.1486418-.6209887-.0547901-1.2735063-.53-1.7l-1.6-1.35c-.46-.38-.33-.7.29-.7h2.3c.6438471-.0157772 1.2188604-.4069427 1.47-1l.79-2.23c.19-.54.51-.54.7 0l.8 2.25c.2663742.58037.8323583.9653932 1.47 1l2.35.08c.61 0 .73.34.25.7l-1.83 1.39c-.4940995.3980142-.7254398 1.0380559-.6 1.66l.52 1.83c.15.55-.14.75-.66.44l-1.86-1.14c-.5876109-.3128896-1.2923891-.3128896-1.88 0z"/></g></g></svg>