<svg height="48" viewBox="0 0 71 48" width="71" xmlns="http://www.w3.org/2000/svg"><g fill="none"><path d="m.87 7.44v9h70v-9c0-3.66717074-2.9728293-6.64-6.64-6.64h-56.72c-3.66717074 0-6.64 2.97282926-6.64 6.64z" fill="#ed5565"/><path d="m.87 41.15c0 3.6671707 2.97282926 6.64 6.64 6.64h56.72c3.6671707 0 6.64-2.9728293 6.64-6.64v-9h-70z" fill="#434a54"/><path d="m70.87 16.47h-70v15.68h70z" fill="#fff"/><g fill="#57a863"><path d="m24.15 29c-.46.31-.72.12-.57-.42l.54-2c.1276418-.6018507-.0522656-1.2277784-.48-1.67l-1.43-1.32c-.41-.38-.29-.68.26-.68h2.05c.5990343-.0368844 1.1164851-.431885 1.31-1l.7-2.19c.17-.53.45-.53.63 0l.71 2.2c.2105896.5556125.718524.9433487 1.31 1l2.1.08c.54 0 .65.33.23.68l-1.64 1.36c-.4418631.4179108-.6382195 1.0334126-.52 1.63l.46 1.79c.14.54-.13.73-.59.43l-1.67-1.11c-.5149858-.3046465-1.1550142-.3046465-1.67 0z"/><path d="m42.15 29c-.46.31-.72.12-.57-.42l.54-2c.1276418-.6018507-.0522656-1.2277784-.48-1.67l-1.43-1.32c-.41-.38-.29-.68.26-.68h2.05c.5990343-.0368844 1.1164851-.431885 1.31-1l.7-2.19c.17-.53.45-.53.63 0l.71 2.2c.2105896.5556125.718524.9433487 1.31 1l2.1.08c.54 0 .65.33.23.68l-1.64 1.36c-.4418631.4179108-.6382195 1.0334126-.52 1.63l.46 1.79c.14.54-.13.73-.59.43l-1.67-1.11c-.5149858-.3046465-1.1550142-.3046465-1.67 0z"/></g></g></svg>