<svg height="48" viewBox="0 0 71 48" width="71" xmlns="http://www.w3.org/2000/svg"><g fill="none" fill-rule="evenodd"><g fill-rule="nonzero"><path d="m64.41.36h-58.32c-2.94937931.36373371-5.29794254 2.64286116-5.75 5.58v35.72c.49388474 3.2419958 3.28060151 5.6378925 6.56 5.64h56.72c1.7610375 0 3.4499475-.6995694 4.695189-1.944811 1.2452416-1.2452415 1.944811-2.9341515 1.944811-4.695189v-33.66c.0239951-3.37957842-2.4943315-6.23798665-5.85-6.64z" fill="#4658a9"/><path d="m25.22.31h-18.4c-3.63980479.03837356-6.57020228 2.99999294-6.57 6.64v17.33h25z" fill="#4658a9"/><path d="m10.78 17.72v6.56h3.9v-6.71l6.71 6.71h3.82v-3l-7-7h7v-4h-7l7-7v-3h-3.83l-6.7 6.7v-6.7h-3.9v6.56l-6.16-6.16c-1.56329281.56647757-2.85814249 1.69724162-3.63 3.17l6.41 6.41h-7.16v4h7.16l-7.16 7.16v2.83h4z" fill="#fff"/><path d="m11.78 15v9.31h1.9v-9.45l9.45 9.45h2.08v-1.31l-9.78-9.78h9.78v-1.95h-9.78l9.78-9.78v-1.23h-2.09l-9.45 9.45v-9.45h-1.9v9.3l-8.33-8.34c-.6736073.40866358-1.26948293.93344041-1.76 1.55l8.49 8.49h-9.93v1.95h9.93l-9.93 9.93v1.09h2.23z" fill="#ec5463"/></g><path d="m56.81 12.74v7.08c0 5.81-2.28 11.13-9.05 14.36-6.77-3.23-9.05-8.55-9.05-14.36v-7.08z" stroke="#fff" stroke-linecap="round" stroke-linejoin="round" stroke-width="2"/><g fill-rule="nonzero"><path d="m56.81 12.74v7.08c0 5.81-2.28 11.13-9.05 14.36-6.77-3.23-9.05-8.55-9.05-14.36v-7.08z" fill="#f2d660"/><path d="m43.54 15.85c-.1347033-.1037643-.2999646-.1600235-.47-.16.0346546-.3634568-.2045423-.6966239-.56-.78-.25-.09-.34-.19-.38-.38-.0450576-.1954243-.2025234-.3450168-.4-.38-.204004-.0831154-.3806691-.2216763-.51-.4-.09-.11-.12-.09-.19.1s-.33.54-.09.55c-.181151.1047896-.2509081.3314999-.16.52-.12.1-.21.24 0 .29s.21.1.22.14c-.15 0-.19.29.16.36-.08 0-.11.25 0 .25-.2 0-.36.29-.61.29s-.38.05-.39.16c-.0382701.1160859-.11165.2174202-.21.29.1386566.0301394.2836013.0011504.4-.08.1098128-.0816709.2601872-.0816709.37 0 .1328416.0874288.2918057.1262867.45.11-.2223715.1268772-.3818161.3406779-.44.59-.0221885.2129641-.144827.4024964-.33.51-.2052113.0856954-.3698157.2467214-.46.45.133124.3688071.4279414.656254.8.78.3963372.1480296.7598456.3722498 1.07.66.22.24.31.07.63.48s.63 1.2 1 1.33c.3787567.1593161.8161571-.002522 1-.37.24-.41.39-4.61-.84-5.31z" fill="#e77329"/><path d="m44.1 14.1c-.31.33-.7.66-.63 1.24s.13 1.55-.41 1.88c-.2867057.1611891-.4758153.4530567-.5057735.7806s.1030661.6488743.3557735.8594c.486811.3990873.7753053.9906831.79 1.62.11.55.39 1 .83.61.44.07.68-.11.68-.46s0-.55.35-.66c.2633526-.0639425.4772796-.2553509.57-.51.15-.29.24-.43.15-.6-.0960493-.2557186-.1134614-.534312-.05-.8.07-.26-.09-.4-.17-.57-.0922733-.156693-.1209079-.3428176-.08-.52.0366913-.1878405-.0522515-.3778547-.22-.47-.1433458-.0729578-.2209021-.2321523-.19-.39 0-.17-.11-.28-.27-.41-.1804185-.1332067-.284844-.3457871-.28-.57-.1527932-.4411085-.4773677-.8017467-.9-1z" fill="#fff" stroke="#fff" stroke-linecap="round" stroke-linejoin="round" stroke-width=".1"/><path d="m44.22 21.23c.73-.19.67-1.39.56-1.89-.2192254-.5699093-.2780228-1.1890113-.17-1.79.31-.81-.37-1.57-.2-1.88.1197327-.1641029.1667397-.3702105.13-.57 0-.1-.19-.17-.2 0 .0000376.1601756-.0737453.3114304-.2.41-.13.13-.1.41 0 .73.2158349.4522341.2158349.9777659 0 1.43" fill="#e77329"/><path d="m49.4 23.6c.12.18 0 .37.21.45s0 .41.32.53 0 .41.28.55 0 .41.29.58-.06.54.19.68-.08.52.21.66-.12.43.14.64-.06.52.21.7-.17.44.1.7-.07.41.08.72-.1 1-.68 1c-.3198283.3825019-.8023285.5903482-1.3.56-.29.21-1.22.5-1.7 0-.48.46-1.41.17-1.7 0-.4976715.0303482-.9801717-.1774981-1.3-.56-.58.08-.79-.75-.68-1s-.12-.52.08-.72-.17-.52.1-.7-.06-.5.21-.7-.15-.5.14-.64 0-.52.21-.66-.14-.52.19-.68 0-.46.29-.58 0-.45.28-.55.08-.44.32-.53.08-.28.21-.46c1.0792216.3262101 2.2307784.3262101 3.31 0z" fill="#51c161"/><path d="m46.34 24.69c.0087816.1077584-.023352.2148704-.09.3-.19.25.08.37-.12.64s0 .43-.19.66 0 .43-.19.68 0 .41-.19.64 0 .48-.19.7 0 .52-.21.79 0 .48-.17.68 0 .41-.17.56c.25-.19.25-.48.43-.62s-.06-.35 0-.46 0-.54.21-.75 0-.62.19-.77 0-.58.25-.72 0-.5.17-.68 0-.48.17-.7 0-.43.12-.62.05-.68-.08-.34z" fill="#fcc300"/><path d="m46.94 24.95c-.14.27.1.33-.08.6s.1.48-.1.75.1.41-.08.68.08.41-.08.62.12.41-.08.66.08.43-.08.66.06.48-.08.66.1.46-.1.7 0 .41-.08.58c.25-.08.16-.42.25-.5s0-.55.11-.67-.09-.51 0-.67 0-.47.17-.68-.05-.5.05-.64-.08-.47.05-.65 0-.47.09-.64 0-.52.06-.65.22-.71 0-.81z" fill="#fcc300"/><path d="m47.74 25.17c-.14.36.1.51 0 .79s.1.51 0 .82.17.55 0 1 .11.51 0 .91.21.72 0 1 .24.44 0 .79c-.1.17 0 .59.18.08s-.12-.57 0-.78-.05-.76 0-1-.14-.68 0-1-.21-.64-.07-.91-.06-.6.06-.82-.09-.51 0-.63-.05-.58-.17-.23z" fill="#fcc300"/><g fill="#ec5565"><path d="m49.3 23.85c0-2.34-.33-3.15-1.55-3.15s-1.55.81-1.55 3.15h3.11z"/><path d="m47.74 24.19c.4697326.0023705.9364272-.0754119 1.38-.23.42-.16.45-.31.3-.49s-.33-.05-.55 0c-.7388271.2090744-1.5211729.2090744-2.26 0-.22-.1-.44-.17-.55 0s-.12.33.3.49c.4435241.1547786.9102517.2325666 1.38.23z"/><path d="m52.47 21.09.55 1c.23.4.42.49.59.37s0-.45-.11-.6-.88-.88-.88-.88l-.15.16z"/><path d="m52.39 21.13.22 1.09c.09.46.24.61.44.56s.17-.41.09-.61-.55-1.14-.55-1.14z"/><path d="m52.26 21.15v1.12c0 .48.12.65.32.64s.24-.37.2-.57-.31-1.24-.31-1.24z"/><path d="m52 21.09-.55 1c-.23.4-.42.49-.59.37s0-.45.11-.6.88-.88.88-.88l.15.16z"/><path d="m52.12 21.13-.22 1.09c-.09.46-.24.61-.44.56s-.17-.41-.09-.61.55-1.14.55-1.14z"/><path d="m52.26 21.15v1.12c0 .48-.12.65-.32.64s-.24-.37-.2-.57.31-1.24.31-1.24z"/><path d="m52.61 16.19c.4299522-.4236937.9101968-.7931126 1.43-1.1.91-.55 1.57-1 1.69-.88-.429753.4239222-.910027.7933638-1.43 1.1-.65.44-1.43 1.1-1.43 1.1z"/><path d="m52.67 16.63c.4838623-.2869568.9847943-.5441019 1.5-.77.74125-.3024369 1.5553691-.378978 2.34-.22-.7016055.1044009-1.3962189.2513383-2.08.44-.5152701.2257626-1.0162103.4829119-1.5.77z"/><path d="m52.67 17.39c.4880692-.214365.9890433-.3980554 1.5-.55.7878145-.2466365 1.6321855-.2466365 2.42 0-.13.11-1.25 0-2 .22-.5595649.1311599-1.1053635.315325-1.63.55l-.26-.22z"/><path d="m52.72 18.17c.4810561-.3324608 1.0458611-.5230392 1.63-.55.7310458-.0824853 1.4616335.1586086 2 .66-.13.11-1.17-.49-1.95-.4-.5153811.0594675-1.0108691.2337426-1.45.51l-.26-.22z"/><path d="m52.47 15.74s.84-.55.84-1c-.0700945-.3979005-.2309207-.7743021-.47-1.1.21 0 .68.66.68 1.1s-.79 1.21-.79 1.21l-.26-.22z"/><path d="m52.47 15.74c-.0794103-.3271062-.1130643-.6636464-.1-1 .0073935-.5423765.2347713-1.058488.63-1.43 0 .17-.42.77-.42 1.43.0169452.4067469.0671123.8114278.15 1.21l-.26-.22z"/><path d="m51.9 16.19c-.4299522-.4236937-.9101968-.7931126-1.43-1.1-.91-.55-1.57-1-1.69-.88.429753.4239222.910027.7933638 1.43 1.1.65.44 1.43 1.1 1.43 1.1z"/><path d="m51.84 16.63c-.4838623-.2869568-.9847943-.5441019-1.5-.77-.74125-.3024369-1.5553691-.378978-2.34-.22.7016055.1044009 1.3962189.2513383 2.08.44.5152701.2257626 1.0162103.4829119 1.5.77z"/><path d="m51.84 17.39c-.4880692-.214365-.9890433-.3980554-1.5-.55-.7878145-.2466365-1.6321855-.2466365-2.42 0 .13.11 1.25 0 2 .22.5595649.1311599 1.1053635.315325 1.63.55l.26-.22z"/><path d="m51.79 18.17c-.4810561-.3324608-1.0458611-.5230392-1.63-.55-.7310458-.0824853-1.4616335.1586086-2 .66.13.11 1.17-.49 1.95-.4.5153811.0594675 1.0108691.2337426 1.45.51l.26-.22z"/><path d="m52 15.74s-.84-.55-.84-1c.0700945-.3979005.2309207-.7743021.47-1.1-.21 0-.68.66-.68 1.1s.79 1.21.79 1.21l.26-.22z"/><path d="m52 15.74c.0794103-.3271062.1130643-.6636464.1-1-.0073935-.5423765-.2347713-1.058488-.63-1.43 0 .17.42.77.42 1.43-.0169452.4067469-.0671123.8114278-.15 1.21l.26-.22z"/><path d="m55 23.68c-.2538131-.7483459-.3953498-1.5301677-.42-2.32 0-.62.19-3.64.21-4.85s-.73-1.87-1.46-1.87c-.2834878-.0014214-.554257.117548-.7449539.3273146s-.2833988.4906154-.2550461.7726854h.31c-.0109998-.2004406.0610267-.3965656.1991386-.5422452.1381119-.1456797.3301194-.2280564.5308614-.2277548.63 0 1.11.52 1.15 1.54 0 1.18-.13 4.25-.1 5.07.0638489.7326146.2783294 1.4441451.63 2.09z"/><path d="m49.54 23.68c.2973619-.736422.440315-1.5260676.42-2.32 0-.62-.19-3.64-.21-4.85s.73-1.87 1.46-1.87c.2834878-.0014214.554257.117548.7449539.3273146s.2833988.4906154.2550461.7726854h-.31c.0109998-.2004406-.0610267-.3965656-.1991386-.5422452-.1381119-.1456797-.3301194-.2280564-.5308614-.2277548-.63 0-1.11.52-1.15 1.54 0 1.18.13 4.25.1 5.07-.0285079.7389632-.2453673 1.4583855-.63 2.09z"/><path d="m52.26 21.14c.58 0 .65-.22.65-.22s.13-.44.06-.55-.71-.11-.71-.11z"/><path d="m52.26 20.7c.63 0 .73-.22.73-.22s.21-.44.1-.55-.84-.11-.84-.11v.88z"/><path d="m52.26 20.26c.2952419.0081963.5866796-.0681326.84-.22 0 0 .21-.44.1-.55-.305764-.0850335-.6228645-.122141-.94-.11z"/><path d="m52.26 19.71c.94 0 .94-.28.94-.28s.21-.44.1-.55c-.3315747-.0484237-.6684253-.0484237-1 0v.88z"/><path d="m52.26 19.27c.94 0 1-.22 1-.22s.21-.44.1-.55c-.3769252-.0864802-.7635154-.1234584-1.15-.11v.88z"/><path d="m52.26 18.72c.94 0 1.15-.22 1.15-.22s.21-.44.1-.55c-.4107705-.0865087-.8304341-.1234391-1.25-.11z"/><path d="m52.26 18.17c.4286334.0349635.8590609-.0407917 1.25-.22 0 0 .1-.44 0-.55-.4107705-.0865087-.8304341-.1234391-1.25-.11z"/><path d="m52.26 17.61c.4286334.0349635.8590609-.0407917 1.25-.22 0 0 0-.44-.1-.55-.3769252-.0864802-.7635154-.1234584-1.15-.11z"/><path d="m52.26 17.06c.94 0 1.15-.22 1.15-.22s0-.44-.1-.55c-.3268364-.081657-.6632287-.1186601-1-.11v.88z"/><path d="m52.26 15.68c.4164042.0252946.7921817.2582766 1 .62l-.21.21c-.11.11-.84.11-.83.11v-.94z"/><path d="m52.25 21.14c-.58 0-.65-.22-.65-.22s-.13-.44-.06-.55.71-.11.71-.11z"/><path d="m52.25 20.7c-.63 0-.73-.22-.73-.22s-.21-.44-.1-.55.84-.11.84-.11v.88z"/><path d="m52.25 20.26c-.2952419.0081963-.5866796-.0681326-.84-.22 0 0-.21-.44-.1-.55.305764-.0850335.6228645-.122141.94-.11z"/><path d="m52.25 19.71c-.94 0-.94-.28-.94-.28s-.21-.44-.1-.55c.3315747-.0484237.6684253-.0484237 1 0v.88z"/><path d="m52.25 19.27c-.94 0-1-.22-1-.22s-.21-.44-.1-.55c.3769252-.0864802.7635154-.1234584 1.15-.11v.88z"/><path d="m52.25 18.72c-.94 0-1.15-.22-1.15-.22s-.21-.44-.1-.55c.4107705-.0865087.8304341-.1234391 1.25-.11z"/><path d="m52.25 18.17c-.4286334.0349635-.8590609-.0407917-1.25-.22 0 0-.1-.44 0-.55.4107705-.0865087.8304341-.1234391 1.25-.11z"/><path d="m52.25 17.61c-.4286334.0349635-.8590609-.0407917-1.25-.22 0 0 0-.44.1-.55.3769252-.0864802.7635154-.1234584 1.15-.11z"/><path d="m52.25 17.06c-.94 0-1.15-.22-1.15-.22s0-.44.1-.55c.3268364-.081657.6632287-.1186601 1-.11v.88z"/><path d="m52.25 15.68c-.4164042.0252946-.7921817.2582766-1 .62l.21.21c.11.11.84.11.83.11v-.94z"/></g></g></g></svg>