<svg height="48" viewBox="0 0 71 48" width="71" xmlns="http://www.w3.org/2000/svg"><g fill="none"><path d="m.87 40.71c0 3.512531 2.84746899 6.36 6.36 6.36h57.27c3.512531 0 6.36-2.847469 6.36-6.36v-5.39h-70z" fill="#ffce54"/><path d="m.87 23.57h70v11.75h-70z" fill="#57a863"/><path d="m.87 11.82h70v11.75h-70z" fill="#ffce54"/><path d="m64.51.07h-57.27c-3.51253101 0-6.36 2.84746899-6.36 6.36v5.39h70v-5.39c.0000021-1.68851092-.67144-3.30771912-1.866335-4.50073836-1.1948951-1.19301924-2.8151562-1.86191653-4.503665-1.85926164z" fill="#57a863"/><path d="m27.87.07h-20.63c-3.51253101 0-6.36 2.84746899-6.36 6.36v17.14h27z" fill="#ed5565"/><path d="m10 19.36c-.74.49-1.15.19-.91-.67l.87-3.18c.2052923-.9535544-.08426673-1.946328-.77-2.64l-2.3-2.1c-.66-.6-.47-1.08.42-1.08h3.31c.9467091-.0401614 1.7775992-.64265521 2.11-1.53l1.14-3.47c.28-.84.73-.84 1 0l1.14 3.49c.3465078.89025181 1.1683361 1.50662302 2.12 1.59l3.37.13c.89 0 1.05.52.36 1.08l-2.63 2.16c-.7108646.6546026-1.0292018 1.6323525-.84 2.58l.74 2.84c.22.86-.2 1.16-.94.68l-2.7-1.76c-.8305965-.4867974-1.8594035-.4867974-2.69 0z" fill="#fff"/></g></svg>