<svg height="48" viewBox="0 0 71 48" width="71" xmlns="http://www.w3.org/2000/svg"><g fill="none"><path d="m70 6.48c-.0028092-.41658277-.0463497-.8318925-.13-1.24 0-.19-.09-.38-.14-.56-.1215363-.38070169-.2789077-.74901769-.47-1.1-.06-.1-.12-.2-.18-.29l-.14-.23-.15-.21-.21-.29-.14-.15-.27-.3-.25-.22-.2-.19h-.06-.06c-.2796312-.22122896-.5773435-.41858885-.89-.59l-.26-.13-.12-.06-.17-.08-.2-.07-.3-.11h-.08-.19c-.2499999-.06809394-.5037659-.12151836-.76-.16h-.12c-.2716857-.03829879-.5456331-.05834371-.82-.06h-57.32c-.33517794.00372519-.66954317.03381806-1 .09h-.15c-.31254951.05993945-.62009934.14351278-.92.25l-.17.06c-.29284968.11209598-.5769652.2457974-.85.4l-.12.07c-.51862714.29896781-.98757107.67682191-1.39 1.12l-.14.15c-.18002754.20254977-.34702932.41631206-.5.64-.71199105 1.05056833-1.09175466 2.29089717-1.09 3.56v34.27c.00086914.6410145.09864053 1.2782142.29 1.89.06.2.13.3933333.21.58.16123596.3782532.35883033.7399513.59 1.08.11333333.1666667.23666667.33.37.49.2106421.2547387.44138234.4921671.69.71h.05c.25433429.2203258.52512147.4209089.81.6.48629297.3021654 1.01098913.537606 1.56.7h.06c.23664677.0674379.47706395.1208639.72.16h.19c.27174723.037721.54565638.0577631.82.06h57.27c.2743717-.0015356.5483271-.0215811.82-.06h.12c.256214-.038593.5099736-.0920161.76-.16h.19.08l.3-.11.2-.07.15-.07.21-.1.2-.09.28-.17.2-.12.19-.14.18-.13.12-.09.1-.09c.2745473-.2348256.5287831-.4924067.76-.77l.21-.29.15-.2.14-.23c.06-.1.12-.19.18-.29.1910923-.3509823.3484637-.7192983.47-1.1 0-.16.09-.32.12-.48v-.11c.0830046-.4048317.1265418-.8167609.13-1.23 0 0 0 0 0-.05v-34.69z" fill="#fff"/><path d="m70 6.49c-.0028092-.41658277-.0463497-.8318925-.13-1.24 0-.19-.09-.38-.14-.56-.1215363-.38070169-.2789077-.74901769-.47-1.1-.06-.1-.12-.2-.18-.29l-.14-.23-.15-.21-.21-.29-.14-.15-.27-.3-.25-.22-.2-.19h-.06-.06c-.2796312-.22122896-.5773435-.41858885-.89-.59l-.26-.13-.12-.06-.17-.08-.2-.07-.3-.11h-.08-.19c-.2499999-.06809394-.5037659-.12151836-.76-.16h-.12c-.2716857-.03829879-.5456331-.05834371-.82-.06h-57.32c-.33517794.00372519-.66954317.03381806-1 .09h-.15c-.31254951.05993945-.62009934.14351278-.92.25l-.17.06c-.29284968.11209598-.5769652.2457974-.85.4l-.12.07c-.51862714.29896781-.98757107.67682191-1.39 1.12l-.14.15c-.18002754.20254977-.34702932.41631206-.5.64-.71199105 1.05056833-1.09175466 2.29089717-1.09 3.56l-.00000605 7.12h70.00000605z" fill="#ed5565"/><path d="m0 40.76c.00086914.6410145.09864053 1.2782142.29 1.89.06.2.13.3933333.21.58.16123596.3782532.35883033.7399513.59 1.08.11333333.1666667.23666667.33.37.49.2106421.2547387.44138234.4921671.69.71h.05c.25433429.2203258.52512147.4209089.81.6.48629297.3021654 1.01098913.537606 1.56.7h.06c.23664677.0674379.47706395.1208639.72.16h.19.63 57.65.63.12c.256214-.038593.5099736-.0920161.76-.16h.19.08l.3-.11.2-.07.15-.07.21-.1.2-.09.28-.17.2-.12.19-.14.18-.13.12-.09.1-.09c.2745473-.2348256.5287831-.4924067.76-.77l.21-.29.15-.2.14-.23c.06-.1.12-.19.18-.29.1910923-.3509823.3484637-.7192983.47-1.1 0-.16.09-.32.12-.48v-.11c.0830046-.4048317.1265418-.8167609.13-1.23 0 0 0 0 0-.05v-7.15h-69.89z" fill="#57a863"/><g fill="#ffce54"><path d="m35 30.64c1.855846-.0009185 3.7053118.2172581 5.51.65.1673094.043785.3415156-.0411937.41-.2l1.52-3.3c.0448411-.0987962.0440595-.2122952-.0021378-.3104646-.0461974-.0981693-.1331545-.1711151-.2378622-.1995354-4.7196575-1.2679475-9.6903425-1.2679475-14.41 0-.1047077.0284203-.1916648.1013661-.2378622.1995354-.0461973.0981694-.0469789.2116684-.0021378.3104646l1.52 3.3c.0684844.1588063.2426906.243785.41.2 1.8079407-.4335243 3.6608093-.6517063 5.52-.65z"/><path d="m37.41 24.83c0-1.3282448-1.0767552-2.405-2.405-2.405s-2.405 1.0767552-2.405 2.405z" stroke="#ffce54" stroke-linecap="round" stroke-linejoin="round" stroke-width=".6"/><path d="m30.59 21.32c-.0445219.0001558-.0860268-.0224832-.11-.06l-.52-.89-1 .21c-.0518252.010874-.1046516-.0135074-.13-.06-.0317549-.0449581-.0317549-.1050419 0-.15l.69-.77-.52-.89c-.0317549-.0449581-.0317549-.1050419 0-.15.0426816-.027274.0973184-.027274.14 0l.94.42.69-.77c.0383891-.0369525.0954409-.0467372.1439491-.024688s.0786497.0714672.0760509.124688l-.11 1 .94.42c.048065.0245928.0759262.076335.07.13-.0038728.0553851-.0452335.1008819-.1.11l-1 .21-.11 1c-.0038728.0553851-.0452335.1008819-.1.11z"/><path d="m39.42 21.32c-.0547665-.0091181-.0961272-.0546149-.1-.11l-.11-1-1-.21c-.0547665-.0091181-.0961272-.0546149-.1-.11-.0059262-.053665.021935-.1054072.07-.13l.94-.42-.11-1c-.0059262-.053665.021935-.1054072.07-.13.0426816-.027274.0973184-.027274.14 0l.69.77.94-.42c.0426816-.027274.0973184-.027274.14 0 .0317549.0449581.0317549.1050419 0 .15l-.52.89.69.77c.0375129.0214359.0607403.0612564.0609327.1044615.0001923.0432051-.0226795.0832309-.06.105-.0373205.0217692-.0834198.0219744-.1209327.0005385l-1-.21-.52.89c-.0219895.0346679-.0590626.0569118-.1.06z"/><path d="m34.1 19h-.07c-.027274-.0426816-.027274-.0973184 0-.14l.32-1-.83-.61c-.0407608-.0333714-.0573528-.0880425-.0420147-.1384392.0153382-.0503968.059574-.0865551.1120147-.0915608h1l.32-1c.0169135-.0523788.0649805-.0884291.12-.09.0550195.0015709.1030865.0376212.12.09l.32 1h1c.0524407.0050057.0966765.041164.1120147.0915608.0153381.0503967-.0012539.1050678-.0420147.1384392l-.83.61.32 1c.027274.0426816.027274.0973184 0 .14-.0449581.0317549-.1050419.0317549-.15 0l-.83-.61-.83.61z"/><path d="m41.64 26.29c-.0472505.0003588-.0903131-.0270446-.11-.07l-.51-.94-1 .21c-.0579899.0331371-.1318629.0129899-.165-.045s-.0129899-.1318629.045-.165l.69-.77-.52-.89c-.0317549-.0449581-.0317549-.1050419 0-.15.0426816-.027274.0973184-.027274.14 0l.94.42.69-.77c.0426816-.027274.0973184-.027274.14 0 .048065.0245928.0759262.076335.07.13l-.11 1 .94.42c.0662742 0 .12.0537258.12.12s-.0537258.12-.12.12l-1 .16-.12 1.13c-.0070117.0539887-.0469219.0978899-.1.11z"/><path d="m28.37 26.24c-.0547665-.0091181-.0961272-.0546149-.1-.11l-.11-1-1-.21c-.0547665-.0091181-.0961272-.0546149-.1-.11-.0059262-.053665.021935-.1054072.07-.13l.94-.42-.11-1c-.0059262-.053665.021935-.1054072.07-.13.0426816-.027274.0973184-.027274.14 0l.69.77.94-.42c.0426816-.027274.0973184-.027274.14 0 .0317549.0449581.0317549.1050419 0 .15l-.52.89.69.77c.0317549.0449581.0317549.1050419 0 .15-.0253484.0464926-.0781748.070874-.13.06l-1-.21-.52.89c-.0198602.0321238-.0527087.0540228-.09.06z"/></g></g></svg>