<svg height="48" viewBox="0 0 71 48" width="71" xmlns="http://www.w3.org/2000/svg"><g fill="none"><path d="m2.92 46.21 1.26-.94c9.28-6.96 18.5566667-13.92 27.83-20.88-2.81-2.13-5.64-4.23-8.46-6.35l-20.69-15.51c-1.43367465 1.2649899-2.25041011 3.08806013-2.24 5v33.72c.01624611 1.9074879.85452682 3.7152585 2.3 4.96zm3.43-21.51 2.23-1.17c.61718945-.3570856.95405132-1.0545879.85-1.76l-.53-2.7c-.13-.65.18-.81.68-.35l2.07 1.91c.5613272.4579139 1.3263889.5764985 2 .31l2.32-1.1c.61-.29.9 0 .65.59l-1 2.36c-.2448178.6878766-.095326 1.4545014.39 2l1.56 1.62c.47.49.3.84-.38.78l-2.47-.22c-.7422168-.0286307-1.4391676.356425-1.81 1l-1.2 2.21c-.32.58-.7.53-.86-.12l-.6-2.42c-.2238049-.7114497-.78561042-1.2657645-1.5-1.48l-2.33-.58c-.6-.18-.66-.58-.06-.88z" fill="#434a54"/><path d="m47.68 24.38c-1.83 1-3.7 1.85-5.55 2.79l-38.36 19.18-.4.2c1.1309067.8303456 2.49699531 1.2787029 3.9 1.28h56.73c1.7610375 0 3.4499475-.6995694 4.695189-1.944811 1.2452416-1.2452415 1.944811-2.9341515 1.944811-4.695189v-33.72c0-3.66717074-2.9728293-6.64-6.64-6.64h-56.73c-1.44286903-.00582188-2.84789331.46134869-4 1.33l41.85 20.93c.88.44 1.74.83 2.56 1.29z" fill="#ec5565"/><path d="m32 24.38c-9.2733333 6.9666667-18.55 13.9266667-27.83 20.88l-1.26.94c.14.12.29.24.44.35l.4-.2 38.36-19.18c1.85-.94 3.71-1.83 5.55-2.79-.82-.47-1.69-.86-2.53-1.29l-41.85-20.93c-.14666667.11333333-.29.23-.43.35l20.71 15.49c2.81 2.15 5.64 4.25 8.44 6.38z" fill="#f2d660"/><path d="m6.48 25.56 2.33.58c.71438958.2142355 1.2761951.7685503 1.5 1.48l.6 2.42c.16.65.55.7.86.12l1.2-2.21c.3708324-.643575 1.0677832-1.0286307 1.81-1l2.47.22c.68.06.85-.29.38-.78l-1.56-1.62c-.485326-.5454986-.6348178-1.3121234-.39-2l1-2.36c.25-.61 0-.88-.65-.59l-2.32 1.1c-.6736111.2664985-1.4386728.1479139-2-.31l-2.07-1.91c-.5-.46-.8-.3-.68.35l.53 2.7c.10405132.7054121-.23281055 1.4029144-.85 1.76l-2.23 1.17c-.65.32-.59.72.07.88z" fill="#fff"/></g></svg>