<svg height="48" viewBox="0 0 71 48" width="71" xmlns="http://www.w3.org/2000/svg"><g fill="none"><rect fill="#57a863" height="47" rx="6.36" width="70" x=".87" y=".35"/><path d="m7.87.35h10v47h-10z" fill="#ed5565"/><path d="m35.7 8.05c.21.05.23.18 0 .29l-.74.4c-.2132084.13156703-.3478788.35975859-.36.61v.8c0 .23-.12.28-.27.11l-.57-.62c-.171821-.16900428-.4291604-.2165131-.65-.12l-.84.4c-.2.1-.28 0-.17-.19l.45-.83c.1056007-.21853881.0784919-.47800817-.07-.67l-.55-.65c-.15-.17-.09-.29.14-.26l.85.11c.2476648.01523904.485724-.09812252.63-.3l.4-.64c.12-.19.25-.17.29.05l.13.81c.0549169.23929218.2345588.4304006.47.5zm2.7 1.29c.3974802.14419631.7821625.32148469 1.15.53 1.6832927.9689052 2.9125179 2.5670655 3.4170422 4.4426206.5045244 1.8755551.2429828 3.8747317-.7270422 5.5573794l-.06.1c-.3982638.6634817-.893774 1.2634872-1.47 1.78-1.8802911 1.8101923-4.5733842 2.4993569-7.0920668 1.8148655-2.5186826-.6844915-4.4925103-2.641965-5.1979332-5.1548655-.0626887-.1248484-.2128329-.1778404-.34-.12-.098334.0469032-.1549711.1520863-.14.26.0401872 1.2341311.336453 2.4464372.87 3.56 1.3130571 2.6530078 3.7956731 4.5354867 6.7046003 5.0838588 2.9089271.5483721 5.9065359-.3010105 8.0953997-2.2938588.6946482-.6248324 1.2883494-1.3534658 1.76-2.16 1.5910214-2.6751634 1.723234-5.9729349.3514773-8.7668806-1.3717567-2.7939456-4.0618741-4.70602438-7.1514773-5.0831194-.1094474-.02459072-.2223261.02378583-.28.12-.0682705.11884329-.0281268.27049719.09.34zm-6.7-4.29c.21.05.23.18 0 .29l-.74.4c-.2132084.13156703-.3478788.35975859-.36.61v.8c0 .23-.12.28-.27.11l-.57-.62c-.171821-.16900428-.4291604-.2165131-.65-.12l-.84.4c-.2.1-.28 0-.17-.19l.45-.83c.1056007-.21853881.0784919-.47800817-.07-.67l-.55-.65c-.15-.17-.09-.29.14-.26l.85.11c.2476648.01523904.485724-.09812252.63-.3l.4-.64c.12-.19.25-.17.29.05l.13.81c.0549169.23929218.2345588.4304006.47.5zm-1 4c.21.05.23.18 0 .29l-.74.4c-.2132084.13156703-.3478788.3597586-.36.61v.8c0 .23-.12.28-.27.11l-.57-.62c-.171821-.1690043-.4291604-.2165131-.65-.12l-.84.4c-.2.1-.28 0-.17-.19l.45-.83c.1056007-.21853881.0784919-.47800817-.07-.67l-.55-.65c-.15-.17-.09-.29.14-.26l.85.11c.2476648.01523904.485724-.09812252.63-.3l.4-.64c.12-.19.25-.17.29.06l.13.81c.0549169.23929218.2345588.4304006.47.5zm-5 2c.21.05.23.18 0 .29l-.74.4c-.2132084.131567-.3478788.3597586-.36.61v.8c0 .23-.12.28-.27.11l-.57-.62c-.171821-.1690043-.4291604-.2165131-.65-.12l-.84.4c-.2.1-.28 0-.17-.19l.45-.83c.1056007-.2185388.0784919-.4780082-.07-.67l-.55-.65c-.15-.17-.09-.29.14-.26l.85.11c.2476648.015239.485724-.0981225.63-.3l.4-.64c.12-.19.25-.17.29.05l.13.81c.0549169.2392922.2345588.4304006.47.5zm4 3c.21.05.23.18 0 .29l-.74.4c-.2132084.131567-.3478788.3597586-.36.61v.8c0 .23-.12.28-.27.11l-.57-.62c-.171821-.1690043-.4291604-.2165131-.65-.12l-.84.4c-.2.1-.28 0-.17-.19l.45-.83c.1056007-.2185388.0784919-.4780082-.07-.67l-.55-.65c-.15-.17-.09-.29.14-.26l.85.11c.2476648.015239.485724-.0981225.63-.3l.4-.64c.12-.19.25-.17.29.05l.13.81c.0549169.2392922.2345588.4304006.47.5z" fill="#fff"/></g></svg>