<svg height="48" viewBox="0 0 71 48" width="71" xmlns="http://www.w3.org/2000/svg"><g fill="none"><rect fill="#ed5565" height="47" rx="6.36" width="70" x=".63" y=".41"/><circle cx="35.63" cy="23.91" fill="#fff" r="13.17"/><path d="m41 27.53c-.38.25-.59.09-.47-.34l.46-1.62c.1178462-.4854839-.0262127-.9972722-.38-1.35l-1.17-1.08c-.33-.31-.23-.55.22-.55h1.7c.4830955-.0201166.9095922-.3214034 1.09-.77l.6-1.77c.15-.43.38-.43.51 0l.58 1.78c.168165.4571926.584808.7764891 1.07.82l1.73.08c.45 0 .54.27.18.55l-1.36 1.09c-.3652663.3299344-.5320404.8264664-.44 1.31l.36 1.45c.11.44-.1.59-.48.34l-1.38-.9c-.4264134-.2485947-.9535866-.2485947-1.38 0zm.66 3c-.3739295.1809658-.7618557.3314545-1.16.45-3.8292255 1.1321222-7.8530211-1.0451983-9-4.87-.3939134-1.4554919-.3591893-2.9937655.1-4.43.6861288-2.0424346 2.2316645-3.6823387 4.2298999-4.4881718 1.9982354-.8058332 4.2490345-.6968861 6.1601001.2981718.0622867.0218341.1308163.017053.1894677-.0132187.0586515-.0302718.1022474-.0833618.1205323-.1467813.0413898-.1028267.003551-.2205471-.09-.28-.9204229-.7932959-1.9919552-1.3919933-3.15-1.76-4.8204068-1.5385479-9.9847994 1.0681137-11.61 5.86-.2905833.8611631-.4490474 1.7613738-.47 2.67-.0036624 3.5177449 2.0075054 6.7268305 5.1749 8.2572405 3.1673945 1.53041 6.9314019 1.1117524 9.6851-1.0772405.1078606-.0666523.1487451-.2034947.0951262-.3183922-.0536188-.1148976-.1847596-.1714616-.3051262-.1316078z" fill="#ed5565"/></g></svg>