<svg height="48" viewBox="0 0 71 48" width="71" xmlns="http://www.w3.org/2000/svg"><g fill="none"><path d="m70.39 6.76c-.0028092-.41658277-.0463497-.8318925-.13-1.24 0-.19-.09-.38-.14-.56-.1215363-.38070169-.2789077-.74901769-.47-1.1-.06-.1-.12-.2-.18-.29l-.14-.23-.15-.21-.21-.29-.14-.15-.27-.3-.25-.22-.2-.19h-.06-.06c-.2796312-.22122896-.5773435-.41858885-.89-.59l-.26-.13-.12-.06-.17-.08-.2-.07-.3-.11h-.08-.19c-.2499999-.06809394-.5037659-.12151836-.76-.16h-.12c-.2716857-.03829879-.5456331-.05834371-.82-.06h-28.61v24h-35.08v16.28c.00086914.6410145.09864053 1.2782142.29 1.89.06.2.13.3933333.21.58.16123596.3782532.35883033.7399513.59 1.08.11333333.1666667.23666667.33.37.49.2106421.2547387.44138234.4921671.69.71h.05c.25433429.2203258.52512147.4209089.81.6.48629297.3021654 1.01098913.537606 1.56.7h.04c.23664677.0674379.47706395.1208639.72.16h.19c.27174723.037721.54565638.0577631.82.06h57.27c.2743717-.0015356.5483271-.0215811.82-.06h.12c.256214-.038593.5099736-.0920161.76-.16h.19.08l.3-.11.2-.07.15-.07.21-.1.2-.09.28-.17.2-.12.19-.14.18-.13.12-.09.1-.09c.2745473-.2348256.5287831-.4924067.76-.77l.21-.29.15-.2.14-.23c.06-.1.12-.19.18-.29.1910923-.3509823.3484637-.7192983.47-1.1 0-.16.09-.32.12-.48v-.11c.0830046-.4048317.1265418-.8167609.13-1.23 0 0 0 0 0-.05v-34.36z" fill="#ed5565"/><path d="m35.47.4h-28.72c-.33517794.00372519-.66954317.03381806-1 .09h-.15c-.31254951.05993945-.62009934.14351278-.92.25l-.17.06c-.29284968.11209598-.5769652.2457974-.85.4l-.12.07c-.51862714.29896781-.98757107.67682191-1.39 1.12l-.14.15c-.18002754.20254977-.34702932.41631206-.5.64-.71199105 1.05056833-1.09175466 2.29089717-1.09 3.56l-.00000605 17.66h35.08000605c-.02-8-.03-16-.03-24z" fill="#fff"/><path d="m22.43 9.9h-2v-2c0-1.1045695-.8954305-2-2-2h-1c-1.1045695 0-2 .8954305-2 2v2h-2c-1.1045695 0-2 .8954305-2 2v1c0 1.1045695.8954305 2 2 2h2v2c0 1.1045695.8954305 2 2 2h1c1.1045695 0 2-.8954305 2-2v-2h2c1.1045695 0 2-.8954305 2-2v-1c0-1.1045695-.8954305-2-2-2z" fill="#ed5565"/></g></svg>