<svg height="48" viewBox="0 0 71 48" width="71" xmlns="http://www.w3.org/2000/svg"><g fill="none"><rect fill="#ed5565" height="47" rx="6.36" width="70" x=".25" y=".35"/><path d="m41 29.39c-.57.38-.89.14-.7-.52l.7-2.49c.1644987-.7435626-.0530994-1.5201628-.58-2.07l-1.76-1.65c-.5-.47-.36-.85.33-.85h2.56c.7355133-.0328333 1.3806457-.5009477 1.64-1.19l.91-2.71c.21-.66.56-.66.77 0l.86 2.74c.2534341.6960988.8829359 1.1857113 1.62 1.26l2.65.09c.68 0 .81.41.27.85l-2.05 1.68c-.5504542.5080641-.7999471 1.2641034-.66 2l.55 2.23c.16.67-.17.91-.74.53l-2.06-1.29c-.6388013-.38889-1.4411987-.38889-2.08 0zm1 4.59h-.05c-.5633488.2750738-1.1487237.5025337-1.75.68-5.7684127 1.7129098-11.8336457-1.5726113-13.55-7.34l-.06-.2c-1.1739378-3.9796188-.0704105-8.2824842 2.8739081-11.2059211 2.9443187-2.923437 7.2549292-3.9963113 11.2260919-2.7940789.5898203.1940024 1.1619165.4382306 1.71.73h.05c.1783302.0587853.3728608-.0214926.4578321-.188936.0849712-.1674433.034905-.3718451-.1178321-.481064-1.3789268-1.216751-2.9919109-2.1389424-4.74-2.71-4.2131243-1.30623318-8.7950497-.55956741-12.3754864 2.0166963-3.5804366 2.5762637-5.7443213 6.6834712-5.8445136 11.0933037-.028345 1.3913346.1468402 2.7793408.52 4.12 1.2487979 4.4725156 4.6751378 8.0098445 9.1055843 9.4005404 4.4304466 1.390696 9.2636711.4460049 12.8444157-2.5105404.145293-.1050293.1974139-.2973192.1250494-.4613453-.0723645-.1640262-.2495261-.255162-.4250494-.2186547z" fill="#fff"/></g></svg>