<svg height="48" viewBox="0 0 71 48" width="71" xmlns="http://www.w3.org/2000/svg"><g fill="none"><path d="m64.51.71h-55.33l-8.75 8.58v32.71c.49388474 3.2419958 3.28060151 5.6378925 6.56 5.64h56.71c3.6671707 0 6.64-2.9728293 6.64-6.64v-33.7c-.0002069-3.35376933-2.501278-6.18088055-5.83-6.59z" fill="#3bafda"/><path d="m25.4.71h-18.4c-3.63980479.03837356-6.57020228 2.99999294-6.57 6.64v17.33h25z" fill="#4658a9"/><path d="m11 18.11v6.56h3.9v-6.67l6.71 6.71h3.82v-3l-7-7h7v-4h-7l7-7v-3h-3.83l-6.7 6.7v-6.7h-3.9v6.56l-6.16-6.16c-1.56329281.56647757-2.85814249 1.69724162-3.63 3.17l6.41 6.41h-7.16v4h7.16l-7.16 7.16v2.83h4z" fill="#fff"/><path d="m12 15.37v9.31h1.9v-9.45l9.45 9.45h2.08v-1.23l-9.78-9.78h9.78v-1.95h-9.78l9.78-9.78v-1.23h-2.09l-9.45 9.45v-9.45h-1.89v9.29l-8.33-8.34c-.6736073.40866358-1.26948293.93344041-1.76 1.55l8.49 8.49h-9.93v1.95h9.93l-9.93 9.93v1.09h2.23z" fill="#ec5463"/><g fill="#ffce54"><path d="m50.55 24.48c-.26.18-.41.08-.33-.23l.27-1.15c.0685853-.3410798-.0450316-.6932923-.3-.93l-.83-.73c-.24-.21-.18-.38.14-.39h1.17c.335561-.026572.6228539-.2508966.73-.57l.37-1.25c.09-.3.25-.31.35 0l.44 1.23c.1298695.3158942.4290613.5296026.77.55h1.19c.31 0 .38.18.14.38l-.9.8c-.2441104.2428415-.3461148.5941899-.27.93l.29 1c.09.3-.06.42-.33.25l-1-.6c-.3049725-.1944592-.6950275-.1944592-1 0z"/><path d="m56.25 22.44c-.26.18-.41.08-.33-.23l.27-1.15c.0685853-.3410798-.0450316-.6932923-.3-.93l-.83-.73c-.24-.21-.18-.38.14-.39h1.17c.335561-.026572.6228539-.2508966.73-.57l.37-1.25c.09-.3.25-.31.35 0l.44 1.23c.1298695.3158942.4290613.5296026.77.55h1.19c.31 0 .38.18.14.38l-.9.8c-.2441104.2428415-.3461148.5941899-.27.93l.29 1c.09.3-.06.42-.33.25l-1-.6c-.3049725-.1944592-.6950275-.1944592-1 0z"/><path d="m55.06 34.35c-.26.18-.41.08-.33-.23l.27-1.12c.0685853-.3410798-.0450316-.6932923-.3-.93l-.83-.73c-.24-.21-.18-.38.14-.39h1.17c.335561-.026572.6228539-.2508966.73-.57l.37-1.25c.09-.3.25-.31.35 0l.44 1.23c.1298695.3158942.4290613.5296026.77.55h1.16c.31 0 .38.18.14.38l-.9.8c-.2441104.2428415-.3461148.5941899-.27.93l.29 1c.09.3-.06.42-.33.25l-1-.6c-.3049725-.1944592-.6950275-.1944592-1 0z"/><path d="m61 17.77c-.26.18-.41.08-.33-.23l.27-1.15c.0685853-.3410798-.0450316-.6932923-.3-.93l-.83-.73c-.24-.21-.18-.38.14-.39h1.17c.335561-.026572.6228539-.2508966.73-.57l.37-1.25c.09-.3.25-.31.35 0l.44 1.23c.1298695.3158942.4290613.5296026.77.55h1.19c.31 0 .38.18.14.38l-.9.8c-.2441104.2428415-.3461148.5941899-.27.93l.29 1c.09.3-.06.42-.33.25l-1-.6c-.3049725-.1944592-.6950275-.1944592-1 0z"/><path d="m61 30.52c-.26.18-.41.08-.33-.23l.27-1.15c.0685853-.3410798-.0450316-.6932923-.3-.93l-.83-.73c-.24-.21-.18-.38.14-.39h1.17c.335561-.026572.6228539-.2508966.73-.57l.37-1.25c.09-.3.25-.31.35 0l.44 1.23c.1298695.3158942.4290613.5296026.77.55h1.19c.31 0 .38.18.14.38l-.9.8c-.2441104.2428415-.3461148.5941899-.27.93l.29 1c.09.3-.06.42-.33.25l-1-.6c-.3049725-.1944592-.6950275-.1944592-1 0z"/><path d="m43.57 34c-.26.18-.41.08-.33-.23l.27-1.15c.0685853-.3410798-.0450316-.6932923-.3-.93l-.83-.73c-.24-.21-.18-.38.14-.39h1.17c.335561-.026572.6228539-.2508966.73-.57l.37-1.25c.09-.3.25-.31.35 0l.44 1.23c.1298695.3158942.4290613.5296026.77.55h1.19c.31 0 .38.18.14.38l-.9.8c-.2441104.2428415-.3461148.5941899-.27.93l.29 1c.09.3-.06.42-.33.25l-1-.6c-.3049725-.1944592-.6950275-.1944592-1 0z"/><path d="m50.55 38.85c-.26.18-.41.08-.33-.23l.27-1.15c.0685853-.3410798-.0450316-.6932923-.3-.93l-.83-.73c-.24-.21-.18-.38.14-.39h1.17c.335561-.026572.6228539-.2508966.73-.57l.37-1.25c.09-.3.25-.31.35 0l.44 1.23c.1298695.3158942.4290613.5296026.77.55h1.19c.31 0 .38.18.14.38l-.9.8c-.2441104.2428415-.3461148.5941899-.27.93l.29 1c.09.3-.06.42-.33.25l-1-.6c-.3049725-.1944592-.6950275-.1944592-1 0z"/><path d="m43.57 40.44c-.26.18-.41.08-.33-.23l.27-1.15c.0685853-.3410798-.0450316-.6932923-.3-.93l-.83-.73c-.24-.21-.18-.38.14-.39h1.17c.335561-.026572.6228539-.2508966.73-.57l.37-1.25c.09-.3.25-.31.35 0l.44 1.23c.1298695.3158942.4290613.5296026.77.55h1.19c.31 0 .38.18.14.38l-.9.8c-.2441104.2428415-.3461148.5941899-.27.93l.29 1c.09.3-.06.42-.33.25l-1-.6c-.3049725-.1944592-.6950275-.1944592-1 0z"/><path d="m35.78 42.64c-.26.18-.41.08-.33-.23l.27-1.15c.0685853-.3410798-.0450316-.6932923-.3-.93l-.83-.73c-.24-.21-.18-.38.14-.39h1.17c.335561-.026572.6228539-.2508966.73-.57l.37-1.25c.09-.3.25-.31.35 0l.44 1.23c.1298695.3158942.4290613.5296026.77.55h1.19c.31 0 .38.18.14.38l-.9.8c-.2441104.2428415-.3461148.5941899-.27.93l.29 1c.09.3-.06.42-.33.25l-1-.6c-.3049725-.1944592-.6950275-.1944592-1 0z"/></g></g></svg>