<svg height="48" viewBox="0 0 71 48" width="71" xmlns="http://www.w3.org/2000/svg"><g fill="none"><path d="m70.39 6.48c-.0028092-.41658277-.0463497-.8318925-.13-1.24 0-.19-.09-.38-.14-.56-.1215363-.38070169-.2789077-.74901769-.47-1.1-.06-.1-.12-.2-.18-.29l-.14-.23-.15-.21-.21-.29-.14-.15-.27-.3-.25-.22-.2-.19h-.06-.06c-.2796312-.22122896-.5773435-.41858885-.89-.59l-.26-.13-.12-.06-.17-.08-.2-.07-.3-.11h-.08-.19c-.2499999-.06809394-.5037659-.12151836-.76-.16h-.12c-.2716857-.03829879-.5456331-.05834371-.82-.06h-28.61v24h-35.08v16.64c.00086914.6410145.09864053 1.2782142.29 1.89.06.2.13.3933333.21.58.16123596.3782532.35883033.7399513.59 1.08.11333333.1666667.23666667.33.37.49.2106421.2547387.44138234.4921671.69.71h.05c.25433429.2203258.52512147.4209089.81.6.48629297.3021654 1.01098913.537606 1.56.7h.04c.23664677.0674379.47706395.1208639.72.16h.19c.27174723.037721.54565638.0577631.82.06h57.27c.2743717-.0015356.5483271-.0215811.82-.06h.12c.256214-.038593.5099736-.0920161.76-.16h.19.08l.3-.11.2-.07.15-.07.21-.1.2-.09.28-.17.2-.12.19-.14.18-.13.12-.09.1-.09c.2745473-.2348256.5287831-.4924067.76-.77l.21-.29.15-.2.14-.23c.06-.1.12-.19.18-.29.1910923-.3509823.3484637-.7192983.47-1.1 0-.16.09-.32.12-.48v-.11c.0830046-.4048317.1265418-.8167609.13-1.23 0 0 0 0 0-.05v-34.72z" fill="#ed5565"/><path d="m35.47.11h-28.72c-.33517794.00372519-.66954317.03381806-1 .09h-.15c-.31254951.05993945-.62009934.14351278-.92.25l-.17.06c-.29284968.11209598-.5769652.2457974-.85.4l-.12.07c-.51862714.29896781-.98757107.67682191-1.39 1.12l-.14.15c-.18002754.20254977-.34702932.41631206-.5.64-.71199105 1.05056833-1.09175466 2.29089717-1.09 3.56l-.00000605 17.64h35.08000605c-.02-7.9866667-.03-15.98-.03-23.98z" fill="#4758a9"/><path d="m23.68 14.12c.0134282-.3107292.0953836-.6146474.24-.89l.4-.71c.1301282-.2578455.1301282-.5621545 0-.82l-.42-.73c-.1389787-.2739727-.2206417-.5734036-.24-.88v-.84c-.0193419-.28738899-.1707572-.549596-.41-.71l-.71-.4c-.2641953-.16326039-.4867396-.38580467-.65-.65l-.41-.71c-.1582077-.24157855-.4216858-.39372788-.71-.41h-.84c-.3104798-.01502858-.6140584-.09689246-.89-.24l-.72-.42c-.2613238-.13030535-.5686762-.13030535-.83 0l-.7.41c-.274983.14555724-.5791173.22757097-.89.24h-.81c-.2883142.01627212-.5517923.16842145-.71.41l-.42.73c-.165479.26243138-.3875686.48452098-.65.65l-.72.42c-.2427892.1570599-.3953271.42121094-.41.71v.82c-.0114584.3066134-.0899663.6069915-.23.88l-.41.71c-.1301282.2578455-.1301282.5621545 0 .82l.42.73c.1446164.2753526.2265718.5792708.24.89v.87c.0178279.2878476.1696032.5506781.41.71l.71.4c.2641953.1632604.4867396.3858047.65.65l.41.71c.1582077.2415786.4216858.3937279.71.41h.84c.3104798.0150286.6140584.0968925.89.24l.73.42c.2578455.1301282.5621545.1301282.82 0l.7-.41c.275473-.1443088.5793213-.2262454.89-.24h.81c.2883142-.0162721.5517923-.1684214.71-.41l.42-.73c.1652119-.2626446.3873554-.4847881.65-.65l.73-.42c.2389807-.1592878.3875889-.4230674.4-.71v-.81z" fill="#fff"/></g></svg>