<svg height="48" viewBox="0 0 71 48" width="71" xmlns="http://www.w3.org/2000/svg"><g fill="none"><rect fill="#4a89dc" height="47" rx="6.36" width="70" x=".63" y=".13"/><path d="m65 .17c-.2331597-.01273013-.4668403-.01273013-.7 0h-57.3c-3.51253101 0-6.36 2.84746899-6.36 6.36v34.27l28-11.64z" fill="#57a863"/><path d="m70.63 6.49c-.005193-3.36889265-2.6365044-6.14931174-6-6.34l-64 40.72c.0546202 3.4734169 2.8861537 6.2604294 6.36 6.26h.57l63.07-40.13z" fill="#434a54"/><g fill="#ffce54"><path d="m70.52 5.32-65.34 41.54c.58716255.1767849 1.19680543.2677261 1.81.27h3.36l60.28-38.32v-2.31c.0000237-.39589429-.0368018-.79093147-.11-1.18z"/><path d="m.87 42.49 65.85-41.87c-.7791845-.32553249-1.6155503-.49212569-2.46-.49h-2.36l-61.28 39v1.67c.00694992.572013.09104171 1.1404735.25 1.69z"/></g></g></svg>