<svg height="48" viewBox="0 0 71 48" width="71" xmlns="http://www.w3.org/2000/svg"><g fill="none"><path d="m0 41.32c0 3.512531 2.84746899 6.36 6.36 6.36h57.27c3.512531 0 6.36-2.847469 6.36-6.36v-1.47h-69.99z" fill="#ed5565"/><path d="m.01 32.01h70v7.83h-70z" fill="#f6bb42"/><path d="m.01 24.18h70v7.83h-70z" fill="#434a54"/><path d="m.01 16.35h70v7.83h-70z" fill="#ed5565"/><path d="m.01 8.51h70v7.83h-70z" fill="#f6bb42"/><path d="m63.64.68h-57.27c-3.50086866-.00557373-6.34798637 2.81919612-6.37 6.32v1.47h70v-1.47c-.0219935-3.49689999-2.8630309-6.32006916-6.36-6.32z" fill="#434a54"/><circle cx="35.01" cy="24.18" fill="#fff" r="7.83"/></g></svg>