<svg height="48" viewBox="0 0 71 48" width="71" xmlns="http://www.w3.org/2000/svg"><g fill="none"><path d="m7 47.61h57.77c2.3022252-.1840493 4.3434298-1.551164 5.39-3.61h-68.56c1.04839458 2.0617137 3.09410636 3.4293099 5.4 3.61z" fill="#ed5565"/><path d="m.91 40.38v1.34c.08764431.7915386.31803494 1.5606368.68 2.27h68.55c.3619651-.7093632.5923557-1.4784614.68-2.27v-1.34z" fill="#fff"/><path d="m.91 36.77h69.92v3.61h-69.92z" fill="#ed5565"/><path d="m.91 33.16h69.92v3.61h-69.92z" fill="#fff"/><path d="m.91 29.55h69.92v3.61h-69.92z" fill="#ed5565"/><path d="m.91 25.94h69.92v3.61h-69.92z" fill="#fff"/><path d="m.91 22.33h69.92v3.61h-69.92z" fill="#ed5565"/><path d="m.91 18.72h69.92v3.61h-69.92z" fill="#fff"/><path d="m.91 15.11h69.92v3.61h-69.92z" fill="#ed5565"/><path d="m.91 11.49h69.92v3.61h-69.92z" fill="#fff"/><path d="m.91 7.88h69.92v3.61h-69.92z" fill="#ed5565"/><path d="m70.83 7.88v-1.34c-.0864584-.79496203-.3168797-1.56755114-.68-2.28h-68.55c-.36312025.71244886-.59354157 1.48503797-.68 2.28v1.34z" fill="#fff"/><path d="m64.76.66h-57.76c-2.30222516.18404926-4.34342976 1.55116403-5.39 3.61h68.55c-1.0483946-2.06171366-3.0941064-3.42930986-5.4-3.61z" fill="#ed5565"/><path d="m34.09 25.94v-25.28h-27.09c-3.17380497.25408379-5.72052034 2.72527876-6.07 5.89v19.39z" fill="#4a89dc"/><g fill="#fff"><path d="m5.02 3.72-.27.84h-.88l.71.51-.27.84.71-.52.71.52-.27-.84.71-.51h-.88z"/><path d="m5.02 7.96-.27.84h-.88l.71.52-.27.83.71-.51.71.51-.27-.83.71-.52h-.88z"/><path d="m5.02 12.2-.27.84h-.88l.71.52-.27.84.71-.52.71.52-.27-.84.71-.52h-.88z"/><path d="m5.02 16.45-.27.83h-.88l.71.52-.27.84.71-.52.71.52-.27-.84.71-.52h-.88z"/><path d="m5.29 21.52-.27-.83-.27.83h-.88l.71.52-.27.84.71-.52.71.52-.27-.84.71-.52z"/><path d="m7.51 5.84-.27.84h-.88l.71.52-.27.83.71-.52.72.52-.27-.83.71-.52h-.88z"/><path d="m7.51 10.08-.27.84h-.88l.71.52-.27.83.71-.51.72.51-.27-.83.71-.52h-.88z"/><path d="m7.51 14.33-.27.83h-.88l.71.52-.27.84.71-.52.72.52-.27-.84.71-.52h-.88z"/><path d="m7.79 19.4-.28-.83-.27.83h-.88l.71.52-.27.84.71-.52.72.52-.27-.84.71-.52z"/><path d="m10.01 3.72-.27.84h-.88l.71.51-.27.84.71-.52.71.52-.27-.84.71-.51h-.88z"/><path d="m10.01 7.96-.27.84h-.88l.71.52-.27.83.71-.51.71.51-.27-.83.71-.52h-.88z"/><path d="m10.01 12.2-.27.84h-.88l.71.52-.27.84.71-.52.71.52-.27-.84.71-.52h-.88z"/><path d="m10.01 16.45-.27.83h-.88l.71.52-.27.84.71-.52.71.52-.27-.84.71-.52h-.88z"/><path d="m10.28 21.52-.27-.83-.27.83h-.88l.71.52-.27.84.71-.52.71.52-.27-.84.71-.52z"/><path d="m12.5 5.84-.27.84h-.88l.71.52-.27.83.71-.52.72.52-.27-.83.71-.52h-.88z"/><path d="m12.5 10.08-.27.84h-.88l.71.52-.27.83.71-.51.72.51-.27-.83.71-.52h-.88z"/><path d="m12.5 14.33-.27.83h-.88l.71.52-.27.84.71-.52.72.52-.27-.84.71-.52h-.88z"/><path d="m12.78 19.4-.28-.83-.27.83h-.88l.71.52-.27.84.71-.52.72.52-.27-.84.71-.52z"/><path d="m15 3.72-.27.84h-.88l.71.51-.27.84.71-.52.71.52-.27-.84.71-.51h-.88z"/><path d="m15 7.96-.27.84h-.88l.71.52-.27.83.71-.51.71.51-.27-.83.71-.52h-.88z"/><path d="m15 12.2-.27.84h-.88l.71.52-.27.84.71-.52.71.52-.27-.84.71-.52h-.88z"/><path d="m15 16.45-.27.83h-.88l.71.52-.27.84.71-.52.71.52-.27-.84.71-.52h-.88z"/><path d="m15.27 21.52-.27-.83-.27.83h-.88l.71.52-.27.84.71-.52.71.52-.27-.84.71-.52z"/><path d="m17.49 5.84-.27.84h-.88l.71.52-.27.83.71-.52.72.52-.28-.83.72-.52h-.88z"/><path d="m17.49 10.08-.27.84h-.88l.71.52-.27.83.71-.51.72.51-.28-.83.72-.52h-.88z"/><path d="m17.49 14.33-.27.83h-.88l.71.52-.27.84.71-.52.72.52-.28-.84.72-.52h-.88z"/><path d="m17.77 19.4-.28-.83-.27.83h-.88l.71.52-.27.84.71-.52.72.52-.28-.84.72-.52z"/><path d="m19.99 3.72-.27.84h-.88l.71.51-.27.84.71-.52.71.52-.27-.84.71-.51h-.88z"/><path d="m19.99 7.96-.27.84h-.88l.71.52-.27.83.71-.51.71.51-.27-.83.71-.52h-.88z"/><path d="m19.99 12.2-.27.84h-.88l.71.52-.27.84.71-.52.71.52-.27-.84.71-.52h-.88z"/><path d="m19.99 16.45-.27.83h-.88l.71.52-.27.84.71-.52.71.52-.27-.84.71-.52h-.88z"/><path d="m20.26 21.52-.27-.83-.27.83h-.88l.71.52-.27.84.71-.52.71.52-.27-.84.71-.52z"/><path d="m22.48 5.84-.27.84h-.88l.71.52-.27.83.71-.52.72.52-.28-.83.72-.52h-.88z"/><path d="m22.48 10.08-.27.84h-.88l.71.52-.27.83.71-.51.72.51-.28-.83.72-.52h-.88z"/><path d="m22.48 14.33-.27.83h-.88l.71.52-.27.84.71-.52.72.52-.28-.84.72-.52h-.88z"/><path d="m22.76 19.4-.28-.83-.27.83h-.88l.71.52-.27.84.71-.52.72.52-.28-.84.72-.52z"/><path d="m24.98 3.72-.27.84h-.88l.71.51-.27.84.71-.52.71.52-.27-.84.71-.51h-.88z"/><path d="m24.98 7.96-.27.84h-.88l.71.52-.27.83.71-.51.71.51-.27-.83.71-.52h-.88z"/><path d="m24.98 12.2-.27.84h-.88l.71.52-.27.84.71-.52.71.52-.27-.84.71-.52h-.88z"/><path d="m24.98 16.45-.27.83h-.88l.71.52-.27.84.71-.52.71.52-.27-.84.71-.52h-.88z"/><path d="m25.25 21.52-.27-.83-.27.83h-.88l.71.52-.27.84.71-.52.71.52-.27-.84.71-.52z"/><path d="m27.47 5.84-.27.84h-.88l.71.52-.27.83.71-.52.72.52-.28-.83.72-.52h-.88z"/><path d="m27.47 10.08-.27.84h-.88l.71.52-.27.83.71-.51.72.51-.28-.83.72-.52h-.88z"/><path d="m27.47 14.33-.27.83h-.88l.71.52-.27.84.71-.52.72.52-.28-.84.72-.52h-.88z"/><path d="m27.75 19.4-.28-.83-.27.83h-.88l.71.52-.27.84.71-.52.72.52-.28-.84.72-.52z"/><path d="m29.53 5.07-.27.84.71-.52.71.52-.27-.84.71-.51h-.88l-.27-.84-.27.84h-.88z"/><path d="m29.97 7.96-.27.84h-.88l.71.52-.27.83.71-.51.71.51-.27-.83.71-.52h-.88z"/><path d="m29.97 12.2-.27.84h-.88l.71.52-.27.84.71-.52.71.52-.27-.84.71-.52h-.88z"/><path d="m29.97 16.45-.27.83h-.88l.71.52-.27.84.71-.52.71.52-.27-.84.71-.52h-.88z"/><path d="m30.24 21.52-.27-.83-.27.83h-.88l.71.52-.27.84.71-.52.71.52-.27-.84.71-.52z"/></g></g></svg>