<svg height="47" viewBox="0 0 71 47" width="71" xmlns="http://www.w3.org/2000/svg"><g fill="none"><circle cx="34.08" cy="23.53" fill="#fff" r="7.83"/><path d="m70.39 40.39v-2.86h-70.00000157l.00000157 2.86c-.00217167 3.1753852 2.24417218 5.9078781 5.36 6.52h59.25c3.1277548-.5995284 5.3893858-3.3353047 5.39-6.52z" fill="#4758a9"/><path d="m.39 28.15h70v9.37h-70z" fill="#fff"/><path d="m.39 18.78h70v9.37h-70z" fill="#4758a9"/><path d="m.39 9.4h70v9.37h-70z" fill="#fff"/><path d="m.39 6.67v2.73h70v-2.73c0-3.66717074-2.9728293-6.64-6.64-6.64h-56.75c-3.65544958.01651575-6.61003731 2.98451311-6.61 6.64z" fill="#4758a9"/><path d="m28.51 0h-21.51c-3.66717074 0-6.64 2.97282926-6.64 6.64v21.48h28.12z" fill="#fff"/><path d="m22.85 17c.0177302-.4496753.1337855-.8900027.34-1.29l.6-1c.189113-.3776477.189113-.8223523 0-1.2l-.61-1.06c-.2107962-.4023421-.3302989-.8462093-.35-1.3v-1.23c-.0354073-.40792058-.2567323-.77679567-.6-1l-1-.59c-.3844135-.24077569-.7092243-.5655865-.95-.95l-.59-1c-.2232043-.34326768-.5920794-.56459274-1-.6h-1.23c-.4534925-.02161933-.8969528-.14101249-1.3-.35l-1.06-.61c-.3772697-.19070542-.8227303-.19070542-1.2 0l-1 .6c-.3982075.21219341-.8391507.33182917-1.29.35h-1.31c-.42501787.02328335-.8141622.24565154-1.05.6l-.61 1.06c-.23755091.40044624-.56225406.74223903-.95 1l-1.06.62c-.33946366.22535918-.55689603.59388861-.59 1v1.19c-.01773017.4496753-.13378546.8900027-.34 1.29l-.6 1c-.18911298.3776477-.18911298.8223523 0 1.2l.62 1.06c.20968925.3991955.32916906.8395639.35 1.29v1.23c.03915977.4092613.26402642.7778951.61 1l1 .59c.3844135.2407757.70922431.5655865.95.95l.59 1c.2358378.3543485.62498213.5767167 1.05.6h1.22c.4536904.0203492.8974193.1398146 1.3.35l1.06.61c.3807511.1908733.8292489.1908733 1.21 0l1-.6c.4022214-.2111046.8461588-.3306262 1.3-.35h1.19c.4079206-.0354073.7767957-.2567323 1-.6l.61-1.06c.2375509-.4004462.5622541-.742239.95-1l1.06-.62c.3421673-.2242637.5631402-.5925518.6-1z" fill="#f6d660"/></g></svg>