<svg height="48" viewBox="0 0 71 48" width="71" xmlns="http://www.w3.org/2000/svg"><g fill="none"><rect fill="#ed5565" height="47" rx="6.36" width="70" x=".01" y=".96"/><path d="m63.64 1h-57.27c-3.51253101 0-6.36 2.84746759-6.36 6.35999687v9.63999523h70v-9.63999523c.0000021-1.68851008-.67144-3.30771749-1.866335-4.50073614-1.1948951-1.19301866-2.8151562-1.86191562-4.503665-1.85926073z" fill="#3bafda"/><path d="m14.6 13.32c-1.2594243.6166706-2.7269739.6453354-4.0095185.0783157-1.28254463-.5670198-2.24900421-1.6717729-2.6404815-3.0183157-.26302124-.95919851-.23868166-1.9745067.07-2.92.82909428-2.48795044 3.4951431-3.85652218 6-3.08.2553499.08124337.5029875.18498347.74.31.0882369.02623902.1813285-.02252323.21-.11.0158133-.06652601-.0074337-.1362672-.06-.18-.5995772-.52423182-1.3008603-.91912915-2.06-1.16-1.817165-.59970604-3.81139808-.29667382-5.36839752.8157509-1.55699943 1.11242472-2.49000052 2.90080473-2.51160248 4.8142491-.02017002.59789664.05407528 1.1952338.22 1.77.42839988 1.5151943 1.44182672 2.797798 2.81684976 3.5650345 1.37502303.7672366 2.99873324.9561051 4.51315024.5249655h.07c.7693981-.2278567 1.4863787-.6050361 2.11-1.11.054737-.0422203.0784574-.1133816.06-.18-.0242202-.0811884-.1075319-.1294215-.19-.11zm3.4-.32c.5522847 0 1 .4477153 1 1s-.4477153 1-1 1-1-.4477153-1-1 .4477153-1 1-1zm4 0c.5522847 0 1 .4477153 1 1s-.4477153 1-1 1-1-.4477153-1-1 .4477153-1 1-1zm0-4c.5522847 0 1 .44771525 1 1 0 .5522847-.4477153 1-1 1s-1-.4477153-1-1c0-.55228475.4477153-1 1-1zm4-4c.5522847 0 1 .44771525 1 1s-.4477153 1-1 1-1-.44771525-1-1 .4477153-1 1-1zm0 4c.5522847 0 1 .44771525 1 1 0 .5522847-.4477153 1-1 1s-1-.4477153-1-1c0-.55228475.4477153-1 1-1zm0 4c.5522847 0 1 .4477153 1 1s-.4477153 1-1 1-1-.4477153-1-1 .4477153-1 1-1zm4-8c.5522847 0 1 .44771525 1 1s-.4477153 1-1 1-1-.44771525-1-1 .4477153-1 1-1zm0 4c.5522847 0 1 .44771525 1 1 0 .5522847-.4477153 1-1 1s-1-.4477153-1-1c0-.55228475.4477153-1 1-1zm0 4c.5522847 0 1 .4477153 1 1s-.4477153 1-1 1-1-.4477153-1-1 .4477153-1 1-1zm4-8c.5522847 0 1 .44771525 1 1s-.4477153 1-1 1-1-.44771525-1-1 .4477153-1 1-1zm0 4c.5522847 0 1 .44771525 1 1 0 .5522847-.4477153 1-1 1s-1-.4477153-1-1c0-.55228475.4477153-1 1-1zm0 4c.5522847 0 1 .4477153 1 1s-.4477153 1-1 1-1-.4477153-1-1 .4477153-1 1-1z" fill="#fff"/><path d="m63.64 48h-57.27c-1.69546273.0026994-3.32182265-.6716824-4.5178776-1.8733703-1.19605495-1.2016878-1.86278785-2.8311984-1.8521224-4.5266297l-.00012602-9.6h70.00012602v9.64c0 3.512531-2.847469 6.36-6.36 6.36z" fill="#52c162"/><path d="m.01 18.46h70v12h-70z" fill="#f5f7fa"/></g></svg>