<svg height="49" viewBox="0 0 71 49" width="71" xmlns="http://www.w3.org/2000/svg"><g fill="none"><path d="m23.59.91h-17c-3.51253101 0-6.36 2.84746899-6.36 6.36v34.27c-.01094124.2165285-.01094124.4334715 0 .65.04172164.4206438.12547303.8360508.25 1.24.06.2.13.3933333.21.58.16117908.3782808.35877639.7399843.59 1.08.11333333.1666667.23666667.33.37.49.44344605.5315255.97031101.9874663 1.56 1.35 1.00042199.6417027 2.16151794.9882985 3.35 1h28.71c0-15.6666667 0-31.3333333 0-47z" fill="#ffce54"/><path d="m70.25 7.27c-.0001603-.42995366-.0437144-.85879344-.13-1.28 0-.19-.09-.38-.14-.56-.1215926-.38068073-.2789618-.7489915-.47-1.1-.06-.1-.12-.2-.18-.3l-.14-.23-.15-.2-.21-.29-.14-.15-.27-.3-.25-.22-.2-.19-.13-.09c-.2796312-.22122896-.5773435-.41858885-.89-.59l-.33-.16-.23-.11-.37-.14-.21-.08h-.19c-.553189-.15658954-1.1250815-.2373273-1.7-.24h-28.59v47h28.56c.5749095-.002796 1.1467854-.0835314 1.7-.24h.19l.21-.08.37-.14.23-.11.33-.16h.05c.16-.09.32-.18.47-.29l.24-.18.25-.19.1-.09c.2745798-.2347907.5288185-.4923746.76-.77l.21-.29.15-.2.14-.23c.06-.1.12-.19.18-.3.1910382-.3510085.3484074-.7193193.47-1.1 0-.16.09-.32.12-.48v-.13c.0862856-.4212066.1298397-.8500463.13-1.28v-34.5z" fill="#fff"/><path d="m62.34 19.34-.36.32v-.76l-1-1.14.42-.36c.0770359.0778871.2010018.0834717.2847289.0128269.0837272-.0706448.0990836-.1937826.0352711-.2828269v-.05l.27-.23v.05c.0844947.0787536.2155053.0787536.3 0 .0762286-.0777687.0762286-.2022313 0-.28l-.18-.21.18-.16h.09c.2497789-.0027883.4537404-.2004742.464331-.450044s-.1758901-.4638243-.4245348-.4877634-.4725772.1508013-.5097962.3978074l-.24.19-.11-.13c-.0662742-.0966498-.1983502-.1212742-.295-.055s-.1212742.1983502-.055.295l-.27.23.15-.12c-.5632496-.1129722-1.0611743-.4389517-1.39-.91-.4396885-.7585793-1.4104746-1.0180521-2.17-.58l-.13.09c-.5041283.2797956-.8671254.7589516-1 1.32-.0723141.4504495-.0723141.9095505 0 1.36.07.71.25 1.66.41 2.43l-.49.41c-.0777687-.0762286-.2022313-.0762286-.28 0-.0774606.0811491-.0774606.2088509 0 .29l-.42.36c-.12-.27-.5-1.07-.63-1.46.1973184-.0161124.3700002-.1389083.45-.32.13.18.26-.15.11-.28l.08-.25c.1.09.18-.13.1-.23 0-.11.07-.23.1-.35.0323521.0114382.0676479.0114382.1 0 .0846032.0001654.1547125-.065562.16-.15.0001759-.0790896-.0610862-.1447275-.14-.15l.05-.36s0-.07 0-.11c.18 0 .3-.2 0-.26l.05-.31c.17 0 .23-.2 0-.27v-.39c.112057-.005342.2001273-.0978158.2-.21.0004935-.108598-.0818944-.1996583-.19-.21l.06-.5-.15.08v-.15c.13 0 .15-.22-.07-.28 0-.1066667-.0333333-.2133333-.1-.32.17 0 .22-.22 0-.28h-.11c-.0598468-.138422-.1300458-.2721344-.21-.4.0960844-.0213505.1644478-.106572.1644478-.205s-.0683634-.1836495-.1644478-.205l.07-.5-.54.28.16.24c-.4831825-.6507943-1.1692441-1.1222417-1.95-1.34.0314-.051251.0486526-.10991.05-.17-.001423-.1607632-.1064977-.30221-.26-.35v-.43h.33v-.3h-.33v-.41h-.25v.43h-.31v.3h.31v.44c-.138269.0565163-.228993.19063-.23.34.0013474.06009.0186.118749.05.17-.7729403.2115847-1.4525394.6763882-1.93 1.32l.14-.22-.53-.28.06.5c-.0840256-.018671-.1709371.0158241-.2192886.0870354-.0483514.0712112-.0483514.164718 0 .2359292.0483515.0712113.135263.1057064.2192886.0870354-.08.13-.15.26-.22.4h-.1c-.25.06-.2.33 0 .28 0 .11-.08.21-.11.32-.22.06-.19.27-.07.28v.15l-.15-.08.06.5c-.1041348.0150249-.1810783.1047924-.18.21-.0027195.0530603.0157851.1050221.0514307.1444199.0356456.0393977.0855024.0629932.1385693.0655801v.39c-.24.07-.18.32 0 .27l.05.31c-.27.06-.14.31 0 .26.0044983.0365287.0044983.0734713 0 .11v.36c-.0749501.0100803-.1306748.0743781-.13.15 0 .0828427.0671573.15.15.15.032.0133333.068.0133333.1 0 0 .12.07.24.11.35-.08.1 0 .32.09.23l.09.25c-.15.13 0 .46.1.28.0584896.1530945.1972187.2609949.36.28-.12.37-.52 1.21-.64 1.49l-.42-.36c.0745584-.091127.061127-.2254416-.03-.3s-.2254416-.061127-.3.03l-.49-.41c.16-.77.34-1.72.41-2.43.0723141-.4504495.0723141-.9095505 0-1.36-.1303254-.5647663-.4936361-1.0479694-1-1.33-.7105923-.5069955-1.6970495-.3463056-2.21.36l-.09.13c-.3288257.4710483-.8267504.7970278-1.39.91l.15.13-.27-.23c.0662742-.0966498.0416498-.2287258-.055-.295s-.2287258-.0416498-.295.055l-.11.13-.24-.19c-.037219-.2470061-.2611515-.4217465-.5097962-.3978074s-.4351254.2381936-.4245348.4877634.2145521.4472557.464331.450044h.09l.18.16-.18.21c-.0762286.0777687-.0762286.2022313 0 .28.0844947.0787536.2155053.0787536.3 0v-.05l.27.23v.05c-.0638125.0890443-.0484561.2121821.0352711.2828269.0837271.0706448.207693.0650602.2847289-.0128269l.42.36-1 1.14v.76l-.36-.32-1 1.05v.68l1.39 1.16.94-1.06v-.2l.3-.19.07-.08.53-.34-.07.09v.75l-.39-.31-.93 1.07v.67l1.43 1.21 1.89-2.2c.09.13.2.26.32.4.2640326.2956721.6135184.5018687 1 .59.4955361.1252934 1.0144639.1252934 1.51 0l-1.42-1.21 1.52 1.3c-.0785173.1823791.0009226.3942189.18.48h.08c.2358989.0401508.4587688.1361563.65.28-.1283057.1381359-.1283057.3518641 0 .49l.13.12c-.8188886.6038349-1.5376766 1.3327467-2.13 2.16l-.4.32-.35-.42-.47.4c-.4301888-.231561-.9114518-.3518767-1.4-.35-.5670336.0023081-1.1218024.1652715-1.6.47-.1194745-.1476828-.3000568-.232446-.49-.23-.2677224-.0017152-.507287.1659645-.5973336.4180951s-.0109047.5336342.1973336.7019049c-.3011268.4724481-.4639403 1.0197788-.47 1.58-.0019907.5767988.1686622 1.1409982.49 1.62-.1583355.1216873-.2507961.310307-.25.51 0 .3479394.2820606.63.63.63.2063679-.0023439.3993597-.1025511.52-.27.4703305.295267 1.0146697.4512878 1.57.45.2495113.0019601.4982324-.0282897.74-.09 1.4773249.7237226 3.0794431 1.1581954 4.72 1.28v.87c-.1267836.0247445-.2182796.1358242-.2182796.265s.091496.2402555.2182796.265v.6c-.0790896-.0001759-.1447275.0610862-.15.14.0029945.0436641.02491.0838426.06.11-.0820674.1030415-.1308903.2285861-.14.36 0 .24-.09 2.17-.09 2.33.1897818.012877.3802182.012877.57 0v.08c.4532685.0787861.9167315.0787861 1.37 0l-.07-2.23c-.0142719-.1298836-.0444999-.2575126-.09-.38.0094451-.0326643.0094451-.0673357 0-.1 0-.0773199-.0626801-.14-.14-.14h-.08v-.53c.1267836-.0247445.2182796-.1358242.2182796-.265s-.091496-.2402555-.2182796-.265v-1.12c1.581148-.149618 3.1189261-.6011069 4.53-1.33.3212676.113017.6594336.1705052 1 .17.5553303.0012878 1.0996695-.154733 1.57-.45.1206403.1674489.3136321.2676561.52.27.3495935.0000427.6345376-.2804491.64-.63-.0031117-.2010658-.0991101-.3893702-.26-.51.3213378-.4790018.4919907-1.0432012.49-1.62-.0060597-.5602212-.1688732-1.1075519-.47-1.58.2220626-.1619127.3110378-.4506898.218605-.7095018-.0924329-.258812-.3442137-.4258905-.618605-.4104982-.1899432-.002446-.3705255.0823172-.49.23-.4781976-.3047285-1.0329664-.4676919-1.6-.47-.4885482-.0018767-.9698112.118439-1.4.35l-.47-.4-.35.42-.4-.32c-.5900935-.816755-1.3016567-1.5384352-2.11-2.14l.15-.14c.1283057-.1381359.1283057-.3518641 0-.49h-.06c.1859793-.1380578.4017656-.2305376.63-.27.1937066-.0448212.3173597-.234717.28-.43v-.08l1.52-1.3-1.43 1.21c.4955361.1252934 1.0144639.1252934 1.51 0 .3864816-.0881313.7359674-.2943279 1-.59.12-.14.23-.27.32-.4l1.89 2.2 1.43-1.21v-.66l-.93-1.07-.39.31v-.75l-.07-.09.53.34.07.08.3.19v.21l.94 1.06 1.39-1.16v-.68zm-2.87-1.72-1.23 1c-.06-.24-.12-.49-.17-.73l-.11-1.55c.0207665-.0688779.0475358-.1358011.08-.2l.35.13c.35.48.94 1.23 1.08 1.36zm1.23-1.05-1.21 1zm-6.81 5.54c-.2069154.33641-.4708622.6341962-.78.88-.0590899-.1107936-.1744339-.18-.3-.18-.1358608.0009415-.2596192.0782905-.32.2-.3176523-.2504776-.5884918-.555172-.8-.9-.0239343-.1144885-.1050361-.208637-.2147185-.2492601-.1096824-.0406232-.2325451-.022017-.3252815.0492601l-.09-.08c.3666531-.6847163.6712045-1.4009143.91-2.14h.87.77c.242028.7346548.5464717 1.4472538.91 2.13l-.09.08c-.0913429-.0712375-.21267-.0910685-.3219408-.0526213-.1092709.0384471-.191449.1298818-.2180592.2426213zm-6.7-5.8.35-.13c.0324642.0641989.0592335.1311221.08.2l-.11 1.55c-.05.24-.11.49-.17.73l-1.23-1c.14-.12.73-.87 1.08-1.31zm-2.31.25 1.17 1zm5.19 10.68c.6627036-.2805736 1.2640262-.6882499 1.77-1.2-.4573131 1.2912955-1.2227814 2.451512-2.23 3.38.004876-.0765891.004876-.1534109 0-.23.0030523-.2885087-.0408546-.5755922-.13-.85l.51-.41-.3-.34zm-1.16 4.63c.2370873-.053645.422161-.2389022.475571-.4760426.05341-.2371403-.0343735-.4838519-.225571-.6339574.0620006-.096882.1187491-.1970265.17-.3 1.2418225-.8454859 2.2111374-2.0336784 2.79-3.42v5.54c-1.1001189-.0703688-2.1828243-.3098457-3.21-.71zm4.47-4.81c.6089305 1.4195418 1.6206483 2.6294311 2.91 3.48l.13.22c-.1477727.1297889-.2264537.3211433-.2127199.5173404s.1183065.3747237.2827199.4826596c-.9858466.4301527-2.0373384.6904899-3.11.77zm2.71 1.27c-.0891454.2744078-.1330523.5614913-.13.85v.3c-1.0819133-.9680755-1.8978403-2.1971301-2.37-3.57.5432989.5617568 1.1924474 1.010383 1.91 1.32l.37.34-.3.34z" fill="#ed5565"/></g></svg>