<svg height="48" viewBox="0 0 71 48" width="71" xmlns="http://www.w3.org/2000/svg"><g fill="none"><rect fill="#ffce54" height="47" rx="6.36" width="70" x=".63" y=".71"/><path d="m7 .71c-3.51253101 0-6.36 2.84746899-6.36 6.36v34.27c0 3.512531 2.84746899 6.36 6.36 6.36h13.64v-47z" fill="#4758a9"/><g fill="#57a863"><path d="m64.27.71c3.512531 0 6.36 2.84746899 6.36 6.36v34.27c0 3.512531-2.847469 6.36-6.36 6.36h-13.64v-47z"/><path d="m24.32 22.71 5-4.95 5 4.95-5 4.95z"/><path d="m30.68 29.07 5-4.95 5 4.95-5 4.95z"/><path d="m37 22.71 5-4.95 5 4.95-5 4.95z"/></g></g></svg>