<svg height="48" viewBox="0 0 71 48" width="71" xmlns="http://www.w3.org/2000/svg"><g fill="none"><path d="m.87 7.56v9h70v-9c0-3.66717074-2.9728293-6.64-6.64-6.64h-56.72c-3.66717074 0-6.64 2.97282926-6.64 6.64z" fill="#f6d660"/><path d="m.87 32.26h70v-15.67h-70z" fill="#4758a9"/><path d="m.87 41.27c0 3.6671707 2.97282926 6.64 6.64 6.64h56.72c3.6671707 0 6.64-2.9728293 6.64-6.64v-9h-70z" fill="#ed5565"/><g fill="#fff"><path d="m34.56 23.82c-.22.15-.35.06-.29-.19l.26-.95c.0617884-.2859816-.0334803-.5832198-.25-.78l-.71-.61c-.21-.17-.15-.32.13-.32h1c.2894583-.008664.5455562-.1899025.65-.46l.34-1c.08-.25.22-.25.31 0l.36 1c.1178563.2637104.3717973.4406996.66.46h1c.27 0 .32.15.11.32l-.8.65c-.220435.1899427-.3168153.4867942-.25.77l.24.84c.08.25-.06.34-.28.2l-.84-.51c-.2542495-.144447-.5657505-.144447-.82 0z"/><path d="m30.05 25.65c-.14.24-.29.22-.34 0l-.22-1c-.0823503-.2771574-.3014525-.4924819-.58-.57l-.92-.2c-.26-.06-.28-.21 0-.34l.9-.49c.2479182-.146467.3883595-.4234485.36-.71l-.19-1.07c-.05-.26.07-.32.26-.14l.81.73c.2233966.1796631.5288824.2183322.79.1l.93-.46c.24-.12.36 0 .25.23l-.4.95c-.0955917.2711556-.0383264.5727529.15.79l.6.63c.19.19.11.33-.16.32l-1-.06c-.2964377-.0030904-.57307.1484889-.73.4z"/><path d="m24.27 29c-.25.1-.36 0-.24-.25l.45-.87c.1224979-.2620114.0997656-.568897-.06-.81l-.57-.75c-.16-.21-.08-.35.19-.29l1 .21c.2798318.0452203.5605425-.0756413.72-.31l.55-.93c.14-.23.27-.2.3.06l.13 1.08c.0582675.2863223.2698154.5171018.55.6l1 .25c.26.06.29.22 0 .34l-.92.46c-.2505032.1398448-.4069432.4031218-.41.69l.06.87c0 .26-.14.32-.33.14l-.7-.68c-.2223158-.1931666-.5287817-.2574866-.81-.17z"/><path d="m41.2 24.75c-.15693-.2515111-.4335623-.4030904-.73-.4l-1 .06c-.28 0-.35-.13-.16-.32l.6-.63c.1883264-.2172471.2455917-.5188444.15-.79l-.4-.95c-.11-.25 0-.35.25-.23l.93.46c.2611176.1183322.5666034.0796631.79-.1l.81-.73c.19-.18.32-.11.26.14l-.19 1.07c-.0283595.2865515.1120818.563533.36.71l.9.49c.24.13.22.29 0 .34l-.92.2c-.2785475.0775181-.4976497.2928426-.58.57l-.22 1c-.05.26-.21.28-.34 0z"/><path d="m46.51 28.59c-.2812183-.0874866-.5876842-.0231666-.81.17l-.7.68c-.19.19-.34.13-.33-.14l.06-.87c-.0030568-.2868782-.1594968-.5501552-.41-.69l-.92-.46c-.24-.12-.22-.27 0-.34l1-.25c.2801846-.0828982.4917325-.3136777.55-.6l.13-1.08c0-.26.17-.29.3-.06l.55.93c.1594575.2343587.4401682.3552203.72.31l1-.21c.27-.06.36.07.19.29l-.57.75c-.1597656.241103-.1824979.5479886-.06.81l.45.87c.12.23 0 .35-.24.25z"/></g></g></svg>