<svg height="48" viewBox="0 0 71 48" width="71" xmlns="http://www.w3.org/2000/svg"><g fill="none" fill-rule="evenodd"><g fill-rule="nonzero"><path d="m65 .36h-58.29c-2.94937931.36373371-5.29794254 2.64286116-5.75 5.58v35.72c.49388474 3.2419958 3.28060151 5.6378925 6.56 5.64h56.72c1.7610375 0 3.4499475-.6995694 4.695189-1.944811 1.2452416-1.2452415 1.944811-2.9341515 1.944811-4.695189v-33.66c.0222693-3.38977604-2.5124201-6.25207836-5.88-6.64z" fill="#4658a9"/><path d="m25.84.31h-18.4c-3.63980479.03837356-6.57020228 2.99999294-6.57 6.64v17.33h25z" fill="#4658a9"/><path d="m11.41 17.72v6.56h3.9v-6.71l6.71 6.71h3.82v-3l-7-7h7v-4h-7l7-7v-3h-3.84l-6.7 6.7v-6.7h-3.9v6.56l-6.16-6.16c-1.56329281.56647757-2.85814249 1.69724162-3.63 3.17l6.41 6.41h-7.16v4h7.14l-7.16 7.16v2.83h4z" fill="#fff"/><path d="m12.41 15v9.31h1.9v-9.45l9.45 9.45h2.08v-1.31l-9.78-9.78h9.78v-1.95h-9.78l9.78-9.78v-1.23h-2.09l-9.45 9.45v-9.45h-1.9v9.3l-8.33-8.34c-.6736073.40866358-1.26948293.93344041-1.76 1.55l8.49 8.49h-9.93v1.95h9.93l-9.93 9.93v1.09h2.23z" fill="#ec5463"/><path d="m40.36 13.33 16-.09v14.4c0 1.87-3.12 3.77-8 6.2-5.08-2.62-8-4.21-8-6.23z" fill="#51c161"/><path d="m48.34 34.84c-.1599233.0006435-.3176684-.0370782-.46-.11-5.14-2.65-8.54-4.4-8.58-7.11l.06-14.29c0-.5522847.4477153-1 1-1l16-.09c.265803-.0015368.5212812.1028135.71.29.1871865.1887188.2915368.444197.29.71v14.4c0 2.38-3 4.33-8.6 7.1-.1310483.0635181-.2743886.0976467-.42.1zm-7-20.51-.06 13.28c0 1.43 3.23 3.14 7 5.11 2.43-1.21 7.05-3.58 7-5.06v-13.41z" fill="#fff"/><path d="m40.36 13.33 16-.09v14.4c0 1.87-3.12 3.77-8 6.2-5.08-2.62-8-4.21-8-6.23z" fill="#51c161"/></g><g transform="translate(41 27)"><path d="m1.29 2.19.95-1.39 1 1.39" stroke="#f5bb43" stroke-width=".08"/><g stroke="#51c161" stroke-linecap="round" stroke-linejoin="round" stroke-width=".05"><path d="m2.42 1.68c0 .1049341-.0850659.19-.19.19s-.19-.0850659-.19-.19.0850659-.19.19-.19.19.0850659.19.19z" fill="#fcea83" fill-rule="nonzero"/><path d="m1.46 3.22h1.47c.00990104-.12288617-.04749469-.241504-.15-.31.77-.11.57-.78 1.21-.82.12 0-.34.29-.34.29s-.39.27-.21.41.2-.07.22-.2.62-.22.54-.6-1 .21-1 .21h-.6c0-.07-.2-.34-.38-.34s-.35.34-.35.34h-1.36s0 .35.64.42c.10042144.1441138.24397399.25265353.41.31-.07896709.07435804-.1163517.18277342-.1.29z" fill="#fcea83" fill-rule="nonzero"/><path d="m1.57 2.92h1.22"/><path d="m1 2.2s.1.57.55.71"/><g fill-rule="nonzero"><path d="m.94 2.2c0-.22.13-.26.22-.53s-.22-.24-.15-.41.06-.37-.17-.51c0 .25-.29.48-.29.68s.17.16.15.47 0 .14-.06.31z" fill="#ec5565"/><path d="m2.41.84c0 .09388841-.07611159.17-.17.17s-.17-.07611159-.17-.17.07611159-.17.17-.17.17.07611159.17.17z" fill="#fcea83"/></g></g></g><g transform="translate(41 24)"><path d="m1.23 2.34.95-1.39 1 1.39" stroke="#f5bb43" stroke-width=".08"/><g stroke="#51c161" stroke-linecap="round" stroke-linejoin="round" stroke-width=".05"><path d="m2.37 1.82c0 .1049341-.0850659.19-.19.19s-.19-.0850659-.19-.19.0850659-.19.19-.19c.05039113 0 .09871838.0200178.13435029.05564971s.05564971.08395916.05564971.13435029z" fill="#fcea83" fill-rule="nonzero"/><path d="m1.41 3.36h1.47c.00990104-.12288617-.04749469-.241504-.15-.31.77-.11.57-.78 1.21-.82.12 0-.34.29-.34.29s-.39.27-.21.41.2-.07.22-.2.62-.22.54-.6-1 .21-1 .21h-.6c0-.07-.2-.34-.38-.34s-.35.34-.35.34h-1.36s0 .35.64.42c.10042144.1441138.24397399.25265353.41.31-.07896709.07435804-.1163517.18277342-.1.29z" fill="#fcea83" fill-rule="nonzero"/><path d="m1.52 3.06h1.22"/><path d="m1 2.34s.1.57.55.71"/><g fill-rule="nonzero"><path d="m.88 2.34c0-.22.13-.26.22-.53s-.22-.24-.15-.41.06-.37-.17-.51c0 .25-.29.48-.29.68s.17.16.15.47 0 .14-.06.31z" fill="#ec5565"/><path d="m2.35 1c0 .09388841-.07611159.17-.17.17s-.17-.07611159-.17-.17.07611159-.17.17-.17.17.07611159.17.17z" fill="#fcea83"/></g></g></g><g transform="translate(51 22)"><path d="m1.28 1.74.95-1.39 1 1.39" stroke="#f5bb43" stroke-width=".08"/><g stroke="#51c161" stroke-linecap="round" stroke-linejoin="round" stroke-width=".05"><path d="m2.41 1.22c0 .1049341-.0850659.19-.19.19s-.19-.0850659-.19-.19.0850659-.19.19-.19.19.0850659.19.19z" fill="#fcea83" fill-rule="nonzero"/><path d="m1.45 2.76h1.47c.00990104-.12288617-.04749469-.241504-.15-.31.77-.11.57-.78 1.21-.82.12 0-.34.29-.34.29s-.39.27-.21.41.2-.07.22-.2.62-.22.54-.6-1 .21-1 .21h-.6c0-.07-.2-.34-.38-.34s-.35.34-.35.34h-1.36s0 .35.64.42c.10042144.1441138.24397399.25265353.41.31-.07896709.07435804-.1163517.18277342-.1.29z" fill="#fcea83" fill-rule="nonzero"/><path d="m1.56 2.47h1.22"/><path d="m1 1.75s.1.57.55.71"/><g fill-rule="nonzero"><path d="m.93 1.74c0-.22.13-.26.22-.53s-.22-.24-.15-.41.06-.37-.17-.51c0 .25-.29.48-.29.68s.17.16.15.47 0 .14-.06.31z" fill="#ec5565"/><path d="m2.4.39c0 .09388841-.07611159.17-.17.17s-.17-.07611159-.17-.17.07611159-.17.17-.17.17.07611159.17.17z" fill="#fcea83"/></g></g></g><g transform="translate(41 19)"><path d="m1.47 2 .95-1.39 1 1.39" stroke="#f5bb43" stroke-width=".08"/><g stroke="#51c161" stroke-linecap="round" stroke-linejoin="round" stroke-width=".05"><path d="m2.6 1.44c0 .1049341-.0850659.19-.19.19s-.19-.0850659-.19-.19.0850659-.19.19-.19.19.0850659.19.19z" fill="#fcea83" fill-rule="nonzero"/><path d="m1.64 3h1.47c.00990104-.12288617-.04749469-.241504-.15-.31.77-.11.57-.78 1.21-.82.12 0-.34.29-.34.29s-.39.27-.21.41.2-.07.22-.2.62-.22.54-.6-1 .21-1 .21h-.6c0-.07-.2-.34-.38-.34s-.35.34-.35.34h-1.35s0 .35.64.42c.10042144.1441138.24397399.25265353.41.31-.08264018.07233903-.12387591.18105142-.11.29z" fill="#fcea83" fill-rule="nonzero"/><path d="m1.75 2.69h1.25"/><path d="m1.19 2s.1.57.55.71"/><g fill-rule="nonzero"><path d="m1.12 2c0-.22.13-.26.22-.53s-.22-.24-.15-.41.06-.37-.17-.51c0 .25-.29.48-.29.68s.17.16.15.47 0 .14-.06.31z" fill="#ec5565"/><path d="m2.59.61c0 .09388841-.07611159.17-.17.17s-.17-.07611159-.17-.17.07611159-.17.17-.17.17.07611159.17.17z" fill="#fcea83"/></g></g></g><g transform="translate(41 16)"><path d="m1.49 2.23.95-1.39 1 1.39" stroke="#f5bb43" stroke-width=".08"/><g stroke="#51c161" stroke-linecap="round" stroke-linejoin="round" stroke-width=".05"><path d="m2.62 1.71c0 .1049341-.0850659.19-.19.19s-.19-.0850659-.19-.19.0850659-.19.19-.19.19.0850659.19.19z" fill="#fcea83" fill-rule="nonzero"/><path d="m1.67 3.26h1.47c.00990104-.12288617-.04749469-.241504-.15-.31.77-.11.57-.78 1.21-.82.12 0-.34.29-.34.29s-.39.27-.21.41.2-.07.22-.2.62-.22.54-.6-1 .21-1 .21h-.6c0-.07-.2-.34-.38-.34s-.35.34-.35.34h-1.36s0 .35.64.42c.10042144.1441138.24397399.25265353.41.31-.07896709.07435804-.1163517.18277342-.1.29z" fill="#fcea83" fill-rule="nonzero"/><path d="m1.77 3h1.23"/><path d="m1.21 2.24s.1.57.55.71"/><g fill-rule="nonzero"><path d="m1.14 2.23c0-.22.13-.26.22-.53s-.22-.24-.15-.41.06-.37-.17-.51c0 .25-.29.48-.29.68s.17.16.15.47 0 .14-.06.31z" fill="#ec5565"/><path d="m2.61.88c0 .09388841-.07611159.17-.17.17s-.17-.07611159-.17-.17.07611159-.17.17-.17.17.07611159.17.17z" fill="#fcea83"/></g></g></g><g transform="translate(41 13)"><path d="m1.54 2.46.95-1.39 1 1.39" stroke="#f5bb43" stroke-width=".08"/><g stroke="#51c161" stroke-linecap="round" stroke-linejoin="round" stroke-width=".05"><path d="m2.67 1.94c0 .1049341-.0850659.19-.19.19s-.19-.0850659-.19-.19.0850659-.19.19-.19.19.0850659.19.19z" fill="#fcea83" fill-rule="nonzero"/><path d="m1.72 3.49h1.47c.00990104-.12288617-.04749469-.241504-.15-.31.77-.11.57-.78 1.21-.82.12 0-.34.29-.34.29s-.39.27-.21.41.2-.07.22-.2.62-.22.54-.6-1 .21-1 .21h-.6c0-.07-.2-.34-.38-.34s-.35.34-.35.34h-1.36s0 .35.64.42c.10042144.1441138.24397399.25265353.41.31-.07896709.07435804-.1163517.18277342-.1.29z" fill="#fcea83" fill-rule="nonzero"/><path d="m1.82 3.19h1.18"/><path d="m1.26 2.47s.1.57.55.71"/><g fill-rule="nonzero"><path d="m1.19 2.46c0-.22.13-.26.22-.53s-.22-.24-.15-.41.06-.37-.17-.51c0 .25-.29.48-.29.68s.17.16.15.47 0 .14-.06.31z" fill="#ec5565"/><path d="m2.66 1.11c0 .09388841-.07611159.17-.17.17s-.17-.07611159-.17-.17.07611159-.17.17-.17.17.07611159.17.17z" fill="#fcea83"/></g></g></g><g transform="translate(51 13)"><path d="m1.35 2.5.95-1.39 1 1.39" stroke="#f5bb43" stroke-width=".08"/><g stroke="#51c161" stroke-linecap="round" stroke-linejoin="round" stroke-width=".05"><path d="m2.49 2c0 .1049341-.0850659.19-.19.19s-.19-.0850659-.19-.19.0850659-.19.19-.19c.05039113 0 .09871838.0200178.13435029.05564971s.05564971.08395916.05564971.13435029z" fill="#fcea83" fill-rule="nonzero"/><path d="m1.53 3.53h1.47c.00990104-.12288617-.04749469-.241504-.15-.31.77-.11.57-.78 1.21-.82.12 0-.34.29-.34.29s-.39.27-.21.41.2-.07.22-.2.62-.22.54-.6-1 .21-1 .21h-.6c0-.07-.2-.34-.38-.34s-.35.34-.35.34h-1.36s0 .35.64.42c.10042144.1441138.24397399.25265353.41.31-.07896709.07435804-.1163517.18277342-.1.29z" fill="#fcea83" fill-rule="nonzero"/><path d="m1.63 3.23h1.22"/><path d="m1.08 2.51s.1.57.55.71"/><g fill-rule="nonzero"><path d="m1 2.51c0-.22.13-.26.22-.53s-.22-.24-.15-.41.06-.37-.17-.51c0 .25-.29.48-.29.68s.17.16.15.47 0 .14-.06.31z" fill="#ec5565"/><path d="m2.47 1.15c0 .09388841-.07611159.17-.17.17s-.17-.07611159-.17-.17.07611159-.17.17-.17.17.07611159.17.17z" fill="#fcea83"/></g></g></g><g transform="translate(51 16)"><path d="m1.26 2.22.95-1.39 1 1.39" stroke="#f5bb43" stroke-width=".08"/><g stroke="#51c161" stroke-linecap="round" stroke-linejoin="round" stroke-width=".05"><path d="m2.4 1.71c0 .1049341-.0850659.19-.19.19s-.19-.0850659-.19-.19.0850659-.19.19-.19.19.0850659.19.19z" fill="#fcea83" fill-rule="nonzero"/><path d="m1.44 3.25h1.47c.00990104-.12288617-.04749469-.241504-.15-.31.77-.11.57-.78 1.21-.82.12 0-.34.29-.34.29s-.39.27-.21.41.2-.07.22-.2.62-.22.54-.6-1 .21-1 .21h-.6c0-.07-.2-.34-.38-.34s-.35.34-.35.34h-1.35s0 .35.64.42c.10042144.1441138.24397399.25265353.41.31-.08264018.07233903-.12387591.18105142-.11.29z" fill="#fcea83" fill-rule="nonzero"/><path d="m1.54 3h1.22"/><path d="m1 2.23s.1.57.55.71"/><g fill-rule="nonzero"><path d="m.91 2.23c0-.22.13-.26.22-.53s-.22-.24-.15-.41.06-.37-.17-.51c0 .25-.29.48-.29.68s.17.16.15.47 0 .14-.06.31z" fill="#ec5565"/><path d="m2.38.87c0 .09388841-.07611159.17-.17.17s-.17-.07611159-.17-.17.07611159-.17.17-.17.17.07611159.17.17z" fill="#fcea83"/></g></g></g><g transform="translate(51 19)"><path d="m1.14 2 .95-1.39 1 1.39" stroke="#f5bb43" stroke-width=".08"/><g stroke="#51c161" stroke-linecap="round" stroke-linejoin="round" stroke-width=".05"><path d="m2.28 1.48c0 .1049341-.0850659.19-.19.19s-.19-.0850659-.19-.19.0850659-.19.19-.19.19.0850659.19.19z" fill="#fcea83" fill-rule="nonzero"/><path d="m1.32 3h1.47c.00990104-.12288617-.04749469-.241504-.15-.31.77-.11.57-.78 1.21-.82.12 0-.34.29-.34.29s-.39.27-.21.41.2-.07.22-.2.62-.22.54-.6-1 .21-1 .21h-.6c0-.07-.2-.34-.38-.34s-.35.34-.35.34h-1.36s0 .35.64.42c.10042144.1441138.24397399.25265353.41.31-.07896709.07435804-.1163517.18277342-.1.29z" fill="#fcea83" fill-rule="nonzero"/><path d="m1.42 2.73h1.22"/><path d="m.86 2s.1.57.55.71"/><g fill-rule="nonzero"><path d="m.79 2c0-.22.13-.26.22-.53s-.22-.24-.15-.41.06-.37-.17-.51c0 .25-.29.48-.29.68s.17.16.15.47 0 .14-.06.31z" fill="#ec5565"/><path d="m2.26.65c0 .09388841-.07611159.17-.17.17s-.17-.07611159-.17-.17.07611159-.17.17-.17.17.07611159.17.17z" fill="#fcea83"/></g></g></g><path d="m52.26 29.22.95-1.39 1 1.39" stroke="#f5bb43" stroke-width=".1"/><g stroke="#51c161" stroke-linecap="round" stroke-linejoin="round" stroke-width=".06"><path d="m53.4 28.7c0 .1049341-.0850659.19-.19.19s-.19-.0850659-.19-.19.0850659-.19.19-.19c.0503911 0 .0987184.0200178.1343503.0556497s.0556497.0839592.0556497.1343503z" fill="#fcea83" fill-rule="nonzero"/><path d="m52.44 30.25h1.47c.009901-.1228862-.0474947-.241504-.15-.31.77-.11.57-.78 1.21-.82.12 0-.34.29-.34.29s-.39.27-.21.41.2-.07.22-.2.62-.22.54-.6-1 .21-1 .21h-.6c0-.07-.2-.34-.38-.34s-.35.34-.35.34h-1.35s0 .35.64.42c.1004214.1441138.243974.2526535.41.31-.0826402.072339-.1238759.1810514-.11.29z" fill="#fcea83" fill-rule="nonzero"/><path d="m52.54 30h1.22"/><path d="m52 29.23s.1.57.55.71"/><path d="m51.91 29.22c0-.22.13-.26.22-.53s-.22-.24-.15-.41.06-.37-.17-.51c0 .25-.29.48-.29.68s.17.16.15.47 0 .14-.06.31z" fill="#ec5565" fill-rule="nonzero"/><path d="m53.38 27.87c0 .0938884-.0761116.17-.17.17s-.17-.0761116-.17-.17.0761116-.17.17-.17c.0450868 0 .088327.0179107.1202082.0497918.0318811.0318812.0497918.0751214.0497918.1202082z" fill="#fcea83" fill-rule="nonzero"/></g><g transform="translate(51 24)"><path d="m1.25 2.47.95-1.39 1 1.39" stroke="#f5bb43" stroke-width=".08"/><g stroke="#51c161" stroke-linecap="round" stroke-linejoin="round" stroke-width=".05"><path d="m2.38 2c0 .1049341-.0850659.19-.19.19s-.19-.0850659-.19-.19.0850659-.19.19-.19.19.0850659.19.19z" fill="#fcea83" fill-rule="nonzero"/><path d="m1.42 3.5h1.47c.00990104-.12288617-.04749469-.241504-.15-.31.77-.11.57-.78 1.21-.82.12 0-.34.29-.34.29s-.39.27-.21.41.2-.07.22-.2.62-.22.54-.6-1 .21-1 .21h-.6c0-.07-.2-.34-.38-.34s-.35.34-.35.34h-1.36s0 .35.64.42c.10042144.1441138.24397399.25265353.41.31-.07896709.07435804-.1163517.18277342-.1.29z" fill="#fcea83" fill-rule="nonzero"/><path d="m1.53 3.2h1.22"/><path d="m1 2.48s.1.57.55.71"/><g fill-rule="nonzero"><path d="m.9 2.47c0-.22.13-.26.22-.53s-.22-.24-.15-.41.06-.37-.17-.51c0 .25-.29.48-.29.68s.17.16.15.47 0 .14-.06.31z" fill="#ec5565"/><path d="m2.37 1.12c0 .09388841-.07611159.17-.17.17s-.17-.07611159-.17-.17.07611159-.17.17-.17.17.07611159.17.17z" fill="#fcea83"/></g></g></g><g transform="translate(43 22)"><path d="m1.26 1.92.95-1.39 1 1.39" stroke="#f5bb43" stroke-width=".08"/><g stroke="#51c161" stroke-linecap="round" stroke-linejoin="round" stroke-width=".05"><path d="m2.39 1.4c0 .1049341-.0850659.19-.19.19s-.19-.0850659-.19-.19.0850659-.19.19-.19c.05039113 0 .09871838.0200178.13435029.05564971s.05564971.08395916.05564971.13435029z" fill="#fcea83" fill-rule="nonzero"/><path d="m1.44 2.94h1.47c.00990104-.12288617-.04749469-.241504-.15-.31.77-.11.57-.78 1.21-.82.12 0-.34.29-.34.29s-.39.27-.21.41.2-.07.22-.2.62-.22.54-.6-1 .21-1 .21h-.6c0-.07-.2-.34-.38-.34s-.35.34-.35.34h-1.35s0 .35.64.42c.10042144.1441138.24397399.25265353.41.31-.08264018.07233903-.12387591.18105142-.11.29z" fill="#fcea83" fill-rule="nonzero"/><path d="m1.54 2.65h1.22"/><path d="m1 1.93s.1.57.55.71"/><g fill-rule="nonzero"><path d="m.91 1.92c0-.22.13-.26.22-.53s-.22-.24-.15-.41.06-.37-.17-.51c0 .25-.29.48-.29.68s.17.16.15.47 0 .14-.06.31z" fill="#ec5565"/><path d="m2.38.56c0 .09388841-.07611159.17-.17.17s-.17-.07611159-.17-.17.07611159-.17.17-.17.17.07611159.17.17z" fill="#fcea83"/></g></g></g><g transform="translate(45 13)"><path d="m4.32 17.52s.38.88.82.34.28-.78.28-.78l-1-.53-.29.61z" style="stroke:#fff;stroke-width:.05;fill:#fcea83;fill-rule:nonzero;stroke-linecap:round;stroke-linejoin:round"/><path d="m5.16 17.4s.06 0 .12-.08-.12-.14-.19-.24l-.08.17z" style="stroke:#fff;stroke-width:.05;fill:#ffc6b5;fill-rule:nonzero;stroke-linecap:round;stroke-linejoin:round"/><path d="m2.95 17.17-.86.47s-.42.08-.46 0 0-.16.23-.17.83-.56.83-.56z" style="stroke:#fff;stroke-width:.05;fill:#ffc6b5;fill-rule:nonzero;stroke-linecap:round;stroke-linejoin:round"/><path d="m3 1.88v.31c0 .11-.28.33-.27.39s.14.08.14.08-.05.22 0 .23-.14.29 0 .36c.14461019.09007184.3098347.1417045.48.15.11 0 0 .41 0 .41l-.3.64 1.64-.17-.34-.54s-.16-.11-.12-.41 0-1.7 0-1.7l-1.17-.16z" fill="#ffc6b5" fill-rule="nonzero"/><g stroke="#fff" stroke-linecap="round" stroke-linejoin="round" stroke-width=".05"><g fill-rule="nonzero"><path d="m2.66 4.3c-.32401642.18193894-.52042583.52854378-.51.9-.14.64-.21 1.27-.21 1.27s-.63.71-.82 1-.48.78-.58.91-.52.59-.51.76-.1.92.32 1c.11 0 .45-.87.45-.87s0-.39-.1-.47.25-.33.25-.33l.87-.65c.16-.13.59-.62.59-.62z" fill="#ffc6b5"/><path d="m3.27 3.8s.14.37.45.31c.24355078-.07301736.47094485-.1918053.67-.35h.33c.04 0 .78.75.75 1s-.34.16-.46.31c-.17677979.22795021-.2655306.51195279-.25.8.08285179.25485386.14636524.51559327.19.78 0 .14-.14.18-.14.25s.1.2.1.34-.13.34-.11.48 0 .54 0 .54v1.87c.06192077.0374914.10540879.0990995.12.17 0 .11.72 3.2.72 3.2s0 .1-.11.08.29.48.3.62.37 1.22.36 1.37c-.00884858.1673887-.04255082.3325297-.1.49 0 0 .23.68.19.79s-.48.1-.48.1h-.12s0 .14-.07.15-.71 0-.71 0-.18.28-.29.27-.24-.2-.28-.17.1.21.06.27-.57.17-.68-.08.06-.19 0-.24-.28-.19-.35-.15.19.11.18.21-.23.27-.32.27-.29-.39-.58-.35c-.16705431.0228913-.33127237.063108-.49.12-.15710265.0726382-.32704246.1134238-.5.12-.1084984-.0163329-.19366712-.1015016-.21-.21.04049471-.1381975.07387192-.2783818.1-.42 0-.08-.1-.17-.1-.3.05618952-.1959962.13682314-.3841413.24-.56v-2s-.22 0-.23-.14.34-3.09.39-3.28.19-.87.19-.87-.16.07-.17 0 .48-1.76.48-1.76.08-.84.08-1.06c.00976092-.17653184.00976092-.35346816 0-.53 0 0-.44-.18-.45-.47 0-.45.41-.7.47-.85l.21-.59c.12195005-.25675301.34740131-.44947747.62-.53z" fill="#fff"/><path d="m3.11 17.29s-1 .54-1.18.58-.24-.18-.1-.22c.12502518-.0292851.25203415-.0493391.38-.06-.11816141-.0908587-.2316404-.1876496-.34-.29l.49-.18s.15.28.24.25c.1317019-.0623039.25584258-.1394724.37-.23z" fill="#fcea83"/><path d="m4.56 17.59c.1.13.14.34.36.22s-.11-.36-.11-.36z" fill="#ffc6b5"/><path d="m5 17.57c.05694013.0509288.14305987.0509288.2 0 .1-.1-.19-.3-.19-.3l-.14.16z" fill="#ffc6b5"/></g><path d="m4.65 4.21s-.95.61-.92.82"/><path d="m4.86 4.32s-.21.23-.22.23"/><path d="m5.15 4.58s-.47.38-.39.63"/><path d="m2.94 4.16s-.14.29-.11.38c.12351762.21554533.22406855.44346077.3.68.01936584.12592646.01936584.25407354 0 .38"/><path d="m2.69 4.69c.01431435.13849515.05148472.2736601.11.4.11033296.14074018.19496401.29984654.25.47"/><path d="m2.61 6.11s.28.14.53-.39"/><path d="m3.55 5.34s-.2.52.14.71c.21696725.14700247.48769648.19090451.74.12.10745393-.04099388.21117167-.09117988.31-.15"/><path d="m3.4 6s0 .7 1.05 1.39"/><path d="m3.45 6.64c-.0065057.33944431.13602215.66470017.39.89"/><path d="m3.23 5.91s-.31.91-.55 1"/><path d="m3.14 6.58c-.00248056.2993257-.03599311.59758737-.1.89"/><path d="m3 7.64s.21.27.45.24.33-.3.49-.25c.21073753.10471027.44503856.15294872.68.14"/><path d="m4 8s0 .54.1.59.05.55.05.55"/><path d="m2.74 7.78c-.00049752.23174689-.02394529.46287485-.07.69-.10464975.23664903-.16238351.49135676-.17.75"/><path d="m2.1 9.53c.08136485-.0537417.1582791-.11393547.23-.18"/><path d="m2.43 9.46c-.24327539 1.0215565-.35418479 2.0701544-.33 3.12"/><path d="m2.53 9.56c-.1066437.5735255-.15023625 1.156995-.13 1.74"/><path d="m2.42 9.52.89.06"/><path d="m3.44 9.46c.18128653.08398969.38055006.12178105.58.11"/><path d="m3.33 10.18s0 2.51-.11 3.06"/><path d="m4.64 10.75c.08679497.8098265.23386958 1.6120517.44 2.4"/><path d="m4.1 11c.05336992.7075375.14349157 1.4118215.27 2.11"/><path d="m1.69 13.82c.23971738-.0892726.45539554-.233058.63-.42.34.46.86 0 .86 0s.81.55 1.17-.06c.55.36.83-.05.83-.05s.2.31.35.28"/><path d="m4.65 13.79c.15688505.8935139.49738993 1.7447761 1 2.5"/><path d="m2.51 13.59s.05 1.63.15 2.77"/><path d="m2.44 15.42c-.01194928.3824313-.05205784.7634627-.12 1.14"/><path d="m1.81 16.67s.12.46.7 0 .59.16.62.22.12.52.34.14"/><path d="m3.93 16.43s-.1.95.74.25 1 0 1 .2"/></g><path d="m2.93 1.81c.1179479.03138483.2420521.03138483.36 0 .13-.07.28-.11.38 0s.18.14.18.14-.16.39 0 .44.23 0 .24.1-.14.17-.1.22.12.12.13.16-.1.22-.06.27.13.21.19.21 0 .27.21.2c.10511219-.02713415.17892254-.12144737.18-.23.11454989-.02098423.20955851-.10079147.25-.21.02234923-.09742015.08893455-.17880221.18-.22 0 0 .25-.14-.08-.35 0-1.49-1-1.33-1-1.33s-.12-.27-.31-.23-.2.25-.34.23-.17-.12-.18-.11c-.05605005.08688526-.09979886.18111346-.13.28 0 .05-.37-.07-.34.2s.25.25.24.23z" fill="#9c5100" fill-rule="nonzero"/><g stroke="#fff" stroke-linecap="round" stroke-linejoin="round"><path d="m3.13 2.29h.17c.02 0-.13.04-.17 0z" stroke-width=".09"/><path d="m5.42 4.82c.15219637.43313532.28236303.8736994.39 1.32.08604455.48864653.12954091.98383583.13 1.48-.05.15-.59.86-.66 1s-.45.87-.45.87c-.02913857.23978819-.0759323.47709924-.14.71 0 0 .11.2.1.25s-.31.36-.44.33-.33-.18-.34-.32c-.01693793-.2419168.02065312-.48454988.11-.71.1-.12.59-1.3.63-1.37.18054413-.37655759.3375133-.76397087.47-1.16-.01921847-.24456073-.11750038-.47622521-.28-.66-.34-.95-.2-1.56.48-1.74z" fill="#ffc6b5" fill-rule="nonzero" stroke-width=".05"/><path d="m.47 9.37v.47" stroke-width=".05"/><path d="m0 9.34c.1455831.23366252.23777761.49658762.27.77" stroke-width=".05"/><path d="m4 10.38s.22 0 .22.35c.14-.46.43-.47.43-.47" stroke-width=".05"/></g></g><g transform="translate(45 15)"><g fill-rule="nonzero"><g stroke-linecap="round" stroke-linejoin="round" stroke-width=".05"><path d="m4.32 15.52s.38.88.82.34.28-.78.28-.78l-1-.53-.29.61z" fill="#fcea83" stroke="#fcea83"/><path d="m5.16 15.4s.06 0 .12-.08-.12-.14-.19-.24l-.08.17z" fill="#ffc6b5" stroke="#ffc6b5"/><path d="m2.95 15.17-.86.47s-.42.08-.46 0 0-.16.23-.17.83-.56.83-.56z" fill="#ffc6b5" stroke="#ffc6b5"/><path d="m2.66 2.3c-.32401642.18193894-.52042583.52854378-.51.9-.14.64-.21 1.27-.21 1.27s-.63.71-.82 1-.48.78-.58.91-.52.59-.51.76-.1.92.32 1c.11 0 .45-.87.45-.87s0-.39-.1-.47.25-.33.25-.33l.87-.65c.16-.13.59-.62.59-.62z" fill="#ffc6b5" stroke="#ffc6b5"/></g><path d="m3.27 1.8s.14.37.45.31c.24355078-.07301736.47094485-.1918053.67-.35h.33c.04 0 .78.75.75 1s-.34.16-.46.31c-.17677979.22795021-.2655306.51195279-.25.8.08285179.25485386.14636524.51559327.19.78 0 .14-.14.18-.14.25s.1.2.1.34-.13.34-.11.48 0 .54 0 .54v1.87c.06192077.03749143.10540879.09909947.12.17 0 .11.72 3.2.72 3.2s0 .1-.11.08.29.48.3.62.37 1.22.36 1.37c-.00884858.1673887-.04255082.3325297-.1.49 0 0 .23.68.19.79s-.48.1-.48.1h-.12s0 .14-.07.15-.71 0-.71 0-.18.28-.29.27-.24-.2-.28-.17.1.21.06.27-.57.17-.68-.08.06-.19 0-.24-.28-.19-.35-.15.19.11.18.21-.23.27-.32.27-.29-.39-.58-.35c-.16705431.0228913-.33127237.063108-.49.12-.15710265.0726382-.32704246.1134238-.5.12-.1084984-.0163329-.19366712-.1015016-.21-.21.04049471-.1381975.07387192-.2783818.1-.42 0-.08-.1-.17-.1-.3.05618952-.1959962.13682314-.3841413.24-.56v-2s-.22 0-.23-.14.34-3.09.39-3.28.19-.87.19-.87-.16.07-.17 0 .48-1.76.48-1.76.08-.84.08-1.06c.00976092-.17653184.00976092-.35346816 0-.53 0 0-.44-.18-.45-.47 0-.45.41-.7.47-.85l.21-.59c.12195005-.25675301.34740131-.44947747.62-.53z" fill="#fff"/><path d="m3.11 15.29s-1 .54-1.18.58-.24-.18-.1-.22c.12502518-.0292851.25203415-.0493391.38-.06-.11816141-.0908587-.2316404-.1876496-.34-.29l.49-.18s.15.28.24.25c.1317019-.0623039.25584258-.1394724.37-.23z" fill="#fcea83" stroke="#fcea83" stroke-linecap="round" stroke-linejoin="round" stroke-width=".05"/><path d="m4.56 15.59c.1.13.14.34.36.22s-.11-.36-.11-.36z" fill="#ffc6b5" stroke="#ffc6b5" stroke-linecap="round" stroke-linejoin="round" stroke-width=".05"/><path d="m5 15.57c.05694013.0509288.14305987.0509288.2 0 .1-.1-.19-.3-.19-.3l-.14.16z" fill="#ffc6b5" stroke="#ffc6b5" stroke-linecap="round" stroke-linejoin="round" stroke-width=".05"/></g><g stroke-linecap="round" stroke-linejoin="round"><path d="m3.13.29h.17c.02 0-.13.04-.17 0z" stroke="#51c161" stroke-width=".09"/><path d="m5.42 2.82c.15219637.43313532.28236303.8736994.39 1.32.08604455.48864653.12954091.98383583.13 1.48-.05.15-.59.86-.66 1s-.45.87-.45.87c-.02913857.23978819-.0759323.47709924-.14.71 0 0 .11.2.1.25s-.31.36-.44.33-.33-.18-.34-.32c-.01693793-.24191678.02065312-.48454988.11-.71.1-.12.59-1.3.63-1.37.18054413-.37655759.3375133-.76397087.47-1.16-.01921847-.24456073-.11750038-.47622521-.28-.66-.34-.95-.2-1.56.48-1.74z" fill="#ffc6b5" fill-rule="nonzero" stroke="#ffc6b5" stroke-width=".05"/></g></g></g></svg>