<svg height="48" viewBox="0 0 71 48" width="71" xmlns="http://www.w3.org/2000/svg"><g fill="none"><rect fill="#fff" height="47" rx="6.64" width="70" x=".39" y=".1"/><path d="m23.85 31.15s-.05-.35.62-.61.72-1.22.59-1.86c-.1871542.3284685-.4514223.6064649-.77.81-.3827102.2029316-.6489329.5726854-.72 1-.0048453.1516336-.0249467.3023941-.06.45-.2097189-.5315308-.1180953-1.1347195.24-1.58.6423009-.6799135.7603368-1.7015347.29-2.51-.0331335.4216574-.2136931.8181805-.51 1.12-.47.41-.53.44-.52 1.41 0 0 0 .34-.17.45-.1892886-.2730889-.3438123-.5686993-.46-.88-.1-.35-.14-.5.27-.91 0 0 1.33-.86.37-2.74-.0356592.3820079-.2099659.7377358-.49 1-.46.38-.42.64-.44 1.3s-.07.62-.12.71-.85-1.55-.19-2.38 1-1 .3-2.54c.0143001.4561094-.1854826.8926715-.54 1.18-.58.39-.44 1.3-.44 1.3.0193355.2002073-.0080494.4021705-.08.59 0 0-.81-1.59 0-2.44.6207186-.5841496.764948-1.5154595.35-2.26-.0361373.2875233-.1832831.5495145-.41.73-.36.26-.65.52-.59 1.51.0189407.2980139-.0012309.597225-.06.89-.1788522-.3182241-.3262175-.6531452-.44-1-.1345373-.3551933-.089875-.7534324.12-1.07.8106023-.9463999.8357705-2.3348441.06-3.31-.0371903.3702348-.1531151.7282378-.34 1.05-.2162631.488417-.2517099 1.0378428-.1 1.55.0290107.3057142-.0263274.6135322-.16.89-.310467-.6189077-.4519063-1.3088557-.41-2 .1295733-1.0702333-.3996305-2.1128438-1.34-2.64 0 0-.73 1.7.27 2.57.5099304.5221658.8782109 1.1657961 1.07 1.87 0 0-.65-.06-1.23-1.2-.3592921-.6903144-1.1067616-1.0879046-1.88-1 .1774356 1.0987907.9909743 1.987002 2.07 2.26 0 0 1.19.2 1.42 1.08 0 0 .2.6.28.92-.3002187-.147474-.5531108-.3761161-.73-.66-.35-.52-.3-.58-1.48-.69-.2827223-.0367177-.5423099-.1754015-.73-.39 0 0 .5 1.87 1.77 1.85 0 0 1.16-.12 1.82 1.41l-.3-.2c-.4389993-.2512482-.9547993-.3330648-1.45-.23-.4347974.0907422-.8866317.05251-1.3-.11 0 0 .86 1.58 2.08 1.11s1.8 1.24 1.82 1.27c-.1328688-.1062047-.2597311-.2197131-.38-.34-.4187554-.3610599-1.0116877-.439594-1.51-.2-.3976163.1213337-.8223837.1213337-1.22 0 .388195.7226537 1.18896 1.1230363 2 1 .7463017-.1504466 1.4878804.2782116 1.73 1-.1073808-.0638308-.2108947-.1339531-.31-.21-.13-.1-.59-.37-1.59-.07s-1.36 0-1.36 0c.3467791.5972814.9397007 1.0108626 1.62 1.13.2862799.0002082.5715849-.0333571.85-.1.5011508-.2100027 1.0808105-.0335845 1.38.42-.1101829.010409-.221072-.0103827-.32-.06-.4243333-.1413742-.8909607-.0667138-1.25.2-.3105787.2948905-.7336713.4407845-1.16.4.6581226.5156287 1.5675335.567481 2.28.13 0 0 .47-.34.82-.08s1.07-.29 1.07-.29z" fill="#55a963"/><path d="m42.65 23c.4864912.416114 1.2035088.416114 1.69 0 .2428415.2441104.5941899.3461148.93.27.62-.11.73-.44.79-.62.3037038.1795306.6742463.2054686 1 .07.2494605-.1120873.4207483-.3480837.45-.62.4387438.0883389.8920781-.055217 1.2-.38.41-.54.16-1.07-.06-1.13 0 0 .86.22 1.09-.51.1298142-.3374687.0291105-.7201431-.25-.95.8798038.0132916 1.7502403-.1820426 2.54-.57 0 0 .61-.39.25-.79 0 0 1.62-.26 2-.91.115471-.1350466.1600013-.3168786.12-.49-.0050226-.1027818-.0872182-.1849774-.19-.19.8531412-.1083781 1.6686166-.4167512 2.38-.9.1549-.1825484.2041024-.4323451.13-.66-.0154109-.059614-.0389659-.1168191-.07-.17.9043231-.1872984 1.7593633-.5620172 2.51-1.1.275207-.2542072.3664928-.6511018.23-1 0 0 2.81-.77 2.16-2 0 0 1.31-.43.9-1.61 0 0 1.09-.55.61-1.43s-1.85.15-3.5.6c0 0-4.47 1.41-6.67 1.78l-6.25 9.31-3.65 1.41z" fill="#f5bb43"/><path d="m42.61 16.16c.5161172-.2777168 1.1435583-.2469222 1.63.08.1861002.1416893.4438998.1416893.63 0 .1232375-.1165559.1870032-.2826888.1733992-.4517678-.0136041-.1690789-.1031116-.3228794-.2433992-.4182322-.4384753-.3842466-.6797575-.9461095-.6564555-1.5286582.0233019-.5825488.3086905-1.1233448.7764555-1.4713418 0 0 1.72-1 8-2.63.2625372-.07751812.5373709-.10466219.81-.08.2810629.06948686.5005131.28893713.57.57.0807982.2559288.0553323.5335937-.0706713.7705557s-.341968.4133302-.5993287.4894443c-.2827517.1254254-.5733657.2323179-.87.32.2886334-.0558552.5768111.0986748.69.37.2.46-.09.93-1 1.23-.1895862.0714677-.3832628.1315742-.58.18 0 0 .76.22.4.83-.3373026.4824863-.891343.7669935-1.48.76 0 0 .86.09.25.91-.2733868.3437694-.6732433.5635103-1.11.61 0 0 .64 0 .32.59-.4195302.5898475-1.0962062.9430575-1.82.95-.2259983.0246159-.4540017.0246159-.68 0 0 0 .71.35.29.95-.2731905.2952659-.6701127.443648-1.07.4.1172407.3505169-.034688.7345589-.36.91-.2684723.1099222-.5755941.0638539-.8-.12.1081595.4088137-.1006541.8349639-.49 1-.2536928.1007707-.5363072.1007707-.79 0 0 0-.36.81-1.65.24s-.27-5.46-.27-5.46z" fill="#f5bb43"/><path d="m26.28 29.49s-.75 1.29-1.66 1.31c0 0-1.56-.19-2 .22-.4070921.2996131-.6772083.7498067-.75 1.25-.13.73.25.88.34.92.0121353.135082.0845479.2574858.1970961.3331648.1125483.075679.253226.0965601.3829039.0568352 0 0 0 .54.94.28s1.29-.18 1.46-1.08.34-.89.5-1 .63-.28.93-.46c.5270401-.3061565 1.087342-.5510789 1.67-.73.36 0 .28-1.24.28-1.24h-.92l-.44-.66z" fill="#f5bb43"/><path d="m50.77 20.86.15 4.88-.86-.5-1.43 6.19-.59-.42 1.39-5.93-.97.02z" fill="#3cafda"/><path d="m56.34 23.03-2.04 4.39-.53-.87-4.31 5.09-.46-.52 4.28-5.03-.86-.46z" fill="#3cafda"/><path d="m22.84 19.63.59 1.79 3.03-.47v-1.28z" fill="#f4c53d"/><path d="m54.48 19.82-1.05 4.75-.71-.72-3.85 7.41-.59-.35 3.87-7.39-.94-.25z" fill="#3cafda"/><g fill="#f5bb43"><path d="m29.18 23c-.4864912.416114-1.2035088.416114-1.69 0-.2428415.2441104-.5941899.3461148-.93.27-.62-.11-.73-.44-.79-.62-.3037038.1795306-.6742463.2054686-1 .07-.2494605-.1120873-.4207483-.3480837-.45-.62-.4387438.0883389-.8920781-.055217-1.2-.38-.41-.54-.16-1.07.06-1.13 0 0-.86.22-1.09-.51-.1298142-.3374687-.0291105-.7201431.25-.95-.8798038.0132916-1.7502403-.1820426-2.54-.57 0 0-.61-.39-.25-.79 0 0-1.62-.26-2-.91-.115471-.1350466-.1600013-.3168786-.12-.49.0050226-.1027818.0872182-.1849774.19-.19-.8531412-.1083781-1.6686166-.4167512-2.38-.9-.1549-.1825484-.2041024-.4323451-.13-.66.0154109-.059614.0389659-.1168191.07-.17-.9043231-.1872984-1.7593633-.5620172-2.51-1.1-.275207-.2542072-.3664928-.6511018-.23-1 0 0-2.81-.77-2.16-2 0 0-1.31-.43-.9-1.61 0 0-1.09-.55-.61-1.43s1.85.15 3.5.6c0 0 4.47 1.41 6.67 1.78l6.25 9.31 3.65 1.41z"/><path d="m29.22 16.16c-.5161172-.2777168-1.1435583-.2469222-1.63.08-.1861002.1416893-.4438998.1416893-.63 0-.1232375-.1165559-.1870032-.2826888-.1733992-.4517678.0136041-.1690789.1031116-.3228794.2433992-.4182322.4384753-.3842466.6797575-.9461095.6564555-1.5286582-.0233019-.5825488-.3086905-1.1233448-.7764555-1.4713418 0 0-1.72-1-8-2.63-.2625372-.07751812-.5373709-.10466219-.81-.08-.2810629.06948686-.5005131.28893713-.57.57-.0807982.2559288-.0553323.5335937.0706713.7705557s.341968.4133302.5993287.4894443c.2827517.1254254.5733657.2323179.87.32-.2886334-.0558552-.5768111.0986748-.69.37-.2.46.09.93 1 1.23.1895862.0714677.3832628.1315742.58.18 0 0-.76.22-.4.83.3373026.4824863.891343.7669935 1.48.76 0 0-.86.09-.25.91.2733868.3437694.6732433.5635103 1.11.61 0 0-.64 0-.32.59.4195302.5898475 1.0962062.9430575 1.82.95.2259983.0246159.4540017.0246159.68 0 0 0-.71.35-.29.95.2731905.2952659.6701127.443648 1.07.4-.1172407.3505169.034688.7345589.36.91.2684723.1099222.5755941.0638539.8-.12-.1081595.4088137.1006541.8349639.49 1 .2536928.1007707.5363072.1007707.79 0 0 0 .36.81 1.65.24s.27-5.46.27-5.46z"/><path d="m29.3 23.54c-.3064634.92582-.8980353 1.7309179-1.69 2.3-.641075.5642416-1.0447943 1.3502438-1.13 2.2 0 1.2-.21 1.33-.66 1.74.5231747.0396193 1.0355797-.1631309 1.39-.55 0 0 0 1-.16 1.13s.29 0 .72-.45c.1426567-.1485625.3080612-.2734597.49-.37-.1584066.4434828-.1793179.9244423-.06 1.38.0737792-.1865322.2345495-.3248695.43-.37.4852188-.1643959.8394332-.5840629.92-1.09 0 0 .17-.64 1.21-1.2 0 0 1.18-.44 1.15-1s-2.61-3.72-2.61-3.72z"/><path d="m45.55 29.49s.75 1.29 1.66 1.31c0 0 1.56-.19 2 .22.4070921.2996131.6772083.7498067.75 1.25.13.73-.25.88-.34.92-.0121353.135082-.0845479.2574858-.1970961.3331648-.1125483.075679-.253226.0965601-.3829039.0568352 0 0 0 .54-.94.28s-1.29-.18-1.46-1.08-.34-.89-.5-1-.63-.28-.93-.46c-.5270401-.3061565-1.087342-.5510789-1.67-.73-.36 0-.28-1.24-.28-1.24h.92l.44-.66z"/><path d="m42.53 23.54c.3064634.92582.8980353 1.7309179 1.69 2.3.641075.5642416 1.0447943 1.3502438 1.13 2.2 0 1.2.21 1.33.66 1.74-.5231747.0396193-1.0355797-.1631309-1.39-.55 0 0 0 1 .16 1.13s-.29 0-.72-.45c-.1426567-.1485625-.3080612-.2734597-.49-.37.1584066.4434828.1793179.9244423.06 1.38-.0737792-.1865322-.2345495-.3248695-.43-.37-.4852188-.1643959-.8394332-.5840629-.92-1.09 0 0-.17-.64-1.21-1.2 0 0-1.18-.44-1.15-1s2.61-3.72 2.61-3.72z"/><path d="m37.08 36.64s.27 1.19 1.21 1.09c0 0 .66-.06.61-1.17 0 0 1 .52 1.14-.77 0 0 .89.21.88-1 0 0 .83.15.73-.93.2301057.0773334.4839215.0280599.668378-.129753.1844566-.1578128.2724147-.4009458.231622-.640247 0 0 2.11-.35-2.28-4.35l-3.91 2.33z"/><path d="m36.64 31.31c.1701973.1630417.4126841.2263249.6408495.1672464.2281654-.0590786.409468-.232093.4791505-.4572464 0 0 .63 0 .73-.51.2966487-.0338351.5404343-.2496453.61-.54 0 0 .7-.07.68-.67 0 0 1.28-.1 0-1.54s-3.44 2.4-3.44 2.4z"/><path d="m34.75 36.64s-.27 1.19-1.21 1.09c0 0-.66-.06-.61-1.17 0 0-1 .52-1.14-.77 0 0-.89.21-.88-1 0 0-.83.15-.73-.93-.2301057.0773334-.4839215.0280599-.668378-.129753-.1844566-.1578128-.2724147-.4009458-.231622-.640247 0 0-2.11-.35 2.28-4.35l3.91 2.33z"/><path d="m35.19 31.31c-.1701973.1630417-.4126841.2263249-.6408495.1672464-.2281654-.0590786-.409468-.232093-.4791505-.4572464 0 0-.63 0-.73-.51-.2966487-.0338351-.5404343-.2496453-.61-.54 0 0-.7-.07-.68-.67 0 0-1.28-.1 0-1.54s3.44 2.4 3.44 2.4z"/><path d="m35.92 30.95c.63 0 1.35 4 1.16 6.33-.07.86-.53 1.57-1.16 1.57s-1.1-.71-1.16-1.57c-.19-2.38.53-6.33 1.16-6.33"/><ellipse cx="35.92" cy="30.92" rx="1" ry="1.3"/></g><path d="m35.92 30.63s7.42-3.29 7.44-10.9h-14.88c.01 7.62 7.44 10.9 7.44 10.9z" fill="#fff"/><g fill="#ec5565"><path d="m29.62 19.74v4.86c.3256567.6422183.7071242 1.254574 1.14 1.83v-6.7z"/><path d="m31.91 19.74v8s.72.7 1.14 1v-9.05z"/><path d="m34.2 19.74v9.91s.82.53 1.14.7v-10.61z"/><path d="m42.21 19.74v4.86c-.3257017.6421929-.7071668 1.2545448-1.14 1.83v-6.7z"/><path d="m39.92 19.74v8s-.72.7-1.14 1v-9.05z"/><path d="m37.63 19.74v9.91s-.82.53-1.14.7v-10.61z"/></g><path d="m47.92 33.52-.29 1.18.79.79-1.12 4.72-1-1.33-1.47.69 1.12-4.72 1-.29.27-1.18c.2413853-.084756.5097813-.0310768.7.14z" fill="#3cafda"/><path d="m48.18 32.74-.57 1.06.57 1-2.24 4.25-.63-1.56-1.59.26 2.24-4.25h1.04l.55-1.06c.2462093-.008011.48103.1038084.63.3z" fill="#3cafda"/><path d="m48.28 33.05-1.51 1.92.35 1.09-3.09 3.61-.28-1.67-1.61-.12 3.09-3.61 1 .26 1.6-2s.47.17.45.52z" fill="#3cafda"/><path d="m23.69 33.31s0-.63.78-.68l2.36 3.28s-.09.21-1.16.19c-.0746523.0050511-.1402415.0513494-.17.12-.6780798-.9214618-1.2832487-1.8944129-1.81-2.91z" fill="#55a963"/><path d="m39.82 13.59c-.17.22-.86.3-.86.3.4339956.357847.7767439.8137022 1 1.33.31.78-8.25 0-8.25 0 .2607249-.2080017.4724108-.470902.62-.77-.2764683.0747251-.5713576-.0145178-.76-.23 0 0 .28.09.65-.47.2599187-.344929.5739845-.6454867.93-.89 0 0-.18.11-.61-.12 0 0 .74-.09 1-1.36.0612864-.2502795.1736361-.4851924.33-.69.28-.41.22.08.74-.55 0 0 .24-.44 0-.71s-.43-.17-.86-.43-.63-.41-.48-.81c.0882165-.24139459.33691-.38470949.59-.34.05 0 .08-.35.56-.59.6285316-.17134512 1.2914684-.17134512 1.92 0 .6522714.25801653 1.1597622.78741339 1.39 1.45.44 1.12-.12 1.55 1.09 3.24-.2639453.0538776-.5360547.0538776-.8 0 .4370737.7023723 1.0600898 1.2700092 1.8 1.64z" fill="#f4c53d"/><path d="m32.97 12.7.13.64 5.85-.29-.86-1.11z" fill="#f4c53d"/><path d="m36.24 9c-.1255057-.06931427-.2346391-.164806-.32-.28-.0986883-.14630772-.2534115-.24537063-.4275919-.27376962-.1741805-.02839898-.3523572.01638677-.4924081.12376962-.125055.14253828-.2880589.24658332-.47.3.1575162.05141437.3035516.13292251.43.24.1551497.1763383.3865584.26591584.62.24.26 0 .3-.17.42-.25.0723152-.04940339.1540005-.08343895.24-.1z" fill="#f5bb43"/><path d="m36.24 9c-.1255057-.06931427-.2346391-.164806-.32-.28-.0986883-.14630772-.2534115-.24537063-.4275919-.27376962-.1741805-.02839898-.3523572.01638677-.4924081.12376962-.125055.14253828-.2880589.24658332-.47.3.1575162.05141437.3035516.13292251.43.24.1551497.1763383.3865584.26591584.62.24.26 0 .3-.17.42-.25.0723152-.04940339.1540005-.08343895.24-.1z" fill="#010002"/><path d="m43.36 14.21c-2.3702762 1.1049589-5.1194184 1.0458376-7.44-.16-2.3205816 1.2058376-5.0697238 1.2649589-7.44.16v5.53h14.88z" fill="#4658a9"/><path d="m9.94 28.54c.36-.15.62-.29.62-.67-.0261852-.2084604-.0765233-.4131686-.15-.61l-2.42-7.4c-.08189733-.2731091-.18212486-.5403825-.3-.8-.11-.21-.32-.29-.61-.41h3.08c-.33.16-.64.28-.64.64.01319707.19467.05358927.3865329.12.57l1.86 5.81 1.85-5.81c.0676024-.1831257.1080311-.375162.12-.57 0-.36-.32-.5-.63-.64h3c-.2480062.0542795-.4660832.2008558-.61.41-.1179315.2595941-.2181605.5268714-.3.8l-2.42 7.4c-.0673339.2020843-.1175116.4094854-.15.62 0 0-.11.47.62.67z" fill="#3cafda"/><path d="m61.55 27.78v-8.38c.0065986-.1142807-.0175745-.2282396-.07-.33-.1427195-.1864212-.3325777-.3314038-.55-.42h2.77c-.2221073.0802095-.4141375.2268508-.55.42-.0532534.105057-.0774228.2224509-.07.34v8.38c-.0074228.1175491.0167466.234943.07.34.1483481.1806892.3366254.3244646.55.42h-2.77c.2143429-.0939.4029747-.2379461.55-.42.0550362-.1080232.0792553-.2291185.07-.35z" fill="#3cafda"/><path d="m31.65 10s-.16-1.45 1-1.59c.6034632-.10835607 1.2240999-.07063782 1.81.11l.54 1.07-.19.72-.75.34s.13-1.1-.88-1.13c-.2690239.03246904-.5409761.03246904-.81 0-.37-.04-.63.41-.72.48z" fill="#f4c53d"/></g></svg>