<svg height="48" viewBox="0 0 71 48" width="71" xmlns="http://www.w3.org/2000/svg"><g fill="none"><rect fill="#57a863" height="47" rx="6.36" width="70" x=".63" y=".98"/><path d="m64.27 1h-57.27c-3.51253101 0-6.36 2.84746787-6.36 6.35999749v13.63999461h70v-13.6499946c-.0026501-1.68677686-.6752625-3.30341475-1.8698696-4.49427073-1.1946072-1.19085599-2.8133529-1.85838102-4.5001304-1.85572677z" fill="#ed5565"/><path d="m31.21 22h39.43v-2.5h-38.78l-29.41-16.6c-.58790412.603049-1.0501805 1.31685811-1.36 2.1z" fill="#434a54"/><path d="m31.21 27-30.12 17c.31005643.7830198.77230419 1.4967847 1.36 2.1l29.42-16.58h38.77v-2.52z" fill="#434a54"/><path d="m31.21 22-30.12-17c-.29654999.74454717-.44924648 1.53856889-.45 2.34v34.27c.00075352.8014311.15345001 1.5954528.45 2.34l30.12-17h39.43v-5z" fill="#ffce54"/><path d="m.62 24.48.11-15.51 26.91 15.51-26.91 15.52z" fill="#434a54"/></g></svg>