<svg height="48" viewBox="0 0 71 48" width="71" xmlns="http://www.w3.org/2000/svg"><g fill="none"><rect fill="#fff" height="47" rx="6.64" width="70" x=".25" y=".68"/><path d="m64.41.73h-58.32c-2.94937931.36373371-5.29794254 2.64286116-5.75 5.58v35.69c.49388474 3.2419958 3.28060151 5.6378925 6.56 5.64h56.72c3.6671707 0 6.64-2.9728293 6.64-6.64v-33.68c-.0014359-3.360525-2.513344-6.19017877-5.85-6.59z" fill="#ed5565"/><path d="m25.22.68h-18.4c-3.63980479.03837356-6.57020228 2.99999294-6.57 6.64v17.33h25z" fill="#4658a9"/><g fill="#fff"><path d="m9.64 9.66c-.21.15-.32.07-.27-.19l.22-.93c.05108529-.27746426-.0388298-.56219537-.24-.76l-.67-.59c-.19-.17-.14-.31.11-.32h.94c.270922-.02164812.5029329-.20253795.59-.46l.29-1c.07-.25.2-.25.28 0l.35 1c.0995508.25507507.3369056.43017287.61.45h1c.25 0 .3.14.11.31l-.73.65c-.2004882.19784937-.2837979.48564676-.22.76l.23.82c.07.25 0 .34-.26.21l-.78-.49c-.233984-.14002625-.526016-.14002625-.76 0z"/><path d="m17.34 12.27c-.2.15-.32.07-.27-.19l.22-.93c.0492995-.2773508-.0403569-.5612627-.24-.76l-.67-.59c-.19-.17-.14-.31.11-.32h.94c.2696596-.02983668.4947083-.21935143.57-.48l.29-1c.07-.25.2-.25.28 0l.35 1c.0995508.25507507.3369056.43017287.61.45h1c.25 0 .3.14.11.31l-.73.65c-.1987846.1988594-.2818183.4857029-.22.76l.23.82c.07.25 0 .34-.26.21l-.78-.49c-.233359-.1422698-.526641-.1422698-.76 0z"/><path d="m5.8 16.83c-.21.15-.32.07-.26-.19l.22-.93c.04929952-.2773508-.04035686-.5612627-.24-.76l-.67-.59c-.19-.17-.14-.31.11-.32h.94c.27193244-.0190315.50522412-.2009199.59-.46l.29-1c.07-.25.2-.25.28 0l.35 1c.09955082.2550751.33690562.4301729.61.45h1c.25 0 .3.14.11.31l-.73.65c-.19878463.1988594-.28181827.4857029-.22.76l.23.82c.07.25 0 .34-.26.21l-.78-.49c-.23335897-.1422698-.52664103-.1422698-.76 0z"/><path d="m15.09 20.11c-.15.11-.23 0-.19-.13l.16-.67c.0353489-.1969888-.02818-.3987866-.17-.54l-.48-.42c-.14-.12-.1-.22.08-.23h.67c.1939263-.0147539.3597833-.1450702.42-.33l.21-.73c.05-.18.14-.18.2 0l.25.72c.0727741.1825229.2439343.3070031.44.32h.68c.18 0 .22.1.08.22l-.52.46c-.143013.1402884-.2035045.3444472-.16.54l.17.59c0 .18 0 .24-.19.15l-.56-.35c-.1689872-.1025695-.3810128-.1025695-.55 0z"/></g></g></svg>