<svg height="48" viewBox="0 0 71 48" width="71" xmlns="http://www.w3.org/2000/svg"><g fill="none"><rect fill="#4758a9" height="47" rx="6.36" width="70" x=".39" y=".55"/><path d="m64 .55h-57.25c-3.51253101 0-6.36 2.84746899-6.36 6.36v13.64h70v-13.64c.0000188-1.6919876-.6741673-3.31424155-1.8733949-4.50783905-1.1992277-1.1935975-2.8246363-1.86014202-4.5166051-1.85216095z" fill="#ed5565"/><path d="m36.29 16-27.5-15.5h-2c-3.51253101 0-6.36 2.84746899-6.36 6.36v34.27c0 3.512531 2.84746899 6.36 6.36 6.36h2l27.5-15.5h34.09v-15.99zm-1.29 11-30.56 17.22c-.97194987-.7250024-1.54316804-1.8674387-1.54-3.08v-34.23c-.00316804-1.21256131.56805013-2.35499765 1.54-3.08l30.56 17.17h32.91v6z" fill="#fff"/><path d="m4.46 1c-2.4553318.94288163-4.076992 3.29985344-4.08 5.93v34.27c.003008 2.6301466 1.6246682 4.9871184 4.08 5.93l31.17-17.57h34.75v-11h-34.74z" fill="#57a863"/><path d="m.39 7.47v3.02l24.02 13.56-24.02 13.56v3.02l29.02-16.58z" fill="#ffce54"/><path d="m24.41 24.05-24.02-13.56v13.56 13.56z" fill="#434a54"/></g></svg>