<svg height="47" viewBox="0 0 71 47" width="71" xmlns="http://www.w3.org/2000/svg"><g fill="none"><g fill="#52c162"><path d="m1.46 43.24c-.07-.15-.13-.31-.19-.47.06.16.13.31.19.47z"/><path d="m1.22 42.62c0-.15-.09-.31-.13-.46.04.15.08.31.13.46z"/><path d="m1 42c0-.16-.06-.32-.08-.48.08.14.08.3.08.48z"/><path d="m.94 41.31c-.01206906-.226506-.01206906-.453494 0-.68-.01199387.226508-.01199387.453492 0 .68z"/><path d="m2.56 44.91c-.14-.15-.27-.31-.39-.48.12.1666667.25.3266667.39.48z"/><path d="m1.77 43.83c-.09-.15-.17-.31-.25-.48.08.16.16.32.25.48z"/><path d="m70.9 40.64v-.37h-61.83l-6 5.11c-.16-.1466667-.31333333-.2966667-.46-.45 1.19517685 1.3117693 2.88542077 2.0625858 4.66 2.07h57.27c3.512531 0 6.36-2.847469 6.36-6.36z"/><path d="m2.14 44.39c-.11-.15-.22-.32-.32-.48.12.1666667.22666667.3266667.32.48z"/></g><path d="m9.07 40.27h61.83v-6.74h-53.87z" fill="#f6bb42"/><path d="m17.03 33.53h53.87v-6.73h-45.9z" fill="#ed5565"/><path d="m28.9 23.5-3.9 3.3h45.9v-6.73h-46.05z" fill="#434a54"/><path d="m24.85 20.07h46.05v-6.73h-54.01z" fill="#ed5565"/><path d="m16.89 13.34h54.01v-6.73h-61.98z" fill="#f6bb42"/><g fill="#52c162"><path d="m1.28 4.23c.06-.16.12-.32.19-.47-.07.16-.14.31-.19.47z"/><path d="m1.09 4.84c0-.16.08-.31.13-.46-.05.15-.09.31-.13.46z"/><path d="m.9 6.36c-.01206906-.22650601-.01206906-.45349399 0-.68-.01199387.22650801-.01199387.45349199 0 .68z"/><path d="m1 5.51c0-.16 0-.32.08-.48-.08.15-.08.31-.08.48z"/><path d="m1.82 3.09c.1-.16.21-.33.32-.48-.09333333.15333333-.2.31333333-.32.48z"/><path d="m1.52 3.65c.08-.16.16-.32.25-.48-.09.16-.17.31-.25.48z"/><path d="m8.92 6.61h62v-.25c.0000084-1.69024782-.6728059-3.31097704-1.8698664-4.50428499-1.1970605-1.19330796-2.8198941-1.86103025-4.5101336-1.85571501h-57.27c-1.7900521-.00126173-3.49722066.75425117-4.7 2.08.14666667-.16.3-.31.46-.45z"/><path d="m2.17 2.57c.12-.16.25-.32.39-.48-.14.15333333-.27.31333333-.39.48z"/></g><path d="m9.07 40.27h-8.17v.37c-.01206906.226506-.01206906.453494 0 .68v.18c0 .06 0 .32.08.48s0 .12 0 .18.08.31.13.46l.06.15c.06.16.12.32.19.47l.05.11c.08.16.16.32.25.48v.08c.1.16.21.33.32.48.12.16.25.32.39.48.14666667.16.3.31.46.45z" fill="#fff"/><path d="m17.03 33.53h-16.13v6.74h8.17z" fill="#fff"/><path d="m25 26.8h-24.1v6.73h16.13z" fill="#fff"/><path d="m28.9 23.5-4.05-3.43h-23.95v6.73h24.1z" fill="#fff"/><path d="m16.89 13.34h-15.99v6.73h23.95z" fill="#fff"/><path d="m8.92 6.61h-8.02v6.73h15.99z" fill="#fff"/><path d="m3 1.62c-.16.14666667-.31333333.29666667-.46.45-.14.15-.27.31-.39.48-.11.15-.22.32-.32.48v.08c-.09.15-.17.31-.25.48l-.06.11c-.07.15-.13.31-.19.47l-.06.15c0 .15-.09.31-.13.46s0 .12 0 .18-.06.32-.08.48 0 .12 0 .18c-.01206906.22650601-.01206906.45349399 0 .68v.24h8z" fill="#fff"/><path d="m8.73 26.16c-.12462054-.6451081-.07279785-1.3118934.15-1.93l.83-2.29c.19512289-.5688704.11242211-1.1963022-.22343952-1.6951844-.33586164-.4988822-.8860763-.8115704-1.48656048-.8448156l.69-.83c.29774082-.3575933.76071597-.5335785 1.22081243-.4640528.46009647.0695257.85040067.3744509 1.02918757.8040528l.58 1.41 4.64 3.28c.0886749.0631865.128585.1749349.1.28l-1 4.1c-.0275397.1161525-.1306352.1986289-.25.2h-5.68c-.12613767.0023505-.23576044-.086191-.26-.21z" fill="#f6bb42"/></g></svg>